<svg width="445" height="550" viewBox="10 -130 215 550" fill="none" xmlns="http://www.w3.org/2000/svg">
    <g class="invisible" id="Anim1">
        <g id="Pillar">
        <g id="Rectangle 2">
        <mask id="path-1-inside-1_0_1" fill="white">
        <path d="M10.0001 19.9999H28.0001V381H10.0001V19.9999Z"/>
        </mask>
        <path d="M10.0001 19.9999H28.0001V381H10.0001V19.9999Z" fill="#A45931"/>
        <path d="M10.0001 19.9999H28.0001V381H10.0001V19.9999Z" fill="black" fill-opacity="0.2"/>
        <path d="M28.0001 19.9999H29.0001V18.9999H28.0001V19.9999ZM28.0001 381V382H29.0001V381H28.0001ZM10.0001 20.9999H28.0001V18.9999H10.0001V20.9999ZM27.0001 19.9999V381H29.0001V19.9999H27.0001ZM28.0001 380H10.0001V382H28.0001V380Z" fill="black" mask="url(#path-1-inside-1_0_1)"/>
        </g>
        <g id="Polygon 3">
        <mask id="path-3-inside-2_0_1" fill="white">
        <path d="M28 19.9999L19 18.9999H4L10 19.9998L28 19.9999Z"/>
        </mask>
        <path d="M28 19.9999L19 18.9999H4L10 19.9998L28 19.9999Z" fill="#A45931"/>
        <path d="M19 18.9999L19.1104 18.006L19.0554 17.9999H19V18.9999ZM28 19.9999L28 20.9999L28.1104 19.006L28 19.9999ZM4 18.9999V17.9999L3.83562 19.9863L4 18.9999ZM10 19.9998L9.83562 20.9862L9.91724 20.9998L9.99999 20.9998L10 19.9998ZM18.8896 19.9938L27.8896 20.9938L28.1104 19.006L19.1104 18.006L18.8896 19.9938ZM4 19.9999H19V17.9999H4V19.9999ZM3.83562 19.9863L9.83562 20.9862L10.1644 19.0134L4.16438 18.0135L3.83562 19.9863ZM9.99999 20.9998L28 20.9999L28 18.9999L10 18.9998L9.99999 20.9998Z" fill="black" mask="url(#path-3-inside-2_0_1)"/>
        </g>
        <path id="Polygon 2" d="M4.50009 28.153V374.56L9.50009 379.759V20.4235L4.50009 19.5901V28.153Z" fill="#240C0C" stroke="black"/>
        </g>
        <g id="Top Pillar">
        <path id="Polygon 8" d="M27.5 91.2071L97.2071 21.5H101.787L27.5 95.2985V91.2071Z" fill="#240C0C" stroke="black"/>
        <path id="Polygon 5" d="M101.211 21H117L27 111V95.5L101.211 21Z" fill="#A45931"/>
        <path id="Polygon 7" d="M101.5 21.5H109H116L113.5 24H99L101.5 21.5Z" fill="#240C0C"/>
        <path id="Polygon 6" d="M27.5 95.4176L101.418 21.5H115.793L27.5 109.793V95.4176Z" stroke="black"/>
        <path id="Polygon 4" d="M0.499985 12.1531V19.1667L5.5 21.25L5.49998 4.42356L0.499985 3.59023V12.1531Z" fill="#240C0C" stroke="black"/>
        <g id="Rectangle 3">
        <mask id="path-11-inside-3_0_1" fill="white">
        <path d="M6 4H206V22H6V4Z"/>
        </mask>
        <path d="M6 4H206V22H6V4Z" fill="#A45931"/>
        <path d="M206 4H207V3H206V4ZM206 22V23H207V22H206ZM6 5H206V3H6V5ZM205 4V22H207V4H205ZM206 21H6V23H206V21Z" fill="black" mask="url(#path-11-inside-3_0_1)"/>
        </g>
        <rect id="Rectangle 4" x="10" y="22" width="17" height="2" fill="#240C0C"/>
        <g id="Polygon 3_2">
        <mask id="path-14-inside-4_0_1" fill="white">
        <path d="M206 3.99991L197 2.99991H0L6 3.99991H206Z"/>
        </mask>
        <path d="M206 3.99991L197 2.99991H0L6 3.99991H206Z" fill="#A45931"/>
        <path d="M197 2.99991L197.11 2.00602L197.055 1.99991H197V2.99991ZM206 3.99991V4.99991L206.11 3.00602L206 3.99991ZM0 2.99991V1.99991L-0.164399 3.9863L0 2.99991ZM6 3.99991L5.8356 4.9863L5.91724 4.99991H6V3.99991ZM196.89 3.99379L205.89 4.99379L206.11 3.00602L197.11 2.00602L196.89 3.99379ZM0 3.99991H197V1.99991H0V3.99991ZM-0.164399 3.9863L5.8356 4.9863L6.1644 3.01351L0.164399 2.01351L-0.164399 3.9863ZM6 4.99991H206V2.99991H6V4.99991Z" fill="black" mask="url(#path-14-inside-4_0_1)"/>
        </g>
        </g>
        </g>
    <g class="invisible" id="Anim2">
        <g id="Group 3">
        <path id="Vector 1" d="M170 23C180.815 23 177.725 2 170 2" stroke="#E6BB93" stroke-width="3"/>
        <path id="Vector 2" d="M170 2C168.5 2 168 2 168 3" stroke="#E6BB93" stroke-width="3"/>
        <path id="Vector 3" d="M170 23C168.5 23 168 23 168 22" stroke="#E6BB93" stroke-width="3"/>
        </g>
        <g id="Group 2">
        <path id="Vector 1_2" d="M169 23C176 23 174 2 169 2" stroke="#E6BB93" stroke-width="3"/>
        <path id="Vector 2_2" d="M169 2C167.5 2 167 2 167 3" stroke="#E6BB93" stroke-width="3"/>
        <path id="Vector 3_2" d="M169 23C167.5 23 167 23 167 22" stroke="#E6BB93" stroke-width="3"/>
        </g>
        <g id="Group 1">
        <path id="Vector 1_3" d="M174.369 23C186.159 23 182.79 2 174.369 2" stroke="#E6BB93" stroke-width="3"/>
        <path id="Vector 2_3" d="M174.369 2C171.842 2 171 2 171 3" stroke="#E6BB93" stroke-width="3"/>
        <path id="Vector 3_3" d="M174.369 23C171.842 23 171 23 171 22" stroke="#E6BB93" stroke-width="3"/>
        </g>
        <g id="Group 1_2">
        <path id="Vector 1_4" d="M162.919 23C166.134 23 165.216 2 162.919 2" stroke="#E6BB93" stroke-width="3"/>
        <path id="Vector 2_4" d="M162.919 2C162.23 2 162 2 162 3" stroke="#E6BB93" stroke-width="3"/>
        <path id="Vector 3_4" d="M162.919 23C162.23 23 162 23 162 22" stroke="#E6BB93" stroke-width="3"/>
        </g>
        <g id="Group 1_3">
        <path id="Vector 1_5" d="M165 23C172 23 170 2 165 2" stroke="#E6BB93" stroke-width="3"/>
        <path id="Vector 2_5" d="M165 2C163.5 2 163 2 163 3" stroke="#E6BB93" stroke-width="3"/>
        <path id="Vector 3_5" d="M165 23C163.5 23 163 23 163 22" stroke="#E6BB93" stroke-width="3"/>
        </g>
        <path id="Vector 4" d="M169 23.5C163 46.3 165.5 104.333 167.5 130.5" stroke="#E6BB93" stroke-width="3"/>
        </g>
    <g class="invisible" id="Anim3">
        <path id="Ellipse 1" d="M212.5 118.934C212.5 130.162 203.156 139.367 191.5 139.367C179.844 139.367 170.5 130.162 170.5 118.934C170.5 107.706 179.844 98.5 191.5 98.5C203.156 98.5 212.5 107.706 212.5 118.934Z" fill="white" stroke="<TMPL_VAR NAME="SKIN_COLOR">" stroke-width="5"/>
        <path id="Vector 5" d="M182.44 127.428C193.482 126.295 194.614 129.221 194.898 131.675" stroke="black" stroke-width="2"/>
        <path id="Vector 6" d="M182.723 112.705C186.97 112.705 190.367 111.289 192.633 109.307" stroke="black" stroke-width="2"/>
        <path id="Vector 7" d="M186.687 107.042C186.687 111.289 189.235 114.12 191.217 114.12" stroke="black" stroke-width="2"/>
        <path id="Vector 8" d="M196.596 117.801C200.843 118.367 204.644 117.404 207.306 115.999" stroke="black" stroke-width="2"/>
        <path id="Vector 9" d="M201.127 112.705C201.127 116.669 203.675 120.633 205.373 122.048" stroke="black" stroke-width="2"/>
        <TMPL_IF NAME="HAT_ONE">
            <g id="Crown">
            <g id="Group_41">
            <path id="Vector_166" d="M213.713 106.571C205.809 107.732 197.805 107.71 189.963 106.535C198.152 101.411 204.769 95.0453 209.609 88.1145C210.839 94.2907 212.207 100.445 213.713 106.571Z" fill="#C28D00"/>
            <path id="Vector_167" d="M173.547 102.276C181.027 105.081 188.853 106.753 196.767 107.262C189.847 100.523 184.725 92.9016 181.46 85.104C178.952 90.8805 176.314 96.606 173.547 102.276Z" fill="#C28D00"/>
            </g>
            <path id="Vector_168" d="M205.242 107.363C197.3 107.685 189.352 106.835 181.658 104.841C187.454 97.9788 192.177 90.55 195.76 82.7997C197.689 91.1576 200.855 99.4377 205.242 107.363Z" fill="#ECAB00"/>
            <g id="Group_42">
            <path id="Vector_169" d="M213.713 106.572C205.809 107.732 197.805 107.71 189.963 106.535C202.86 102.117 213.261 94.5926 220.411 85.7813C219.174 92.7449 216.941 99.7497 213.713 106.572Z" fill="#DB9F00"/>
            <path id="Vector_170" d="M173.547 102.276C181.027 105.081 188.853 106.753 196.767 107.262C185.096 100.217 176.521 90.6633 171.397 80.5392C171.133 87.607 171.834 94.9256 173.547 102.276Z" fill="#DB9F00"/>
            </g>
            </g>
            </g>
        </TMPL_IF>
        <TMPL_IF NAME="HAT_TWO">
            <g id="PirateHat">
            <path id="Vector_152" d="M235.856 70.9091C235.856 70.9091 213.972 75.0028 211.458 104.518C211.458 104.518 216.209 93.4711 224.843 91.1679C225.026 91.1193 224.829 87.8188 225.006 87.7611C225.176 87.7061 225.721 90.8951 225.886 90.8325C227.509 90.2185 228.903 89.2438 230.089 88.0344C230.259 87.8605 228.07 85.9789 228.232 85.7959C228.429 85.5721 230.976 87.0455 231.162 86.809C231.307 86.6231 230.131 85.7344 230.269 85.5415C230.441 85.3024 231.924 85.7572 232.084 85.508C235.061 80.874 236.077 74.6564 235.856 70.9091Z" fill="#C1272D"/>
            <path id="Vector_153" d="M232.457 74.8834C232.457 74.8834 232.062 75.2043 231.4 75.7976C230.738 76.3922 229.802 77.2516 228.73 78.3334C228.186 78.8669 227.619 79.4657 227.02 80.0993C226.419 80.7315 225.814 81.4236 225.179 82.1302C224.571 82.861 223.912 83.5886 223.3 84.3764C222.678 85.1554 222.043 85.9427 221.453 86.7645C221.152 87.171 220.852 87.5776 220.553 87.9822C220.27 88.3977 219.987 88.8113 219.707 89.2219C219.43 89.6353 219.139 90.0327 218.883 90.4471C218.626 90.8601 218.372 91.2677 218.122 91.6692C217.876 92.0726 217.617 92.4584 217.395 92.8552C217.172 93.2514 216.955 93.6388 216.744 94.016C216.532 94.3928 216.327 94.7591 216.128 95.1137C215.937 95.4723 215.77 95.8281 215.6 96.1641C215.267 96.8397 214.953 97.4543 214.692 98.0061C214.451 98.5672 214.242 99.0567 214.069 99.4597C213.724 100.264 213.527 100.724 213.527 100.724L213.507 100.771C213.317 101.214 212.803 101.42 212.359 101.23C211.915 101.039 211.709 100.525 211.9 100.082C211.905 100.068 211.913 100.052 211.919 100.039C211.919 100.039 212.148 99.5756 212.548 98.7643C212.748 98.3595 212.991 97.8676 213.27 97.3036C213.569 96.7506 213.925 96.1371 214.303 95.4632C214.495 95.1279 214.686 94.7738 214.901 94.4175C215.123 94.0659 215.354 93.7029 215.59 93.3297C215.827 92.9568 216.07 92.5736 216.318 92.182C216.565 91.7901 216.85 91.4109 217.122 91.0141C217.398 90.6203 217.679 90.2199 217.963 89.8146C218.245 89.4083 218.563 89.0202 218.865 88.6165C219.171 88.2161 219.48 87.8128 219.79 87.4075C220.114 87.0142 220.44 86.6191 220.766 86.2245C221.407 85.4268 222.09 84.6657 222.76 83.9148C223.419 83.1549 224.123 82.4568 224.773 81.7557C225.45 81.0792 226.095 80.417 226.732 79.8148C227.367 79.2113 227.968 78.6411 228.542 78.1358C229.675 77.1098 230.658 76.2999 231.351 75.7412C232.046 75.1825 232.457 74.8834 232.457 74.8834Z" fill="#AD171C"/>
            <g id="Group_37">
            <g id="Group_38">
            <path id="Vector_154" d="M230.88 100.897C227.756 98.3719 229.69 102.93 221.079 98.5501C212.468 94.1701 219.116 78.5055 205.749 74.206C192.381 69.9064 188.651 86.5097 179.101 85.0484C169.552 83.5871 173.78 81.0109 169.769 81.2417C168.252 81.3289 166.657 83.4527 166.111 86.3326C166.862 84.76 167.253 83.2023 168.298 83.1421C172.308 82.9112 168.769 86.0194 178.319 87.4807C187.869 88.9421 191.599 72.3387 204.966 76.6383C218.334 80.9379 211.685 96.6025 220.296 100.982C228.907 105.362 227.844 100.774 230.968 103.299C231.781 103.957 231.191 105.451 230.885 107.167C232.119 104.508 232.062 101.853 230.88 100.897Z" fill="#C5A34C"/>
            <path id="Subtract" fill-rule="evenodd" clip-rule="evenodd" d="M228.508 100.261C229.166 100.018 229.596 99.8595 230.88 100.897C234.004 103.423 229.281 117.828 213.553 112.769L213.095 112.622C214.059 109.626 206.846 104.625 196.985 101.453C187.124 98.2815 178.348 98.1396 177.384 101.136L176.927 100.989C161.198 95.9299 165.759 81.4725 169.769 81.2417C171.417 81.1468 171.674 81.526 172.067 82.1071C172.631 82.94 173.476 84.1876 179.101 85.0484C183.304 85.6916 186.38 82.8352 189.647 79.8019C193.801 75.9435 198.265 71.7988 205.749 74.2059C213.233 76.6131 214.443 82.5826 215.569 88.1396C216.455 92.5084 217.288 96.6223 221.079 98.5501C226.151 101.13 227.564 100.609 228.508 100.261Z" fill="#333333"/>
            </g>
            <g id="Group_39">
            <path id="Vector_155" d="M194.014 95.1207L208.16 87.5413C208.428 88.0411 209.05 88.2292 209.55 87.9612C210.05 87.6933 210.238 87.0712 209.97 86.5714C209.811 86.2747 209.527 86.0894 209.219 86.0423C209.35 85.7593 209.353 85.42 209.194 85.1233C208.926 84.6235 208.304 84.4354 207.804 84.7034C207.305 84.9714 207.116 85.5934 207.384 86.0932L193.238 93.6726C192.97 93.1728 192.348 92.9847 191.848 93.2527C191.348 93.5206 191.16 94.1427 191.428 94.6425C191.587 94.9392 191.871 95.1245 192.18 95.1716C192.048 95.4546 192.045 95.7939 192.204 96.0906C192.472 96.5904 193.094 96.7785 193.594 96.5105C194.094 96.2425 194.282 95.6205 194.014 95.1207Z" fill="#F2F2F2"/>
            <path id="Vector_156" d="M197.634 83.1456L205.213 97.292C205.713 97.024 206.335 97.2123 206.603 97.7119C206.871 98.2117 206.683 98.8342 206.183 99.1018C205.886 99.2606 205.548 99.2581 205.264 99.1261C205.217 99.4351 205.031 99.7187 204.735 99.8777C204.235 100.146 203.613 99.9574 203.345 99.4577C203.077 98.9579 203.265 98.3355 203.765 98.0679L196.186 83.9215C195.686 84.1895 195.063 84.0012 194.796 83.5016C194.528 83.0018 194.716 82.3793 195.216 82.1117C195.513 81.9529 195.851 81.9554 196.135 82.0874C196.182 81.7784 196.368 81.4948 196.664 81.3358C197.164 81.0678 197.786 81.2561 198.054 81.7558C198.322 82.2556 198.134 82.8776 197.634 83.1456Z" fill="#F2F2F2"/>
            <g id="Group_40">
            <path id="Vector_157" d="M197.841 94.8848L197.392 94.7493C197.221 94.6976 197.124 94.5157 197.176 94.345L197.64 92.8079C197.692 92.6373 197.874 92.5397 198.044 92.5914L198.492 92.7268C198.663 92.7785 198.761 92.9604 198.709 93.1312L198.245 94.6683C198.193 94.8385 198.011 94.9361 197.841 94.8848Z" fill="#F2F2F2"/>
            <path id="Vector_158" d="M198.965 95.2244L198.516 95.0888C198.346 95.0371 198.248 94.8552 198.3 94.6845L198.764 93.1475C198.816 92.9768 198.998 92.8793 199.169 92.9309L199.617 93.0663C199.787 93.118 199.885 93.3 199.833 93.4706L199.369 95.0077C199.317 95.1785 199.135 95.276 198.965 95.2244Z" fill="#F2F2F2"/>
            <path id="Vector_159" d="M200.089 95.5645L199.641 95.429C199.47 95.3773 199.373 95.1954 199.424 95.0247L199.889 93.4876C199.94 93.317 200.122 93.2194 200.293 93.2711L200.741 93.4065C200.912 93.4582 201.009 93.6401 200.958 93.8108L200.493 95.3478C200.442 95.5182 200.26 95.6158 200.089 95.5645Z" fill="#F2F2F2"/>
            <path id="Vector_160" d="M201.213 95.904L200.765 95.7685C200.594 95.7168 200.497 95.5349 200.548 95.3642L201.013 93.8272C201.065 93.6565 201.247 93.559 201.417 93.6106L201.866 93.7462C202.036 93.7978 202.134 93.9798 202.082 94.1504L201.618 95.6875C201.566 95.8582 201.384 95.9557 201.213 95.904Z" fill="#F2F2F2"/>
            </g>
            <path id="Vector_161" d="M201.248 94.7765L197.988 93.791C197.475 93.6363 197.058 93.5043 197.212 92.9917L197.661 91.5078C197.815 90.9952 198.362 90.7027 198.874 90.8579L202.135 91.8433C202.647 91.9981 202.94 92.5443 202.785 93.0567L202.336 94.5407C202.182 95.0528 201.761 94.9312 201.248 94.7765Z" fill="white"/>
            <path id="Vector_162" d="M205.486 90.8508C204.747 93.2948 202.167 94.6771 199.723 93.9387C197.279 93.1998 195.896 90.6198 196.635 88.1757C197.374 85.7316 199.839 84.7289 202.283 85.4677C204.727 86.2061 206.224 88.4068 205.486 90.8508Z" fill="white"/>
            <path id="Vector_163" d="M200.072 90.593C200.031 90.6425 199.969 90.8496 199.887 90.9698C199.841 91.0248 199.791 91.0751 199.736 91.1196C199.463 91.3435 199.089 91.4313 198.727 91.3224C198.148 91.1473 197.822 90.5333 197.998 89.9505C198.131 89.5134 198.507 89.2182 198.932 89.1716C199.003 89.1641 199.075 89.1629 199.147 89.17C199.651 89.2849 199.909 89.9278 200.072 90.3967C200.082 90.46 200.082 90.526 200.072 90.593Z" fill="#333333"/>
            <path id="Vector_164" d="M201.285 90.9598C201.291 91.0232 201.228 91.2303 201.23 91.3754C201.237 91.4467 201.251 91.5164 201.272 91.5837C201.375 91.9213 201.639 92.2019 202 92.3113C202.578 92.4864 203.19 92.1557 203.367 91.573C203.499 91.1359 203.348 90.6812 203.02 90.4073C202.966 90.3617 202.906 90.321 202.843 90.2867C202.359 90.1032 201.789 90.4953 201.393 90.7955C201.35 90.8435 201.313 90.8983 201.285 90.9598Z" fill="#333333"/>
            <path id="Vector_165" d="M199.602 92.6513C199.451 92.3696 200.093 91.9137 200.316 91.9808C200.539 92.048 200.807 92.7911 200.539 92.9345C200.199 92.9278 199.615 92.6746 199.602 92.6513Z" fill="#333333"/>
            </g>
            </g>
            </g>
        </TMPL_IF>
        <TMPL_IF NAME="HAT_THREE">
            <g id="BaseballCap">
            <path id="Vector_145" d="M176.902 112.769C184.995 114.294 190.825 108.069 197.166 104.174C194.94 102.233 189.115 101.173 186.028 100.052C183.077 98.9803 178.251 96.1877 175.151 96.591C172.191 96.979 168.939 99.3986 166.435 100.87C164.045 102.273 160.65 103.839 159.341 106.353C161.896 107.611 165.464 107.951 168.299 109.177C171.061 110.371 173.917 112.207 176.902 112.769Z" fill="#243347"/>
            <path id="Vector_146" d="M204.807 82.0196C206.375 83.5215 203.221 83.2857 202.43 82.8375C201.634 82.3865 200.019 81.1654 201.973 81.1306C202.885 81.1144 204.119 81.3602 204.807 82.0196Z" fill="#243347"/>
            <path id="Vector_147" d="M214.864 103.442C214.795 106.198 214.309 109.091 212.589 109.548C211.059 109.955 207.383 108.208 205.879 107.777C200.995 106.377 196.506 104.556 191.536 103.398C188.403 102.668 185.254 101.9 182.109 101.177C179.538 100.587 174.211 99.9525 173.955 96.6962C173.732 93.8528 176.949 89.9426 178.583 87.8413C181.226 84.4409 185.658 82.6394 189.834 81.6753C191.699 81.2463 193.608 81.0125 195.496 81.0009C201.667 80.9568 207.628 83.2565 211.208 88.6685C213.258 91.7647 214.35 95.1473 214.68 98.8152C214.764 99.7569 214.911 101.567 214.864 103.442Z" fill="#32425B"/>
            <g id="Group_35">
            <path id="Vector_148" d="M178.817 93.0957C179.602 96.6957 183.269 94.6543 184.656 92.6677C185.455 91.5246 186.073 89.9073 185.557 88.5203C184.738 86.3207 181.794 87.5191 180.646 88.7009C179.6 89.7785 178.45 91.5078 178.817 93.0957Z" fill="white"/>
            </g>
            <path id="Vector_149" d="M159.377 106.557C161.004 107.341 162.715 107.907 164.411 108.519C166.16 109.15 167.899 109.824 169.63 110.503C171.23 111.131 172.734 111.948 174.329 112.584C175.929 113.223 177.639 113.571 179.364 113.558C182.763 113.533 186.051 112.126 188.906 110.395C190.366 109.51 191.74 108.509 193.121 107.51C194.545 106.481 196.013 105.519 197.279 104.291C197.96 103.631 196.92 102.593 196.24 103.252C195.064 104.393 193.707 105.293 192.38 106.241C191.063 107.182 189.764 108.131 188.39 108.988C185.598 110.73 182.452 112.066 179.11 112.091C175.815 112.115 172.983 110.261 170.02 109.086C168.369 108.432 166.696 107.833 165.041 107.19C163.397 106.552 161.712 106.056 160.119 105.288C159.269 104.878 158.524 106.145 159.377 106.557Z" fill="#32425B"/>
            <path id="Vector_150" d="M214.864 103.442C214.369 103.714 213.847 103.948 213.302 104.145C206.782 106.493 198.584 102.389 194.171 97.6747C190.641 93.9056 189.003 88.298 192.336 83.8603C193.075 82.8743 194.214 81.8015 195.497 81.0006C201.667 80.9565 207.629 83.2562 211.208 88.6682C213.258 91.7644 214.35 95.1471 214.681 98.8149C214.764 99.7568 214.911 101.567 214.864 103.442Z" fill="#3D526C"/>
            <g id="Group_36">
            <path id="Vector_151" d="M180.026 92.4211C180.535 94.7517 182.909 93.4303 183.807 92.144C184.323 91.4041 184.724 90.357 184.39 89.4592C183.859 88.0351 181.954 88.811 181.211 89.5761C180.533 90.2735 179.789 91.3932 180.026 92.4211Z" fill="#32425B"/>
            </g>
            </g>
        </TMPL_IF>
        <TMPL_IF NAME="HAT_FOUR">
            <g id="GladiatorHelmet">
            <g id="XMLID_99_">
            <g id="Group_19">
            <g id="Group_20">
            <path id="Vector_101" d="M233.457 120.406L223.135 115.895C228.364 95.5707 206.131 84.0676 206.131 84.0676L206.122 84.0875C206.122 84.0875 182.578 75.5844 171.214 93.2292L160.891 88.7182C175.616 66.3743 197.661 70.127 209.888 75.4707L209.897 75.4511C222.123 80.7951 239.853 94.422 233.457 120.406Z" fill="#BE1E2D"/>
            </g>
            <g id="Group_21" opacity="0.57">
            <path id="Vector_102" d="M230.73 93.5106C233.667 100.053 234.74 108.165 232.3 118.078L223.503 114.233C223.399 114.78 223.279 115.334 223.135 115.895L233.457 120.406C236.195 109.282 234.51 100.425 230.73 93.5106Z" fill="#BE1E2D"/>
            <path id="Vector_103" d="M204.974 81.7396L204.966 81.7598C204.966 81.7598 181.421 73.2567 170.057 90.9015L161.853 87.3163C161.53 87.7731 161.208 88.2377 160.891 88.7184L171.214 93.2296C182.579 75.5845 206.123 84.088 206.123 84.088L206.131 84.068C206.131 84.068 215.68 89.0092 220.79 98.1351C216.15 87.5249 204.974 81.7396 204.974 81.7396Z" fill="#BE1E2D"/>
            </g>
            <g id="Group_22">
            <path id="Vector_104" d="M200.324 86.4321C181.684 81.1185 173.731 94.3297 173.731 94.3297L171.214 93.2296C182.579 75.5844 206.123 84.0879 206.123 84.0879L206.131 84.068C206.131 84.068 228.364 95.5714 223.135 115.895L220.617 114.795C220.617 114.795 224.912 99.9877 208.352 89.915C208.738 90.2096 221.069 99.7346 218.727 113.969L216.457 112.977C216.985 107.166 214.04 102.567 211.654 99.49C208.444 95.3458 202.563 92.2312 202.563 92.2312L202.555 92.2508C202.555 92.2508 196.276 90.0525 191.051 90.5113C187.174 90.8515 181.797 91.8132 177.891 96.1477L175.622 95.1559C184.48 83.7681 199.846 86.3494 200.324 86.4321Z" fill="#6D6E71"/>
            </g>
            <g id="Group_23" opacity="0.1">
            <path id="Vector_105" d="M196.638 85.5925C198 85.6768 198.859 85.82 198.966 85.8388C180.326 80.5253 172.373 93.7365 172.373 93.7365L173.732 94.3301C173.732 94.3301 180.631 82.8727 196.638 85.5925Z" fill="#6D6E71"/>
            <path id="Vector_106" d="M201.205 91.6375L201.197 91.6571C201.197 91.6571 194.918 89.4588 189.694 89.9176C185.817 90.2577 180.439 91.2196 176.533 95.554L177.892 96.1476C181.798 91.8136 187.175 90.8514 191.052 90.5112C195.295 90.1387 200.232 91.5181 201.938 92.0501C201.479 91.7826 201.205 91.6375 201.205 91.6375Z" fill="#6D6E71"/>
            <path id="Vector_107" d="M210.118 91.4595C209.168 90.7285 208.132 90.0137 206.993 89.3211C207.38 89.6158 219.711 99.1407 217.368 113.375L218.727 113.968C220.544 102.928 213.536 94.7247 210.118 91.4595Z" fill="#6D6E71"/>
            <path id="Vector_108" d="M206.131 84.0677L206.123 84.0876C206.123 84.0876 205.907 84.01 205.509 83.8849C209.317 86.1018 226.433 97.2049 221.777 115.302L223.135 115.895C228.364 95.5711 206.131 84.0677 206.131 84.0677Z" fill="#6D6E71"/>
            </g>
            <g id="Group_24">
            <path id="Vector_109" d="M220.617 114.795L218.727 113.968C221.069 99.7342 208.738 90.2093 208.352 89.9146C224.913 99.9873 220.617 114.795 220.617 114.795Z" fill="#58595B"/>
            </g>
            <g id="Group_25">
            <path id="Vector_110" d="M210.938 127.679L207.163 127.874L207.147 127.872C207.609 120.497 212.853 121.696 212.853 121.696C211.93 123.215 210.955 125.365 210.938 127.679Z" fill="#6D6E71"/>
            </g>
            <g id="Group_26">
            <path id="Vector_111" d="M215.687 116.622C215.382 117.542 214.983 118.486 214.481 119.456C214.481 119.456 209.511 106.728 198.358 101.854L198.349 101.875C187.198 97.0016 174.479 101.996 174.479 101.996C174.853 100.963 175.28 100.023 175.752 99.1672C177.008 98.7537 189.171 94.9473 199.238 99.8392C209.674 103.907 215.144 115.434 215.687 116.622Z" fill="#939598"/>
            </g>
            <g id="Group_27" opacity="0.2">
            <path id="Vector_112" d="M198.466 99.4865C198.272 99.4013 198.077 99.3217 197.882 99.243C198.078 99.3216 198.273 99.4026 198.466 99.4865Z" fill="#939598"/>
            <path id="Vector_113" d="M215.687 116.622C215.144 115.435 209.674 103.907 199.238 99.8394C199.171 99.8065 199.102 99.7785 199.035 99.7462C208.586 104.233 213.609 114.806 214.127 115.94C213.964 116.432 213.772 116.932 213.554 117.438C214.177 118.678 214.481 119.456 214.481 119.456C214.983 118.486 215.382 117.542 215.687 116.622Z" fill="#939598"/>
            <path id="Vector_114" d="M196.799 101.172L196.79 101.193C188.391 97.5231 179.106 99.4503 175.032 100.625C174.837 101.064 174.652 101.519 174.479 101.997C174.479 101.997 186.869 97.1378 197.914 101.697C197.548 101.514 197.178 101.338 196.799 101.172Z" fill="#939598"/>
            </g>
            <g id="Group_28">
            <path id="Vector_115" d="M214.481 119.456C214.481 119.456 213.687 120.317 212.853 121.696C212.853 121.696 207.609 120.498 207.147 127.872C207.104 128.563 207.103 129.331 207.152 130.182L189.752 143.9L200.586 118.426L208.08 118.742L205.248 114.148L195.868 113.404C195.868 113.404 192.514 123.649 191.958 125.283C191.406 126.917 186.859 128.165 186.859 128.165L186.85 128.185C186.85 128.185 184.677 124.002 185.501 122.485C186.324 120.966 191.563 111.549 191.563 111.549L184.646 105.167L179.35 106.212L184.674 111.494L173.337 136.752L171.586 114.662C172.244 114.12 172.806 113.599 173.284 113.099C178.385 107.752 173.941 104.714 173.941 104.714C174.387 103.165 174.48 101.997 174.48 101.997C174.48 101.997 187.198 97.0023 198.349 101.876L198.359 101.854C209.511 106.728 214.481 119.456 214.481 119.456Z" fill="#808285"/>
            </g>
            <g id="Group_29" opacity="0.25">
            <path id="Vector_116" d="M183.854 105.324L182.819 104.369L177.522 105.413L182.846 110.695L173.009 132.611L173.337 136.752L184.674 111.494L179.35 106.211L183.854 105.324Z" fill="#808285"/>
            <path id="Vector_117" d="M203.844 114.037L203.421 113.349L194.04 112.606C194.04 112.606 190.686 122.85 190.13 124.485C189.766 125.562 187.673 126.468 186.284 126.963C186.59 127.68 186.851 128.185 186.851 128.185L186.859 128.166C186.859 128.166 191.406 126.918 191.958 125.283C192.514 123.649 195.868 113.405 195.868 113.405L203.844 114.037Z" fill="#808285"/>
            <path id="Vector_118" d="M212.853 121.696C213.687 120.317 214.482 119.456 214.482 119.456C214.482 119.456 209.511 106.728 198.358 101.853L198.349 101.875C198.137 101.782 197.923 101.7 197.71 101.614C208.033 106.833 212.653 118.657 212.653 118.657C212.653 118.657 211.859 119.518 211.025 120.897C211.025 120.897 205.781 119.699 205.319 127.073C205.276 127.764 205.275 128.532 205.324 129.383L191.185 140.53L189.752 143.9L207.153 130.181C207.104 129.331 207.105 128.563 207.148 127.872C207.609 120.498 212.853 121.696 212.853 121.696Z" fill="#808285"/>
            </g>
            <g id="Group_30">
            <path id="Vector_119" d="M177.891 96.1477C181.797 91.8137 187.174 90.8514 191.051 90.5113C196.276 90.0525 202.555 92.2508 202.555 92.2508L202.563 92.2312C202.563 92.2312 208.444 95.3458 211.654 99.49C214.04 102.567 216.985 107.166 216.457 112.977C216.352 114.143 216.104 115.36 215.687 116.622C215.144 115.435 209.674 103.907 199.238 99.8395C189.171 94.9473 177.008 98.7542 175.752 99.1675C176.391 98.012 177.112 97.0125 177.891 96.1477Z" fill="#808285"/>
            </g>
            <g id="Group_31" opacity="0.14">
            <path id="Vector_120" d="M196.739 98.7471C189.762 95.3567 181.781 96.1444 177.119 97.0854C176.633 97.7179 176.174 98.4058 175.752 99.1675C176.957 98.7713 188.193 95.2589 197.991 99.2865C197.581 99.0967 197.166 98.9138 196.739 98.7471Z" fill="#808285"/>
            <path id="Vector_121" d="M216.458 112.977C216.986 107.166 214.041 102.567 211.655 99.49C208.445 95.3458 202.564 92.2312 202.564 92.2312L202.555 92.2508C202.555 92.2508 202.096 92.0904 201.326 91.8659C203.233 93.0204 206.87 95.4477 209.156 98.3978C211.542 101.475 214.487 106.073 213.959 111.885C213.922 112.288 213.862 112.7 213.79 113.116C214.887 114.916 215.521 116.257 215.687 116.622C216.105 115.36 216.352 114.143 216.458 112.977Z" fill="#808285"/>
            </g>
            <g id="Group_32">
            <path id="Vector_122" d="M200.324 86.4321C199.845 86.3493 184.48 83.768 175.622 95.1559L173.731 94.3295C173.731 94.3295 181.684 81.1185 200.324 86.4321Z" fill="#58595B"/>
            </g>
            <g id="Group_33">
            <path id="Vector_123" d="M173.941 104.714C173.941 104.714 178.384 107.751 173.284 113.098L173.271 113.088L170.852 110.183C172.538 108.6 173.455 106.426 173.941 104.714Z" fill="#6D6E71"/>
            </g>
            </g>
            <path id="Vector_124" d="M233.945 120.552C236.808 108.921 235.169 98.6384 229.074 89.9905C223.202 81.6596 214.646 77.0599 210.068 75.0593C210.02 75.038 209.969 75.0242 209.919 75.0176C205.296 73.0152 196.192 69.9376 186.192 71.2738C175.704 72.6754 167.044 78.4579 160.452 88.4605C160.384 88.564 160.374 88.6955 160.425 88.8206C160.477 88.9459 160.584 89.0513 160.72 89.1104L177.119 96.2775C176.443 97.085 175.83 97.9726 175.299 98.9329C174.808 99.8248 174.371 100.794 174.003 101.814C173.995 101.836 173.995 101.859 173.991 101.881C173.99 101.892 173.983 101.899 173.982 101.91C173.981 101.921 173.886 103.063 173.457 104.555C173.016 106.109 172.139 108.29 170.469 109.858C170.317 110.002 170.314 110.235 170.464 110.415L172.645 113.032C172.222 113.456 171.748 113.887 171.223 114.319C171.127 114.398 171.079 114.512 171.089 114.635L172.84 136.726C172.854 136.902 172.984 137.065 173.166 137.144C173.198 137.158 173.231 137.169 173.266 137.177C173.497 137.234 173.721 137.143 173.804 136.96L185.14 111.702C185.209 111.549 185.164 111.362 185.026 111.225L180.263 106.497L184.53 105.656L190.959 111.586C190.092 113.146 185.782 120.897 185.047 122.253C184.153 123.899 186.17 127.877 186.403 128.325C186.49 128.493 186.681 128.602 186.88 128.616C186.968 128.622 187.052 128.605 187.124 128.572C187.837 128.371 191.859 127.171 192.438 125.46C192.934 123.998 195.696 115.57 196.252 113.873L204.97 114.565L207.252 118.267L200.546 117.984C200.351 117.975 200.184 118.07 200.118 118.224L189.284 143.699C189.205 143.884 189.29 144.11 189.489 144.242C189.687 144.373 189.946 144.376 190.11 144.247L207.51 130.528C207.607 130.452 207.658 130.339 207.651 130.216C207.612 129.539 207.606 128.897 207.63 128.296L211.031 128.12C211.265 128.108 211.436 127.948 211.437 127.738C211.453 125.455 212.459 123.327 213.3 121.943C214.103 120.615 214.877 119.77 214.884 119.761C214.891 119.754 214.892 119.744 214.897 119.737C214.912 119.718 214.929 119.703 214.94 119.682C215.44 118.715 215.853 117.745 216.167 116.795C216.516 115.741 216.753 114.68 216.887 113.631L233.286 120.798C233.422 120.858 233.573 120.865 233.699 120.818C233.826 120.771 233.915 120.674 233.945 120.552ZM219.267 113.738C220.57 104.978 216.448 98.0072 212.958 93.8491C216.814 97.3163 219.246 101.423 220.197 106.119C220.971 109.938 220.484 113.029 220.245 114.165L219.267 113.738ZM221.185 106.11C220.257 101.489 217.32 94.8665 208.596 89.5596C208.589 89.5552 208.581 89.5546 208.574 89.5507C208.522 89.5219 208.469 89.5003 208.415 89.4878C208.406 89.486 208.398 89.4857 208.39 89.4841C208.172 89.4433 207.954 89.5243 207.876 89.7041C207.813 89.8472 207.852 90.0108 207.958 90.1385L207.959 90.1397C207.989 90.1758 208.023 90.2099 208.063 90.2391C208.652 90.6908 220.2 99.7498 218.305 113.318L216.973 112.736C217.375 106.896 214.374 102.265 212.053 99.2738C208.806 95.0815 203.02 91.9886 202.776 91.8592C202.706 91.8233 202.63 91.8026 202.554 91.798C201.599 91.4763 195.871 89.6391 190.939 90.0718C187.166 90.4029 181.728 91.3466 177.718 95.6057L176.385 95.0232C184.986 84.5046 199.314 86.7011 200.276 86.8635C200.5 86.9125 200.721 86.8244 200.802 86.6388C200.86 86.5078 200.826 86.3612 200.739 86.2384C200.737 86.235 200.734 86.232 200.732 86.2287C200.7 86.186 200.663 86.1482 200.617 86.1146C200.604 86.1041 200.589 86.0953 200.574 86.0864C200.551 86.072 200.532 86.0533 200.506 86.0419C200.486 86.0332 200.462 86.0294 200.439 86.0221C200.432 86.0196 200.426 86.0145 200.419 86.0123C190.599 83.2131 183.743 85.5559 179.72 88.0136C176.107 90.2216 174.115 92.8523 173.495 93.7601L171.934 93.0778C176.569 86.165 183.637 82.5957 192.964 82.4844C200.089 82.3991 205.93 84.4735 205.988 84.4941C206.011 84.5029 206.034 84.5098 206.057 84.5153C206.931 84.9925 211.885 87.8111 216.245 92.6351C222.498 99.5554 224.681 107.167 222.756 115.263L221.195 114.581C221.441 113.51 222.019 110.262 221.185 106.11ZM175.339 101.198C175.583 100.618 175.852 100.062 176.138 99.5323C178.071 98.9189 189.548 95.6095 199.045 100.222C199.053 100.226 199.062 100.226 199.07 100.229C199.077 100.232 199.082 100.238 199.09 100.241C208.965 104.081 214.325 114.81 215.157 116.586C214.966 117.146 214.744 117.713 214.485 118.283C213.005 115.062 207.985 105.593 198.53 101.461C198.475 101.437 198.419 101.422 198.365 101.415C188.955 97.3823 178.691 100.103 175.339 101.198ZM199.41 99.4476C190.735 95.2427 180.553 97.3539 176.836 98.3634C177.271 97.6962 177.745 97.0692 178.257 96.4954C178.271 96.4846 178.279 96.469 178.291 96.4566C178.292 96.4544 178.294 96.4519 178.296 96.4501C182.129 92.1972 187.475 91.275 191.164 90.9516C196.203 90.509 202.365 92.6377 202.427 92.6596C202.446 92.6664 202.466 92.6721 202.486 92.6765C203.372 93.1661 208.421 96.0468 211.256 99.7076C213.524 102.632 216.479 107.18 215.961 112.886C215.96 112.9 215.958 112.914 215.956 112.927C215.956 112.932 215.954 112.936 215.954 112.94C215.881 113.712 215.741 114.496 215.542 115.281C213.772 111.886 208.413 102.969 199.41 99.4476ZM174.447 94.1759C175.117 93.2284 177.056 90.7711 180.385 88.745C184.479 86.2528 189.147 85.2484 194.312 85.7242C188.889 85.9871 180.97 87.696 175.424 94.603L174.447 94.1759ZM174.215 105.553C174.575 105.953 175.008 106.588 175.171 107.445C175.458 108.958 174.806 110.615 173.256 112.373L171.492 110.256C172.893 108.828 173.728 107.023 174.215 105.553ZM190.989 142.296L200.948 118.881L208.122 119.184C208.292 119.191 208.444 119.12 208.523 118.995C208.602 118.871 208.598 118.71 208.511 118.57L205.679 113.976C205.586 113.825 205.412 113.721 205.228 113.707L195.848 112.964C195.632 112.946 195.446 113.055 195.388 113.232C195.354 113.334 192.028 123.493 191.479 125.107C191.12 126.169 188.492 127.179 187.086 127.615C186.448 126.279 185.424 123.696 185.956 122.716C186.768 121.218 191.963 111.878 192.015 111.784C192.106 111.621 192.059 111.411 191.899 111.265L184.983 104.883C184.847 104.758 184.653 104.7 184.479 104.735L179.183 105.779C179.021 105.811 178.901 105.917 178.863 106.059C178.825 106.202 178.876 106.361 178.997 106.482L184.093 111.539L173.673 134.754L172.099 114.879C172.689 114.385 173.221 113.891 173.681 113.408C175.689 111.304 176.519 109.277 176.149 107.385C175.868 105.954 174.969 105.012 174.5 104.605C174.783 103.556 174.905 102.715 174.951 102.323C176.663 101.708 188.161 97.8891 198.177 102.267C198.23 102.29 198.285 102.304 198.338 102.312C208.255 106.735 213.213 117.664 213.921 119.331C213.664 119.631 213.13 120.292 212.553 121.211C211.937 121.144 210.635 121.124 209.396 121.889C207.755 122.901 206.831 124.887 206.65 127.79C206.608 128.46 206.606 129.187 206.644 129.953L190.989 142.296ZM207.698 127.4C207.937 125.067 208.71 123.464 210.015 122.648C210.755 122.185 211.515 122.073 212.052 122.065C211.304 123.425 210.546 125.265 210.45 127.257L207.698 127.4ZM223.709 115.679C226.251 105.183 221.466 97.0802 216.966 92.1108C212.048 86.6804 206.569 83.8125 206.338 83.6928C206.264 83.6545 206.183 83.6317 206.102 83.627C205.105 83.2852 199.62 81.5254 192.859 81.5994C186.156 81.6732 176.958 83.6655 170.983 92.662L161.605 88.5638C177.875 64.3888 202.518 72.7175 209.717 75.8634C209.765 75.8846 209.815 75.898 209.864 75.9043C217.211 79.1478 239.734 91.5976 233.086 119.777L223.709 115.679Z" fill="#231F20"/>
            </g>
            <g id="Group_34">
            <path id="Vector_125" d="M205.776 78.67L206.068 77.5519C206.156 77.2061 206.243 76.8593 206.324 76.5113C206.467 75.9056 206.582 75.3962 206.681 74.8769L206.276 74.751C206.095 75.2903 205.935 75.8334 205.787 76.3438C205.687 76.6867 205.594 77.0319 205.501 77.3775L205.206 78.5033C205.116 78.8571 205.026 79.2114 204.943 79.568C204.802 80.1714 204.687 80.6805 204.587 81.2028L204.992 81.3286C205.173 80.7877 205.333 80.2449 205.481 79.7348C205.583 79.3813 205.68 79.0261 205.776 78.67Z" fill="#610F17"/>
            <path id="Vector_126" d="M201.589 77.4836L201.652 76.2814C201.667 75.9201 201.684 75.5587 201.693 75.197C201.708 74.6578 201.721 74.0793 201.714 73.4991L201.299 73.4348C201.232 74.0061 201.185 74.5764 201.143 75.1112C201.115 75.4708 201.093 75.8318 201.072 76.1922L201.01 77.3711C200.994 77.7407 200.977 78.1105 200.967 78.4809C200.953 78.9905 200.939 79.5839 200.947 80.1792L201.361 80.243C201.429 79.6775 201.475 79.1044 201.518 78.5667C201.545 78.2063 201.567 77.8453 201.589 77.4836Z" fill="#610F17"/>
            <path id="Vector_127" d="M196.367 76.5836L196.437 75.399C196.456 75.034 196.474 74.6687 196.487 74.3025C196.504 73.7867 196.522 73.1866 196.52 72.5884L196.106 72.522C196.039 73.0537 195.99 73.583 195.937 74.2144C195.906 74.5729 195.882 74.9323 195.858 75.2914L195.788 76.4677C195.768 76.8503 195.749 77.2329 195.735 77.6167C195.717 78.1629 195.699 78.745 195.703 79.3312L196.117 79.3974C196.189 78.8234 196.24 78.2467 196.286 77.7052C196.317 77.332 196.342 76.958 196.367 76.5836Z" fill="#610F17"/>
            <path id="Vector_128" d="M190.977 76.3016L190.769 75.1286C190.702 74.7687 190.636 74.4089 190.563 74.0491C190.455 73.5093 190.335 72.9304 190.195 72.3518L189.786 72.3624C189.847 72.9029 189.923 73.4336 190.019 74.0629C190.075 74.4316 190.138 74.8006 190.2 75.1693L190.405 76.3289C190.474 76.7048 190.544 77.0803 190.62 77.4557C190.747 78.0873 190.858 78.6181 190.988 79.1537L191.397 79.1435C191.337 78.6045 191.26 78.0737 191.164 77.4432C191.106 77.0622 191.042 76.6823 190.977 76.3016Z" fill="#610F17"/>
            <path id="Vector_129" d="M186.033 76.397L185.747 75.3965C185.654 75.0837 185.562 74.7713 185.464 74.4593C185.293 73.9198 185.146 73.4674 184.982 73.0116L184.581 73.0574C184.678 73.5203 184.791 73.9768 184.931 74.5197C185.011 74.8332 185.097 75.145 185.184 75.4572L185.474 76.4737C185.568 76.7914 185.662 77.1091 185.762 77.4252C185.9 77.863 186.062 78.3718 186.244 78.874L186.645 78.8282C186.54 78.3274 186.414 77.8306 186.295 77.3646C186.212 77.0418 186.123 76.7197 186.033 76.397Z" fill="#610F17"/>
            <path id="Vector_130" d="M181.734 77.8055L181.168 76.8396C180.988 76.5365 180.807 76.2333 180.62 75.932C180.333 75.4681 180.049 75.0137 179.743 74.5577L179.381 74.6923C179.632 75.1915 179.905 75.69 180.139 76.1113C180.303 76.4099 180.474 76.7059 180.645 77.0027L181.224 77.992C181.405 78.2952 181.585 78.5983 181.772 78.9004C182.031 79.3185 182.334 79.8041 182.649 80.2745L183.012 80.1396C182.784 79.6865 182.544 79.2447 182.254 78.7199C182.084 78.4137 181.909 78.1096 181.734 77.8055Z" fill="#610F17"/>
            <path id="Vector_131" d="M177.725 80.0033L176.926 79.0437C176.69 78.7635 176.454 78.4833 176.214 78.2056C175.845 77.7825 175.452 77.3326 175.042 76.8915L174.72 77.0838C175.071 77.5586 175.44 78.0266 175.785 78.4618C176.02 78.7569 176.26 79.0492 176.499 79.3418L177.303 80.3079C177.54 80.5891 177.777 80.8707 178.019 81.15C178.412 81.6002 178.796 82.0395 179.192 82.4641L179.514 82.2715C179.186 81.828 178.851 81.3998 178.448 80.893C178.21 80.5952 177.968 80.2989 177.725 80.0033Z" fill="#610F17"/>
            <path id="Vector_132" d="M174.206 82.6349L173.154 81.8377C172.835 81.5993 172.517 81.361 172.195 81.1272C171.709 80.7738 171.188 80.3978 170.664 80.041L170.419 80.3076C170.91 80.7205 171.405 81.1138 171.87 81.4809C172.184 81.7294 172.501 81.9737 172.819 82.2173L173.86 83.0063C174.187 83.2518 174.515 83.4966 174.846 83.7375C175.327 84.0872 175.845 84.4607 176.377 84.8236L176.622 84.557C176.134 84.1465 175.637 83.7501 175.172 83.3831C174.852 83.1314 174.529 82.8827 174.206 82.6349Z" fill="#610F17"/>
            <path id="Vector_133" d="M171.592 85.3979L170.457 84.677C170.08 84.441 169.703 84.205 169.323 83.9739C168.791 83.6489 168.217 83.3019 167.625 82.965L167.414 83.2547C167.955 83.6359 168.515 84.0092 169.043 84.3586C169.387 84.5861 169.734 84.8094 170.082 85.0328L171.282 85.7945C171.642 86.0202 172.003 86.2462 172.367 86.4683C172.908 86.7966 173.484 87.145 174.065 87.4756L174.276 87.1859C173.725 86.7975 173.169 86.4276 172.647 86.0822C172.297 85.8509 171.945 85.6245 171.592 85.3979Z" fill="#610F17"/>
            <path id="Vector_134" d="M169.295 88.5279L167.365 87.6719C167.13 87.569 166.893 87.4664 166.656 87.3656C166.018 87.0939 165.336 86.8058 164.646 86.5333L164.5 86.8584C165.178 87.1964 165.868 87.5202 166.462 87.7971C166.892 87.9981 167.325 88.1938 167.758 88.3893L169.683 89.2437C169.932 89.3524 170.181 89.4601 170.43 89.5665C171.069 89.839 171.755 90.1287 172.441 90.3993L172.587 90.0742C171.916 89.7394 171.247 89.425 170.625 89.1351C170.184 88.9294 169.739 88.7286 169.295 88.5279Z" fill="#610F17"/>
            <path id="Vector_135" d="M211.555 78.7742C211.358 79.0661 211.166 79.3607 210.975 79.6553L210.336 80.6536C210.143 80.962 209.949 81.2706 209.762 81.582C209.501 82.0149 209.2 82.5191 208.925 83.0227L209.292 83.2341C209.636 82.7683 209.967 82.2826 210.25 81.8631C210.456 81.5575 210.657 81.2491 210.858 80.9398L211.474 79.9736C211.665 79.6684 211.857 79.3638 212.042 79.0556C212.302 78.6244 212.603 78.122 212.88 77.6148L212.513 77.4033C212.169 77.8712 211.838 78.3562 211.555 78.7742Z" fill="#610F17"/>
            <path id="Vector_136" d="M215.665 81.2792C215.407 81.5302 215.155 81.7856 214.902 82.0408L214.09 82.8748C213.829 83.1478 213.567 83.4209 213.311 83.6986C212.885 84.159 212.53 84.549 212.186 84.9522L212.515 85.2129C212.955 84.8157 213.382 84.4016 213.748 84.0447C214.015 83.783 214.277 83.5177 214.54 83.2518L215.365 82.4036C215.612 82.1455 215.859 81.8872 216.101 81.6251C216.525 81.1661 216.879 80.7771 217.226 80.3709L216.898 80.1103C216.457 80.5069 216.03 80.9218 215.665 81.2792Z" fill="#610F17"/>
            <path id="Vector_137" d="M219.857 84.4938C219.598 84.7499 219.344 85.0102 219.091 85.2706L218.244 86.152C217.993 86.4174 217.743 86.683 217.497 86.9522C217.13 87.354 216.741 87.7833 216.369 88.2255L216.699 88.4844C217.141 88.0798 217.569 87.659 217.935 87.2967C218.204 87.0304 218.467 86.7602 218.73 86.4899L219.552 85.6327C219.802 85.3689 220.051 85.1054 220.295 84.8373C220.722 84.3699 221.077 83.9745 221.422 83.5643L221.093 83.3054C220.662 83.6997 220.246 84.1088 219.857 84.4938Z" fill="#610F17"/>
            <path id="Vector_138" d="M224.067 88.668C223.748 88.8628 223.433 89.0623 223.118 89.2621L222.092 89.9226C221.783 90.1248 221.474 90.3267 221.169 90.5334C220.712 90.8446 220.227 91.177 219.763 91.5181L220.034 91.8255C220.548 91.5374 221.057 91.2307 221.529 90.9421C221.861 90.7396 222.189 90.532 222.517 90.3241L223.496 89.6925C223.808 89.4885 224.119 89.2849 224.427 89.0764C224.878 88.7691 225.359 88.4399 225.833 88.0915L225.562 87.7843C225.046 88.074 224.539 88.3801 224.067 88.668Z" fill="#610F17"/>
            <path id="Vector_139" d="M228.858 92.3861L228.62 92.0608C228.142 92.2625 227.669 92.4825 227.23 92.6901C226.934 92.8287 226.642 92.9734 226.351 93.1177L225.436 93.5791C225.133 93.7354 224.831 93.8913 224.533 94.0524C224.04 94.3181 223.629 94.5449 223.221 94.7883L223.46 95.1137C223.906 94.9259 224.339 94.7264 224.85 94.4848C225.162 94.3381 225.47 94.1852 225.777 94.0328L226.695 93.5681C226.98 93.4212 227.265 93.2742 227.547 93.1217C228.041 92.8556 228.453 92.6286 228.858 92.3861Z" fill="#610F17"/>
            <path id="Vector_140" d="M228.634 97.9545C228.969 97.8785 229.304 97.8019 229.636 97.7199C230.219 97.5771 230.706 97.4533 231.193 97.3136L231.046 96.9558C230.492 97.0425 229.949 97.1461 229.441 97.2449C229.091 97.3125 228.745 97.3863 228.398 97.4597L227.339 97.6923C226.986 97.7724 226.634 97.8531 226.284 97.9391C225.811 98.0549 225.263 98.1918 224.727 98.3455L224.874 98.7031C225.415 98.6196 225.942 98.5189 226.48 98.4149C226.822 98.3482 227.162 98.2761 227.501 98.2042L228.634 97.9545Z" fill="#610F17"/>
            <path id="Vector_141" d="M228.546 102.648L229.726 102.585C230.106 102.562 230.488 102.539 230.867 102.51C231.42 102.468 232.013 102.421 232.602 102.356L232.525 101.988C231.935 101.987 231.355 102.004 230.763 102.022C230.375 102.035 229.988 102.053 229.601 102.071L228.44 102.133C228.051 102.156 227.661 102.179 227.272 102.209C226.624 102.258 226.081 102.303 225.537 102.363L225.615 102.73C226.211 102.732 226.811 102.715 227.376 102.697C227.767 102.685 228.156 102.667 228.546 102.648Z" fill="#610F17"/>
            <path id="Vector_142" d="M228.811 107.006L230.145 107.242C230.534 107.308 230.923 107.375 231.312 107.436C231.872 107.524 232.522 107.624 233.159 107.703L233.189 107.343C232.61 107.209 232.035 107.092 231.352 106.957C230.949 106.877 230.545 106.803 230.141 106.729L228.921 106.512C228.505 106.44 228.089 106.369 227.673 106.304C227.086 106.212 226.456 106.115 225.826 106.036L225.796 106.397C226.408 106.538 227.014 106.66 227.634 106.784C228.026 106.861 228.419 106.934 228.811 107.006Z" fill="#610F17"/>
            <path id="Vector_143" d="M228.628 110.819L229.879 111.149C230.292 111.256 230.705 111.362 231.12 111.463C231.729 111.613 232.383 111.77 233.036 111.909L233.106 111.558C232.449 111.349 231.784 111.159 231.212 110.997C230.79 110.877 230.367 110.762 229.945 110.648L228.681 110.314C228.256 110.204 227.832 110.095 227.406 109.991C226.829 109.85 226.157 109.688 225.489 109.546L225.42 109.897C226.063 110.101 226.708 110.286 227.313 110.458C227.751 110.583 228.189 110.701 228.628 110.819Z" fill="#610F17"/>
            <path id="Vector_144" d="M232.51 116.167C231.849 115.85 231.169 115.543 230.534 115.258C230.309 115.157 230.084 115.058 229.859 114.96L227.876 114.106C227.431 113.919 226.986 113.731 226.539 113.548C225.863 113.273 225.2 113.004 224.516 112.747L224.377 113.075C224.997 113.372 225.616 113.654 226.354 113.984C226.59 114.09 226.827 114.194 227.065 114.298L229.055 115.153C229.486 115.335 229.916 115.517 230.348 115.693C230.99 115.955 231.678 116.234 232.371 116.495L232.51 116.167Z" fill="#610F17"/>
            </g>
            </g>
        </TMPL_IF>
        <TMPL_IF NAME="HAT_FIVE">
            <g id="VikingHat">
            <path id="Vector_30" d="M200.96 81.3138C189.84 78.4513 178.637 84.6315 175.642 96.2662L215.912 106.632C218.907 94.9975 212.08 84.1763 200.96 81.3138Z" fill="#6D6D6C"/>
            <g id="Group_11">
            <path id="Vector_31" d="M205.583 81.39L197.491 79.3071L192.148 100.064L200.24 102.147L205.583 81.39Z" fill="#B2B2B2"/>
            </g>
            <path id="Vector_32" d="M212.841 87.9126C230.23 85.5284 228.713 67.9662 228.713 67.9662L230.563 67.4114C230.563 67.4114 238.2 80.4388 231.844 89.8977C225.489 99.3565 217.225 99.389 217.225 99.389L212.841 87.9126Z" fill="#939190"/>
            <path id="Vector_33" d="M187.883 81.4881C173.806 71.0042 183.687 56.2982 183.687 56.2982L182.307 54.9172C182.307 54.9172 169.285 62.6999 170.283 74.0516C171.282 85.4035 178.502 89.4218 178.502 89.4218L187.883 81.4881Z" fill="#939190"/>
            <path id="Vector_34" d="M218.251 106.784L174.294 95.4687L174 96.6104L217.957 107.925L218.251 106.784Z" fill="#898786"/>
            <path id="Vector_35" d="M215.713 116.644L171.756 105.329L171.462 106.47L215.419 117.785L215.713 116.644Z" fill="#898786"/>
            <g id="Group_12">
            <path id="Vector_36" d="M175.316 97.1975C176.075 97.393 176.849 96.9359 177.044 96.1766C177.24 95.4173 176.783 94.6433 176.023 94.4478C175.264 94.2524 174.49 94.7095 174.295 95.4688C174.099 96.2281 174.556 97.0021 175.316 97.1975Z" fill="#898786"/>
            <path id="Vector_37" d="M177.739 97.8215C178.499 98.0169 179.273 97.5598 179.468 96.8005C179.664 96.0412 179.206 95.2672 178.447 95.0718C177.688 94.8763 176.914 95.3334 176.718 96.0927C176.523 96.852 176.98 97.626 177.739 97.8215Z" fill="#898786"/>
            <path id="Vector_38" d="M180.163 98.4454C180.923 98.6408 181.697 98.1837 181.892 97.4244C182.088 96.6651 181.63 95.8912 180.871 95.6957C180.112 95.5002 179.338 95.9573 179.142 96.7166C178.947 97.4759 179.404 98.2499 180.163 98.4454Z" fill="#898786"/>
            <path id="Vector_39" d="M182.587 99.0693C183.346 99.2648 184.12 98.8077 184.316 98.0484C184.511 97.2891 184.054 96.5151 183.295 96.3197C182.536 96.1242 181.762 96.5813 181.566 97.3406C181.371 98.0999 181.828 98.8739 182.587 99.0693Z" fill="#898786"/>
            <path id="Vector_40" d="M185.011 99.6933C185.77 99.8888 186.544 99.4317 186.74 98.6724C186.935 97.9131 186.478 97.1391 185.719 96.9436C184.96 96.7482 184.186 97.2053 183.99 97.9646C183.795 98.7239 184.252 99.4978 185.011 99.6933Z" fill="#898786"/>
            <path id="Vector_41" d="M187.435 100.317C188.194 100.513 188.968 100.056 189.164 99.2963C189.359 98.537 188.902 97.763 188.143 97.5675C187.383 97.3721 186.61 97.8292 186.414 98.5885C186.219 99.3478 186.676 100.122 187.435 100.317Z" fill="#898786"/>
            <path id="Vector_42" d="M189.859 100.941C190.618 101.137 191.392 100.68 191.588 99.9202C191.783 99.1609 191.326 98.3869 190.567 98.1915C189.807 97.996 189.033 98.4531 188.838 99.2124C188.643 99.9717 189.1 100.746 189.859 100.941Z" fill="#898786"/>
            <path id="Vector_43" d="M192.283 101.565C193.042 101.761 193.816 101.303 194.012 100.544C194.207 99.7849 193.75 99.0109 192.991 98.8154C192.231 98.62 191.457 99.0771 191.262 99.8364C191.066 100.596 191.524 101.37 192.283 101.565Z" fill="#898786"/>
            <path id="Vector_44" d="M194.707 102.189C195.466 102.384 196.24 101.927 196.435 101.168C196.631 100.409 196.174 99.6348 195.415 99.4393C194.655 99.2439 193.881 99.701 193.686 100.46C193.49 101.22 193.947 101.994 194.707 102.189Z" fill="#898786"/>
            <path id="Vector_45" d="M197.131 102.813C197.89 103.009 198.664 102.551 198.859 101.792C199.055 101.033 198.598 100.259 197.838 100.063C197.079 99.8679 196.305 100.325 196.11 101.084C195.914 101.844 196.371 102.618 197.131 102.813Z" fill="#898786"/>
            <path id="Vector_46" d="M199.555 103.437C200.314 103.632 201.088 103.175 201.283 102.416C201.479 101.657 201.022 100.883 200.262 100.687C199.503 100.492 198.729 100.949 198.534 101.708C198.338 102.468 198.795 103.242 199.555 103.437Z" fill="#898786"/>
            <path id="Vector_47" d="M201.979 104.061C202.738 104.256 203.512 103.799 203.707 103.04C203.903 102.281 203.446 101.507 202.686 101.311C201.927 101.116 201.153 101.573 200.958 102.332C200.762 103.091 201.219 103.865 201.979 104.061Z" fill="#898786"/>
            <path id="Vector_48" d="M209.25 105.933C210.009 106.128 210.783 105.671 210.979 104.912C211.174 104.152 210.717 103.379 209.958 103.183C209.199 102.988 208.425 103.445 208.229 104.204C208.034 104.963 208.491 105.737 209.25 105.933Z" fill="#898786"/>
            <path id="Vector_49" d="M211.674 106.557C212.433 106.752 213.207 106.295 213.403 105.536C213.598 104.776 213.141 104.002 212.382 103.807C211.623 103.612 210.849 104.069 210.653 104.828C210.458 105.587 210.915 106.361 211.674 106.557Z" fill="#898786"/>
            <path id="Vector_50" d="M204.402 104.685C205.162 104.88 205.936 104.423 206.131 103.664C206.327 102.905 205.869 102.131 205.11 101.935C204.351 101.74 203.577 102.197 203.381 102.956C203.186 103.715 203.643 104.489 204.402 104.685Z" fill="#898786"/>
            <path id="Vector_51" d="M206.826 105.309C207.586 105.504 208.36 105.047 208.555 104.288C208.751 103.529 208.293 102.755 207.534 102.559C206.775 102.364 206.001 102.821 205.805 103.58C205.61 104.339 206.067 105.113 206.826 105.309Z" fill="#898786"/>
            <path id="Vector_52" d="M214.098 107.181C214.857 107.376 215.631 106.919 215.827 106.16C216.022 105.4 215.565 104.626 214.806 104.431C214.046 104.235 213.273 104.693 213.077 105.452C212.882 106.211 213.339 106.985 214.098 107.181Z" fill="#898786"/>
            <path id="Vector_53" d="M216.522 107.805C217.281 108 218.055 107.543 218.251 106.784C218.446 106.024 217.989 105.25 217.23 105.055C216.47 104.859 215.696 105.317 215.501 106.076C215.306 106.835 215.763 107.609 216.522 107.805Z" fill="#898786"/>
            </g>
            <g id="Group_13">
            <path id="Vector_54" d="M172.445 108.347C173.205 108.543 173.979 108.086 174.174 107.327C174.37 106.567 173.912 105.793 173.153 105.598C172.394 105.402 171.62 105.859 171.424 106.619C171.229 107.378 171.686 108.152 172.445 108.347Z" fill="#898786"/>
            <path id="Vector_55" d="M174.869 108.971C175.629 109.167 176.403 108.71 176.598 107.95C176.793 107.191 176.336 106.417 175.577 106.222C174.818 106.026 174.044 106.483 173.848 107.243C173.653 108.002 174.11 108.776 174.869 108.971Z" fill="#898786"/>
            <path id="Vector_56" d="M177.293 109.595C178.052 109.791 178.826 109.334 179.022 108.574C179.217 107.815 178.76 107.041 178.001 106.846C177.242 106.65 176.468 107.107 176.272 107.867C176.077 108.626 176.534 109.4 177.293 109.595Z" fill="#898786"/>
            <path id="Vector_57" d="M179.717 110.219C180.476 110.415 181.25 109.958 181.446 109.198C181.641 108.439 181.184 107.665 180.425 107.47C179.666 107.274 178.892 107.731 178.696 108.491C178.501 109.25 178.958 110.024 179.717 110.219Z" fill="#898786"/>
            <path id="Vector_58" d="M182.141 110.843C182.9 111.039 183.674 110.582 183.87 109.822C184.065 109.063 183.608 108.289 182.849 108.094C182.089 107.898 181.315 108.355 181.12 109.115C180.925 109.874 181.382 110.648 182.141 110.843Z" fill="#898786"/>
            <path id="Vector_59" d="M184.565 111.467C185.324 111.663 186.098 111.206 186.294 110.446C186.489 109.687 186.032 108.913 185.273 108.718C184.513 108.522 183.739 108.979 183.544 109.738C183.348 110.498 183.806 111.272 184.565 111.467Z" fill="#898786"/>
            <path id="Vector_60" d="M186.989 112.091C187.748 112.287 188.522 111.83 188.718 111.07C188.913 110.311 188.456 109.537 187.697 109.342C186.937 109.146 186.163 109.603 185.968 110.362C185.772 111.122 186.229 111.896 186.989 112.091Z" fill="#898786"/>
            <path id="Vector_61" d="M189.413 112.715C190.172 112.911 190.946 112.453 191.141 111.694C191.337 110.935 190.88 110.161 190.12 109.965C189.361 109.77 188.587 110.227 188.392 110.986C188.196 111.746 188.653 112.52 189.413 112.715Z" fill="#898786"/>
            <path id="Vector_62" d="M191.837 113.339C192.596 113.535 193.37 113.077 193.565 112.318C193.761 111.559 193.304 110.785 192.544 110.589C191.785 110.394 191.011 110.851 190.816 111.61C190.62 112.37 191.077 113.144 191.837 113.339Z" fill="#898786"/>
            <path id="Vector_63" d="M194.26 113.963C195.02 114.158 195.794 113.701 195.989 112.942C196.185 112.183 195.728 111.409 194.968 111.213C194.209 111.018 193.435 111.475 193.24 112.234C193.044 112.994 193.501 113.768 194.26 113.963Z" fill="#898786"/>
            <path id="Vector_64" d="M196.684 114.587C197.444 114.782 198.218 114.325 198.413 113.566C198.609 112.807 198.151 112.033 197.392 111.837C196.633 111.642 195.859 112.099 195.663 112.858C195.468 113.617 195.925 114.391 196.684 114.587Z" fill="#898786"/>
            <path id="Vector_65" d="M199.108 115.211C199.868 115.406 200.642 114.949 200.837 114.19C201.032 113.431 200.575 112.657 199.816 112.461C199.057 112.266 198.283 112.723 198.087 113.482C197.892 114.241 198.349 115.015 199.108 115.211Z" fill="#898786"/>
            <path id="Vector_66" d="M206.38 117.083C207.139 117.278 207.913 116.821 208.109 116.062C208.304 115.302 207.847 114.528 207.088 114.333C206.329 114.138 205.555 114.595 205.359 115.354C205.164 116.113 205.621 116.887 206.38 117.083Z" fill="#898786"/>
            <path id="Vector_67" d="M208.804 117.707C209.563 117.902 210.337 117.445 210.533 116.686C210.728 115.926 210.271 115.152 209.512 114.957C208.752 114.761 207.978 115.219 207.783 115.978C207.587 116.737 208.045 117.511 208.804 117.707Z" fill="#898786"/>
            <path id="Vector_68" d="M201.532 115.835C202.291 116.03 203.065 115.573 203.261 114.814C203.456 114.055 202.999 113.281 202.24 113.085C201.481 112.89 200.707 113.347 200.511 114.106C200.316 114.865 200.773 115.639 201.532 115.835Z" fill="#898786"/>
            <path id="Vector_69" d="M203.956 116.459C204.715 116.654 205.489 116.197 205.685 115.438C205.88 114.678 205.423 113.905 204.664 113.709C203.905 113.514 203.131 113.971 202.935 114.73C202.74 115.489 203.197 116.263 203.956 116.459Z" fill="#898786"/>
            <path id="Vector_70" d="M211.228 118.331C211.987 118.526 212.761 118.069 212.957 117.31C213.152 116.55 212.695 115.776 211.936 115.581C211.176 115.385 210.402 115.843 210.207 116.602C210.011 117.361 210.469 118.135 211.228 118.331Z" fill="#898786"/>
            <path id="Vector_71" d="M213.652 118.955C214.411 119.15 215.185 118.693 215.38 117.934C215.576 117.174 215.119 116.4 214.36 116.205C213.6 116.009 212.826 116.466 212.631 117.226C212.435 117.985 212.892 118.759 213.652 118.955Z" fill="#898786"/>
            </g>
            <path id="Vector_72" d="M217.957 107.925L174 96.6104L171.756 105.329L215.712 116.644L217.957 107.925Z" fill="#EAC8A7"/>
            <g id="Group_14">
            <path id="Vector_73" d="M176.735 102.154C176.543 102.899 175.783 103.347 175.039 103.156C174.294 102.964 173.846 102.204 174.037 101.46C174.229 100.715 174.989 100.266 175.733 100.458C176.478 100.65 176.926 101.409 176.735 102.154Z" fill="#FCDFC8"/>
            <path id="Vector_74" d="M182.285 103.583C182.093 104.328 181.333 104.776 180.589 104.584C179.844 104.392 179.395 103.633 179.587 102.888C179.779 102.143 180.538 101.694 181.283 101.886C182.028 102.078 182.476 102.838 182.285 103.583Z" fill="#FCDFC8"/>
            <path id="Vector_75" d="M187.834 105.011C187.642 105.756 186.883 106.204 186.138 106.013C185.393 105.821 184.945 105.061 185.136 104.317C185.328 103.572 186.088 103.123 186.833 103.315C187.577 103.507 188.026 104.267 187.834 105.011Z" fill="#FCDFC8"/>
            <path id="Vector_76" d="M193.477 106.08C193.285 106.825 192.525 107.273 191.78 107.081C191.035 106.89 190.587 106.13 190.779 105.386C190.971 104.641 191.73 104.192 192.475 104.384C193.219 104.576 193.668 105.335 193.477 106.08Z" fill="#FCDFC8"/>
            <path id="Vector_77" d="M199.026 107.509C198.834 108.254 198.075 108.702 197.33 108.51C196.585 108.318 196.136 107.559 196.328 106.814C196.52 106.069 197.279 105.621 198.024 105.813C198.77 106.004 199.218 106.764 199.026 107.509Z" fill="#FCDFC8"/>
            <path id="Vector_78" d="M204.576 108.937C204.384 109.682 203.624 110.13 202.88 109.939C202.135 109.747 201.686 108.987 201.878 108.243C202.07 107.498 202.829 107.049 203.574 107.241C204.319 107.433 204.767 108.192 204.576 108.937Z" fill="#FCDFC8"/>
            <path id="Vector_79" d="M210.125 110.366C209.934 111.111 209.174 111.559 208.429 111.367C207.684 111.175 207.236 110.416 207.428 109.671C207.619 108.927 208.379 108.478 209.124 108.67C209.869 108.862 210.317 109.621 210.125 110.366Z" fill="#FCDFC8"/>
            <path id="Vector_80" d="M215.675 111.794C215.483 112.539 214.724 112.987 213.979 112.796C213.234 112.604 212.786 111.844 212.977 111.1C213.169 110.355 213.929 109.907 214.674 110.098C215.418 110.29 215.867 111.05 215.675 111.794Z" fill="#FCDFC8"/>
            </g>
            <path id="Vector_81" d="M230.126 85.916C233.281 79.674 232.016 72.7801 230.053 67.5648L229.411 67.7572C230.783 72.5144 231.526 79.027 228.012 84.4275C223.466 91.4111 217.96 93.4351 215.176 94.0221L216.882 98.4869C220.107 97.3502 225.921 94.2341 230.126 85.916Z" fill="#B2B2B2"/>
            <path id="Vector_82" d="M173.851 71.4303C174.102 64.4407 178.538 59.0144 182.776 55.3951L183.245 55.8735C179.746 59.3771 175.951 64.7212 176.421 71.1474C177.03 79.4578 180.875 83.889 183.029 85.7473L179.379 88.8334C177.104 86.2808 173.516 80.7445 173.851 71.4303Z" fill="#B2B2B2"/>
            <g id="Group_15">
            <path id="Vector_83" d="M216.815 85.9736L211.556 87.7814L216.193 101.27L221.452 99.4623L216.815 85.9736Z" fill="#C6C6C6"/>
            </g>
            <g id="Group_16">
            <path id="Vector_84" d="M212.406 87.9946C212.329 88.293 212.507 88.598 212.806 88.6753C213.104 88.7532 213.409 88.5743 213.487 88.2758C213.565 87.9774 213.386 87.6724 213.087 87.595C212.789 87.5172 212.484 87.6962 212.406 87.9946Z" fill="#898786"/>
            <path id="Vector_85" d="M212.997 89.7003C212.919 89.9987 213.098 90.3037 213.396 90.3811C213.695 90.4589 214 90.28 214.077 89.9815C214.155 89.6831 213.976 89.3781 213.678 89.3008C213.379 89.2229 213.074 89.4018 212.997 89.7003Z" fill="#898786"/>
            <path id="Vector_86" d="M213.587 91.4057C213.509 91.704 213.688 92.0091 213.987 92.0864C214.285 92.1642 214.59 91.9853 214.667 91.6868C214.745 91.3885 214.566 91.0834 214.268 91.0061C213.97 90.9284 213.665 91.1073 213.587 91.4057Z" fill="#898786"/>
            <path id="Vector_87" d="M214.178 93.1114C214.1 93.4098 214.279 93.7148 214.577 93.7922C214.876 93.87 215.181 93.6911 215.258 93.3926C215.335 93.0941 215.157 92.7892 214.858 92.7118C214.561 92.6341 214.256 92.813 214.178 93.1114Z" fill="#898786"/>
            <path id="Vector_88" d="M214.768 94.8168C214.69 95.1152 214.869 95.4202 215.168 95.4975C215.466 95.5749 215.771 95.3965 215.849 95.098C215.926 94.7996 215.748 94.4946 215.449 94.4172C215.151 94.3394 214.846 94.5184 214.768 94.8168Z" fill="#898786"/>
            <path id="Vector_89" d="M215.359 96.5227C215.281 96.821 215.46 97.1261 215.759 97.2034C216.057 97.2812 216.362 97.1023 216.439 96.8038C216.517 96.5055 216.338 96.2005 216.04 96.1231C215.741 96.0453 215.436 96.2242 215.359 96.5227Z" fill="#898786"/>
            <path id="Vector_90" d="M215.95 98.228C215.872 98.5264 216.051 98.8314 216.349 98.9087C216.648 98.9866 216.953 98.8077 217.03 98.5092C217.108 98.2108 216.929 97.9058 216.63 97.8284C216.332 97.7506 216.027 97.9295 215.95 98.228Z" fill="#898786"/>
            <path id="Vector_91" d="M216.54 99.9337C216.462 100.232 216.641 100.537 216.939 100.614C217.238 100.692 217.543 100.513 217.62 100.215C217.697 99.9164 217.519 99.6115 217.22 99.5341C216.923 99.4564 216.618 99.6353 216.54 99.9337Z" fill="#898786"/>
            </g>
            <g id="Group_17">
            <path id="Vector_92" d="M185.449 77.9085L174.875 87.4818L178.608 91.6039L189.181 82.0306L185.449 77.9085Z" fill="#C6C6C6"/>
            </g>
            <g id="Group_18">
            <path id="Vector_93" d="M188.125 81.6205C188.058 81.9217 187.76 82.1112 187.459 82.0445C187.157 81.9773 186.968 81.6794 187.035 81.3781C187.102 81.077 187.4 80.8875 187.701 80.9542C188.002 81.0209 188.192 81.3194 188.125 81.6205Z" fill="#898786"/>
            <path id="Vector_94" d="M186.821 82.8689C186.754 83.17 186.456 83.3595 186.155 83.2924C185.854 83.2252 185.665 82.9272 185.731 82.626C185.798 82.3249 186.096 82.1354 186.398 82.2021C186.699 82.2698 186.889 82.5678 186.821 82.8689Z" fill="#898786"/>
            <path id="Vector_95" d="M185.518 84.1171C185.451 84.4182 185.153 84.6077 184.852 84.5405C184.551 84.4733 184.361 84.1754 184.428 83.8742C184.495 83.5731 184.793 83.3835 185.094 83.4502C185.395 83.5179 185.585 83.8164 185.518 84.1171Z" fill="#898786"/>
            <path id="Vector_96" d="M184.214 85.3659C184.147 85.667 183.849 85.8565 183.548 85.7893C183.247 85.7222 183.058 85.4242 183.124 85.123C183.191 84.8219 183.489 84.6323 183.791 84.699C184.092 84.7662 184.282 85.0647 184.214 85.3659Z" fill="#898786"/>
            <path id="Vector_97" d="M182.911 86.6141C182.844 86.9153 182.546 87.1048 182.245 87.0376C181.944 86.9704 181.754 86.6725 181.821 86.3712C181.888 86.0701 182.186 85.8806 182.487 85.9473C182.788 86.015 182.978 86.313 182.911 86.6141Z" fill="#898786"/>
            <path id="Vector_98" d="M181.608 87.8624C181.54 88.1635 181.242 88.353 180.941 88.2863C180.64 88.2192 180.451 87.9212 180.517 87.62C180.584 87.3189 180.882 87.1294 181.184 87.196C181.485 87.2632 181.675 87.5618 181.608 87.8624Z" fill="#898786"/>
            <path id="Vector_99" d="M180.304 89.1111C180.237 89.4123 179.939 89.6018 179.638 89.5351C179.337 89.4679 179.147 89.17 179.214 88.8687C179.281 88.5676 179.579 88.3781 179.88 88.4448C180.182 88.5116 180.371 88.81 180.304 89.1111Z" fill="#898786"/>
            <path id="Vector_100" d="M179.001 90.3594C178.933 90.6605 178.635 90.85 178.334 90.7833C178.033 90.7162 177.844 90.4182 177.91 90.117C177.977 89.8159 178.275 89.6263 178.576 89.6935C178.878 89.7602 179.068 90.0583 179.001 90.3594Z" fill="#898786"/>
            </g>
            </g>
        </TMPL_IF>
        <TMPL_IF NAME="HAT_SIX">
            <g id="StrawHat">
            <path id="Vector" d="M181.244 86.7084C181.02 86.415 180.589 86.2285 180.171 86.2444C180.23 86.4032 180.288 86.5619 180.347 86.7208C179.608 86.316 178.587 86.2972 177.87 86.6751C178.12 86.7756 178.322 86.9572 178.418 87.1681C178.119 86.9771 177.721 86.8926 177.355 86.9424C177.381 87.1153 177.473 87.284 177.613 87.4202C177.24 87.0679 176.713 86.822 176.155 86.74C175.803 87.0193 175.586 87.4065 175.555 87.8113C175.365 87.6026 175.265 87.3426 175.28 87.09C174.945 87.2363 174.705 87.5107 174.645 87.8173C174.621 87.6403 174.597 87.4632 174.573 87.2861C174.299 87.4638 174.024 87.6414 173.75 87.819C173.835 87.3652 172.951 87.1089 172.504 87.3831C172.058 87.6574 171.973 88.1662 171.921 88.6244C171.504 88.4132 171.086 88.2019 170.669 87.9906C170.673 88.2242 170.677 88.4579 170.681 88.6916C169.855 88.1702 168.695 88.0275 167.758 88.3321C167.968 88.5407 168.178 88.7493 168.387 88.9578C167.886 88.763 167.319 88.6902 166.782 88.7517C166.888 88.918 167.046 89.0639 167.237 89.1709C166.275 88.9229 165.205 89.0126 164.363 89.4118C164.835 89.5407 165.263 89.7841 165.576 90.101C165.071 89.9865 164.567 89.872 164.063 89.7576C164.24 89.9764 164.418 90.1952 164.596 90.414C164.348 90.2078 164.031 90.0558 163.692 89.9805C163.843 90.1422 163.994 90.304 164.145 90.4658C163.427 90.4483 162.709 90.4307 161.991 90.4132C162.488 90.7271 162.984 91.0411 163.48 91.3551C163.018 91.2175 162.534 91.1357 162.048 91.1135C162.289 91.2576 162.53 91.4017 162.77 91.5458C161.876 91.4042 160.49 91.4436 159.681 91.7381C160.279 91.7614 160.878 91.7848 161.477 91.8081C160.516 91.6583 159.494 92.0743 159.103 92.7745C159.805 92.6899 160.534 92.7138 161.237 92.8447C160.741 92.8544 160.251 92.9305 159.793 93.069C160.031 93.1566 160.269 93.2442 160.507 93.3318C160.187 93.2701 159.841 93.3276 159.589 93.4842C159.866 93.4916 160.144 93.5454 160.399 93.6414C159.469 93.6913 158.623 94.1917 158.296 94.8854C158.873 94.8097 159.473 94.8249 160.053 94.9299C159.454 95.0036 158.882 95.1875 158.393 95.4637C158.736 95.5053 159.078 95.5469 159.42 95.5885C158.933 95.7414 158.447 95.8942 157.96 96.0471C158.378 96.1343 158.797 96.2214 159.215 96.3087C158.648 96.3884 158.081 96.4681 157.514 96.5478C158.03 97.6014 159.182 98.4582 160.524 98.7863C160.019 98.8422 159.514 98.8981 159.009 98.954C159.535 99.1666 160.106 99.3026 160.684 99.353C160.409 99.4723 160.135 99.5915 159.86 99.7108C160.203 99.8571 160.585 99.9378 160.966 99.9444C160.507 100.191 160.197 100.605 160.138 101.054C160.708 100.783 161.363 100.625 162.036 100.596C161.31 100.567 160.807 101.342 161.236 101.828C161.712 101.593 162.237 101.419 162.787 101.315C162.475 101.408 162.193 101.559 161.97 101.755C162.121 101.82 162.325 101.774 162.401 101.656C162.269 101.971 162.277 102.327 162.424 102.648C162.869 102.387 163.412 102.232 163.972 102.205C163.614 102.405 163.327 102.685 163.15 103.008C164.042 103.091 164.954 102.864 165.607 102.397C165.092 102.785 164.71 103.534 164.957 104.088C164.959 103.822 165.126 103.567 165.394 103.421C165.383 103.684 165.372 103.947 165.36 104.211C165.519 104.015 165.679 103.819 165.838 103.622C165.715 103.873 165.657 104.146 165.667 104.42C166.182 104.526 166.742 104.441 167.156 104.194C166.747 104.387 166.532 104.806 166.644 105.189C167.053 104.984 167.463 104.78 167.873 104.575C167.481 105.113 167.963 105.944 168.744 106.074C169.172 105.815 169.697 105.659 170.241 105.628C170.196 105.889 170.039 106.133 169.803 106.309C170.316 106.318 170.826 106.255 171.305 106.125C171.163 106.253 171.021 106.38 170.879 106.508C171.607 106.617 172.364 106.563 173.04 106.355C172.607 106.624 172.887 107.284 173.429 107.419C173.97 107.553 174.543 107.263 174.783 106.864C174.626 107.079 174.469 107.293 174.311 107.507C175.166 107.662 176.069 107.593 176.847 107.312C176.57 107.6 176.293 107.888 176.016 108.177C176.689 108.094 177.333 107.896 177.894 107.599C177.739 108.006 177.877 108.486 178.242 108.814C178.39 108.439 178.631 108.091 178.945 107.794C178.866 108.238 178.972 108.71 179.24 109.117C179.18 108.708 179.277 108.291 179.514 107.938C179.535 108.456 179.752 108.975 180.129 109.408C180.974 109.269 181.73 108.857 182.196 108.283C182.22 108.684 182.148 109.085 181.987 109.458C182.53 109.238 183.006 108.917 183.369 108.527C183.306 108.823 183.243 109.12 183.179 109.417C183.778 109.109 184.291 108.696 184.674 108.214C184.267 109.007 184.587 110.025 185.426 110.608C185.552 110.198 185.679 109.787 185.805 109.377C185.881 109.695 185.957 110.013 186.032 110.33C186.292 110.066 186.552 109.801 186.812 109.536C186.811 109.82 186.81 110.104 186.809 110.388C186.953 110.25 187.241 110.23 187.427 110.345C187.497 110.528 187.567 110.711 187.637 110.894C188.126 110.685 188.549 110.381 188.86 110.014C188.878 110.274 189.294 110.463 189.561 110.621C189.61 110.479 189.658 110.337 189.707 110.195C189.658 110.428 189.776 110.685 190.005 110.845C189.994 110.612 190.163 110.387 190.42 110.291C190.453 110.641 190.485 110.991 190.518 111.341C190.963 110.997 191.326 110.585 191.585 110.131C191.527 110.386 191.618 110.665 191.825 110.873C191.843 110.634 191.988 110.406 192.216 110.259C192.204 110.63 192.482 111.007 192.897 111.184C192.664 110.808 192.726 110.334 193.049 110.025C192.983 110.464 193.225 110.936 193.665 111.223C193.594 110.877 193.736 110.515 194.037 110.276C193.973 110.805 194.432 111.364 195.071 111.534C195.064 111.25 195.216 110.973 195.476 110.791C195.501 111.041 195.526 111.291 195.55 111.541C196.129 111.488 196.612 111.092 196.669 110.625C196.738 110.881 196.807 111.137 196.876 111.393C197.046 111.157 197.216 110.921 197.387 110.684C197.635 111.135 198.152 111.492 198.741 111.619C198.626 111.275 198.642 110.909 198.784 110.583C198.816 110.896 198.999 111.203 199.287 111.425C199.313 111.187 199.339 110.949 199.365 110.711C199.65 111.236 200.22 111.664 200.889 111.856C201.055 111.416 201.35 111.013 201.744 110.687C201.775 110.922 201.807 111.156 201.838 111.39C202.025 111.205 202.213 111.02 202.4 110.834C202.559 111.192 202.902 111.5 203.327 111.668C203.424 111.446 203.451 111.204 203.405 110.967C203.774 111.343 204.022 111.793 204.117 112.259C204.401 111.727 204.573 111.154 204.623 110.569C204.8 110.987 204.976 111.406 205.153 111.825C205.302 111.625 205.452 111.425 205.602 111.225C205.634 111.385 205.666 111.544 205.698 111.703C206.008 111.46 206.266 111.174 206.46 110.861C206.538 111.389 207.013 111.881 207.635 112.077C207.571 111.699 207.667 111.31 207.902 110.989C208.102 111.212 208.215 111.482 208.223 111.75C208.673 111.515 209.07 111.216 209.39 110.869C209.35 111.152 209.31 111.434 209.27 111.717C209.923 111.366 210.401 110.817 210.595 110.197C210.633 110.563 210.671 110.928 210.709 111.294C211.095 110.987 211.522 110.714 211.981 110.48C212.437 110.726 212.894 110.972 213.35 111.218C213.66 110.784 213.734 110.24 213.552 109.745C213.983 110.181 214.179 110.693 214.226 111.237C214.258 110.895 214.289 110.552 214.321 110.21C214.557 110.551 214.793 110.892 215.029 111.233C215.066 110.917 215.102 110.602 215.139 110.287C215.257 110.501 215.375 110.715 215.493 110.929C215.526 110.724 215.558 110.518 215.591 110.313C215.723 110.599 215.967 110.853 216.278 111.031C216.467 110.756 216.425 110.383 216.176 110.124C216.768 110.541 217.475 110.851 218.224 111.021C217.929 110.61 217.633 110.199 217.338 109.788C217.617 110.256 218.219 110.596 218.851 110.644C218.782 110.442 218.647 110.253 218.462 110.102C218.618 110.275 218.84 110.41 219.088 110.483C219.074 110.254 219.059 110.025 219.045 109.796C218.905 109.881 219.112 110.086 219.277 110.038C219.443 109.99 219.49 109.816 219.454 109.673C219.751 110.018 219.988 110.396 220.155 110.79C220.621 110.187 220.686 109.386 220.323 108.71C220.502 109.234 220.795 109.738 221.185 110.188C221.49 109.758 221.586 109.23 221.45 108.733C221.594 109.075 221.879 109.382 222.248 109.593C222.278 109.328 222.309 109.062 222.339 108.797C222.503 108.911 222.666 109.026 222.83 109.141C222.858 108.887 223.037 108.652 223.302 108.519C223.574 108.715 223.847 108.91 224.119 109.105C224.061 108.526 223.82 107.953 223.424 107.456C224.157 107.654 224.89 107.853 225.622 108.052C225.444 107.717 225.265 107.382 225.087 107.047C225.484 107.011 225.898 107.06 226.274 107.189C226.346 106.998 226.417 106.807 226.488 106.616C226.803 106.559 227.154 106.621 227.422 106.781C227.366 106.611 227.398 106.427 227.509 106.282C227.682 106.394 227.855 106.507 228.028 106.62C228.076 106.056 227.778 105.467 227.246 105.076C228.322 105.222 229.373 105.526 230.333 105.968C230.299 105.216 229.808 104.47 229.044 104.011C229.653 104.14 230.262 104.268 230.871 104.397C230.647 104.14 230.422 103.884 230.198 103.627C230.575 103.625 230.947 103.542 231.264 103.389C231.119 103.269 230.973 103.149 230.827 103.029C231.079 103.033 231.33 103.037 231.582 103.041C231.492 102.801 231.249 102.597 230.954 102.514C231.511 102.292 232.024 102.003 232.471 101.659C231.949 101.687 231.416 101.642 230.904 101.529C231.352 101.096 231.866 100.708 232.43 100.375C231.824 100.232 231.191 100.177 230.571 100.215C230.938 100.111 231.253 99.9036 231.451 99.6354C231.501 99.5661 231.542 99.4713 231.475 99.4069C231.408 99.3426 231.244 99.4332 231.327 99.4842C231.458 99.3764 231.711 99.3877 231.839 99.5071C231.589 99.4819 231.259 98.9798 231.008 98.9545C231.218 98.8837 231.385 98.7415 231.462 98.569C231.261 98.6219 231.061 98.6746 230.86 98.7274C230.999 98.6249 231.06 98.4581 231.014 98.3055C230.78 98.3438 230.546 98.382 230.311 98.4203C230.657 97.9735 231.17 97.6153 231.77 97.4015C230.779 97.2192 229.711 97.4223 228.962 97.9358C229.236 97.6097 229.587 97.327 229.992 97.1057C229.375 97.1242 228.766 97.2271 228.201 97.4087C228.441 97.3138 228.616 97.1235 228.66 96.9087C228.275 96.9662 227.911 97.0954 227.603 97.2834C228.066 96.6386 228.866 96.1639 229.776 95.9935C228.848 95.7636 227.812 95.8899 227.046 96.3265C227.302 96.1583 227.492 95.9264 227.584 95.6683C227.115 95.7682 226.661 95.9095 226.233 96.0891C226.465 95.7235 226.576 95.3057 226.552 94.8873C226.257 95.0764 226.076 95.3753 226.07 95.6855C226.17 95.2651 226.106 94.8143 225.888 94.4118C225.812 94.666 225.737 94.9203 225.661 95.1745C225.772 94.8625 225.769 94.5207 225.652 94.2016C225.344 94.3761 225.035 94.5506 224.726 94.7251C224.941 94.4633 225.098 94.1702 225.189 93.862C224.46 94.098 223.732 94.334 223.003 94.5701C223.359 94.027 222.936 92.9534 222.736 92.3414C222.69 92.567 222.589 92.7834 222.441 92.975C222.359 92.6864 222.277 92.398 222.196 92.1095C222.017 92.2366 221.924 92.4364 221.951 92.6321C222.02 92.2948 222.01 91.9441 221.92 91.604C221.451 91.837 220.981 92.07 220.511 92.3031C220.572 92.0357 220.632 91.7683 220.692 91.5009C220.465 91.536 220.238 91.571 220.011 91.606C220.066 91.4541 220.169 91.3154 220.308 91.2062C219.867 91.3381 219.426 91.4701 218.984 91.602C219.053 91.3087 218.496 90.9457 218.453 90.6451C218.317 90.716 218.181 90.7869 218.044 90.8577C218.085 90.7421 218.126 90.6266 218.166 90.511C217.903 90.5962 217.641 90.6815 217.378 90.7667C217.416 90.6718 217.364 90.5556 217.258 90.4978C216.859 90.6956 216.46 90.8934 216.061 91.0912C216.255 90.594 216.665 90.1606 217.206 89.8825C216.205 90.037 215.295 90.4882 214.685 91.1323C214.958 90.8291 215.158 90.4821 215.272 90.1146C214.982 90.1662 214.708 90.2697 214.477 90.4159C214.641 90.2323 214.729 90.0039 214.724 89.7726C214.452 89.8772 214.222 90.0479 214.072 90.2578C214.378 89.8825 214.03 89.2684 213.465 89.1875C213.535 89.4751 213.56 89.7684 213.538 90.0577C213.512 89.6748 213.217 89.3011 212.792 89.1131C212.756 89.2628 212.769 89.4219 212.83 89.5699C212.874 89.3651 212.841 89.1472 212.736 88.9516C212.537 89.1966 212.337 89.4417 212.138 89.6868C212.161 89.3721 212.184 89.0574 212.207 88.7428C211.996 88.7985 211.823 88.9332 211.747 89.1013C211.758 88.8957 211.768 88.6903 211.779 88.4848C211.556 88.5781 211.333 88.6715 211.11 88.7648C211.113 88.6167 211.115 88.4686 211.118 88.3205C210.28 88.2941 209.447 88.511 208.806 88.9224L181.244 86.7084Z" fill="#E28E26"/>
            <path id="Vector_2" d="M194.283 109.297C212.443 111.171 227.652 107.964 228.254 102.134C228.856 96.3036 214.622 90.0579 196.462 88.1838C178.303 86.3096 163.093 89.5167 162.492 95.3469C161.89 101.177 176.124 107.423 194.283 109.297Z" fill="#FDBA36"/>
            <path id="Vector_3" opacity="0.47" d="M222.208 107.392C221.838 106.923 221.401 106.494 220.953 106.111C218.669 104.158 215.698 102.775 212.715 103.139C210.482 103.411 208.491 104.612 206.465 105.591C202.485 107.513 197.8 108.634 193.655 107.101C190.145 105.803 187.394 102.742 183.734 101.964C182.208 101.639 180.629 101.74 179.072 101.652C177.515 101.565 175.89 101.252 174.693 100.253C173.496 99.2531 172.903 97.3995 173.729 96.0766C174.249 95.2429 175.192 94.7823 175.887 94.0873C177.926 92.0468 177.333 89.8795 175.772 88.3638C168 89.5163 162.837 91.9991 162.492 95.347C161.89 101.177 176.124 107.423 194.283 109.297C205.743 110.48 216.028 109.639 222.208 107.392Z" fill="#FDE392"/>
            <g id="Group">
            <g id="Group_2">
            <path id="Vector_4" d="M194.272 109.41C185.478 108.502 177.322 106.549 171.307 103.909C165.253 101.253 162.083 98.208 162.379 95.3353C162.676 92.4626 166.401 90.1294 172.869 88.7654C179.297 87.4101 187.68 87.1635 196.474 88.0711C205.268 88.9787 213.424 90.9322 219.439 93.5716C225.493 96.2279 228.663 99.2727 228.367 102.145C228.07 105.018 224.345 107.351 217.876 108.715C211.449 110.071 203.066 110.317 194.272 109.41ZM196.451 88.2964C178.382 86.4317 163.199 89.5998 162.604 95.3586C162.01 101.117 176.226 107.32 194.295 109.184C212.364 111.049 227.547 107.881 228.141 102.122C228.736 96.3635 214.519 90.1612 196.451 88.2964Z" fill="#E28E26"/>
            </g>
            <g id="Group_3">
            <path id="Vector_5" d="M194.07 108.727C185.908 107.885 178.346 106.084 172.745 103.647C167.042 101.165 164.047 98.3081 164.314 95.6031C164.42 94.5346 165.03 93.5362 166.13 92.636C170.679 88.9103 182.819 87.318 196.338 88.6736C196.433 88.6832 196.529 88.6929 196.624 88.7028C204.785 89.545 212.348 91.346 217.949 93.783C223.652 96.2652 226.647 99.1218 226.38 101.827C226.274 102.895 225.663 103.894 224.564 104.794C220.015 108.52 207.875 110.112 194.356 108.756C194.261 108.747 194.165 108.737 194.07 108.727ZM196.599 88.9277C196.504 88.9179 196.411 88.9084 196.315 88.8988C189.644 88.2298 183.228 88.265 177.76 89.0004C172.487 89.7095 168.408 91.0629 166.273 92.8111C165.222 93.6719 164.639 94.6187 164.54 95.6254C164.009 101.008 177.243 106.763 194.095 108.502C194.19 108.512 194.283 108.522 194.379 108.531C201.05 109.2 207.466 109.165 212.934 108.429C218.207 107.72 222.286 106.367 224.421 104.619C225.472 103.758 226.055 102.811 226.155 101.805C226.686 96.4223 213.451 90.6669 196.599 88.9277Z" fill="#E28E26"/>
            </g>
            <g id="Group_4">
            <path id="Vector_6" d="M193.868 108.046C186.34 107.269 179.369 105.62 174.184 103.385C168.83 101.076 166.012 98.4081 166.249 95.871C166.343 94.8679 166.911 93.9295 167.937 93.0817C172.18 89.5775 183.538 88.0482 196.202 89.276C203.949 90.0282 211.142 91.7029 216.458 93.9944C221.812 96.3024 224.63 98.9708 224.393 101.508C224.299 102.511 223.732 103.449 222.705 104.297C218.463 107.801 207.104 109.331 194.441 108.103C194.25 108.084 194.059 108.065 193.868 108.046ZM196.748 89.5582C196.558 89.5386 196.37 89.5198 196.18 89.5013C189.932 88.8956 183.927 88.9483 178.812 89.6538C173.881 90.3339 170.071 91.6133 168.081 93.2563C167.103 94.0643 166.563 94.9511 166.475 95.8921C166.007 100.898 178.259 106.207 193.895 107.821C194.084 107.84 194.272 107.859 194.463 107.878C200.71 108.483 206.716 108.431 211.83 107.725C216.761 107.045 220.572 105.766 222.561 104.123C223.539 103.315 224.08 102.428 224.168 101.487C224.636 96.481 212.383 91.1718 196.748 89.5582Z" fill="#E28E26"/>
            </g>
            <g id="Group_5">
            <path id="Vector_7" d="M193.668 107.365C186.772 106.654 180.392 105.156 175.623 103.122C170.619 100.988 167.977 98.5083 168.184 96.1391C168.266 95.2015 168.791 94.3229 169.745 93.5276C173.68 90.245 184.258 88.7785 196.065 89.8786C203.287 90.5501 210.001 92.0882 214.967 94.2059C219.972 96.3398 222.614 98.8198 222.406 101.189C222.324 102.127 221.799 103.005 220.846 103.801C216.91 107.083 206.333 108.55 194.525 107.45C194.239 107.423 193.952 107.395 193.668 107.365ZM196.895 90.1874C196.613 90.1582 196.329 90.1304 196.044 90.1039C184.293 89.0091 173.782 90.4548 169.89 93.7014C168.984 94.4566 168.486 95.2834 168.41 96.1587C167.996 100.879 179.721 105.844 194.546 107.224C206.298 108.319 216.809 106.873 220.701 103.627C221.606 102.871 222.104 102.045 222.181 101.169C222.586 96.5398 211.315 91.6756 196.895 90.1874Z" fill="#E28E26"/>
            </g>
            <g id="Group_6">
            <path id="Vector_8" d="M193.468 106.687C187.205 106.04 181.416 104.693 177.062 102.86C172.407 100.9 169.942 98.6085 170.119 96.4071C170.19 95.535 170.672 94.7162 171.552 93.9733C175.181 90.9123 184.977 89.5088 195.929 90.4809C202.628 91.076 208.86 92.4735 213.477 94.4172C218.132 96.3769 220.598 98.6687 220.42 100.87C220.349 101.742 219.867 102.561 218.987 103.304C215.358 106.365 205.562 107.768 194.61 106.796C194.228 106.762 193.847 106.726 193.468 106.687ZM197.042 90.8151C196.667 90.7764 196.289 90.7402 195.909 90.7064C185.013 89.7392 175.284 91.1216 171.698 94.1463C170.866 94.8488 170.41 95.6155 170.345 96.4252C169.992 100.8 180.886 105.351 194.63 106.571C205.526 107.538 215.255 106.156 218.841 103.131C219.673 102.428 220.129 101.662 220.194 100.852C220.538 96.5986 210.247 92.1779 197.042 90.8151Z" fill="#E28E26"/>
            </g>
            <g id="Group_7">
            <path id="Vector_9" d="M193.27 106.01C187.638 105.429 182.439 104.231 178.501 102.598C174.196 100.812 171.906 98.7089 172.054 96.6752C172.113 95.8686 172.552 95.1095 173.36 94.419C176.682 91.5796 185.697 90.239 195.793 91.0832C201.969 91.6001 207.719 92.8587 211.986 94.6285C216.291 96.414 218.581 98.5173 218.433 100.551C218.375 101.358 217.935 102.117 217.127 102.807C213.806 105.647 204.791 106.987 194.695 106.143C194.217 106.103 193.742 106.059 193.27 106.01ZM197.188 91.441C196.721 91.3928 196.249 91.3487 195.774 91.3089C185.734 90.4694 176.786 91.7884 173.507 94.5911C172.747 95.2408 172.334 95.9475 172.28 96.6916C171.987 100.72 182.05 104.858 194.714 105.917C204.753 106.757 213.702 105.438 216.98 102.635C217.74 101.985 218.153 101.279 218.207 100.535C218.489 96.6577 209.178 92.6783 197.188 91.441Z" fill="#E28E26"/>
            </g>
            <g id="Group_8">
            <path id="Vector_10" d="M193.074 105.336C188.074 104.82 183.461 103.77 179.941 102.336C175.985 100.724 173.871 98.8094 173.989 96.9436C174.036 96.2024 174.433 95.503 175.168 94.8648C178.182 92.247 186.416 90.9694 195.656 91.6858C201.308 92.1235 206.578 93.2439 210.495 94.8397C214.451 96.451 216.564 98.3659 216.446 100.232C216.4 100.973 216.003 101.672 215.268 102.31C212.253 104.928 204.02 106.206 194.78 105.49C194.207 105.445 193.638 105.394 193.074 105.336ZM197.34 92.065C196.777 92.0069 196.21 91.9557 195.639 91.9114C186.455 91.1995 178.288 92.455 175.316 95.0358C174.629 95.6327 174.258 96.2794 174.215 96.9579C174.104 98.719 176.168 100.554 180.026 102.126C183.923 103.713 189.168 104.828 194.797 105.264C203.981 105.976 212.148 104.72 215.12 102.14C215.807 101.543 216.178 100.896 216.22 100.217C216.332 98.4564 214.268 96.621 210.41 95.0493C206.909 93.6232 202.318 92.5788 197.34 92.065Z" fill="#E28E26"/>
            </g>
            <g id="Group_9">
            <path id="Vector_11" d="M192.881 104.665C188.511 104.214 184.484 103.31 181.38 102.074C177.774 100.637 175.836 98.9101 175.924 97.2122C175.96 96.5364 176.313 95.8966 176.975 95.3106C179.683 92.9144 187.136 91.6998 195.52 92.2881C200.647 92.6479 205.436 93.6292 209.004 95.051C212.61 96.4879 214.548 98.2143 214.46 99.9122C214.425 100.588 214.071 101.228 213.409 101.814C210.701 104.21 203.249 105.425 194.865 104.836C194.197 104.79 193.535 104.732 192.881 104.665ZM197.481 92.6851C196.829 92.6178 196.169 92.5606 195.504 92.5139C187.176 91.9295 179.791 93.1216 177.125 95.4802C176.51 96.0244 176.182 96.611 176.15 97.2239C176.068 98.8173 177.955 100.465 181.464 101.863C185.011 103.277 189.775 104.252 194.88 104.611C203.208 105.195 210.593 104.003 213.259 101.644C213.874 101.1 214.202 100.513 214.234 99.9006C214.316 98.3071 212.429 96.6595 208.92 95.2612C205.836 94.0321 201.83 93.1339 197.481 92.6851Z" fill="#E28E26"/>
            </g>
            <g id="Group_10">
            <path id="Vector_12" d="M192.693 103.998C188.95 103.612 185.506 102.853 182.819 101.811C179.563 100.549 177.802 99.0109 177.859 97.4809C177.883 96.8704 178.193 96.2901 178.783 95.7563C181.184 93.5817 187.855 92.4301 195.383 92.8904C199.987 93.1719 204.295 94.0142 207.513 95.262C210.77 96.5245 212.531 98.0623 212.473 99.5924C212.45 100.203 212.139 100.783 211.55 101.317C209.148 103.492 202.477 104.643 194.95 104.183C194.188 104.136 193.435 104.074 192.693 103.998ZM197.617 93.3007C196.878 93.2244 196.128 93.1628 195.369 93.1163C187.898 92.6595 181.294 93.7878 178.935 95.9241C178.392 96.4155 178.106 96.9422 178.086 97.4895C178.032 98.9155 179.742 100.375 182.901 101.6C186.099 102.84 190.383 103.677 194.964 103.957C202.434 104.414 209.039 103.286 211.398 101.149C211.94 100.658 212.226 100.131 212.247 99.5838C212.301 98.1578 210.591 96.6979 207.431 95.473C204.764 94.4389 201.339 93.6848 197.617 93.3007Z" fill="#E28E26"/>
            </g>
            </g>
            <path id="Vector_13" d="M211.283 97.0444C217.933 94.1757 225.424 93.2897 232.56 94.5281C231.962 93.3427 230.891 92.4037 229.638 91.9649C230.99 91.3701 232.187 90.4249 233.078 89.2469C229.3 90.1212 225.352 88.7548 221.488 89.0844C216.883 89.4771 212.842 92.217 209.203 95.0662L211.283 97.0444Z" fill="#1E2937"/>
            <path id="Vector_14" d="M207.807 96.1955C212.53 90.7056 218.877 86.6303 225.835 84.6204C224.778 83.8164 223.404 83.4407 222.085 83.5946C223.041 82.468 223.702 81.0945 223.988 79.6453C220.974 82.0851 216.826 82.5844 213.497 84.5719C209.528 86.9408 207.095 91.1729 205.07 95.3274L207.807 96.1955Z" fill="#1E2937"/>
            <path id="Vector_15" d="M179.758 96.2147C179.758 96.2147 180.307 89.7856 180.78 86.3071C181.253 82.8286 181.645 80.5759 184.972 78.7747C188.129 77.0651 193.28 76.56 199.148 77.0517C205.015 77.5434 210.145 79.6658 211.275 81.9444C212.406 84.2231 211.725 96.3278 211.725 96.3278C211.725 96.3278 207.918 103.445 195.081 102.12C182.244 100.795 179.758 96.2147 179.758 96.2147Z" fill="#E28E26"/>
            <path id="Vector_16" d="M195.825 88.2581C202.034 88.5347 206.167 87.008 209.098 84.9124C210.431 83.9597 211.244 82.8626 211.066 81.6194C210.785 79.6577 204.727 77.5171 199.035 77.0401C193.168 76.5483 188.086 77.0606 184.859 78.7631C183.584 79.4357 182.633 80.2843 182.357 81.2811C182.156 82.0034 182.496 82.8097 183.072 83.6941C184.852 86.4248 189.143 87.9601 195.825 88.2581Z" fill="#FDE392"/>
            <path id="Vector_17" d="M181.963 90.1148C183.612 91.8492 187.244 94.0229 195.179 94.5309C202.885 95.0266 207.053 93.2529 209.194 91.6778C210.771 90.5167 211.506 89.2938 211.815 88.6283C211.812 88.1369 211.806 87.6473 211.795 87.1685C211.516 87.8668 210.835 89.1487 209.293 90.3646C207.215 92.0039 203.101 93.8593 195.302 93.3893C194.632 93.3492 193.992 93.297 193.383 93.2342C186.467 92.5207 183.348 90.4171 181.941 88.7036C181.166 87.7596 180.829 86.8453 180.686 86.1595C180.68 86.2049 180.674 86.2495 180.667 86.2954C180.608 86.729 180.548 87.2085 180.488 87.7157C180.703 88.3801 181.128 89.2368 181.963 90.1148Z" fill="#E28E26"/>
            <path id="Vector_18" d="M209.195 94.5773C206.885 96.058 202.532 97.7066 194.912 97.1528C194.423 97.1172 193.948 97.0754 193.49 97.0281C186.714 96.3289 183.237 94.4018 181.494 92.8557C180.874 92.3068 180.427 91.7678 180.104 91.283C179.843 93.8869 179.645 96.2029 179.645 96.2029C179.645 96.2029 182.131 100.783 194.968 102.108C207.805 103.433 211.613 96.3161 211.613 96.3161C211.613 96.3161 211.711 94.5561 211.771 92.2527C211.281 92.9023 210.47 93.7603 209.195 94.5773Z" fill="#EDC594"/>
            <path id="Vector_19" d="M193.356 89.4486C194.119 89.5274 194.918 89.5869 195.754 89.6271C201.988 89.9281 206.526 88.8215 209.243 86.338C210.746 84.9651 211.279 83.4971 211.467 82.6948C211.447 82.6062 211.427 82.5213 211.405 82.4418C211.275 83.1441 210.809 84.7534 209.167 86.2543C206.473 88.7167 201.962 89.8134 195.76 89.514C189.185 89.1975 184.734 87.6068 182.891 84.9132C182.083 83.7335 181.928 82.5639 181.951 81.7494C181.912 81.8216 181.874 81.8944 181.837 81.9679C181.847 82.7838 182.044 83.8757 182.796 84.975C184.45 87.3947 187.997 88.8957 193.356 89.4486Z" fill="#EDC594"/>
            <path id="Vector_20" d="M193.428 90.7151C194.118 90.7864 194.851 90.8432 195.625 90.8834C203.539 91.2964 207.492 89.2995 209.415 87.5517C211.011 86.1008 211.512 84.575 211.661 83.9246C211.648 83.8101 211.635 83.6986 211.62 83.5904L211.607 83.5892C211.606 83.609 211.397 85.5964 209.339 87.4677C207.432 89.2011 203.506 91.1811 195.631 90.7701C187.342 90.3407 183.987 88.0173 182.631 86.1442C181.533 84.627 181.532 83.1477 181.606 82.4772C181.557 82.5963 181.511 82.7177 181.468 82.8407C181.445 83.6227 181.594 84.9028 182.538 86.208C183.78 87.9264 186.677 90.0187 193.428 90.7151Z" fill="#EDC594"/>
            <path id="Vector_21" d="M193.434 91.9776C194.086 92.0448 194.772 92.0993 195.495 92.1397C203.349 92.5807 207.382 90.653 209.382 88.9581C211.008 87.5807 211.593 86.1272 211.786 85.4725C211.779 85.3466 211.771 85.2223 211.763 85.1L211.76 85.0996C211.758 85.119 211.451 87.0561 209.309 88.8716C207.325 90.5532 203.318 92.4655 195.501 92.0266C187.242 91.5663 183.8 89.2485 182.368 87.3854C181.119 85.7605 181.155 84.2052 181.205 83.7129C181.159 83.8915 181.117 84.0746 181.077 84.2624C181.104 85.0016 181.322 86.208 182.276 87.4512C183.596 89.1705 186.6 91.2723 193.434 91.9776Z" fill="#EDC594"/>
            <path id="Vector_22" d="M193.448 93.2409C194.057 93.3036 194.696 93.3558 195.365 93.3958C203.16 93.8649 207.272 92.0061 209.349 90.3643C210.89 89.1465 211.571 87.8628 211.85 87.1634C211.848 87.0607 211.845 86.9583 211.843 86.8567C211.654 87.4273 211.028 88.8958 209.271 90.2816C207.209 91.9081 203.124 93.7491 195.372 93.2827C194.703 93.2426 194.066 93.1907 193.457 93.1279C186.591 92.4191 183.496 90.3355 182.103 88.6383C181.201 87.5386 180.903 86.4825 180.811 85.7939C180.794 85.9138 180.776 86.0357 180.759 86.1593C180.902 86.846 181.238 87.7615 182.012 88.7065C183.418 90.422 186.536 92.5277 193.448 93.2409Z" fill="#EDC594"/>
            <path id="Vector_23" d="M181.873 90.1846C183.408 91.8027 186.642 93.799 193.411 94.4976C193.973 94.5556 194.56 94.6046 195.172 94.6437C202.911 95.1416 207.105 93.3552 209.261 91.7688C210.704 90.7067 211.452 89.5887 211.815 88.8818C211.815 88.7972 211.815 88.7127 211.815 88.6282C211.505 89.2937 210.771 90.5166 209.193 91.6777C207.053 93.2529 202.885 95.0265 195.179 94.5308C187.244 94.0228 183.613 91.849 181.963 90.1148C181.128 89.2368 180.704 88.3801 180.488 87.7158C180.478 87.8001 180.468 87.8853 180.458 87.971C180.696 88.6111 181.119 89.3897 181.873 90.1846Z" fill="#EDC594"/>
            <path id="Vector_24" d="M181.683 91.5203C183.321 93.1021 186.675 95.0634 193.445 95.7621C193.958 95.815 194.49 95.8607 195.042 95.8983C202.722 96.4242 206.995 94.7067 209.228 93.1732C210.582 92.2434 211.37 91.2659 211.805 90.5798C211.806 90.5069 211.807 90.4336 211.808 90.3603C211.407 91.0356 210.615 92.0831 209.164 93.0799C206.946 94.6032 202.697 96.3091 195.05 95.7854C187.244 95.2523 183.52 93.1321 181.771 91.4471C181.033 90.7369 180.576 90.043 180.292 89.4592C180.285 89.5279 180.278 89.5968 180.27 89.6656C180.562 90.2237 181.006 90.8657 181.683 91.5203Z" fill="#EDC594"/>
            <path id="Vector_25" d="M207.82 84.5462C207.82 84.5462 210.312 83.5518 209.248 81.7352C208.184 79.9187 202.378 77.7265 196.476 77.5725C190.314 77.4118 187.01 78.8713 185.022 80.4867C183.035 82.1022 184.212 83.9304 184.954 84.4621C185.695 84.9938 207.82 84.5462 207.82 84.5462Z" fill="#E28E26"/>
            <path id="Vector_26" d="M184.954 84.4621C184.954 84.4621 188.928 77.9313 197.148 78.7797C205.368 79.628 207.82 84.5462 207.82 84.5462C207.82 84.5462 203.291 87.4875 196.052 87.2004C187.098 86.8452 184.954 84.4621 184.954 84.4621Z" fill="#FDBA36"/>
            <path id="Vector_27" d="M180.246 90.5495L179.416 96.3807C179.416 96.3807 181.3 101.713 194.813 103.107C208.325 104.502 211.806 98.1869 211.806 98.1869L212.139 91.8102C212.139 91.8102 206.694 98.2574 195.198 97.1728C182.349 95.9607 180.246 90.5495 180.246 90.5495Z" fill="#253243"/>
            <path id="Vector_28" opacity="0.47" d="M191.305 81.5381C191.075 79.6058 200.305 78.9745 202.115 82.2766C203.925 85.5787 191.779 85.5169 191.305 81.5381Z" fill="#FDE392"/>
            <path id="Vector_29" d="M180.371 91.6183L179.758 96.2147C179.758 96.2147 182.26 100.868 189.784 101.732L190.362 96.98C190.362 96.98 183.177 95.801 180.371 91.6183Z" fill="#3A526D"/>
            </g>
        </TMPL_IF>
        </g>
    <path class="invisible" id="Anim4" d="M166.137 135C140.137 140 145.637 170 148.637 188.5" stroke="<TMPL_VAR NAME="SKIN_COLOR">" stroke-width="4"/>
    <path class="invisible" id="Anim5" d="M166 135C177.5 149.5 182.5 172.5 181.5 185.5" stroke="<TMPL_VAR NAME="SKIN_COLOR">" stroke-width="4"/>
    <g class="invisible" id="Anim6">
        <path id="Body_2" d="M172 129.5C158 133 159.5 184 157.5 205" stroke="<TMPL_VAR NAME="SKIN_COLOR">" stroke-width="4"/>
        <g id="Group 6">
        <g id="RopeAroundNeck">
        <g id="Group 4">
        <path id="Vector 10" d="M170.009 134.117C168 136.19 163.548 132.484 165.501 130.5" stroke="#E5BB93" stroke-width="2"/>
        <path id="Vector 11" d="M165.381 130.661C165.91 130.06 166.542 130.35 166.793 130.57" stroke="#E5BB93" stroke-width="2"/>
        <path id="Vector 12" d="M169.705 133C170.272 133.564 169.944 134.178 169.709 134.414" stroke="#E5BB93" stroke-width="2"/>
        </g>
        <g id="Group 5">
        <path id="Vector 10_2" d="M171.04 133.037C168.706 134.661 165.358 130.078 167.621 128.529" stroke="#E5BB93" stroke-width="2"/>
        <path id="Vector 11_2" d="M167.474 128.663C168.101 128.181 168.629 128.599 168.814 128.868" stroke="#E5BB93" stroke-width="2"/>
        <path id="Vector 12_2" d="M171.003 131.872C171.409 132.547 170.967 133.084 170.695 133.268" stroke="#E5BB93" stroke-width="2"/>
        </g>
        <path id="Vector 13" d="M168.5 128.5C169 130 170.5 131 171 132" stroke="#E5BB93" stroke-width="2"/>
        </g>
        </g>
        </g>
    <path class="invisible" id="Anim7" d="M137 266.5C145.4 216.9 153.833 203.667 157 203" stroke="<TMPL_VAR NAME="SKIN_COLOR">" stroke-width="4"/>
    <path class="invisible" id="Anim8" d="M170.5 269C167.5 225.5 164.5 202 157 203" stroke="<TMPL_VAR NAME="SKIN_COLOR">" stroke-width="4"/>
</svg>