<svg width="445" height="550" viewBox="10 -130 215 550" fill="none" xmlns="http://www.w3.org/2000/svg">
    <g id="French">
<path class="invisible" id="Anim7" d="M194 325C208.5 345 175.823 349.423 180.029 357.321" stroke="<TMPL_VAR NAME="SKIN_COLOR">" stroke-width="4"/>
<path class="invisible" id="Anim8" d="M246 342.5C222 371.5 181.928 364.826 180.028 357.321" stroke="<TMPL_VAR NAME="SKIN_COLOR">" stroke-width="4"/>
<path class="invisible" id="Anim4" d="M126 317.595C146 306.5 159.5 365 182 357.5" stroke="<TMPL_VAR NAME="SKIN_COLOR">" stroke-width="4"/>
<path class="invisible" id="Anim5" d="M118.025 318.587C103.266 330.218 93.0694 351.707 91.1244 364.731" stroke="<TMPL_VAR NAME="SKIN_COLOR">" stroke-width="4"/>
<g class="invisible" id="Anim1">
    <g id="Pillar2">
    <g id="Rectangle 2">
    <mask id="path-5-inside-1_0_1" fill="white">
    <path d="M49.9999 28H32.0001V389H49.9999V28Z"/>
    </mask>
    <path d="M49.9999 28H32.0001V389H49.9999V28Z" fill="#A45931"/>
    <path d="M49.9999 28H32.0001V389H49.9999V28Z" fill="black" fill-opacity="0.2"/>
    <path d="M32.0001 28H31.0001V27H32.0001V28ZM32.0001 389V390H31.0001V389H32.0001ZM49.9999 29H32.0001V27H49.9999V29ZM33.0001 28V389H31.0001V28H33.0001ZM32.0001 388H49.9999V390H32.0001V388Z" fill="black" mask="url(#path-5-inside-1_0_1)"/>
    </g>
    <g id="Polygon 3">
    <mask id="path-7-inside-2_0_1" fill="white">
    <path d="M32.0001 28L41.0001 27H56L50 27.9999L32.0001 28Z"/>
    </mask>
    <path d="M32.0001 28L41.0001 27H56L50 27.9999L32.0001 28Z" fill="#A45931"/>
    <path d="M41.0001 27L40.8896 26.0061L40.9447 26H41.0001V27ZM32.0001 28L32.0002 29L31.8897 27.0061L32.0001 28ZM56 27V26L56.1643 27.9864L56 27ZM50 27.9999L50.1644 28.9863L50.0828 28.9999L50 28.9999L50 27.9999ZM41.1105 27.9939L32.1106 28.9939L31.8897 27.0061L40.8896 26.0061L41.1105 27.9939ZM56 28H41.0001V26H56V28ZM56.1643 27.9864L50.1644 28.9863L49.8356 27.0135L55.8356 26.0136L56.1643 27.9864ZM50 28.9999L32.0002 29L32.0001 27L50 26.9999L50 28.9999Z" fill="black" mask="url(#path-7-inside-2_0_1)"/>
    </g>
    <path id="Polygon 2" d="M55.4999 36.1531V382.56L50.4999 387.759V28.4236L55.4999 27.5902V36.1531Z" fill="#240C0C" stroke="black"/>
    </g>
    <g id="Pillar1">
    <g id="Rectangle 2_2">
    <mask id="path-10-inside-3_0_1" fill="white">
    <path d="M220 28H202V389H220V28Z"/>
    </mask>
    <path d="M220 28H202V389H220V28Z" fill="#A45931"/>
    <path d="M220 28H202V389H220V28Z" fill="black" fill-opacity="0.2"/>
    <path d="M202 28H201V27H202V28ZM202 389V390H201V389H202ZM220 29H202V27H220V29ZM203 28V389H201V28H203ZM202 388H220V390H202V388Z" fill="black" mask="url(#path-10-inside-3_0_1)"/>
    </g>
    <g id="Polygon 3_2">
    <mask id="path-12-inside-4_0_1" fill="white">
    <path d="M202 28L211 27H226L220 27.9999L202 28Z"/>
    </mask>
    <path d="M202 28L211 27H226L220 27.9999L202 28Z" fill="#A45931"/>
    <path d="M211 27L210.89 26.0061L210.945 26H211V27ZM202 28L202 29L201.89 27.0061L202 28ZM226 27V26L226.164 27.9864L226 27ZM220 27.9999L220.164 28.9863L220.083 28.9999L220 28.9999L220 27.9999ZM211.111 27.9939L202.111 28.9939L201.89 27.0061L210.89 26.0061L211.111 27.9939ZM226 28H211V26H226V28ZM226.164 27.9864L220.164 28.9863L219.836 27.0135L225.836 26.0136L226.164 27.9864ZM220 28.9999L202 29L202 27L220 26.9999L220 28.9999Z" fill="black" mask="url(#path-12-inside-4_0_1)"/>
    </g>
    <path id="Polygon 2_2" d="M225.5 36.1531V382.56L220.5 387.759V28.4236L225.5 27.5902V36.1531Z" fill="#240C0C" stroke="black"/>
    </g>
    <g id="Top_pillar">
    <path id="Polygon 9" d="M229.5 13.9477V24.871L224.617 28.0331L224.617 1.9109L229.5 0.646088V13.9477Z" fill="#240C0C" stroke="black"/>
    <g id="Rectangle 5">
    <mask id="path-16-inside-5_0_1" fill="white">
    <path d="M224.117 1.52396H28V28.9525H224.117V1.52396Z"/>
    </mask>
    <path d="M224.117 1.52396H28V28.9525H224.117V1.52396Z" fill="#A45931"/>
    <path d="M28 1.52396H27V0.523956H28V1.52396ZM28 28.9525V29.9525H27V28.9525H28ZM224.117 2.52396H28V0.523956H224.117V2.52396ZM29 1.52396V28.9525H27V1.52396H29ZM28 27.9525H224.117V29.9525H28V27.9525Z" fill="black" mask="url(#path-16-inside-5_0_1)"/>
    </g>
    <rect id="Rectangle 6" width="17" height="3.04762" transform="matrix(-1 0 0 1 220 28.9524)" fill="#240C0C"/>
    <rect id="Rectangle 7" width="17" height="3.04762" transform="matrix(-1 0 0 1 50 28.9524)" fill="#240C0C"/>
    <path id="Polygon 10" d="M226.075 0.5H36.8681L33.8344 1.02381H224.053L226.075 0.5Z" fill="#A45931" stroke="black"/>
    </g>
    <g id="headrest">
    <path id="Polygon 10_2" d="M201.5 296H55.118L54.118 296.5H201.5V296Z" fill="#A45931" stroke="black"/>
    <g id="Group 8">
    <g id="Subtract">
    <mask id="path-22-inside-6_0_1" fill="white">
    <path fill-rule="evenodd" clip-rule="evenodd" d="M52 297H202V334H52V297ZM127 327C133.627 327 139 321.627 139 315C139 308.373 133.627 303 127 303C120.373 303 115 308.373 115 315C115 321.627 120.373 327 127 327Z"/>
    </mask>
    <path fill-rule="evenodd" clip-rule="evenodd" d="M52 297H202V334H52V297ZM127 327C133.627 327 139 321.627 139 315C139 308.373 133.627 303 127 303C120.373 303 115 308.373 115 315C115 321.627 120.373 327 127 327Z" fill="#A45931"/>
    <path d="M202 297H203V296H202V297ZM52 297V296H51V297H52ZM202 334V335H203V334H202ZM52 334H51V335H52V334ZM202 296H52V298H202V296ZM203 334V297H201V334H203ZM52 335H202V333H52V335ZM51 297V334H53V297H51ZM138 315C138 321.075 133.075 326 127 326V328C134.18 328 140 322.18 140 315H138ZM127 304C133.075 304 138 308.925 138 315H140C140 307.82 134.18 302 127 302V304ZM116 315C116 308.925 120.925 304 127 304V302C119.82 302 114 307.82 114 315H116ZM127 326C120.925 326 116 321.075 116 315H114C114 322.18 119.82 328 127 328V326Z" fill="black" mask="url(#path-22-inside-6_0_1)"/>
    </g>
    <path id="Subtract_2" fill-rule="evenodd" clip-rule="evenodd" d="M136.852 321.852C134.91 323.206 132.547 324 130 324C123.373 324 118 318.627 118 312C118 309.453 118.794 307.09 120.148 305.148C117.036 307.316 115 310.92 115 315C115 321.627 120.373 327 127 327C131.08 327 134.684 324.964 136.852 321.852Z" fill="#240C0C"/>
    </g>
    <line id="Line 1" x1="114" y1="315" x2="53" y2="315" stroke="black"/>
    <line id="Line 2" x1="201" y1="315" x2="140" y2="315" stroke="black"/>
    </g>
    </g>
<g class="invisible" id="Anim2">
    <g id="Top_pillar_2">
    <g id="Rectangle 5_2">
    <mask id="path-27-inside-7_0_1" fill="white">
    <path d="M202 38H52V51H202V38Z"/>
    </mask>
    <path d="M202 38H52V51H202V38Z" fill="#A45931"/>
    <path d="M52 38H51V37H52V38ZM52 51V52H51V51H52ZM202 39H52V37H202V39ZM53 38V51H51V38H53ZM52 50H202V52H52V50Z" fill="black" mask="url(#path-27-inside-7_0_1)"/>
    </g>
    <g id="Polygon 10_3">
    <mask id="path-29-inside-8_0_1" fill="white">
    <path d="M52 38L54.9801 37H202L202 38H52Z"/>
    </mask>
    <path d="M52 38L54.9801 37H202L202 38H52Z" fill="#A45931"/>
    <path d="M54.9801 37L54.662 36.052L54.8168 36H54.9801V37ZM52 38V39L51.6819 37.052L52 38ZM202 37V36H203L203 37L202 37ZM202 38L203 38L203 39H202V38ZM55.2983 37.948L52.3181 38.948L51.6819 37.052L54.662 36.052L55.2983 37.948ZM202 38H54.9801V36H202V38ZM203 37L203 38L201 38L201 37L203 37ZM202 39H52V37H202V39Z" fill="black" mask="url(#path-29-inside-8_0_1)"/>
    </g>
    </g>
    <path id="Vector 4" d="M126 29C126 31.5 126 34 126 37" stroke="#E6BB93" stroke-width="4"/>
    <path id="Vector 5" d="M28 18C6.5 18 44 236 1 255" stroke="#E6BB93" stroke-width="4"/>
    <rect id="Rectangle 8" x="124" y="29" width="4" height="3" fill="#7C5E41"/>
    <path id="Polygon 11" d="M182 51V108L76 73.3043V51H182Z" fill="#C0C0C0"/>
    </g>
<g class="invisible" id="Anim3">
    <path id="Ellipse 1" d="M92.1587 297.297C101.321 290.807 114.234 293.11 120.972 302.621C127.71 312.132 125.6 325.078 116.438 331.569C107.276 338.059 94.3626 335.756 87.6247 326.245C80.8868 316.734 82.9968 303.788 92.1587 297.297Z" fill="white" stroke="<TMPL_VAR NAME="SKIN_COLOR">" stroke-width="5"/>
    <path id="Vector 5_2" d="M116.467 316.916C109.159 308.56 110.892 305.945 112.731 304.295" stroke="black" stroke-width="2"/>
    <path id="Vector 6" d="M104.289 325.196C101.834 321.73 98.7151 319.776 95.7885 319.074" stroke="black" stroke-width="2"/>
    <path id="Vector 7" d="M97.3774 325.235C100.843 322.78 101.68 319.064 100.534 317.446" stroke="black" stroke-width="2"/>
    <path id="Vector 8" d="M100.428 310.929C98.4351 307.136 95.4516 304.592 92.7664 303.232" stroke="black" stroke-width="2"/>
    <path id="Vector 9" d="M93.6508 310.179C96.8852 307.887 98.6466 303.517 98.8197 301.312" stroke="black" stroke-width="2"/>
    <TMPL_IF NAME="HAT_ONE">
        <g id="Crown">
        <g id="Group_41">
        <path id="Vector_166" d="M107.205 289.061C103.578 296.179 98.9303 302.694 93.4343 308.41C93.9932 298.768 92.6295 289.687 89.7767 281.729C95.5257 284.3 101.337 286.744 107.205 289.061Z" fill="#C28D00"/>
        <path id="Vector_167" d="M80.4625 319.336C87.0785 314.859 92.9701 309.442 97.9639 303.282C88.4637 305.027 79.284 304.795 71.0351 302.947C74.2956 308.334 77.439 313.799 80.4625 319.336Z" fill="#C28D00"/>
        </g>
        <path id="Vector_168" d="M102.95 296.428C98.6177 303.092 93.3259 309.083 87.2477 314.204C85.004 305.507 81.6772 297.357 77.4288 289.95C85.3623 293.212 93.9475 295.42 102.95 296.428Z" fill="#ECAB00"/>
        <g id="Group_42">
        <path id="Vector_169" d="M107.205 289.061C103.578 296.179 98.9303 302.694 93.4343 308.41C97.2926 295.335 97.1731 282.499 94.123 271.569C99.087 276.607 103.508 282.481 107.205 289.061Z" fill="#DB9F00"/>
        <path id="Vector_170" d="M80.4625 319.336C87.0785 314.859 92.9701 309.442 97.9639 303.282C85.4652 308.725 72.712 310.191 61.4893 308.514C67.1017 312.818 73.4768 316.48 80.4625 319.336Z" fill="#DB9F00"/>
        </g>
        </g>
        </g>
    </TMPL_IF>
    <TMPL_IF NAME="HAT_TWO">
        <g id="PirateHat">
        <path id="Vector_152" d="M68.6623 259.476C68.6623 259.476 67.3011 281.698 95.3144 291.326C95.3144 291.326 85.7578 284.028 85.6277 275.092C85.625 274.903 82.3759 274.29 82.3632 274.104C82.3513 273.926 85.5768 274.175 85.5564 273.999C85.3564 272.276 84.7505 270.686 83.8666 269.241C83.7394 269.034 81.3811 270.699 81.243 270.497C81.0742 270.251 83.1236 268.14 82.9394 267.902C82.7946 267.716 81.6461 268.64 81.4927 268.459C81.3026 268.234 82.1052 266.906 81.9025 266.69C78.1334 262.674 72.3507 260.174 68.6623 259.476Z" fill="#C1272D"/>
        <path id="Vector_153" d="M71.6889 263.74C71.6889 263.74 71.9039 264.201 72.3179 264.989C72.7333 265.775 73.3387 266.893 74.1267 268.196C74.5117 268.853 74.9543 269.549 75.4229 270.285C75.8898 271.021 76.4135 271.777 76.9441 272.565C77.5048 273.332 78.0499 274.149 78.6649 274.934C79.2688 275.727 79.8778 276.535 80.5308 277.308C80.852 277.698 81.1732 278.088 81.4928 278.477C81.8266 278.853 82.1589 279.228 82.4888 279.6C82.8224 279.969 83.137 280.348 83.4765 280.697C83.8144 281.047 84.1478 281.393 84.4762 281.734C84.8075 282.07 85.1186 282.416 85.4495 282.727C85.7796 283.04 86.1022 283.345 86.4167 283.642C86.7305 283.939 87.0357 284.227 87.3312 284.507C87.6324 284.779 87.9369 285.028 88.2213 285.274C88.7956 285.762 89.315 286.216 89.7866 286.604C90.2722 286.974 90.696 287.296 91.0447 287.562C91.7408 288.092 92.1388 288.395 92.1388 288.395L92.1793 288.426C92.5632 288.719 92.6373 289.268 92.3449 289.652C92.0521 290.036 91.5031 290.11 91.1192 289.818C91.1077 289.809 91.094 289.798 91.0829 289.788C91.0829 289.788 90.689 289.454 89.9997 288.868C89.6558 288.575 89.238 288.219 88.7589 287.812C88.2953 287.387 87.787 286.892 87.2254 286.362C86.9472 286.094 86.6501 285.822 86.357 285.527C86.0703 285.225 85.7743 284.914 85.4699 284.593C85.1659 284.273 84.8535 283.944 84.5341 283.608C84.2143 283.273 83.9161 282.903 83.5974 282.543C83.2827 282.18 82.9628 281.81 82.6389 281.436C82.3135 281.063 82.0145 280.66 81.6966 280.269C81.3829 279.874 81.0669 279.477 80.7494 279.077C80.447 278.667 80.1432 278.255 79.8397 277.843C79.2223 277.026 78.6508 276.178 78.0855 275.346C77.5091 274.522 77.0035 273.669 76.4818 272.868C75.9907 272.046 75.5057 271.259 75.0767 270.495C74.6463 269.731 74.2397 269.01 73.8894 268.33C73.1702 266.981 72.6243 265.831 72.2513 265.022C71.8787 264.212 71.6889 263.74 71.6889 263.74Z" fill="#AD171C"/>
        <g id="Group_37">
        <g id="Group_38">
        <path id="Vector_154" d="M96.5348 271.608C93.3243 274.022 98.2161 273.258 91.8702 280.542C85.5243 287.826 71.9516 277.562 64.5248 289.479C57.098 301.396 72.2923 309.059 68.5484 317.965C64.8045 326.871 63.336 322.143 62.5828 326.088C62.2977 327.581 63.969 329.645 66.6289 330.877C65.2867 329.766 63.8714 329.006 64.0674 327.978C64.8206 324.033 66.9729 328.222 70.7168 319.316C74.4607 310.41 59.2664 302.748 66.6932 290.83C74.12 278.913 87.6928 289.178 94.0387 281.893C100.385 274.609 95.6751 274.522 98.8856 272.108C99.7218 271.479 101.027 272.416 102.616 273.131C100.338 271.285 97.7496 270.695 96.5348 271.608Z" fill="#C5A34C"/>
        <path id="Subtract_3" fill-rule="evenodd" clip-rule="evenodd" d="M95.3394 273.753C95.2643 273.056 95.2153 272.6 96.5347 271.608C99.7456 269.194 112.566 277.284 103.828 291.305L103.573 291.714C100.902 290.049 94.2945 295.826 88.8158 304.617C83.3371 313.409 81.0615 321.885 83.7328 323.55L83.4786 323.958C74.7402 337.98 61.8295 330.034 62.5827 326.088C62.8923 324.467 63.3226 324.31 63.982 324.07C64.9272 323.726 66.343 323.211 68.5483 317.965C70.1961 314.045 68.1752 310.366 66.0291 306.459C63.2992 301.49 60.3667 296.151 64.5247 289.479C68.6827 282.807 74.7671 283.088 80.4311 283.349C84.884 283.555 89.0771 283.748 91.8701 280.542C95.6081 276.251 95.447 274.753 95.3394 273.753Z" fill="#333333"/>
        </g>
        <g id="Group_39">
        <path id="Vector_155" d="M81.9503 305.956L78.0458 290.389C78.5958 290.251 78.9299 289.693 78.7917 289.143C78.6536 288.593 78.0961 288.259 77.5461 288.397C77.2196 288.479 76.9707 288.709 76.8498 288.997C76.6074 288.801 76.279 288.715 75.9526 288.797C75.4026 288.935 75.0685 289.493 75.2067 290.043C75.3448 290.593 75.9023 290.927 76.4523 290.789L80.3568 306.355C79.8068 306.494 79.4728 307.051 79.6109 307.601C79.749 308.151 80.3065 308.485 80.8565 308.347C81.183 308.265 81.4319 308.035 81.5528 307.747C81.7952 307.944 82.1236 308.029 82.45 307.947C83.0001 307.809 83.3341 307.252 83.1959 306.702C83.0578 306.152 82.5003 305.817 81.9503 305.956Z" fill="#F2F2F2"/>
        <path id="Vector_156" d="M71.218 299.527L86.7847 295.623C86.6466 295.073 86.9808 294.515 87.5306 294.377C88.0806 294.239 88.6385 294.573 88.7763 295.123C88.8581 295.45 88.7731 295.778 88.576 296.02C88.8642 296.141 89.0939 296.391 89.176 296.717C89.3141 297.267 88.9799 297.824 88.4301 297.962C87.8801 298.1 87.3222 297.766 87.1844 297.216L71.6177 301.121C71.7559 301.671 71.4216 302.229 70.8718 302.366C70.3218 302.505 69.764 302.17 69.6262 301.621C69.5444 301.294 69.6294 300.966 69.8265 300.723C69.5383 300.602 69.3085 300.353 69.2265 300.027C69.0883 299.477 69.4226 298.919 69.9724 298.781C70.5224 298.643 71.0799 298.977 71.218 299.527Z" fill="#F2F2F2"/>
        <g id="Group_40">
        <path id="Vector_157" d="M82.6538 302.187L82.4131 302.589C82.3214 302.742 82.1212 302.792 81.9683 302.7L80.5907 301.875C80.4378 301.784 80.3875 301.583 80.4792 301.43L80.7197 301.029C80.8114 300.876 81.0116 300.826 81.1648 300.917L82.5423 301.742C82.6949 301.833 82.7452 302.034 82.6538 302.187Z" fill="#F2F2F2"/>
        <path id="Vector_158" d="M83.2571 301.179L83.0163 301.581C82.9246 301.734 82.7244 301.784 82.5715 301.693L81.1939 300.868C81.041 300.776 80.9907 300.576 81.0824 300.423L81.3229 300.021C81.4146 299.868 81.6148 299.818 81.7677 299.91L83.1453 300.735C83.2985 300.826 83.3488 301.026 83.2571 301.179Z" fill="#F2F2F2"/>
        <path id="Vector_159" d="M83.8609 300.172L83.6202 300.573C83.5285 300.726 83.3282 300.777 83.1753 300.685L81.7977 299.86C81.6448 299.768 81.5945 299.568 81.6862 299.415L81.9267 299.014C82.0184 298.861 82.2186 298.81 82.3716 298.902L83.7491 299.727C83.9019 299.818 83.9522 300.018 83.8609 300.172Z" fill="#F2F2F2"/>
        <path id="Vector_160" d="M84.4641 299.164L84.2234 299.566C84.1317 299.719 83.9315 299.769 83.7785 299.677L82.401 298.852C82.248 298.761 82.1978 298.56 82.2895 298.408L82.5302 298.006C82.6219 297.853 82.8221 297.802 82.975 297.894L84.3526 298.719C84.5055 298.811 84.5558 299.011 84.4641 299.164Z" fill="#F2F2F2"/>
        </g>
        <path id="Vector_161" d="M83.379 298.855L81.6288 301.778C81.3539 302.237 81.1241 302.61 80.6647 302.335L79.3347 301.539C78.8753 301.264 78.7247 300.663 79.0001 300.203L80.7502 297.281C81.0252 296.822 81.6262 296.671 82.0854 296.946L83.4154 297.743C83.8744 298.017 83.654 298.396 83.379 298.855Z" fill="white"/>
        <path id="Vector_162" d="M80.6039 293.789C82.7943 295.101 83.5063 297.94 82.1947 300.131C80.8827 302.321 78.0437 303.033 75.853 301.722C73.6627 300.41 73.2907 297.774 74.6027 295.584C75.9144 293.393 78.4135 292.477 80.6039 293.789Z" fill="white"/>
        <path id="Vector_163" d="M79.0349 298.977C79.0731 299.029 79.2588 299.14 79.3554 299.248C79.3976 299.306 79.4341 299.367 79.464 299.431C79.6146 299.75 79.6085 300.135 79.4147 300.459C79.104 300.978 78.429 301.144 77.9066 300.832C77.5149 300.597 77.3204 300.16 77.3786 299.737C77.3886 299.666 77.405 299.596 77.4294 299.528C77.6637 299.067 78.3501 298.973 78.8445 298.929C78.9084 298.935 78.9724 298.951 79.0349 298.977Z" fill="#333333"/>
        <path id="Vector_164" d="M79.6862 297.89C79.7491 297.9 79.9348 298.011 80.0759 298.045C80.1467 298.055 80.2179 298.058 80.2881 298.055C80.6408 298.037 80.9771 297.85 81.1712 297.526C81.482 297.007 81.3103 296.333 80.7881 296.02C80.3964 295.786 79.9187 295.821 79.5732 296.072C79.5157 296.114 79.4617 296.162 79.4129 296.215C79.1171 296.64 79.3584 297.288 79.5533 297.745C79.5892 297.799 79.6335 297.848 79.6862 297.89Z" fill="#333333"/>
        <path id="Vector_165" d="M80.9167 299.934C80.6067 300.012 80.321 299.278 80.4404 299.078C80.5599 298.879 81.346 298.799 81.4198 299.094C81.3305 299.423 80.9425 299.928 80.9167 299.934Z" fill="#333333"/>
        </g>
        </g>
        </g>
    </TMPL_IF>
    <TMPL_IF NAME="HAT_THREE">
        <g id="BaseballCap">
        <path id="Vector_145" d="M94.6188 326.73C98.4462 319.439 94.2012 312.042 92.3337 304.838C89.8261 306.398 87.1074 311.658 85.1313 314.281C83.2424 316.789 79.1589 320.586 78.637 323.667C78.1412 326.612 79.5024 330.43 80.1757 333.255C80.8182 335.951 81.3207 339.656 83.3417 341.643C85.293 339.569 86.6623 336.256 88.6648 333.905C90.6153 331.614 93.2066 329.421 94.6188 326.73Z" fill="#243347"/>
        <path id="Vector_146" d="M73.388 291.045C75.2831 289.986 74.1342 292.932 73.4741 293.557C72.8097 294.186 71.1691 295.373 71.7082 293.494C71.9597 292.617 72.5559 291.51 73.388 291.045Z" fill="#243347"/>
        <path id="Vector_147" d="M96.8166 287.702C99.4308 288.574 102.055 289.887 101.988 291.664C101.93 293.246 99.1825 296.25 98.3307 297.562C95.5615 301.822 92.5061 305.581 89.9438 309.994C88.3282 312.776 86.6711 315.562 85.0591 318.357C83.7427 320.643 81.5758 325.551 78.3874 324.842C75.6032 324.223 72.8063 320.002 71.2756 317.824C68.7982 314.301 68.3734 309.536 68.6746 305.26C68.8104 303.352 69.1458 301.458 69.6875 299.649C71.4522 293.736 75.3967 288.709 81.6197 286.871C85.1805 285.818 88.7345 285.765 92.3384 286.522C93.2634 286.718 95.0375 287.107 96.8166 287.702Z" fill="#32425B"/>
        <g id="Group_35">
        <path id="Vector_148" d="M76.3681 319.139C80.0404 319.442 79.1622 315.338 77.6689 313.43C76.8096 312.332 75.4444 311.267 73.9671 311.355C71.6239 311.494 71.908 314.659 72.7018 316.103C73.4256 317.419 74.7426 319.025 76.3681 319.139Z" fill="white"/>
        </g>
        <path id="Vector_149" d="M83.5469 341.668C84.7731 340.342 85.8156 338.872 86.8975 337.43C88.013 335.942 89.1661 334.476 90.3223 333.021C91.3912 331.675 92.6133 330.475 93.6886 329.137C94.768 327.794 95.601 326.26 96.0939 324.607C97.0656 321.35 96.683 317.795 95.8637 314.557C95.445 312.903 94.8899 311.296 94.3395 309.682C93.7724 308.02 93.2827 306.334 92.4793 304.765C92.0469 303.92 90.7498 304.61 91.1816 305.454C91.9279 306.912 92.3908 308.473 92.9093 310.02C93.4233 311.554 93.9496 313.074 94.3671 314.639C95.2151 317.819 95.5718 321.218 94.6164 324.421C93.6746 327.578 91.0724 329.744 89.0822 332.232C87.9727 333.619 86.9107 335.044 85.8109 336.438C84.7193 337.823 83.7513 339.289 82.5512 340.588C81.9106 341.28 82.9036 342.364 83.5469 341.668Z" fill="#32425B"/>
        <path id="Vector_150" d="M96.8165 287.702C96.9316 288.255 97.0022 288.822 97.0307 289.401C97.3668 296.323 91.042 302.96 85.2425 305.799C80.605 308.07 74.7634 307.995 71.4962 303.508C70.7699 302.513 70.0775 301.11 69.6874 299.649C71.452 293.736 75.3966 288.709 81.6196 286.871C85.1804 285.818 88.7344 285.764 92.3384 286.522C93.2634 286.718 95.0375 287.108 96.8165 287.702Z" fill="#3D526C"/>
        <g id="Group_36">
        <path id="Vector_151" d="M76.0773 317.785C78.4547 317.981 77.8863 315.324 76.9194 314.089C76.3632 313.379 75.4793 312.689 74.523 312.745C73.006 312.836 73.1899 314.885 73.7039 315.819C74.1723 316.672 75.025 317.711 76.0773 317.785Z" fill="#32425B"/>
        </g>
        </g>
    </TMPL_IF>
    <TMPL_IF NAME="HAT_FOUR">
        <g id="GladiatorHelmet">
        <g id="XMLID_99_">
        <g id="Group_19">
        <g id="Group_20">
        <path id="Vector_101" d="M80.5708 279.199L82.9446 290.211C63.3978 297.849 67.0612 322.612 67.0612 322.612L67.0824 322.608C67.0824 322.608 73.9463 346.681 94.9057 345.587L97.2796 356.599C70.5433 357.713 60.7016 337.634 57.8896 324.589L57.8687 324.594C55.0576 311.55 55.7496 289.199 80.5708 279.199Z" fill="#BE1E2D"/>
        </g>
        <g id="Group_21" opacity="0.57">
        <path id="Vector_102" d="M60.3434 297.134C63.9348 290.927 69.889 285.314 79.3581 281.499L81.3813 290.884C81.8857 290.649 82.4049 290.423 82.9446 290.212L80.5708 279.2C69.9449 283.48 63.7437 290.025 60.3434 297.134Z" fill="#BE1E2D"/>
        <path id="Vector_103" d="M65.8485 324.912L65.8701 324.907C65.8701 324.907 72.7339 348.98 93.6934 347.886L95.58 356.638C96.1397 356.634 96.7046 356.623 97.2798 356.599L94.9059 345.587C73.9462 346.681 67.0827 322.607 67.0827 322.607L67.0614 322.612C67.0614 322.612 65.4888 311.976 69.9058 302.496C64.0097 312.463 65.8485 324.912 65.8485 324.912Z" fill="#BE1E2D"/>
        </g>
        <g id="Group_22">
        <path id="Vector_104" d="M72.3739 325.942C78.9591 344.172 94.3269 342.901 94.3269 342.901L94.9058 345.587C73.946 346.681 67.0825 322.607 67.0825 322.607L67.0613 322.612C67.0613 322.612 63.3982 297.849 82.9447 290.211L83.5238 292.897C83.5238 292.897 68.999 298.068 70.5074 317.393C70.5204 316.907 71.0405 301.334 83.9586 294.914L84.4805 297.335C79.457 300.304 77.4472 305.381 76.3455 309.116C74.8596 314.143 75.7703 320.735 75.7703 320.735L75.7912 320.731C75.7912 320.731 77.6778 327.11 81.1041 331.081C83.6465 334.027 87.5703 337.828 93.3702 338.463L93.8921 340.885C79.4742 340.354 72.5867 326.378 72.3739 325.942Z" fill="#6D6E71"/>
        </g>
        <g id="Group_23" opacity="0.1">
        <path id="Vector_105" d="M73.8478 329.424C73.1199 328.269 72.7338 327.488 72.6864 327.39C79.2716 345.62 94.6394 344.35 94.6394 344.35L94.327 342.901C94.327 342.901 80.9977 344 73.8478 329.424Z" fill="#6D6E71"/>
        <path id="Vector_106" d="M76.0823 322.184L76.1032 322.179C76.1032 322.179 77.9898 328.558 81.4161 332.529C83.9585 335.476 87.8822 339.277 93.6823 339.912L93.3699 338.463C87.5702 337.827 83.6462 334.027 81.1038 331.08C78.3213 327.855 76.5543 323.043 75.9886 321.348C76.0403 321.877 76.0823 322.184 76.0823 322.184Z" fill="#6D6E71"/>
        <path id="Vector_107" d="M70.728 315.057C70.69 316.254 70.7159 317.513 70.8195 318.842C70.8326 318.356 71.3527 302.783 84.2707 296.363L83.9583 294.914C73.9388 299.894 71.3793 310.375 70.728 315.057Z" fill="#6D6E71"/>
        <path id="Vector_108" d="M67.061 322.612L67.0823 322.608C67.0823 322.608 67.1455 322.828 67.2764 323.224C66.849 318.838 65.8526 298.461 83.2568 291.66L82.9444 290.211C63.398 297.849 67.061 322.612 67.061 322.612Z" fill="#6D6E71"/>
        </g>
        <g id="Group_24">
        <path id="Vector_109" d="M83.5235 292.897L83.9583 294.914C71.0402 301.334 70.5202 316.907 70.5071 317.393C68.9987 298.068 83.5235 292.897 83.5235 292.897Z" fill="#58595B"/>
        </g>
        <g id="Group_25">
        <path id="Vector_110" d="M99.6353 293.219L102 296.168L102.008 296.182C95.7546 300.118 93.662 295.163 93.662 295.163C95.4333 295.023 97.748 294.558 99.6353 293.219Z" fill="#6D6E71"/>
        </g>
        <g id="Group_26">
        <path id="Vector_111" d="M87.8885 295.83C88.813 295.539 89.8122 295.31 90.8922 295.151C90.8922 295.151 83.4708 306.624 86.0357 318.522L86.0584 318.517C88.6228 330.413 100.11 337.813 100.11 337.813C99.0527 338.113 98.0407 338.316 97.0706 338.434C96.0009 337.657 85.8024 330.013 83.8866 318.985C81.0874 308.141 87.2419 296.964 87.8885 295.83Z" fill="#939598"/>
        </g>
        <g id="Group_27" opacity="0.2">
        <path id="Vector_112" d="M84.0521 319.819C84.0964 320.026 84.1459 320.231 84.196 320.435C84.1449 320.229 84.0967 320.024 84.0521 319.819Z" fill="#939598"/>
        <path id="Vector_113" d="M87.8884 295.83C87.2421 296.964 81.0873 308.141 83.8869 318.985C83.8995 319.059 83.9169 319.131 83.9302 319.205C81.9872 308.833 87.6294 298.577 88.2471 297.493C88.7414 297.338 89.2589 297.202 89.7973 297.083C90.4392 295.852 90.8922 295.151 90.8922 295.151C89.8121 295.31 88.8129 295.539 87.8884 295.83Z" fill="#939598"/>
        <path id="Vector_114" d="M86.3942 320.186L86.4168 320.181C88.3483 329.14 95.3396 335.547 98.6742 338.165C99.1441 338.067 99.6217 337.951 100.11 337.812C100.11 337.812 88.9253 330.6 86.1688 318.974C86.2335 319.378 86.307 319.781 86.3942 320.186Z" fill="#939598"/>
        </g>
        <g id="Group_28">
        <path id="Vector_115" d="M90.8922 295.151C90.8922 295.151 92.0549 295.292 93.662 295.163C93.662 295.163 95.755 300.118 102.007 296.182C102.594 295.812 103.217 295.364 103.879 294.827L125.181 300.926L98.1789 307.027L94.0545 300.762L91.9827 305.745L96.8631 313.79C96.8631 313.79 107.135 310.523 108.786 310.019C110.435 309.512 114.106 312.471 114.106 312.471L114.126 312.467C114.126 312.467 112.004 316.675 110.291 316.893C108.578 317.113 97.8743 318.368 97.8743 318.368L96.7396 327.71L100.683 331.397L101.857 323.989L128.977 318.423L112.077 332.756C111.253 332.539 110.502 332.388 109.817 332.292C102.496 331.279 102.63 336.66 102.63 336.66C101.112 337.205 100.11 337.812 100.11 337.812C100.11 337.812 88.623 330.412 86.0585 318.516L86.0359 318.521C83.4707 306.624 90.8922 295.151 90.8922 295.151Z" fill="#808285"/>
        </g>
        <g id="Group_29" opacity="0.25">
        <path id="Vector_116" d="M97.3299 328.262L97.16 329.66L101.103 333.347L102.277 325.94L125.809 321.109L128.976 318.423L101.857 323.989L100.683 331.397L97.3299 328.262Z" fill="#808285"/>
        <path id="Vector_117" d="M92.7133 306.949L92.4032 307.695L97.2835 315.74C97.2835 315.74 107.556 312.473 109.207 311.969C110.293 311.634 112.252 312.803 113.466 313.641C113.869 312.974 114.126 312.466 114.126 312.466L114.106 312.471C114.106 312.471 110.435 309.511 108.786 310.018C107.135 310.523 96.8631 313.79 96.8631 313.79L92.7133 306.949Z" fill="#808285"/>
        <path id="Vector_118" d="M93.6619 295.163C92.0547 295.292 90.892 295.151 90.892 295.151C90.892 295.151 83.4707 306.624 86.0355 318.522L86.0582 318.517C86.1069 318.743 86.1649 318.965 86.2198 319.188C84.42 307.762 91.3124 297.101 91.3124 297.101C91.3124 297.101 92.4751 297.242 94.0823 297.113C94.0823 297.113 96.1752 302.068 102.428 298.132C103.014 297.763 103.638 297.315 104.299 296.778L121.608 301.733L125.18 300.926L103.879 294.827C103.217 295.364 102.594 295.812 102.007 296.182C95.7548 300.118 93.6619 295.163 93.6619 295.163Z" fill="#808285"/>
        </g>
        <g id="Group_30">
        <path id="Vector_119" d="M93.3703 338.464C87.5705 337.828 83.6466 334.028 81.1041 331.081C77.6778 327.11 75.7912 320.731 75.7912 320.731L75.7703 320.735C75.7703 320.735 74.8596 314.143 76.3455 309.116C77.4472 305.381 79.4566 300.304 84.4805 297.335C85.488 296.739 86.6201 296.229 87.8885 295.83C87.2422 296.964 81.0873 308.141 83.887 318.985C85.8023 330.013 96.0011 337.656 97.0709 338.434C95.7597 338.591 94.5273 338.59 93.3703 338.464Z" fill="#808285"/>
        </g>
        <g id="Group_31" opacity="0.14">
        <path id="Vector_120" d="M84.4613 321.651C85.789 329.294 91.0937 335.309 94.5822 338.542C95.3794 338.566 96.2064 338.537 97.0705 338.433C96.0447 337.687 86.627 330.624 84.1671 320.32C84.2529 320.764 84.3471 321.208 84.4613 321.651Z" fill="#808285"/>
        <path id="Vector_121" d="M84.4801 297.335C79.4567 300.303 77.4468 305.381 76.3451 309.115C74.8592 314.142 75.7699 320.735 75.7699 320.735L75.7908 320.73C75.7908 320.73 75.9294 321.197 76.1969 321.952C76.0188 319.73 75.8623 315.36 76.9198 311.781C78.0215 308.047 80.0309 302.969 85.0548 300.001C85.4036 299.794 85.7733 299.602 86.1526 299.417C86.9714 297.476 87.6896 296.177 87.8881 295.829C86.6197 296.228 85.488 296.739 84.4801 297.335Z" fill="#808285"/>
        </g>
        <g id="Group_32">
        <path id="Vector_122" d="M72.374 325.942C72.5868 326.379 79.4743 340.354 93.8922 340.885L94.3271 342.902C94.3271 342.902 78.9592 344.172 72.374 325.942Z" fill="#58595B"/>
        </g>
        <g id="Group_33">
        <path id="Vector_123" d="M102.629 336.661C102.629 336.661 102.496 331.28 109.816 332.293L109.815 332.309L108.873 335.97C106.602 335.528 104.303 336.054 102.629 336.661Z" fill="#6D6E71"/>
        </g>
        </g>
        <path id="Vector_124" d="M80.4042 278.718C69.2934 283.194 61.9089 290.535 58.4552 300.535C55.1284 310.169 56.3979 319.8 57.4507 324.684C57.4619 324.736 57.4801 324.785 57.5039 324.829C58.582 329.751 61.4066 338.936 68.3367 346.269C75.6046 353.959 85.3582 357.605 97.3271 357.106C97.4512 357.101 97.5637 357.032 97.6353 356.918C97.7068 356.803 97.7294 356.654 97.6983 356.509L93.9267 339.014C94.9771 339.09 96.056 339.069 97.1456 338.939C98.1562 338.816 99.1974 338.603 100.241 338.306C100.263 338.3 100.281 338.286 100.302 338.276C100.311 338.271 100.322 338.272 100.33 338.267C100.34 338.261 101.322 337.67 102.784 337.146C104.302 336.596 106.585 336.032 108.833 336.471C109.039 336.51 109.229 336.376 109.287 336.149L110.137 332.85C110.727 332.945 111.354 333.078 112.012 333.251C112.131 333.283 112.252 333.255 112.346 333.175L129.246 318.841C129.381 318.727 129.436 318.526 129.395 318.332C129.387 318.299 129.377 318.265 129.364 318.232C129.274 318.011 129.069 317.882 128.872 317.923L101.753 323.489C101.588 323.523 101.463 323.669 101.432 323.861L100.381 330.49L97.2037 327.519L98.2577 318.836C100.03 318.628 108.837 317.594 110.368 317.397C112.226 317.161 114.274 313.199 114.502 312.748C114.587 312.579 114.564 312.36 114.458 312.19C114.412 312.116 114.35 312.058 114.28 312.019C113.701 311.557 110.376 308.996 108.649 309.526C107.173 309.978 98.7208 312.664 97.0193 313.205L92.4839 305.727L94.1532 301.712L97.8437 307.318C97.9508 307.481 98.1254 307.561 98.2892 307.524L125.291 301.424C125.487 301.379 125.621 301.178 125.611 300.939C125.603 300.702 125.453 300.49 125.253 300.433L103.951 294.335C103.832 294.301 103.711 294.326 103.616 294.403C103.089 294.83 102.571 295.21 102.07 295.542L99.9385 292.885C99.7919 292.702 99.5626 292.658 99.3918 292.779C97.5299 294.101 95.2157 294.529 93.6003 294.656C92.0534 294.78 90.9157 294.647 90.9045 294.646C90.8948 294.644 90.886 294.649 90.8768 294.649C90.8532 294.648 90.8307 294.643 90.8073 294.647C89.7309 294.806 88.7022 295.038 87.7481 295.338C86.689 295.671 85.6895 296.099 84.7604 296.604L80.989 279.109C80.9577 278.964 80.8754 278.837 80.7636 278.762C80.6511 278.687 80.52 278.671 80.4042 278.718ZM83.4556 294.611C75.5859 298.674 72.3401 306.093 71.0067 311.356C71.5658 306.2 73.4762 301.826 76.7298 298.309C79.3763 295.45 82.1686 294.037 83.2307 293.568L83.4556 294.611ZM76.1452 297.513C72.9384 300.967 69.2824 307.222 70.0761 317.402C70.0769 317.411 70.0809 317.417 70.0819 317.425C70.0887 317.484 70.1022 317.54 70.1238 317.591C70.1274 317.599 70.1317 317.606 70.1351 317.613C70.2295 317.814 70.4226 317.943 70.6144 317.902C70.767 317.869 70.8772 317.742 70.9188 317.581L70.9192 317.58C70.9309 317.534 70.939 317.487 70.9392 317.438C70.9613 316.695 71.561 302.031 83.677 295.636L83.9835 297.058C79.0104 300.145 77.0075 305.287 75.9368 308.918C74.4335 314.004 75.3063 320.506 75.3442 320.78C75.3558 320.858 75.3833 320.931 75.4243 320.996C75.7216 321.959 77.5791 327.68 80.813 331.428C83.2872 334.296 87.2319 338.157 93.0315 338.92L93.338 340.342C79.776 339.513 73.1826 326.604 72.7525 325.729C72.6612 325.518 72.4603 325.39 72.2622 325.433C72.1225 325.463 72.0231 325.576 71.9743 325.718C71.9729 325.722 71.9719 325.726 71.9705 325.729C71.9545 325.78 71.9457 325.833 71.9452 325.889C71.9445 325.907 71.946 325.924 71.9476 325.941C71.9494 325.968 71.9452 325.994 71.9512 326.022C71.9557 326.043 71.9666 326.065 71.9741 326.088C71.9765 326.096 71.9755 326.103 71.9782 326.11C75.447 335.714 81.356 339.907 85.7012 341.734C89.6052 343.375 92.9042 343.454 94.0027 343.426L94.3617 345.091C86.0436 345.372 79.0159 341.723 73.4734 334.221C69.2394 328.49 67.5081 322.538 67.491 322.479C67.4843 322.455 67.4765 322.432 67.4674 322.41C67.3438 321.423 66.7351 315.756 68.1001 309.398C70.0595 300.279 74.9592 294.059 82.6534 290.888L83.0124 292.553C81.9994 292.98 79.0264 294.41 76.1452 297.513ZM98.9597 337.581C98.3459 337.723 97.7385 337.829 97.1409 337.907C95.5138 336.698 86.1193 329.32 84.3101 318.919C84.3086 318.91 84.3034 318.903 84.3012 318.894C84.2998 318.886 84.3015 318.879 84.2997 318.871C81.6423 308.615 87.2141 297.994 88.1692 296.28C88.735 296.108 89.3248 295.956 89.9386 295.834C88.1906 298.917 83.4423 308.525 85.6167 318.612C85.6293 318.67 85.6501 318.725 85.6762 318.773C87.9047 328.765 96.1119 335.503 98.9597 337.581ZM83.4687 319.075C85.1281 328.572 92.7929 335.599 95.7848 338.024C94.9891 338.061 94.2035 338.044 93.4383 337.963C93.4216 337.958 93.4044 337.961 93.3874 337.959C93.3845 337.959 93.3816 337.959 93.3789 337.958C87.688 337.335 83.8142 333.536 81.3958 330.732C78.091 326.902 76.2161 320.659 76.1978 320.595C76.1916 320.575 76.185 320.556 76.1769 320.538C76.0562 319.533 75.4419 313.752 76.7548 309.312C77.8019 305.762 79.7642 300.706 84.6966 297.791C84.7087 297.784 84.7212 297.778 84.7332 297.771C84.7367 297.768 84.7408 297.767 84.7443 297.765C85.4138 297.372 86.1316 297.029 86.8846 296.731C85.1652 300.152 81.0629 309.712 83.4687 319.075ZM93.7839 342.411C92.623 342.42 89.4961 342.284 85.9061 340.767C81.491 338.902 77.9474 335.702 75.314 331.233C78.6976 335.48 84.7132 340.906 93.5591 341.368L93.7839 342.411ZM103.15 335.948C103.264 335.422 103.526 334.699 104.127 334.066C105.186 332.949 106.911 332.509 109.245 332.739L108.558 335.408C106.58 335.106 104.628 335.484 103.15 335.948ZM123.157 300.86L98.3367 306.467L94.3889 300.47C94.2954 300.327 94.1487 300.246 94.0014 300.254C93.8545 300.263 93.7266 300.361 93.6631 300.513L91.5918 305.496C91.5238 305.66 91.5409 305.861 91.6366 306.019L96.5173 314.064C96.6291 314.249 96.8263 314.337 97.0036 314.281C97.1064 314.248 107.293 311.009 108.924 310.51C109.995 310.181 112.35 311.723 113.526 312.609C112.815 313.907 111.318 316.248 110.212 316.389C108.522 316.606 97.9071 317.851 97.8007 317.864C97.6153 317.885 97.4719 318.046 97.4468 318.261L96.3122 327.603C96.2901 327.787 96.3567 327.977 96.486 328.098L100.429 331.785C100.55 331.898 100.706 331.934 100.844 331.881C100.981 331.828 101.081 331.694 101.108 331.525L102.233 324.434L127.159 319.318L111.954 332.213C111.208 332.023 110.496 331.881 109.836 331.789C106.954 331.391 104.825 331.902 103.506 333.308C102.509 334.372 102.271 335.653 102.214 336.271C101.198 336.654 100.444 337.047 100.099 337.239C98.5997 336.21 88.78 329.113 86.4764 318.427C86.4642 318.371 86.4441 318.318 86.4192 318.27C84.2109 307.638 90.1802 297.227 91.1181 295.679C91.5121 295.711 92.3603 295.759 93.4436 295.689C93.7497 296.229 94.4941 297.296 95.8389 297.855C97.6193 298.594 99.7705 298.183 102.233 296.633C102.8 296.275 103.391 295.852 103.99 295.373L123.157 300.86ZM101.303 296.011C99.2711 297.181 97.5182 297.49 96.0926 296.908C95.2851 296.579 94.7494 296.028 94.4287 295.597C95.9699 295.408 97.9055 294.948 99.5787 293.861L101.303 296.011ZM82.4341 289.872C72.4317 293.945 68.6547 302.564 67.2532 309.119C65.7221 316.284 66.5983 322.406 66.6358 322.663C66.6481 322.746 66.6773 322.825 66.7204 322.893C67.0262 323.902 68.8044 329.381 72.8168 334.823C76.7951 340.219 83.788 346.517 94.5805 346.106L96.7371 356.11C67.6122 357.042 59.964 332.178 58.3086 324.499C58.2974 324.447 58.2795 324.399 58.2558 324.356C56.5923 316.498 53.5279 290.947 80.2774 279.868L82.4341 289.872Z" fill="#231F20"/>
        </g>
        <g id="Group_34">
        <path id="Vector_125" d="M62.8895 326.056L61.8115 326.472C61.4798 326.603 61.1469 326.735 60.8173 326.873C60.2428 327.111 59.7623 327.316 59.2829 327.539L59.4173 327.941C59.9606 327.772 60.4947 327.584 60.9955 327.406C61.332 327.287 61.6667 327.161 62.0017 327.035L63.0875 326.616C63.4271 326.482 63.7669 326.348 64.105 326.207C64.6771 325.969 65.1572 325.764 65.6393 325.54L65.5048 325.138C64.9598 325.307 64.426 325.494 63.9256 325.672C63.5791 325.796 63.2346 325.926 62.8895 326.056Z" fill="#610F17"/>
        <path id="Vector_126" d="M64.3745 330.147L63.3622 330.798C63.0599 330.997 62.7571 331.195 62.4581 331.398C62.0121 331.702 61.5352 332.029 61.0685 332.374L61.2585 332.748C61.7616 332.469 62.2517 332.174 62.7099 331.895C63.0183 331.708 63.3239 331.514 63.6288 331.321L64.6216 330.682C64.931 330.479 65.2408 330.277 65.5472 330.068C65.9687 329.782 66.4581 329.446 66.9366 329.091L66.7463 328.718C66.248 328.994 65.7558 329.291 65.2948 329.571C64.9863 329.76 64.6808 329.953 64.3745 330.147Z" fill="#610F17"/>
        <path id="Vector_127" d="M66.6966 334.909L65.6948 335.545C65.3876 335.743 65.0802 335.941 64.7758 336.145C64.3471 336.433 63.8497 336.769 63.366 337.121L63.554 337.496C64.0243 337.239 64.4824 336.969 65.0257 336.643C65.3346 336.459 65.6401 336.268 65.9456 336.077L66.9413 335.447C67.2631 335.239 67.5849 335.032 67.904 334.818C68.3578 334.513 68.8407 334.188 69.314 333.842L69.1257 333.467C68.6178 333.744 68.1201 334.04 67.6539 334.319C67.3329 334.512 67.0149 334.71 66.6966 334.909Z" fill="#610F17"/>
        <path id="Vector_128" d="M69.6184 339.447L68.7886 340.302C68.5355 340.566 68.2824 340.831 68.0329 341.1C67.6585 341.503 67.2588 341.939 66.8709 342.391L67.1189 342.717C67.5216 342.351 67.9075 341.979 68.3619 341.533C68.6286 341.272 68.8914 341.006 69.1539 340.739L69.9752 339.896C70.2396 339.62 70.5037 339.344 70.7638 339.063C71.2018 338.59 71.5675 338.19 71.9264 337.771L71.6788 337.445C71.2769 337.81 70.8909 338.182 70.4357 338.628C70.1603 338.898 69.8897 339.172 69.6184 339.447Z" fill="#610F17"/>
        <path id="Vector_129" d="M72.5858 343.403L71.9416 344.22C71.7418 344.478 71.5423 344.735 71.3468 344.998C71.0087 345.451 70.7278 345.835 70.4538 346.235L70.7254 346.534C71.044 346.184 71.3483 345.825 71.707 345.394C71.9148 345.146 72.1171 344.894 72.3199 344.641L72.9749 343.811C73.1778 343.55 73.3808 343.288 73.5788 343.022C73.8534 342.654 74.1712 342.225 74.4722 341.783L74.2007 341.485C73.8562 341.864 73.5263 342.255 73.2177 342.624C73.0044 342.881 72.7955 343.142 72.5858 343.403Z" fill="#610F17"/>
        <path id="Vector_130" d="M76.242 346.068L75.7889 347.091C75.6485 347.415 75.5083 347.739 75.3727 348.066C75.1645 348.571 74.9617 349.067 74.7706 349.581L75.0917 349.797C75.3496 349.301 75.5948 348.788 75.7999 348.352C75.9458 348.044 76.0862 347.733 76.2273 347.421L76.6915 346.373C76.8318 346.049 76.9721 345.725 77.1083 345.397C77.2959 344.942 77.513 344.413 77.71 343.882L77.3885 343.666C77.1543 344.116 76.936 344.569 76.6796 345.111C76.531 345.428 76.3865 345.748 76.242 346.068Z" fill="#610F17"/>
        <path id="Vector_131" d="M80.3686 348.036L80.0568 349.244C79.9674 349.6 79.878 349.955 79.7935 350.313C79.6654 350.859 79.5304 351.441 79.4122 352.031L79.7566 352.18C79.9362 351.618 80.1006 351.045 80.2516 350.51C80.354 350.147 80.4511 349.782 80.5485 349.417L80.8626 348.2C80.952 347.843 81.0417 347.486 81.1269 347.127C81.2627 346.545 81.3943 345.976 81.5077 345.407L81.163 345.258C80.995 345.784 80.8435 346.306 80.6677 346.929C80.5652 347.296 80.4665 347.666 80.3686 348.036Z" fill="#610F17"/>
        <path id="Vector_132" d="M84.5609 349.353L84.5291 350.672C84.5218 351.07 84.5145 351.467 84.5131 351.865C84.5101 352.466 84.5096 353.108 84.5266 353.742L84.886 353.785C84.9343 353.146 84.9641 352.514 84.9901 351.922C85.0082 351.522 85.0207 351.122 85.0326 350.722L85.0646 349.416C85.0722 349.007 85.0793 348.598 85.0811 348.188C85.084 347.594 85.0842 346.956 85.0676 346.311L84.7082 346.269C84.6603 346.905 84.6294 347.54 84.6034 348.132C84.5859 348.538 84.5731 348.946 84.5609 349.353Z" fill="#610F17"/>
        <path id="Vector_133" d="M88.3304 349.858L88.409 351.2C88.4379 351.644 88.4668 352.088 88.5015 352.531C88.5491 353.153 88.6031 353.822 88.6758 354.499L89.034 354.501C89.0271 353.839 89.0024 353.166 88.9773 352.534C88.9607 352.121 88.9389 351.709 88.9172 351.297L88.8339 349.878C88.8062 349.454 88.7789 349.029 88.7463 348.604C88.6964 347.973 88.6422 347.302 88.5707 346.637L88.2125 346.635C88.2191 347.309 88.2441 347.977 88.2692 348.602C88.2857 349.021 88.308 349.439 88.3304 349.858Z" fill="#610F17"/>
        <path id="Vector_134" d="M92.2126 349.892L92.6465 351.958C92.7006 352.21 92.7556 352.461 92.8123 352.713C92.9652 353.39 93.1298 354.111 93.3122 354.83L93.6612 354.758C93.539 354.011 93.3983 353.261 93.276 352.618C93.1874 352.151 93.0933 351.686 92.9987 351.22L92.5669 349.159C92.5097 348.894 92.4514 348.629 92.3918 348.364C92.2395 347.686 92.0735 346.96 91.8921 346.246L91.5432 346.317C91.6637 347.057 91.7994 347.784 91.928 348.458C92.0191 348.936 92.1159 349.414 92.2126 349.892Z" fill="#610F17"/>
        <path id="Vector_135" d="M59.5956 321.306C59.9479 321.296 60.2989 321.279 60.6498 321.262L61.8329 321.196C62.1964 321.173 62.5597 321.149 62.9221 321.12C63.4257 321.078 64.0109 321.028 64.5804 320.957L64.5373 320.535C63.9584 320.528 63.3707 320.544 62.8648 320.559C62.4962 320.57 62.1286 320.588 61.7604 320.606L60.6161 320.671C60.2567 320.694 59.8975 320.716 59.5391 320.746C59.0373 320.787 58.4541 320.837 57.8804 320.909L57.9235 321.33C58.5044 321.336 59.0909 321.321 59.5956 321.306Z" fill="#610F17"/>
        <path id="Vector_136" d="M59.2258 316.507C59.5799 316.569 59.9349 316.625 60.2894 316.681L61.4407 316.852C61.815 316.904 62.1898 316.957 62.5647 317.003C63.1876 317.079 63.7111 317.139 64.2392 317.182L64.2586 316.763C63.6791 316.638 63.0937 316.534 62.5903 316.446C62.2215 316.382 61.853 316.324 61.4839 316.267L60.3135 316.093C59.9594 316.044 59.6055 315.994 59.2515 315.951C58.631 315.875 58.1085 315.815 57.5764 315.772L57.5568 316.19C58.1362 316.316 58.7221 316.42 59.2258 316.507Z" fill="#610F17"/>
        <path id="Vector_137" d="M59.3832 311.226C59.7424 311.287 60.102 311.341 60.4616 311.394L61.6713 311.566C62.0335 311.614 62.3955 311.663 62.7577 311.705C63.2979 311.767 63.8737 311.832 64.4499 311.875L64.4672 311.456C63.8806 311.334 63.2889 311.233 62.781 311.148C62.4079 311.085 62.0347 311.03 61.6616 310.974L60.4855 310.808C60.1256 310.76 59.7661 310.712 59.406 310.671C58.7774 310.598 58.2489 310.54 57.7141 310.5L57.6968 310.919C58.2686 311.038 58.8435 311.136 59.3832 311.226Z" fill="#610F17"/>
        <path id="Vector_138" d="M60.3088 305.371C60.6535 305.516 60.9998 305.655 61.346 305.794L62.4814 306.24C62.8263 306.373 63.1703 306.505 63.5165 306.632C64.0363 306.821 64.5896 307.02 65.1373 307.197L65.2285 306.797C64.694 306.548 64.148 306.315 63.6377 306.101C63.2794 305.95 62.9192 305.805 62.559 305.661L61.474 305.235C61.1264 305.102 60.7791 304.968 60.4302 304.84C59.9168 304.653 59.3685 304.456 58.809 304.275L58.7182 304.674C59.255 304.924 59.7998 305.156 60.3088 305.371Z" fill="#610F17"/>
        <path id="Vector_139" d="M60.5251 299.31L60.4006 299.694C60.8436 299.963 61.2983 300.218 61.7237 300.454C62.0089 300.612 62.2971 300.765 62.5845 300.917L63.4937 301.39C63.7972 301.543 64.1003 301.697 64.4054 301.845C64.909 302.09 65.3336 302.291 65.7693 302.479L65.8938 302.096C65.4804 301.843 65.0658 301.609 64.5709 301.335C64.2697 301.168 63.9655 301.008 63.662 300.847L62.7488 300.374C62.4628 300.229 62.1768 300.083 61.8885 299.944C61.3836 299.699 60.9586 299.497 60.5251 299.31Z" fill="#610F17"/>
        <path id="Vector_140" d="M65.1739 296.237C64.9166 296.01 64.6587 295.783 64.3978 295.561C63.9415 295.172 63.5559 294.848 63.1583 294.535L62.9541 294.864C63.3478 295.262 63.7493 295.642 64.1267 295.997C64.3858 296.241 64.6483 296.479 64.9106 296.718L65.7184 297.441C65.9896 297.68 66.261 297.919 66.5354 298.153C66.9055 298.468 67.3373 298.834 67.7749 299.178L67.9792 298.85C67.5953 298.46 67.2053 298.091 66.8066 297.715C66.5528 297.477 66.2956 297.244 66.0388 297.01L65.1739 296.237Z" fill="#610F17"/>
        <path id="Vector_141" d="M69.0341 293.565L68.2925 292.644C68.0515 292.349 67.8101 292.053 67.5651 291.763C67.2076 291.338 66.8224 290.884 66.4252 290.444L66.1728 290.722C66.5164 291.201 66.8689 291.662 67.2298 292.131C67.4669 292.439 67.7074 292.743 67.9487 293.046L68.6772 293.951C68.924 294.254 69.1706 294.557 69.4217 294.855C69.8405 295.352 70.1946 295.767 70.5615 296.172L70.8139 295.895C70.4672 295.41 70.102 294.933 69.7575 294.485C69.5192 294.175 69.2764 293.87 69.0341 293.565Z" fill="#610F17"/>
        <path id="Vector_142" d="M72.4145 290.802L71.8263 289.581C71.6525 289.227 71.4794 288.873 71.3015 288.521C71.0456 288.016 70.7468 287.43 70.4385 286.867L70.1285 287.053C70.3587 287.601 70.5994 288.136 70.8899 288.769C71.0602 289.143 71.2361 289.514 71.4121 289.885L71.9494 291.002C72.1343 291.381 72.3196 291.76 72.51 292.136C72.7784 292.666 73.0682 293.234 73.3724 293.791L73.6824 293.604C73.4396 293.026 73.1845 292.462 72.9224 291.887C72.756 291.524 72.5852 291.163 72.4145 290.802Z" fill="#610F17"/>
        <path id="Vector_143" d="M75.6153 288.721L75.1515 287.514C74.9968 287.116 74.8418 286.719 74.6814 286.324C74.4462 285.742 74.1917 285.119 73.9227 284.508L73.597 284.657C73.8117 285.311 74.0462 285.963 74.2492 286.522C74.3983 286.934 74.5526 287.344 74.7066 287.754L75.1748 288.974C75.3337 289.383 75.4932 289.791 75.6576 290.197C75.8804 290.748 76.1416 291.388 76.4168 292.013L76.7425 291.864C76.532 291.222 76.3051 290.591 76.091 289.999C75.9361 289.572 75.7759 289.146 75.6153 288.721Z" fill="#610F17"/>
        <path id="Vector_144" d="M77.685 282.446C77.8143 283.167 77.962 283.898 78.1029 284.581C78.1522 284.821 78.2034 285.062 78.2552 285.302L78.722 287.41C78.8297 287.881 78.9374 288.352 79.0503 288.821C79.2222 289.531 79.3917 290.226 79.5827 290.931L79.9301 290.852C79.8094 290.175 79.6759 289.509 79.5121 288.717C79.4601 288.463 79.4062 288.21 79.3516 287.957L78.8821 285.841C78.7777 285.386 78.6736 284.93 78.5642 284.477C78.4019 283.803 78.2255 283.082 78.0324 282.367L77.685 282.446Z" fill="#610F17"/>
        </g>
        </g>
    </TMPL_IF>
    <TMPL_IF NAME="HAT_FIVE">
        <g id="VikingHat">
        <path id="Vector_30" d="M65.6549 311.258C64.6318 322.695 72.5453 332.749 84.5115 333.819L88.2164 292.401C76.2502 291.331 66.678 299.821 65.6549 311.258Z" fill="#6D6D6C"/>
        <g id="Group_11">
        <path id="Vector_31" d="M65.0374 307.026L64.2929 315.349L85.6417 317.258L86.3861 308.936L65.0374 307.026Z" fill="#B2B2B2"/>
        </g>
        <path id="Vector_32" d="M70.2978 298.807C65.128 282.034 48.0437 286.377 48.0437 286.377L47.1963 284.64C47.1963 284.64 58.8145 274.994 69.178 279.733C79.5415 284.473 80.9124 292.621 80.9124 292.621L70.2978 298.807Z" fill="#939190"/>
        <path id="Vector_33" d="M68.0016 324.476C59.9368 340.066 43.8242 332.697 43.8242 332.697L42.6852 334.284C42.6852 334.284 52.4747 345.872 63.5148 343.048C74.5549 340.224 77.3503 332.448 77.3503 332.448L68.0016 324.476Z" fill="#939190"/>
        <path id="Vector_34" d="M88.0432 290.412L83.9991 335.621L85.1733 335.726L89.2173 290.517L88.0432 290.412Z" fill="#898786"/>
        <path id="Vector_35" d="M98.1841 291.319L94.14 336.528L95.3142 336.633L99.3582 291.424L98.1841 291.319Z" fill="#898786"/>
        <g id="Group_12">
        <path id="Vector_36" d="M85.5396 334.333C85.6095 333.552 85.033 332.862 84.2521 332.792C83.4712 332.722 82.7815 333.299 82.7116 334.08C82.6417 334.861 83.2182 335.55 83.9991 335.62C84.7801 335.69 85.4698 335.114 85.5396 334.333Z" fill="#898786"/>
        <path id="Vector_37" d="M85.7626 331.84C85.8325 331.059 85.2561 330.369 84.4751 330.299C83.6942 330.229 83.0045 330.806 82.9346 331.587C82.8648 332.368 83.4412 333.057 84.2221 333.127C85.0031 333.197 85.6928 332.621 85.7626 331.84Z" fill="#898786"/>
        <path id="Vector_38" d="M85.9856 329.347C86.0555 328.566 85.4791 327.876 84.6981 327.806C83.9172 327.736 83.2275 328.313 83.1576 329.094C83.0878 329.875 83.6642 330.564 84.4451 330.634C85.2261 330.704 85.9158 330.128 85.9856 329.347Z" fill="#898786"/>
        <path id="Vector_39" d="M86.2086 326.854C86.2785 326.073 85.702 325.383 84.9211 325.313C84.1402 325.243 83.4505 325.82 83.3806 326.601C83.3108 327.382 83.8872 328.071 84.6681 328.141C85.4491 328.211 86.1388 327.635 86.2086 326.854Z" fill="#898786"/>
        <path id="Vector_40" d="M86.4316 324.361C86.5015 323.58 85.925 322.89 85.1441 322.82C84.3632 322.75 83.6735 323.327 83.6036 324.108C83.5337 324.889 84.1102 325.578 84.8911 325.648C85.6721 325.718 86.3618 325.142 86.4316 324.361Z" fill="#898786"/>
        <path id="Vector_41" d="M86.6546 321.868C86.7245 321.087 86.1481 320.397 85.3671 320.327C84.5862 320.257 83.8965 320.834 83.8266 321.615C83.7568 322.396 84.3332 323.085 85.1141 323.155C85.8951 323.225 86.5848 322.649 86.6546 321.868Z" fill="#898786"/>
        <path id="Vector_42" d="M86.8776 319.375C86.9475 318.594 86.371 317.904 85.5901 317.834C84.8092 317.764 84.1195 318.341 84.0496 319.122C83.9798 319.903 84.5562 320.592 85.3371 320.662C86.1181 320.732 86.8078 320.156 86.8776 319.375Z" fill="#898786"/>
        <path id="Vector_43" d="M87.1006 316.882C87.1705 316.101 86.594 315.411 85.8131 315.341C85.0322 315.271 84.3425 315.848 84.2726 316.629C84.2027 317.41 84.7792 318.099 85.5601 318.169C86.3411 318.239 87.0308 317.663 87.1006 316.882Z" fill="#898786"/>
        <path id="Vector_44" d="M87.3236 314.389C87.3935 313.608 86.817 312.918 86.0361 312.848C85.2552 312.778 84.5655 313.355 84.4956 314.136C84.4257 314.917 85.0022 315.606 85.7831 315.676C86.5641 315.746 87.2538 315.17 87.3236 314.389Z" fill="#898786"/>
        <path id="Vector_45" d="M87.5467 311.896C87.6166 311.115 87.0401 310.425 86.2592 310.355C85.4782 310.286 84.7885 310.862 84.7187 311.643C84.6488 312.424 85.2253 313.114 86.0062 313.183C86.7871 313.253 87.4768 312.677 87.5467 311.896Z" fill="#898786"/>
        <path id="Vector_46" d="M87.7697 309.403C87.8396 308.622 87.2631 307.932 86.4822 307.862C85.7012 307.793 85.0115 308.369 84.9417 309.15C84.8718 309.931 85.4483 310.621 86.2292 310.69C87.0101 310.76 87.6998 310.184 87.7697 309.403Z" fill="#898786"/>
        <path id="Vector_47" d="M87.9927 306.91C88.0625 306.129 87.4861 305.439 86.7052 305.369C85.9242 305.3 85.2345 305.876 85.1647 306.657C85.0948 307.438 85.6713 308.128 86.4522 308.197C87.2331 308.267 87.9228 307.691 87.9927 306.91Z" fill="#898786"/>
        <path id="Vector_48" d="M88.6617 299.431C88.7315 298.65 88.1551 297.96 87.3742 297.891C86.5932 297.821 85.9035 298.397 85.8337 299.178C85.7638 299.959 86.3403 300.649 87.1212 300.719C87.9021 300.788 88.5918 300.212 88.6617 299.431Z" fill="#898786"/>
        <path id="Vector_49" d="M88.8847 296.938C88.9545 296.157 88.3781 295.467 87.5972 295.398C86.8162 295.328 86.1265 295.904 86.0567 296.685C85.9868 297.466 86.5632 298.156 87.3442 298.226C88.1251 298.295 88.8148 297.719 88.8847 296.938Z" fill="#898786"/>
        <path id="Vector_50" d="M88.2157 304.417C88.2856 303.636 87.7091 302.946 86.9282 302.876C86.1472 302.807 85.4575 303.383 85.3877 304.164C85.3178 304.945 85.8943 305.635 86.6752 305.704C87.4561 305.774 88.1459 305.198 88.2157 304.417Z" fill="#898786"/>
        <path id="Vector_51" d="M88.4387 301.924C88.5086 301.143 87.9321 300.453 87.1512 300.383C86.3702 300.314 85.6805 300.89 85.6107 301.671C85.5408 302.452 86.1173 303.142 86.8982 303.211C87.6791 303.281 88.3688 302.705 88.4387 301.924Z" fill="#898786"/>
        <path id="Vector_52" d="M89.1077 294.445C89.1776 293.664 88.6011 292.974 87.8202 292.905C87.0392 292.835 86.3495 293.411 86.2797 294.192C86.2098 294.973 86.7863 295.663 87.5672 295.733C88.3481 295.802 89.0379 295.226 89.1077 294.445Z" fill="#898786"/>
        <path id="Vector_53" d="M89.3307 291.952C89.4006 291.171 88.8241 290.481 88.0432 290.412C87.2622 290.342 86.5725 290.918 86.5027 291.699C86.4328 292.48 87.0093 293.17 87.7902 293.24C88.5711 293.309 89.2608 292.733 89.3307 291.952Z" fill="#898786"/>
        </g>
        <g id="Group_13">
        <path id="Vector_54" d="M97.0073 335.358C97.0771 334.577 96.5007 333.888 95.7198 333.818C94.9388 333.748 94.2491 334.325 94.1793 335.105C94.1094 335.886 94.6858 336.576 95.4668 336.646C96.2477 336.716 96.9374 336.139 97.0073 335.358Z" fill="#898786"/>
        <path id="Vector_55" d="M97.2303 332.865C97.3001 332.085 96.7237 331.395 95.9427 331.325C95.1618 331.255 94.4721 331.832 94.4022 332.612C94.3324 333.393 94.9088 334.083 95.6898 334.153C96.4707 334.223 97.1604 333.646 97.2303 332.865Z" fill="#898786"/>
        <path id="Vector_56" d="M97.4533 330.372C97.5232 329.592 96.9468 328.902 96.1658 328.832C95.3849 328.762 94.6952 329.339 94.6253 330.119C94.5555 330.9 95.1319 331.59 95.9129 331.66C96.6938 331.73 97.3835 331.153 97.4533 330.372Z" fill="#898786"/>
        <path id="Vector_57" d="M97.6763 327.88C97.7462 327.099 97.1698 326.409 96.3888 326.339C95.6079 326.269 94.9182 326.846 94.8483 327.627C94.7785 328.407 95.3549 329.097 96.1358 329.167C96.9168 329.237 97.6065 328.66 97.6763 327.88Z" fill="#898786"/>
        <path id="Vector_58" d="M97.8993 325.387C97.9692 324.606 97.3927 323.916 96.6118 323.846C95.8309 323.776 95.1412 324.353 95.0713 325.134C95.0015 325.914 95.5779 326.604 96.3588 326.674C97.1398 326.744 97.8295 326.167 97.8993 325.387Z" fill="#898786"/>
        <path id="Vector_59" d="M98.1224 322.894C98.1922 322.113 97.6158 321.423 96.8348 321.353C96.0539 321.283 95.3642 321.86 95.2943 322.641C95.2245 323.422 95.8009 324.111 96.5819 324.181C97.3628 324.251 98.0525 323.675 98.1224 322.894Z" fill="#898786"/>
        <path id="Vector_60" d="M98.3453 320.401C98.4152 319.62 97.8388 318.93 97.0578 318.86C96.2769 318.79 95.5872 319.367 95.5173 320.148C95.4475 320.929 96.0239 321.618 96.8048 321.688C97.5858 321.758 98.2755 321.182 98.3453 320.401Z" fill="#898786"/>
        <path id="Vector_61" d="M98.5683 317.908C98.6382 317.127 98.0618 316.437 97.2808 316.367C96.4999 316.297 95.8102 316.874 95.7403 317.655C95.6705 318.436 96.2469 319.125 97.0278 319.195C97.8088 319.265 98.4985 318.689 98.5683 317.908Z" fill="#898786"/>
        <path id="Vector_62" d="M98.7913 315.415C98.8612 314.634 98.2847 313.944 97.5038 313.874C96.7229 313.804 96.0332 314.381 95.9633 315.162C95.8935 315.943 96.4699 316.632 97.2508 316.702C98.0318 316.772 98.7215 316.196 98.7913 315.415Z" fill="#898786"/>
        <path id="Vector_63" d="M99.0144 312.922C99.0842 312.141 98.5078 311.451 97.7268 311.381C96.9459 311.311 96.2562 311.888 96.1863 312.669C96.1165 313.45 96.6929 314.139 97.4739 314.209C98.2548 314.279 98.9445 313.703 99.0144 312.922Z" fill="#898786"/>
        <path id="Vector_64" d="M99.2373 310.429C99.3072 309.648 98.7308 308.958 97.9498 308.888C97.1689 308.818 96.4792 309.395 96.4093 310.176C96.3395 310.957 96.9159 311.646 97.6968 311.716C98.4778 311.786 99.1675 311.21 99.2373 310.429Z" fill="#898786"/>
        <path id="Vector_65" d="M99.4603 307.936C99.5302 307.155 98.9538 306.465 98.1728 306.395C97.3919 306.325 96.7022 306.902 96.6323 307.683C96.5625 308.464 97.1389 309.153 97.9198 309.223C98.7008 309.293 99.3905 308.717 99.4603 307.936Z" fill="#898786"/>
        <path id="Vector_66" d="M100.129 300.457C100.199 299.676 99.6228 298.986 98.8418 298.916C98.0609 298.847 97.3712 299.423 97.3013 300.204C97.2315 300.985 97.8079 301.675 98.5888 301.744C99.3698 301.814 100.059 301.238 100.129 300.457Z" fill="#898786"/>
        <path id="Vector_67" d="M100.352 297.964C100.422 297.183 99.8457 296.493 99.0648 296.423C98.2839 296.354 97.5942 296.93 97.5243 297.711C97.4545 298.492 98.0309 299.182 98.8118 299.251C99.5928 299.321 100.282 298.745 100.352 297.964Z" fill="#898786"/>
        <path id="Vector_68" d="M99.6833 305.443C99.7532 304.662 99.1767 303.972 98.3958 303.902C97.6149 303.832 96.9252 304.409 96.8553 305.19C96.7855 305.971 97.3619 306.66 98.1428 306.73C98.9238 306.8 99.6135 306.224 99.6833 305.443Z" fill="#898786"/>
        <path id="Vector_69" d="M99.9064 302.95C99.9762 302.169 99.3998 301.479 98.6188 301.409C97.8379 301.34 97.1482 301.916 97.0783 302.697C97.0085 303.478 97.5849 304.168 98.3659 304.237C99.1468 304.307 99.8365 303.731 99.9064 302.95Z" fill="#898786"/>
        <path id="Vector_70" d="M100.575 295.471C100.645 294.69 100.069 294 99.2878 293.93C98.5069 293.861 97.8172 294.437 97.7473 295.218C97.6774 295.999 98.2539 296.689 99.0348 296.758C99.8158 296.828 100.505 296.252 100.575 295.471Z" fill="#898786"/>
        <path id="Vector_71" d="M100.798 292.978C100.868 292.197 100.292 291.507 99.5108 291.437C98.7299 291.368 98.0402 291.944 97.9703 292.725C97.9005 293.506 98.4769 294.196 99.2579 294.265C100.039 294.335 100.728 293.759 100.798 292.978Z" fill="#898786"/>
        </g>
        <path id="Vector_72" d="M89.2173 290.517L85.1733 335.726L94.14 336.528L98.1841 291.319L89.2173 290.517Z" fill="#EAC8A7"/>
        <g id="Group_14">
        <path id="Vector_73" d="M90.2007 332.129C90.967 332.198 91.5322 332.874 91.4637 333.64C91.3951 334.407 90.7184 334.972 89.9525 334.903C89.1862 334.835 88.6205 334.158 88.689 333.392C88.7581 332.626 89.4348 332.061 90.2007 332.129Z" fill="#FCDFC8"/>
        <path id="Vector_74" d="M90.7112 326.421C91.4776 326.49 92.0427 327.167 91.9742 327.932C91.9057 328.698 91.2289 329.264 90.463 329.196C89.6967 329.127 89.131 328.45 89.1996 327.684C89.2681 326.918 89.9454 326.353 90.7112 326.421Z" fill="#FCDFC8"/>
        <path id="Vector_75" d="M91.2218 320.713C91.9882 320.782 92.5534 321.459 92.4849 322.224C92.4163 322.991 91.7395 323.556 90.9736 323.488C90.2073 323.419 89.6416 322.743 89.7102 321.976C89.7792 321.21 90.456 320.645 91.2218 320.713Z" fill="#FCDFC8"/>
        <path id="Vector_76" d="M91.3625 314.972C92.1288 315.041 92.694 315.718 92.6255 316.484C92.5569 317.25 91.8801 317.815 91.1143 317.747C90.3484 317.678 89.7828 317.002 89.8513 316.236C89.9198 315.47 90.5967 314.904 91.3625 314.972Z" fill="#FCDFC8"/>
        <path id="Vector_77" d="M91.8731 309.265C92.6394 309.333 93.2046 310.01 93.1361 310.776C93.0675 311.542 92.3907 312.108 91.6248 312.04C90.859 311.971 90.2933 311.294 90.3619 310.528C90.4304 309.762 91.1072 309.196 91.8731 309.265Z" fill="#FCDFC8"/>
        <path id="Vector_78" d="M92.3836 303.557C93.1499 303.626 93.7151 304.302 93.6466 305.068C93.578 305.835 92.9012 306.4 92.1354 306.332C91.3695 306.263 90.8039 305.586 90.8724 304.82C90.941 304.054 91.6177 303.489 92.3836 303.557Z" fill="#FCDFC8"/>
        <path id="Vector_79" d="M92.8942 297.849C93.6605 297.918 94.2257 298.594 94.1572 299.361C94.0886 300.127 93.4118 300.692 92.646 300.624C91.8802 300.555 91.3145 299.878 91.383 299.113C91.4515 298.346 92.1284 297.781 92.8942 297.849Z" fill="#FCDFC8"/>
        <path id="Vector_80" d="M93.4048 292.141C94.1712 292.21 94.7363 292.887 94.6678 293.652C94.5993 294.419 93.9225 294.984 93.1566 294.916C92.3908 294.847 91.8251 294.171 91.8937 293.404C91.9622 292.638 92.639 292.073 93.4048 292.141Z" fill="#FCDFC8"/>
        </g>
        <path id="Vector_81" d="M65.5274 282.074C58.8567 279.972 52.2588 282.337 47.4304 285.119L47.7243 285.721C52.1963 283.597 58.5025 281.808 64.401 284.401C72.0287 287.755 74.9182 292.861 75.9484 295.514L80.0779 293.107C78.4337 290.108 74.4168 284.876 65.5274 282.074Z" fill="#B2B2B2"/>
        <path id="Vector_82" d="M60.35 339.952C53.4121 340.837 47.3388 337.338 43.0808 333.744L43.4769 333.203C47.5009 336.087 53.3894 338.967 59.6546 337.462C67.7565 335.515 71.5063 331.003 72.9909 328.576L76.6276 331.677C74.4774 334.337 69.5954 338.774 60.35 339.952Z" fill="#B2B2B2"/>
        <g id="Group_15">
        <path id="Vector_83" d="M67.7408 295.2L70.3766 300.096L82.9359 293.335L80.3 288.439L67.7408 295.2Z" fill="#C6C6C6"/>
        </g>
        <g id="Group_16">
        <path id="Vector_84" d="M70.4492 299.223C70.7562 299.251 71.0282 299.025 71.0562 298.718C71.0846 298.411 70.8587 298.139 70.5516 298.111C70.2446 298.083 69.9726 298.309 69.9446 298.616C69.9161 298.923 70.1421 299.194 70.4492 299.223Z" fill="#898786"/>
        <path id="Vector_85" d="M72.0367 298.364C72.3438 298.392 72.6158 298.166 72.6437 297.859C72.6722 297.552 72.4462 297.28 72.1392 297.252C71.8321 297.224 71.5601 297.45 71.5321 297.757C71.5037 298.064 71.7296 298.336 72.0367 298.364Z" fill="#898786"/>
        <path id="Vector_86" d="M73.6238 297.505C73.9309 297.533 74.2029 297.307 74.2309 297C74.2593 296.693 74.0334 296.421 73.7263 296.393C73.4192 296.365 73.1472 296.591 73.1193 296.898C73.0908 297.204 73.3168 297.476 73.6238 297.505Z" fill="#898786"/>
        <path id="Vector_87" d="M75.2114 296.646C75.5185 296.674 75.7905 296.448 75.8184 296.141C75.8469 295.834 75.621 295.562 75.3139 295.534C75.0068 295.506 74.7348 295.732 74.7068 296.039C74.6784 296.345 74.9044 296.617 75.2114 296.646Z" fill="#898786"/>
        <path id="Vector_88" d="M76.7985 295.787C77.1056 295.815 77.3776 295.589 77.4056 295.282C77.4335 294.975 77.2081 294.703 76.901 294.675C76.594 294.647 76.3219 294.873 76.294 295.18C76.2655 295.487 76.4915 295.758 76.7985 295.787Z" fill="#898786"/>
        <path id="Vector_89" d="M78.3862 294.927C78.6932 294.956 78.9652 294.73 78.9932 294.423C79.0217 294.116 78.7957 293.844 78.4886 293.816C78.1816 293.787 77.9096 294.013 77.8816 294.32C77.8532 294.627 78.0791 294.9 78.3862 294.927Z" fill="#898786"/>
        <path id="Vector_90" d="M79.9733 294.068C80.2804 294.097 80.5524 293.871 80.5803 293.564C80.6088 293.257 80.3829 292.985 80.0758 292.957C79.7687 292.928 79.4967 293.154 79.4688 293.461C79.4403 293.768 79.6662 294.04 79.9733 294.068Z" fill="#898786"/>
        <path id="Vector_91" d="M81.5608 293.21C81.8679 293.238 82.1399 293.012 82.1679 292.705C82.1963 292.398 81.9704 292.126 81.6633 292.098C81.3562 292.07 81.0842 292.296 81.0563 292.603C81.0278 292.909 81.2538 293.181 81.5608 293.21Z" fill="#898786"/>
        </g>
        <g id="Group_17">
        <path id="Vector_92" d="M64.8636 327.458L76.0235 336.341L79.4865 331.99L68.3267 323.107L64.8636 327.458Z" fill="#C6C6C6"/>
        </g>
        <g id="Group_18">
        <path id="Vector_93" d="M68.0932 324.216C68.4012 324.234 68.6365 324.497 68.6195 324.805C68.602 325.113 68.3387 325.348 68.0306 325.331C67.7226 325.314 67.4873 325.05 67.5043 324.742C67.5213 324.434 67.7851 324.199 68.0932 324.216Z" fill="#898786"/>
        <path id="Vector_94" d="M69.5361 325.3C69.8442 325.318 70.0794 325.581 70.0619 325.889C70.0444 326.197 69.7812 326.432 69.4731 326.415C69.1651 326.398 68.9298 326.134 68.9468 325.826C68.9648 325.518 69.2281 325.283 69.5361 325.3Z" fill="#898786"/>
        <path id="Vector_95" d="M70.9791 326.384C71.2871 326.402 71.5223 326.665 71.5048 326.973C71.4873 327.281 71.2241 327.516 70.916 327.499C70.608 327.482 70.3727 327.218 70.3897 326.91C70.4077 326.602 70.6715 326.367 70.9791 326.384Z" fill="#898786"/>
        <path id="Vector_96" d="M72.4225 327.468C72.7306 327.486 72.9658 327.749 72.9483 328.057C72.9308 328.365 72.6675 328.6 72.3595 328.583C72.0514 328.566 71.8162 328.302 71.8332 327.994C71.8507 327.686 72.1145 327.451 72.4225 327.468Z" fill="#898786"/>
        <path id="Vector_97" d="M73.8654 328.552C74.1735 328.57 74.4087 328.833 74.3912 329.141C74.3737 329.449 74.1104 329.684 73.8024 329.667C73.4943 329.65 73.2591 329.386 73.2761 329.078C73.2941 328.77 73.5574 328.534 73.8654 328.552Z" fill="#898786"/>
        <path id="Vector_98" d="M75.3084 329.636C75.6164 329.654 75.8517 329.917 75.8347 330.225C75.8172 330.533 75.5539 330.768 75.2459 330.751C74.9378 330.734 74.7025 330.47 74.7195 330.162C74.737 329.854 75.0009 329.619 75.3084 329.636Z" fill="#898786"/>
        <path id="Vector_99" d="M76.7518 330.72C77.0599 330.738 77.2951 331.001 77.2781 331.309C77.2606 331.617 76.9973 331.852 76.6893 331.835C76.3812 331.818 76.146 331.554 76.163 331.246C76.18 330.938 76.4438 330.703 76.7518 330.72Z" fill="#898786"/>
        <path id="Vector_100" d="M78.1948 331.804C78.5028 331.822 78.7381 332.085 78.7211 332.393C78.7036 332.701 78.4403 332.936 78.1322 332.919C77.8242 332.902 77.5889 332.638 77.6064 332.33C77.6234 332.022 77.8868 331.787 78.1948 331.804Z" fill="#898786"/>
        </g>
        </g>
    </TMPL_IF>
    <TMPL_IF NAME="HAT_SIX">
        <g id="StrawHat">
        <path id="Vector" d="M71.2759 308.673C70.9107 308.728 70.5395 309.016 70.3521 309.39C70.5195 309.415 70.6868 309.44 70.8542 309.466C70.1434 309.918 69.635 310.804 69.6207 311.614C69.8295 311.443 70.0859 311.354 70.3169 311.371C70.0052 311.541 69.7394 311.849 69.6069 312.194C69.7711 312.254 69.9627 312.256 70.1499 312.198C69.6612 312.355 69.1918 312.699 68.8513 313.148C68.9265 313.591 69.1612 313.967 69.5009 314.19C69.2262 314.256 68.9505 314.218 68.7361 314.084C68.7029 314.448 68.828 314.789 69.0677 314.99C68.901 314.926 68.7342 314.862 68.5674 314.797C68.5908 315.123 68.6143 315.449 68.6377 315.775C68.2811 315.482 67.6305 316.133 67.6556 316.657C67.6808 317.18 68.0859 317.499 68.4624 317.766C68.0761 318.03 67.6897 318.294 67.3034 318.558C67.51 318.667 67.7167 318.776 67.9233 318.885C67.0685 319.358 66.3846 320.305 66.2002 321.273C66.484 321.19 66.7678 321.106 67.0515 321.023C66.6396 321.368 66.3024 321.83 66.0974 322.331C66.2941 322.318 66.4983 322.249 66.6841 322.134C66.0033 322.857 65.566 323.838 65.5101 324.768C65.8504 324.417 66.2702 324.159 66.6985 324.037C66.3551 324.424 66.0118 324.811 65.6685 325.198C65.9458 325.148 66.2231 325.098 66.5005 325.047C66.2005 325.165 65.9147 325.369 65.685 325.63C65.8996 325.576 66.1143 325.521 66.3288 325.467C65.9675 326.087 65.6061 326.708 65.2448 327.329C65.7591 327.045 66.2734 326.762 66.7877 326.478C66.4446 326.816 66.1394 327.202 65.886 327.616C66.1282 327.475 66.3704 327.334 66.6126 327.192C66.0577 327.908 65.4246 329.141 65.2924 329.992C65.6013 329.479 65.9103 328.965 66.2192 328.452C65.625 329.221 65.4972 330.317 65.9221 330.998C66.1864 330.341 66.5584 329.715 67.0121 329.161C66.7817 329.601 66.6122 330.067 66.5127 330.535C66.7042 330.368 66.8958 330.202 67.0873 330.035C66.879 330.286 66.7626 330.617 66.7783 330.914C66.9183 330.674 67.0994 330.457 67.3066 330.279C66.9019 331.119 66.9326 332.101 67.3831 332.722C67.5947 332.18 67.8972 331.661 68.2686 331.204C68.0446 331.764 67.9303 332.354 67.9367 332.915C68.138 332.635 68.3394 332.355 68.5407 332.076C68.4401 332.576 68.3396 333.076 68.239 333.576C68.517 333.251 68.795 332.927 69.0731 332.602C68.8697 333.138 68.6662 333.673 68.4627 334.208C69.6346 334.264 70.9407 333.667 71.8748 332.649C71.6804 333.119 71.4861 333.588 71.2917 334.058C71.7316 333.699 72.1259 333.264 72.4484 332.782C72.4206 333.08 72.3927 333.378 72.365 333.676C72.6582 333.447 72.9132 333.151 73.1023 332.82C73.0972 333.341 73.3113 333.812 73.6756 334.081C73.713 333.451 73.8903 332.8 74.1885 332.196C73.8135 332.818 74.2504 333.633 74.8835 333.491C74.9068 332.961 75.0076 332.417 75.1813 331.885C75.1118 332.203 75.1089 332.523 75.1727 332.812C75.3028 332.712 75.3603 332.51 75.2936 332.387C75.5058 332.655 75.8219 332.819 76.1739 332.846C76.1602 332.329 76.2855 331.779 76.5318 331.275C76.5348 331.685 76.6421 332.072 76.8394 332.382C77.3418 331.641 77.5827 330.732 77.4884 329.935C77.5796 330.573 78.0517 331.269 78.6566 331.32C78.4246 331.19 78.2813 330.92 78.2825 330.615C78.5078 330.752 78.7331 330.888 78.9584 331.025C78.8632 330.791 78.7681 330.557 78.6729 330.324C78.8337 330.551 79.0445 330.734 79.2891 330.858C79.6301 330.457 79.8256 329.925 79.8086 329.444C79.7814 329.895 80.0446 330.286 80.434 330.372C80.4521 329.914 80.4701 329.457 80.4881 328.999C80.7706 329.602 81.7313 329.579 82.2219 328.958C82.2011 328.458 82.317 327.923 82.5522 327.431C82.7594 327.597 82.8974 327.852 82.9379 328.144C83.1922 327.698 83.3834 327.221 83.5005 326.738C83.5437 326.924 83.5869 327.111 83.63 327.297C84.0768 326.711 84.3944 326.022 84.5377 325.329C84.5653 325.838 85.2784 325.911 85.657 325.501C86.0356 325.091 86.0576 324.449 85.8243 324.047C85.9361 324.288 86.048 324.529 86.1598 324.771C86.7075 324.096 87.0815 323.272 87.2104 322.454C87.3295 322.836 87.4486 323.218 87.5677 323.6C87.82 322.97 87.9568 322.31 87.9665 321.675C88.2485 322.007 88.7355 322.118 89.1995 321.956C88.9421 321.645 88.7524 321.267 88.644 320.848C88.9957 321.131 89.4592 321.266 89.9454 321.227C89.5582 321.083 89.2396 320.797 89.0448 320.419C89.5086 320.65 90.0678 320.71 90.6289 320.589C90.9142 319.781 90.9178 318.92 90.6386 318.235C91.0015 318.408 91.3185 318.663 91.5678 318.984C91.637 318.402 91.5854 317.831 91.4178 317.325C91.6475 317.523 91.8772 317.722 92.1069 317.92C92.1253 317.247 92.0106 316.599 91.7725 316.031C92.2711 316.769 93.318 316.98 94.2327 316.525C93.934 316.217 93.6353 315.908 93.3366 315.6C93.6516 315.686 93.9667 315.773 94.2816 315.86C94.175 315.505 94.0684 315.15 93.9617 314.794C94.2099 314.932 94.4582 315.07 94.7065 315.208C94.6549 315.015 94.7763 314.753 94.9665 314.646C95.1604 314.672 95.3545 314.699 95.5484 314.726C95.6012 314.197 95.5386 313.68 95.367 313.23C95.6037 313.34 95.9701 313.066 96.2364 312.908C96.1355 312.797 96.0348 312.686 95.9339 312.575C96.1147 312.73 96.3964 312.751 96.6464 312.627C96.4376 312.524 96.3219 312.268 96.3617 311.996C96.684 312.136 97.0064 312.277 97.3289 312.417C97.2415 311.861 97.0556 311.345 96.7829 310.899C96.9784 311.072 97.2663 311.127 97.5486 311.046C97.3472 310.915 97.2178 310.679 97.1988 310.407C97.5178 310.597 97.9822 310.535 98.3376 310.257C97.8954 310.279 97.5102 309.996 97.3948 309.564C97.7476 309.834 98.2787 309.849 98.7414 309.602C98.4042 309.498 98.1555 309.198 98.0912 308.82C98.524 309.131 99.2347 308.998 99.6914 308.52C99.4398 308.389 99.2697 308.123 99.2364 307.807C99.4671 307.906 99.6978 308.005 99.9285 308.104C100.161 307.571 100.047 306.956 99.6655 306.682C99.9229 306.745 100.18 306.808 100.438 306.871C100.313 306.608 100.188 306.345 100.063 306.081C100.578 306.082 101.14 305.8 101.534 305.345C101.178 305.28 100.865 305.09 100.647 304.808C100.937 304.931 101.295 304.919 101.627 304.773C101.432 304.636 101.236 304.498 101.04 304.361C101.637 304.364 102.287 304.071 102.777 303.577C102.472 303.22 102.261 302.767 102.165 302.265C102.386 302.35 102.606 302.436 102.827 302.521C102.755 302.268 102.682 302.014 102.61 301.761C103 301.793 103.435 301.642 103.787 301.35C103.64 301.159 103.44 301.018 103.211 300.944C103.718 300.802 104.232 300.802 104.686 300.943C104.357 300.438 103.937 300.011 103.449 299.685C103.901 299.732 104.353 299.779 104.805 299.826C104.702 299.599 104.599 299.371 104.496 299.144C104.651 299.193 104.806 299.241 104.96 299.29C104.897 298.901 104.771 298.537 104.59 298.216C105.09 298.402 105.75 298.223 106.222 297.773C105.86 297.646 105.565 297.375 105.397 297.015C105.688 296.947 105.979 296.977 106.218 297.1C106.23 296.592 106.158 296.1 106.009 295.653C106.237 295.824 106.466 295.995 106.694 296.166C106.701 295.425 106.45 294.741 106.001 294.274C106.339 294.416 106.678 294.559 107.017 294.701C106.933 294.216 106.9 293.71 106.917 293.195C107.352 292.914 107.787 292.632 108.223 292.35C107.992 291.87 107.551 291.543 107.03 291.464C107.619 291.297 108.162 291.371 108.661 291.592C108.377 291.4 108.092 291.207 107.808 291.014C108.22 290.972 108.632 290.929 109.045 290.887C108.786 290.703 108.527 290.519 108.269 290.335C108.513 290.334 108.758 290.334 109.002 290.334C108.838 290.206 108.674 290.079 108.51 289.951C108.824 289.973 109.164 289.882 109.47 289.695C109.32 289.397 108.972 289.254 108.625 289.348C109.277 289.03 109.889 288.56 110.399 287.985C109.896 288.046 109.394 288.107 108.891 288.167C109.435 288.148 110.024 287.785 110.371 287.254C110.161 287.217 109.929 287.245 109.708 287.334C109.935 287.28 110.16 287.15 110.343 286.969C110.136 286.871 109.928 286.773 109.721 286.676C109.728 286.839 110.007 286.757 110.045 286.588C110.082 286.42 109.952 286.295 109.811 286.258C110.256 286.164 110.701 286.138 111.127 286.181C110.823 285.483 110.152 285.04 109.385 285.032C109.931 285.129 110.513 285.114 111.096 284.989C110.866 284.515 110.45 284.177 109.948 284.056C110.318 284.094 110.724 283.993 111.087 283.771C110.869 283.617 110.651 283.462 110.433 283.308C110.612 283.219 110.791 283.131 110.971 283.043C110.762 282.896 110.642 282.626 110.654 282.33C110.956 282.185 111.258 282.041 111.561 281.896C111.025 281.668 110.407 281.604 109.78 281.71C110.308 281.164 110.835 280.618 111.362 280.072C110.982 280.067 110.603 280.062 110.223 280.057C110.383 279.691 110.626 279.352 110.92 279.085C110.787 278.93 110.654 278.776 110.521 278.621C110.623 278.318 110.846 278.04 111.115 277.883C110.94 277.85 110.794 277.733 110.72 277.566C110.902 277.468 111.084 277.371 111.267 277.274C110.796 276.96 110.136 276.938 109.536 277.215C110.184 276.343 110.956 275.568 111.806 274.94C111.131 274.607 110.24 274.678 109.47 275.126C109.876 274.655 110.282 274.183 110.689 273.711C110.356 273.784 110.022 273.857 109.689 273.93C109.87 273.599 109.976 273.233 109.995 272.881C109.819 272.951 109.644 273.021 109.468 273.091C109.593 272.872 109.718 272.654 109.843 272.435C109.589 272.398 109.293 272.513 109.078 272.731C109.153 272.136 109.146 271.548 109.06 270.99C108.833 271.461 108.538 271.906 108.191 272.3C108.028 271.699 107.935 271.062 107.915 270.407C107.498 270.869 107.145 271.398 106.879 271.96C106.965 271.588 106.935 271.211 106.795 270.909C106.759 270.831 106.696 270.75 106.607 270.778C106.518 270.806 106.519 270.993 106.603 270.945C106.572 270.778 106.704 270.562 106.87 270.507C106.727 270.714 106.129 270.761 105.986 270.969C106.025 270.751 105.981 270.536 105.866 270.385C105.816 270.587 105.766 270.788 105.715 270.989C105.693 270.818 105.576 270.684 105.42 270.65C105.341 270.874 105.261 271.098 105.182 271.322C104.957 270.803 104.89 270.181 104.992 269.553C104.355 270.333 104.018 271.367 104.107 272.271C103.953 271.873 103.875 271.43 103.876 270.969C103.595 271.518 103.392 272.101 103.278 272.684C103.311 272.427 103.229 272.182 103.062 272.04C102.927 272.405 102.864 272.787 102.88 273.147C102.539 272.431 102.508 271.501 102.797 270.622C102.149 271.324 101.76 272.292 101.774 273.174C101.75 272.869 101.638 272.591 101.456 272.385C101.317 272.845 101.223 273.311 101.174 273.772C100.965 273.393 100.653 273.094 100.275 272.914C100.298 273.263 100.473 273.566 100.741 273.721C100.422 273.43 99.9956 273.269 99.5379 273.266C99.7242 273.455 99.9105 273.644 100.097 273.833C99.8772 273.585 99.5762 273.423 99.2402 273.371C99.2444 273.726 99.2485 274.081 99.2527 274.435C99.1266 274.121 98.9455 273.842 98.7196 273.613C98.5751 274.366 98.4307 275.118 98.2863 275.871C97.9822 275.297 96.8375 275.15 96.205 275.03C96.3804 275.18 96.5214 275.372 96.6177 275.595C96.3256 275.527 96.0335 275.46 95.7414 275.392C95.7668 275.61 95.8967 275.788 96.0812 275.859C95.819 275.636 95.5068 275.476 95.1658 275.39C95.1437 275.914 95.1215 276.437 95.0994 276.961C94.8942 276.78 94.6889 276.598 94.4838 276.416C94.405 276.632 94.3263 276.848 94.2475 277.064C94.1408 276.943 94.069 276.785 94.0404 276.611C93.9434 277.061 93.8463 277.511 93.7492 277.962C93.5255 277.76 92.9391 278.073 92.6549 277.966C92.6513 278.119 92.6478 278.273 92.6442 278.427C92.5624 278.335 92.4807 278.244 92.399 278.153C92.3471 278.424 92.2951 278.696 92.2432 278.967C92.1784 278.888 92.0515 278.877 91.9497 278.943C91.9309 279.387 91.912 279.832 91.8932 280.277C91.5507 279.868 91.3687 279.299 91.3858 278.691C91.0388 279.643 90.9954 280.658 91.2658 281.503C91.1319 281.117 90.9243 280.774 90.6572 280.498C90.5624 280.777 90.5214 281.066 90.5381 281.339C90.4564 281.107 90.2986 280.92 90.0936 280.813C90.054 281.102 90.0929 281.385 90.2041 281.619C90.0231 281.169 89.3172 281.178 88.974 281.634C89.26 281.711 89.5288 281.831 89.7716 281.99C89.4235 281.828 88.9541 281.907 88.5848 282.188C88.6983 282.292 88.8439 282.357 89.003 282.375C88.8447 282.238 88.6378 282.162 88.4159 282.16C88.5346 282.452 88.6533 282.745 88.7721 283.038C88.5075 282.866 88.2429 282.694 87.9783 282.522C87.9253 282.734 87.9599 282.951 88.0705 283.098C87.8956 282.99 87.7208 282.881 87.5459 282.773C87.5202 283.014 87.4945 283.254 87.4687 283.495C87.3403 283.421 87.2118 283.347 87.0834 283.273C86.6563 283.995 86.4449 284.83 86.4967 285.589L71.2759 308.673Z" fill="#E28E26"/>
        <path id="Vector_2" d="M97.352 308.132C107.745 293.123 112.263 278.251 107.444 274.914C102.626 271.577 90.2943 281.04 79.9016 296.049C69.5089 311.059 64.9904 325.931 69.8092 329.268C74.628 332.604 86.9594 323.142 97.352 308.132Z" fill="#FDBA36"/>
        <path id="Vector_3" opacity="0.47" d="M109.139 282.745C108.549 282.843 107.963 283.02 107.412 283.228C104.6 284.289 101.956 286.225 100.837 289.014C99.9996 291.102 100.093 293.426 99.9741 295.672C99.7411 300.086 98.4654 304.731 95.1244 307.625C92.2962 310.075 88.2883 311.011 85.843 313.843C84.8237 315.023 84.1508 316.455 83.3238 317.777C82.4969 319.1 81.4399 320.373 79.9873 320.94C78.5347 321.507 76.6245 321.134 75.8632 319.773C75.3833 318.915 75.4341 317.867 75.1598 316.923C74.3547 314.153 72.1695 313.629 70.0892 314.266C67.3542 321.632 67.0421 327.352 69.8093 329.268C74.628 332.604 86.9594 323.142 97.3521 308.132C103.911 298.66 108.129 289.243 109.139 282.745Z" fill="#FDE392"/>
        <g id="Group">
        <g id="Group_2">
        <path id="Vector_4" d="M97.4451 308.197C92.4123 315.465 86.7705 321.671 81.5594 325.67C76.3149 329.694 72.1191 331.005 69.7448 329.361C67.3704 327.717 67.1211 323.328 69.0427 317.003C70.9523 310.718 74.7756 303.253 79.8085 295.985C84.8413 288.716 90.483 282.511 95.6942 278.512C100.939 274.488 105.134 273.177 107.509 274.821C109.883 276.465 110.132 280.854 108.211 287.179C106.301 293.464 102.478 300.928 97.4451 308.197ZM79.9947 296.114C69.6541 311.048 65.1139 325.879 69.8737 329.175C74.6335 332.47 86.9185 323.002 97.259 308.068C107.6 293.134 112.14 278.303 107.38 275.007C102.62 271.711 90.3352 281.18 79.9947 296.114Z" fill="#E28E26"/>
        </g>
        <g id="Group_3">
        <path id="Vector_5" d="M96.7496 308.045C92.079 314.791 86.8568 320.55 82.0228 324.282C77.0994 328.084 73.1535 329.331 70.9118 327.794C70.0263 327.187 69.4458 326.171 69.1867 324.774C68.1143 318.992 72.5686 307.587 80.2708 296.395C80.3251 296.316 80.3798 296.236 80.4343 296.158C85.1049 289.412 90.3273 283.653 95.1612 279.92C100.085 276.118 104.031 274.871 106.272 276.408C107.158 277.016 107.738 278.032 107.997 279.429C109.07 285.211 104.615 296.615 96.9133 307.808C96.8589 307.887 96.8041 307.966 96.7496 308.045ZM80.6194 296.288C80.5649 296.367 80.5116 296.444 80.4573 296.523C76.6565 302.046 73.5956 307.685 71.6051 312.831C69.6859 317.793 68.9061 322.019 69.4093 324.732C69.6571 326.068 70.2057 327.035 71.0399 327.608C75.5003 330.666 86.9203 321.843 96.5645 307.915C96.619 307.836 96.6725 307.759 96.7269 307.68C100.528 302.156 103.589 296.517 105.579 291.372C107.498 286.41 108.278 282.183 107.775 279.47C107.527 278.134 106.978 277.167 106.144 276.595C101.684 273.536 90.2634 282.36 80.6194 296.288Z" fill="#E28E26"/>
        </g>
        <g id="Group_4">
        <path id="Vector_6" d="M96.0554 307.893C91.7471 314.115 86.9431 319.429 82.4863 322.895C77.8839 326.475 74.1879 327.658 72.079 326.228C71.2452 325.662 70.6966 324.712 70.4483 323.405C69.4221 317.998 73.5552 307.309 80.733 296.804C85.1252 290.378 90.0588 284.882 94.6283 281.328C99.2307 277.749 102.927 276.565 105.036 277.995C105.869 278.561 106.418 279.511 106.666 280.819C107.693 286.225 103.559 296.914 96.3817 307.419C96.2733 307.577 96.1644 307.736 96.0554 307.893ZM81.2433 296.462C81.135 296.618 81.0277 296.774 80.9199 296.932C77.3787 302.114 74.5311 307.402 72.6848 312.224C70.9048 316.872 70.1896 320.828 70.6708 323.362C70.9074 324.609 71.4239 325.51 72.2061 326.04C76.367 328.863 86.9232 320.684 95.8713 307.762C95.9796 307.605 96.0869 307.449 96.1947 307.291C99.7359 302.109 102.584 296.821 104.43 292C106.21 287.351 106.925 283.395 106.444 280.861C106.207 279.614 105.691 278.713 104.909 278.183C100.748 275.361 90.1914 283.539 81.2433 296.462Z" fill="#E28E26"/>
        </g>
        <g id="Group_5">
        <path id="Vector_7" d="M95.3628 307.741C91.4165 313.441 87.0299 318.309 82.9499 321.508C78.6685 324.865 75.2224 325.985 73.2463 324.661C72.4642 324.138 71.9474 323.254 71.71 322.036C70.73 317.005 74.5418 307.03 81.1953 297.214C85.2635 291.21 89.8466 286.067 94.0953 282.736C98.3767 279.379 101.823 278.259 103.799 279.583C104.581 280.106 105.098 280.99 105.335 282.209C106.315 287.239 102.503 297.214 95.8498 307.03C95.6884 307.268 95.5258 307.506 95.3628 307.741ZM81.8658 296.636C81.704 296.869 81.5432 297.104 81.3826 297.341C74.7608 307.11 70.9629 317.017 71.9321 321.992C72.1576 323.149 72.6421 323.984 73.3722 324.473C77.3092 327.11 87.3091 319.229 95.6625 306.903C102.284 297.133 106.082 287.227 105.113 282.252C104.887 281.094 104.403 280.26 103.673 279.771C99.8116 277.185 90.1182 284.717 81.8658 296.636Z" fill="#E28E26"/>
        </g>
        <g id="Group_6">
        <path id="Vector_8" d="M94.6719 307.589C91.0874 312.766 87.1173 317.189 83.4134 320.121C79.4532 323.255 76.2569 324.311 74.4135 323.095C73.6832 322.613 73.1981 321.796 72.9715 320.666C72.0378 316.012 75.5284 306.752 81.6574 297.624C85.4068 292.04 89.6344 287.253 93.5621 284.144C97.5224 281.009 100.719 279.953 102.562 281.17C103.292 281.652 103.777 282.469 104.004 283.598C104.938 288.253 101.447 297.513 95.3182 306.641C95.1044 306.959 94.8886 307.276 94.6719 307.589ZM82.4866 296.809C82.2717 297.12 82.058 297.433 81.8453 297.75C75.7477 306.831 72.2708 316.023 73.1935 320.622C73.4077 321.69 73.8602 322.458 74.5382 322.906C78.201 325.323 87.4381 317.971 95.1302 306.515C101.228 297.434 104.705 288.242 103.782 283.643C103.568 282.575 103.115 281.806 102.437 281.359C98.8759 279.008 90.0435 285.896 82.4866 296.809Z" fill="#E28E26"/>
        </g>
        <g id="Group_7">
        <path id="Vector_9" d="M93.9834 307.436C90.7606 312.091 87.2052 316.07 83.8771 318.733C80.238 321.645 77.2917 322.638 75.5809 321.528C74.9024 321.088 74.4489 320.338 74.2331 319.297C73.3457 315.018 76.515 306.473 82.1195 298.033C85.5483 292.871 89.4221 288.438 93.029 285.552C96.6681 282.64 99.6145 281.647 101.325 282.757C102.004 283.197 102.457 283.948 102.673 284.988C103.56 289.267 100.391 297.812 94.7866 306.252C94.5214 306.651 94.2535 307.046 93.9834 307.436ZM83.1055 296.983C82.8379 297.369 82.572 297.761 82.3081 298.159C76.7348 306.551 73.5788 315.028 74.4548 319.251C74.6578 320.23 75.0781 320.933 75.7041 321.339C79.0926 323.536 87.5679 316.713 94.5979 306.127C100.171 297.734 103.327 289.258 102.451 285.034C102.248 284.055 101.828 283.353 101.202 282.947C97.9407 280.832 89.9668 287.073 83.1055 296.983Z" fill="#E28E26"/>
        </g>
        <g id="Group_8">
        <path id="Vector_10" d="M93.2982 307.283C90.4365 311.416 87.294 314.952 84.3409 317.346C81.0229 320.036 78.3265 320.965 76.7485 319.962C76.1217 319.564 75.6998 318.88 75.4947 317.928C74.6536 314.025 77.5016 306.195 82.5817 298.443C85.6884 293.702 89.2096 289.624 92.4957 286.96C95.8137 284.271 98.5101 283.341 100.088 284.344C100.715 284.742 101.137 285.426 101.342 286.378C102.183 290.281 99.335 298.111 94.2549 305.863C93.9401 306.343 93.6208 306.817 93.2982 307.283ZM83.7251 297.151C83.4033 297.616 83.0851 298.088 82.7709 298.567C77.722 306.271 74.8868 314.033 75.7161 317.88C75.9078 318.771 76.2961 319.407 76.8699 319.771C78.3594 320.717 80.962 319.794 84.1984 317.17C87.4668 314.52 90.9708 310.461 94.0657 305.739C99.1146 298.035 101.95 290.274 101.121 286.426C100.929 285.536 100.541 284.899 99.9667 284.535C98.4772 283.589 95.8746 284.513 92.6382 287.136C89.7015 289.517 86.5744 293.036 83.7251 297.151Z" fill="#E28E26"/>
        </g>
        <g id="Group_9">
        <path id="Vector_11" d="M92.6174 307.129C90.116 310.741 87.3841 313.835 84.8048 315.958C81.8081 318.426 79.3616 319.291 77.9163 318.396C77.341 318.04 76.9508 317.422 76.7564 316.559C75.9616 313.032 78.4883 305.916 83.0436 298.853C85.8299 294.533 88.9973 290.81 91.9624 288.368C94.9591 285.901 97.4055 285.035 98.8509 285.931C99.4262 286.287 99.8165 286.905 100.011 287.768C100.806 291.295 98.2789 298.411 93.7235 305.474C93.3609 306.036 92.9915 306.588 92.6174 307.129ZM84.3364 297.326C83.9633 297.865 83.5955 298.415 83.2338 298.976C78.7092 305.991 76.1949 313.037 76.9772 316.509C77.1577 317.311 77.5137 317.881 78.0354 318.204C79.3919 319.044 81.7448 318.184 84.6609 315.784C87.6085 313.357 90.7595 309.652 93.5333 305.351C98.0579 298.336 100.572 291.29 99.7899 287.818C99.6094 287.016 99.2534 286.446 98.7317 286.123C97.3752 285.283 95.0223 286.142 92.1062 288.543C89.5429 290.654 86.8255 293.731 84.3364 297.326Z" fill="#E28E26"/>
        </g>
        <g id="Group_10">
        <path id="Vector_12" d="M91.9424 306.972C89.8005 310.066 87.4756 312.719 85.2687 314.571C82.5933 316.816 80.3969 317.618 79.0842 316.83C78.5603 316.516 78.2016 315.964 78.0179 315.19C77.2696 312.038 79.475 305.637 83.5055 299.263C85.9708 295.365 88.7846 291.996 91.4288 289.777C94.1042 287.532 96.3005 286.729 97.6133 287.517C98.1372 287.832 98.4959 288.384 98.6797 289.157C99.4279 292.31 97.2226 298.71 93.192 305.084C92.7843 305.729 92.3669 306.359 91.9424 306.972ZM84.9419 297.503C84.5189 298.114 84.1033 298.742 83.6968 299.384C79.6967 305.71 77.503 312.041 78.2382 315.138C78.4072 315.85 78.7311 316.354 79.2007 316.636C80.4242 317.37 82.5275 316.575 85.1232 314.397C87.75 312.193 90.5476 308.842 93.0006 304.963C97.0007 298.637 99.1944 292.306 98.4593 289.21C98.2903 288.498 97.9664 287.993 97.4967 287.712C96.2733 286.977 94.1699 287.772 91.5742 289.95C89.3828 291.789 87.0719 294.427 84.9419 297.503Z" fill="#E28E26"/>
        </g>
        </g>
        <path id="Vector_13" d="M94.8072 287.332C95.4978 280.123 98.3311 273.132 102.855 267.476C101.528 267.429 100.189 267.914 99.2008 268.801C99.3313 267.33 99.0794 265.826 98.4767 264.477C97.4223 268.209 94.3229 271.01 92.7497 274.554C90.8747 278.779 91.3284 283.64 92.0714 288.202L94.8072 287.332Z" fill="#1E2937"/>
        <path id="Vector_14" d="M92.3884 289.969C89.8535 283.186 89.3409 275.66 90.9324 268.595C89.7187 269.134 88.7277 270.156 88.227 271.386C87.7001 270.006 86.8155 268.764 85.6832 267.816C86.3687 271.632 84.8078 275.507 84.9449 279.383C85.1083 284.002 87.6441 288.173 90.3091 291.949L92.3884 289.969Z" fill="#1E2937"/>
        <path id="Vector_15" d="M78.8893 314.557C78.8893 314.557 73.5207 310.977 70.7005 308.887C67.8802 306.796 66.0951 305.367 66.1199 301.584C66.1435 297.994 68.183 293.237 71.441 288.332C74.699 283.428 79.0306 279.956 81.572 280.063C84.1134 280.171 94.3924 286.6 94.3924 286.6C94.3924 286.6 98.794 293.365 91.4474 303.975C84.1009 314.585 78.8893 314.557 78.8893 314.557Z" fill="#E28E26"/>
        <path id="Vector_16" d="M79.6598 296.643C82.894 291.336 83.5473 286.979 83.1237 283.401C82.9311 281.774 82.3616 280.533 81.1865 280.09C79.3323 279.391 74.5372 283.668 71.3765 288.425C68.1185 293.33 66.1187 298.029 66.0555 301.677C66.0305 303.119 66.3158 304.361 67.0561 305.083C67.5925 305.607 68.4629 305.698 69.5154 305.619C72.7655 305.376 76.1785 302.355 79.6598 296.643Z" fill="#FDE392"/>
        <path id="Vector_17" d="M74.607 309.685C76.9216 309.075 80.5763 306.94 84.8449 300.232C88.9922 293.719 89.4468 289.212 89.0979 286.577C88.8407 284.635 88.1229 283.403 87.6887 282.811C87.2571 282.576 86.8252 282.346 86.4002 282.125C86.8777 282.706 87.6726 283.921 87.9952 285.857C88.4303 288.468 88.0735 292.967 83.9036 299.575C83.546 300.142 83.1919 300.677 82.8435 301.181C78.8857 306.897 75.539 308.617 73.3597 309.025C72.159 309.249 71.1956 309.103 70.526 308.898C70.5627 308.925 70.5987 308.952 70.6359 308.98C70.9875 309.24 71.3787 309.524 71.7942 309.821C72.48 309.953 73.4353 309.994 74.607 309.685Z" fill="#E28E26"/>
        <path id="Vector_18" d="M91.6395 287.973C91.8238 290.71 91.1709 295.319 87.0138 301.729C86.7468 302.141 86.4814 302.537 86.2189 302.916C82.3416 308.516 78.9773 310.634 76.7825 311.417C76.0031 311.695 75.3153 311.827 74.7345 311.877C76.8907 313.36 78.8247 314.65 78.8247 314.65C78.8247 314.65 84.0363 314.678 91.3829 304.068C98.7294 293.458 94.3278 286.693 94.3278 286.693C94.3278 286.693 92.8332 285.758 90.8437 284.596C91.1765 285.339 91.5378 286.462 91.6395 287.973Z" fill="#EDC594"/>
        <path id="Vector_19" d="M79.5129 299.381C79.9495 298.751 80.3871 298.078 80.8252 297.365C84.0926 292.048 85.3098 287.538 84.4429 283.961C83.9638 281.983 82.9345 280.808 82.3221 280.257C82.235 280.231 82.1507 280.208 82.0706 280.189C82.6234 280.641 83.809 281.825 84.3329 283.987C85.1923 287.534 83.9798 292.015 80.7287 297.306C77.2832 302.915 73.7448 306.048 70.4961 306.366C69.0734 306.505 67.9736 306.077 67.2712 305.664C67.3155 305.733 67.3609 305.802 67.4076 305.87C68.1273 306.254 69.1791 306.607 70.5046 306.478C73.4221 306.195 76.4464 303.81 79.5129 299.381Z" fill="#EDC594"/>
        <path id="Vector_20" d="M80.6573 299.928C81.0527 299.357 81.4553 298.743 81.8634 298.084C86.0389 291.348 86.194 286.922 85.589 284.395C85.0868 282.298 83.9912 281.123 83.4931 280.679C83.3865 280.635 83.2823 280.594 83.1807 280.554L83.1734 280.565C83.1899 280.576 84.831 281.716 85.4788 284.421C86.0788 286.928 85.922 291.322 81.767 298.025C77.3969 305.08 73.7442 306.901 71.4497 307.186C69.5912 307.417 68.2942 306.706 67.7425 306.318C67.8233 306.418 67.9077 306.516 67.9944 306.614C68.6688 307.01 69.8623 307.497 71.4605 307.299C73.5649 307.038 76.7943 305.508 80.6573 299.928Z" fill="#EDC594"/>
        <path id="Vector_21" d="M81.7666 300.531C82.1394 299.993 82.518 299.417 82.9017 298.803C87.0729 292.133 87.327 287.671 86.8056 285.102C86.3818 283.014 85.3902 281.8 84.9096 281.316C84.7958 281.261 84.6833 281.208 84.5722 281.156L84.5706 281.158C84.5862 281.17 86.1361 282.372 86.6946 285.124C87.2119 287.673 86.9571 292.105 82.8057 298.743C78.4226 305.758 74.7332 307.657 72.4105 308.015C70.3849 308.326 69.0391 307.546 68.632 307.264C68.7665 307.39 68.9066 307.516 69.0518 307.641C69.7126 307.974 70.8745 308.364 72.4239 308.127C74.5663 307.799 77.8558 306.179 81.7666 300.531Z" fill="#EDC594"/>
        <path id="Vector_22" d="M82.8803 301.128C83.2286 300.624 83.5825 300.089 83.9398 299.522C88.1067 292.918 88.4596 288.419 88.0219 285.808C87.6973 283.871 86.9008 282.655 86.4223 282.074C86.3312 282.027 86.2402 281.98 86.1498 281.933C86.559 282.373 87.5442 283.629 87.9119 285.836C88.3434 288.427 87.988 292.894 83.844 299.462C83.4864 300.029 83.134 300.562 82.7857 301.065C78.8562 306.74 75.5389 308.448 73.3807 308.851C71.9822 309.112 70.9134 308.863 70.2658 308.612C70.3624 308.685 70.4609 308.759 70.561 308.834C71.2313 309.04 72.1955 309.186 73.3968 308.963C75.5773 308.558 78.9248 306.84 82.8803 301.128Z" fill="#EDC594"/>
        <path id="Vector_23" d="M74.6248 309.797C76.7821 309.232 80.0899 307.36 83.9639 301.765C84.2855 301.301 84.6112 300.81 84.9402 300.293C89.1058 293.751 89.5614 289.215 89.2099 286.562C88.9746 284.786 88.3555 283.592 87.9112 282.933C87.837 282.892 87.7628 282.852 87.6886 282.811C88.1228 283.403 88.8405 284.636 89.0977 286.577C89.4467 289.212 88.9921 293.719 84.8448 300.232C80.5762 306.94 76.9214 309.075 74.6069 309.685C73.4353 309.993 72.48 309.953 71.7942 309.821C71.8632 309.871 71.9331 309.92 72.0034 309.97C72.6789 310.07 73.5651 310.075 74.6248 309.797Z" fill="#EDC594"/>
        <path id="Vector_24" d="M75.7038 310.607C77.879 309.934 81.2138 307.94 85.0882 302.345C85.3815 301.921 85.678 301.477 85.9771 301.011C90.1385 294.535 90.6927 289.963 90.4248 287.268C90.2624 285.633 89.7859 284.471 89.3939 283.76C89.3306 283.724 89.2668 283.688 89.2029 283.652C89.6017 284.328 90.1381 285.527 90.3122 287.279C90.5783 289.956 90.0256 294.501 85.8819 300.95C81.6532 307.533 78.0012 309.774 75.6817 310.495C74.7041 310.799 73.8759 310.865 73.2274 310.833C73.2841 310.872 73.3409 310.912 73.3977 310.952C74.0272 310.965 74.8036 310.886 75.7038 310.607Z" fill="#EDC594"/>
        <path id="Vector_25" d="M82.187 284.345C82.187 284.345 82.5167 281.681 80.412 281.739C78.3073 281.796 73.589 285.827 70.6101 290.924C67.5 296.246 67.1868 299.845 67.6446 302.365C68.1024 304.885 70.2715 304.734 71.0949 304.341C71.9182 303.947 82.187 284.345 82.187 284.345Z" fill="#E28E26"/>
        <path id="Vector_26" d="M71.0949 304.341C71.0949 304.341 67.2874 297.711 71.9918 290.917C76.6961 284.123 82.187 284.345 82.187 284.345C82.187 284.345 82.582 289.73 78.842 295.935C74.2162 303.61 71.0949 304.341 71.0949 304.341Z" fill="#FDBA36"/>
        <path id="Vector_27" d="M74.1604 311.399L78.8703 314.936C78.8703 314.936 84.4501 315.855 92.1834 304.686C99.9166 293.518 96.0604 287.424 96.0604 287.424L90.6331 284.06C90.6331 284.06 93.6587 291.938 87.1689 301.489C79.9156 312.163 74.1604 311.399 74.1604 311.399Z" fill="#253243"/>
        <path id="Vector_28" opacity="0.47" d="M71.5933 297.366C69.7892 296.637 73.6837 288.244 77.4492 288.25C81.2147 288.255 75.3081 298.868 71.5933 297.366Z" fill="#FDE392"/>
        <path id="Vector_29" d="M75.1573 311.804L78.8893 314.557C78.8893 314.557 84.1727 314.606 88.5551 308.43L84.6696 305.634C84.6696 305.634 80.1744 311.361 75.1573 311.804Z" fill="#3A526D"/>
        </g>
    </TMPL_IF>
    </g>
<path class="invisible" id="Anim6" d="M132.369 316C152.09 333.561 132.03 356.532 119.995 370.897" stroke="<TMPL_VAR NAME="SKIN_COLOR">" stroke-width="4"/>
    </g>
</svg>
