<svg width="560" height="350" viewBox="0 0 404 288" fill="none" xmlns="http://www.w3.org/2000/svg">
    <g id="StickGuy" class="photo">
    <path id="Arm1" d="M31.1374 153C5.13737 158 10.6374 188 13.6374 206.5" stroke="<TMPL_VAR NAME="SKIN_COLOR">" stroke-width="4"/>
    <path id="Body" d="M37 147.5C23 151 24.5 202 22.5 223" stroke="<TMPL_VAR NAME="SKIN_COLOR">" stroke-width="4"/>
    <path id="Arm2" d="M31 153C42.5 167.5 47.5 190.5 46.5 203.5" stroke="<TMPL_VAR NAME="SKIN_COLOR">" stroke-width="4"/>
    <path id="Leg 1" d="M2 284.5C10.4 234.9 18.8333 221.667 22 221" stroke="<TMPL_VAR NAME="SKIN_COLOR">" stroke-width="4"/>
    <path id="Leg2" d="M35.5 287C32.5 243.5 29.5 220 22 221" stroke="<TMPL_VAR NAME="SKIN_COLOR">" stroke-width="4"/>
    <g id="Rope">
    <path id="Vector 14" d="M33.5 146C33.5 149.5 34.2824 148.972 36 151" stroke="#64748B" stroke-width="5"/>
    <line id="Line 4" x1="35" y1="70" x2="35" y2="146" stroke="#64748B" stroke-width="8"/>
    <path id="Ellipse 13" d="M39 70C39 71.6569 37.2091 73 35 73C32.7909 73 31 71.6569 31 70C31 68.3431 32.7909 67 35 67C37.2091 67 39 68.3431 39 70Z" fill="#64748B"/>
    </g>
    <g id="Head">
    <path id="Ellipse 1" d="M77.8777 136.934C77.8777 148.162 68.5335 157.367 56.8777 157.367C45.2219 157.367 35.8777 148.162 35.8777 136.934C35.8777 125.706 45.2219 116.5 56.8777 116.5C68.5335 116.5 77.8777 125.706 77.8777 136.934Z" fill="white" stroke="<TMPL_VAR NAME="SKIN_COLOR">" stroke-width="5"/>
    <path id="Vector 5" d="M47.8175 145.428C58.8596 144.295 59.9922 147.221 60.2753 149.675" stroke="black" stroke-width="2"/>
    <path id="Vector 6" d="M48.1006 130.705C52.3476 130.705 55.7452 129.289 58.0102 127.307" stroke="black" stroke-width="2"/>
    <path id="Vector 7" d="M52.0645 125.042C52.0645 129.289 54.6126 132.12 56.5946 132.12" stroke="black" stroke-width="2"/>
    <path id="Vector 8" d="M61.9741 135.801C66.2211 136.367 70.0221 135.404 72.6837 133.999" stroke="black" stroke-width="2"/>
    <path id="Vector 9" d="M66.5042 130.705C66.5042 134.669 69.0524 138.633 70.7512 140.048" stroke="black" stroke-width="2"/>

    <TMPL_IF NAME="HAT_ONE">
        <g id="Crown">
        <g id="Group_41">
        <path id="Vector_166" d="M79.0903 124.572C71.1864 125.732 63.1829 125.71 55.341 124.535C63.5295 119.412 70.1472 113.045 74.9871 106.115C76.2168 112.291 77.5848 118.445 79.0903 124.572Z" fill="#C28D00"/>
        <path id="Vector_167" d="M38.9244 120.276C46.4043 123.082 54.231 124.753 62.1442 125.262C55.2245 118.523 50.1027 110.902 46.8381 103.104C44.33 108.881 41.6915 114.606 38.9244 120.276Z" fill="#C28D00"/>
        </g>
        <path id="Vector_168" d="M70.6198 125.363C62.6781 125.685 54.73 124.835 47.0361 122.841C52.8316 115.979 57.5542 108.55 61.1375 100.8C63.0671 109.158 66.2331 117.438 70.6198 125.363Z" fill="#ECAB00"/>
        <g id="Group_42">
        <path id="Vector_169" d="M79.0902 124.571C71.1864 125.732 63.1829 125.71 55.341 124.535C68.2377 120.117 78.6386 112.592 85.7886 103.781C84.5513 110.745 82.3183 117.75 79.0902 124.571Z" fill="#DB9F00"/>
        <path id="Vector_170" d="M38.9244 120.276C46.4043 123.081 54.231 124.753 62.1442 125.262C50.4735 118.217 41.8991 108.663 36.7742 98.5392C36.5108 105.607 37.2122 112.926 38.9244 120.276Z" fill="#DB9F00"/>
        </g>
        </g>
    </TMPL_IF>
    <TMPL_IF NAME="HAT_TWO">
        <g id="PirateHat">
        <path id="Vector_152" d="M101.233 88.909C101.233 88.909 79.3497 93.0028 76.836 122.518C76.836 122.518 81.5862 111.471 90.221 109.168C90.4038 109.119 90.2067 105.819 90.384 105.761C90.5541 105.706 91.0983 108.895 91.2635 108.832C92.8867 108.218 94.2803 107.244 95.4667 106.034C95.6369 105.86 93.4475 103.979 93.6092 103.796C93.807 103.572 96.3539 105.045 96.5393 104.809C96.6849 104.623 95.5087 103.734 95.647 103.541C95.8184 103.302 97.3022 103.757 97.4622 103.508C100.439 98.8739 101.455 92.6563 101.233 88.909Z" fill="#C1272D"/>
        <path id="Vector_153" d="M97.8352 92.8833C97.8352 92.8833 97.44 93.2042 96.7773 93.7976C96.1155 94.3922 95.1795 95.2515 94.1072 96.3333C93.5638 96.8668 92.9966 97.4657 92.3976 98.0992C91.7972 98.7315 91.1917 99.4236 90.5569 100.13C89.9491 100.861 89.29 101.589 88.6781 102.376C88.0557 103.155 87.421 103.943 86.8303 104.764C86.5302 105.171 86.23 105.578 85.931 105.982C85.6472 106.398 85.3646 106.811 85.0842 107.222C84.8081 107.635 84.5168 108.033 84.261 108.447C84.0037 108.86 83.7496 109.268 83.4993 109.669C83.2534 110.072 82.9944 110.458 82.7726 110.855C82.5501 111.251 82.3329 111.639 82.1215 112.016C81.9099 112.393 81.7044 112.759 81.5054 113.114C81.3144 113.472 81.1476 113.828 80.9776 114.164C80.645 114.84 80.3308 115.454 80.0697 116.006C79.8291 116.567 79.6198 117.057 79.447 117.46C79.102 118.264 78.905 118.724 78.905 118.724L78.8849 118.771C78.6944 119.214 78.1803 119.42 77.7365 119.23C77.2928 119.039 77.0869 118.525 77.2773 118.081C77.283 118.068 77.2904 118.052 77.2969 118.039C77.2969 118.039 77.5254 117.576 77.9259 116.764C78.1259 116.359 78.369 115.868 78.6478 115.304C78.9464 114.751 79.3025 114.137 79.6804 113.463C79.8727 113.128 80.0632 112.774 80.2784 112.417C80.5012 112.066 80.7313 111.703 80.9679 111.33C81.2045 110.957 81.4475 110.574 81.6956 110.182C81.9428 109.79 82.2282 109.411 82.5 109.014C82.7758 108.62 83.0565 108.22 83.3407 107.815C83.6228 107.408 83.9405 107.02 84.2424 106.616C84.5489 106.216 84.8576 105.813 85.1675 105.407C85.4918 105.014 85.8176 104.619 86.1433 104.224C86.7846 103.427 87.4682 102.666 88.1376 101.915C88.7965 101.155 89.5002 100.457 90.1504 99.7556C90.8274 99.0792 91.4728 98.4169 92.1095 97.8147C92.7452 97.2113 93.3458 96.6411 93.9197 96.1357C95.0525 95.1097 96.0355 94.2999 96.7289 93.7412C97.4236 93.1824 97.8352 92.8833 97.8352 92.8833Z" fill="#AD171C"/>
        <g id="Group_37">
        <g id="Group_38">
        <path id="Vector_154" d="M96.2576 118.898C93.1338 116.372 95.0673 120.93 86.4563 116.55C77.8453 112.17 84.494 96.5056 71.1264 92.206C57.7588 87.9064 54.0287 104.51 44.479 103.048C34.9293 101.587 39.1575 99.0109 35.147 99.2418C33.6299 99.329 32.0352 101.453 31.4885 104.333C32.2394 102.76 32.6312 101.202 33.6756 101.142C37.686 100.911 34.1469 104.019 43.6967 105.481C53.2464 106.942 56.9764 90.3388 70.3441 94.6383C83.7117 98.9379 77.063 114.603 85.674 118.982C94.2849 123.362 93.2215 118.774 96.3453 121.299C97.1588 121.957 96.5686 123.451 96.2623 125.167C97.4971 122.508 97.4393 119.853 96.2576 118.898Z" fill="#C5A34C"/>
        <path id="Subtract" fill-rule="evenodd" clip-rule="evenodd" d="M93.8857 118.261C94.5441 118.018 94.9738 117.86 96.2576 118.897C99.3813 121.423 94.6586 135.828 78.9306 130.769L78.4726 130.622C79.4364 127.626 72.2236 122.625 62.3624 119.453C52.5012 116.281 43.7256 116.14 42.7619 119.136L42.3043 118.989C26.5759 113.93 31.1365 99.4725 35.147 99.2417C36.7951 99.1468 37.0518 99.526 37.4452 100.107C38.0091 100.94 38.8537 102.188 44.4789 103.048C48.6821 103.692 51.7579 100.835 55.0243 97.8019C59.1791 93.9435 63.6423 89.7988 71.1263 92.2059C78.6103 94.6131 79.8203 100.583 80.9467 106.14C81.8323 110.508 82.6662 114.622 86.4562 116.55C91.5285 119.13 92.942 118.609 93.8857 118.261Z" fill="#333333"/>
        </g>
        <g id="Group_39">
        <path id="Vector_155" d="M59.3917 113.121L73.5381 105.541C73.806 106.041 74.4281 106.229 74.9279 105.961C75.4277 105.693 75.6158 105.071 75.3478 104.571C75.189 104.275 74.9052 104.089 74.5963 104.042C74.7282 103.759 74.7308 103.42 74.5719 103.123C74.3039 102.624 73.6819 102.435 73.1821 102.703C72.6823 102.971 72.4942 103.593 72.7622 104.093L58.6158 111.673C58.3478 111.173 57.7257 110.985 57.2259 111.253C56.7262 111.521 56.538 112.143 56.806 112.642C56.9649 112.939 57.2486 113.125 57.5576 113.172C57.4257 113.455 57.423 113.794 57.5819 114.091C57.8499 114.59 58.472 114.779 58.9717 114.511C59.4715 114.243 59.6597 113.62 59.3917 113.121Z" fill="#F2F2F2"/>
        <path id="Vector_156" d="M63.0115 101.146L70.5909 115.292C71.0907 115.024 71.7132 115.212 71.9807 115.712C72.2487 116.212 72.0605 116.834 71.5608 117.102C71.2641 117.261 70.9252 117.258 70.6418 117.126C70.5948 117.435 70.409 117.719 70.1127 117.878C69.6129 118.146 68.9904 117.957 68.7229 117.458C68.4549 116.958 68.6432 116.336 69.1428 116.068L61.5634 101.922C61.0636 102.19 60.4412 102.001 60.1736 101.502C59.9056 101.002 60.0939 100.379 60.5935 100.112C60.8902 99.953 61.2291 99.9555 61.5126 100.088C61.5596 99.7786 61.7454 99.495 62.0416 99.3359C62.5414 99.068 63.1639 99.2562 63.4315 99.7559C63.6995 100.256 63.5113 100.878 63.0115 101.146Z" fill="#F2F2F2"/>
        <g id="Group_40">
        <path id="Vector_157" d="M63.2183 112.885L62.7698 112.749C62.5991 112.698 62.5016 112.516 62.5533 112.345L63.0178 110.808C63.0695 110.637 63.2514 110.54 63.4221 110.591L63.8702 110.727C64.0408 110.779 64.1384 110.96 64.0871 111.131L63.6226 112.668C63.571 112.839 63.3891 112.936 63.2183 112.885Z" fill="#F2F2F2"/>
        <path id="Vector_158" d="M64.3425 113.224L63.894 113.089C63.7233 113.037 63.6258 112.855 63.6775 112.685L64.142 111.148C64.1937 110.977 64.3756 110.879 64.5463 110.931L64.9944 111.066C65.165 111.118 65.2626 111.3 65.2109 111.471L64.7464 113.008C64.6951 113.179 64.5132 113.276 64.3425 113.224Z" fill="#F2F2F2"/>
        <path id="Vector_159" d="M65.467 113.565L65.0185 113.429C64.8478 113.377 64.7503 113.195 64.8019 113.025L65.2665 111.488C65.3182 111.317 65.5001 111.219 65.6708 111.271L66.1188 111.407C66.2895 111.458 66.3871 111.64 66.3354 111.811L65.8708 113.348C65.8197 113.518 65.6378 113.616 65.467 113.565Z" fill="#F2F2F2"/>
        <path id="Vector_160" d="M66.5912 113.904L66.1427 113.769C65.972 113.717 65.8745 113.535 65.9262 113.364L66.3907 111.827C66.4424 111.657 66.6243 111.559 66.795 111.611L67.2435 111.746C67.4141 111.798 67.5117 111.98 67.46 112.151L66.9955 113.688C66.9438 113.858 66.7618 113.956 66.5912 113.904Z" fill="#F2F2F2"/>
        </g>
        <path id="Vector_161" d="M66.6261 112.777L63.3654 111.791C62.8528 111.636 62.4353 111.504 62.5901 110.992L63.0385 109.508C63.1932 108.995 63.7394 108.703 64.2519 108.858L67.5126 109.843C68.0251 109.998 68.3176 110.544 68.1625 111.057L67.7141 112.541C67.5595 113.053 67.1386 112.931 66.6261 112.777Z" fill="white"/>
        <path id="Vector_162" d="M70.8633 108.851C70.1245 111.295 67.5445 112.677 65.1003 111.939C62.6563 111.2 61.274 108.62 62.0124 106.176C62.7513 103.732 65.2166 102.729 67.6606 103.468C70.1047 104.206 71.6021 106.407 70.8633 108.851Z" fill="white"/>
        <path id="Vector_163" d="M65.4493 108.593C65.4091 108.643 65.3466 108.85 65.2648 108.97C65.2191 109.025 65.1685 109.075 65.1142 109.12C64.8412 109.344 64.4663 109.431 64.1048 109.322C63.5262 109.147 63.2 108.533 63.376 107.951C63.5083 107.513 63.8851 107.218 64.3095 107.172C64.3803 107.164 64.4523 107.163 64.5244 107.17C65.0286 107.285 65.2864 107.928 65.4496 108.397C65.4595 108.46 65.4594 108.526 65.4493 108.593Z" fill="#333333"/>
        <path id="Vector_164" d="M66.6625 108.96C66.6683 109.023 66.6058 109.23 66.6073 109.375C66.6147 109.447 66.629 109.516 66.6496 109.584C66.7531 109.921 67.0163 110.202 67.3777 110.311C67.9562 110.486 68.568 110.156 68.7444 109.573C68.8767 109.136 68.726 108.681 68.3982 108.407C68.3435 108.362 68.2841 108.321 68.2203 108.287C67.7368 108.103 67.1663 108.495 66.7709 108.796C66.7275 108.844 66.691 108.898 66.6625 108.96Z" fill="#333333"/>
        <path id="Vector_165" d="M64.9796 110.651C64.8287 110.37 65.4707 109.914 65.6937 109.981C65.9168 110.048 66.185 110.791 65.9172 110.935C65.5769 110.928 64.9923 110.675 64.9796 110.651Z" fill="#333333"/>
        </g>
        </g>
        </g>
    </TMPL_IF>
    <TMPL_IF NAME="HAT_THREE">
        <g id="BaseballCap">
        <path id="Vector_145" d="M42.2801 130.769C50.3726 132.294 56.2023 126.069 62.5433 122.174C60.3179 120.233 54.4928 119.173 51.4056 118.052C48.4548 116.98 43.6283 114.188 40.5291 114.591C37.5685 114.979 34.3162 117.399 31.8124 118.87C29.4229 120.273 26.0274 121.839 24.7192 124.353C27.2739 125.611 30.8418 125.951 33.6768 127.177C36.4383 128.371 39.2942 130.207 42.2801 130.769Z" fill="#243347"/>
        <path id="Vector_146" d="M70.1846 100.02C71.7525 101.521 68.5989 101.286 67.8079 100.837C67.0116 100.386 65.3964 99.1653 67.351 99.1305C68.263 99.1143 69.4963 99.3601 70.1846 100.02Z" fill="#243347"/>
        <path id="Vector_147" d="M80.2417 121.442C80.1727 124.198 79.6863 127.091 77.9669 127.548C76.4372 127.955 72.7606 126.208 71.2572 125.777C66.3727 124.377 61.8835 122.556 56.9138 121.398C53.7809 120.668 50.6317 119.9 47.4872 119.177C44.9157 118.587 39.5888 117.952 39.333 114.696C39.1097 111.853 42.3264 107.943 43.9604 105.841C46.6039 102.441 51.0358 100.639 55.2122 99.6753C57.0769 99.2463 58.9856 99.0125 60.8739 99.0009C67.0443 98.9568 73.0059 101.256 76.5855 106.668C78.6355 109.765 79.7272 113.147 80.058 116.815C80.1418 117.757 80.2888 119.567 80.2417 121.442Z" fill="#32425B"/>
        <g id="Group_35">
        <path id="Vector_148" d="M44.1944 111.096C44.98 114.696 48.6469 112.654 50.0342 110.668C50.8323 109.525 51.4511 107.907 50.9347 106.52C50.1155 104.321 47.1721 105.519 46.0241 106.701C44.9772 107.778 43.8281 109.508 44.1944 111.096Z" fill="white"/>
        </g>
        <path id="Vector_149" d="M24.755 124.557C26.382 125.341 28.0929 125.907 29.7888 126.519C31.5375 127.15 33.2768 127.824 35.0075 128.503C36.6073 129.131 38.1121 129.948 39.7065 130.584C41.3072 131.223 43.0171 131.571 44.7418 131.558C48.1411 131.533 51.4284 130.126 54.2839 128.395C55.7436 127.51 57.1173 126.509 58.499 125.51C59.9228 124.481 61.3908 123.519 62.6566 122.291C63.3378 121.631 62.2976 120.593 61.6176 121.252C60.4422 122.393 59.0851 123.293 57.7573 124.241C56.441 125.182 55.1415 126.131 53.7673 126.988C50.9753 128.73 47.8298 130.066 44.4877 130.091C41.1927 130.115 38.3603 128.261 35.3982 127.086C33.747 126.432 32.0739 125.833 30.4184 125.19C28.7751 124.552 27.0893 124.056 25.4967 123.288C24.6472 122.878 23.9015 124.145 24.755 124.557Z" fill="#32425B"/>
        <path id="Vector_150" d="M80.2417 121.442C79.7464 121.714 79.2248 121.948 78.6797 122.145C72.1597 124.493 63.9616 120.389 59.5487 115.675C56.0191 111.906 54.3806 106.298 57.7134 101.86C58.4525 100.874 59.5914 99.8015 60.8743 99.0006C67.0446 98.9565 73.0063 101.256 76.5859 106.668C78.6358 109.764 79.7276 113.147 80.0583 116.815C80.1418 117.757 80.2888 119.567 80.2417 121.442Z" fill="#3D526C"/>
        <g id="Group_36">
        <path id="Vector_151" d="M45.4039 110.421C45.9124 112.752 48.2865 111.43 49.1845 110.144C49.7011 109.404 50.1018 108.357 49.7676 107.459C49.2371 106.035 47.3315 106.811 46.5884 107.576C45.9108 108.273 45.1667 109.393 45.4039 110.421Z" fill="#32425B"/>
        </g>
        </g>
    </TMPL_IF>
    <TMPL_IF NAME="HAT_FOUR">
        <g id="GladiatorHelmet">
        <g id="XMLID_99_">
        <g id="Group_19">
        <g id="Group_20">
        <path id="Vector_101" d="M98.8348 138.406L88.5127 133.895C93.7417 113.571 71.5087 102.068 71.5087 102.068L71.4999 102.087C71.4999 102.087 47.9559 93.5843 36.5912 111.229L26.2692 106.718C40.994 84.3743 63.0388 88.127 75.2662 93.4707L75.2748 93.4511C87.5011 98.7951 105.231 112.422 98.8348 138.406Z" fill="#BE1E2D"/>
        </g>
        <g id="Group_21" opacity="0.57">
        <path id="Vector_102" d="M96.1073 111.511C99.0443 118.053 100.118 126.165 97.6777 136.078L88.8804 132.233C88.7769 132.78 88.6567 133.334 88.5122 133.895L98.8343 138.406C101.573 127.282 99.8875 118.425 96.1073 111.511Z" fill="#BE1E2D"/>
        <path id="Vector_103" d="M70.3521 99.7396L70.3432 99.7598C70.3432 99.7598 46.7991 91.2567 35.4345 108.902L27.231 105.316C26.9074 105.773 26.5859 106.238 26.269 106.718L36.5915 111.23C47.9563 93.5845 71.5002 102.088 71.5002 102.088L71.5089 102.068C71.5089 102.068 81.0575 107.009 86.1677 116.135C81.5274 105.525 70.3521 99.7396 70.3521 99.7396Z" fill="#BE1E2D"/>
        </g>
        <g id="Group_22">
        <path id="Vector_104" d="M65.702 104.432C47.0616 99.1185 39.1089 112.33 39.1089 112.33L36.5915 111.23C47.9563 93.5844 71.5002 102.088 71.5002 102.088L71.5089 102.068C71.5089 102.068 93.7418 113.571 88.513 133.895L85.9948 132.795C85.9948 132.795 90.2902 117.988 73.7292 107.915C74.1159 108.21 86.4466 117.735 84.1044 131.969L81.835 130.977C82.3627 125.166 79.4181 120.567 77.0319 117.49C73.8218 113.346 67.9409 110.231 67.9409 110.231L67.9323 110.251C67.9323 110.251 61.6537 108.052 56.4292 108.511C52.552 108.851 47.1745 109.813 43.2688 114.148L40.9993 113.156C49.8579 101.768 65.2232 104.349 65.702 104.432Z" fill="#6D6E71"/>
        </g>
        <g id="Group_23" opacity="0.1">
        <path id="Vector_105" d="M62.0154 103.592C63.3775 103.677 64.2367 103.82 64.344 103.839C45.7037 98.5251 37.7509 111.736 37.7509 111.736L39.1092 112.33C39.1092 112.33 46.009 100.873 62.0154 103.592Z" fill="#6D6E71"/>
        <path id="Vector_106" d="M66.5831 109.638L66.5746 109.657C66.5746 109.657 60.2959 107.459 55.0714 107.918C51.1942 108.258 45.8171 109.22 41.911 113.554L43.2693 114.148C47.1753 109.814 52.5525 108.851 56.4297 108.511C60.6726 108.139 65.6101 109.518 67.3161 110.05C66.8563 109.783 66.5831 109.638 66.5831 109.638Z" fill="#6D6E71"/>
        <path id="Vector_107" d="M75.4956 109.459C74.5461 108.728 73.5096 108.014 72.371 107.321C72.7577 107.616 85.0884 117.141 82.7462 131.375L84.1045 131.968C85.9214 120.928 78.9134 112.725 75.4956 109.459Z" fill="#6D6E71"/>
        <path id="Vector_108" d="M71.509 102.068L71.5003 102.088C71.5003 102.088 71.2844 102.01 70.8869 101.885C74.695 104.102 91.8104 115.205 87.1548 133.302L88.5131 133.895C93.7419 113.571 71.509 102.068 71.509 102.068Z" fill="#6D6E71"/>
        </g>
        <g id="Group_24">
        <path id="Vector_109" d="M85.9949 132.794L84.1044 131.968C86.4466 117.734 74.1159 108.209 73.7293 107.915C90.2902 117.987 85.9949 132.794 85.9949 132.794Z" fill="#58595B"/>
        </g>
        <g id="Group_25">
        <path id="Vector_110" d="M76.3157 145.679L72.5409 145.874L72.5252 145.872C72.9866 138.497 78.2305 139.696 78.2305 139.696C77.3082 141.215 76.3324 143.365 76.3157 145.679Z" fill="#6D6E71"/>
        </g>
        <g id="Group_26">
        <path id="Vector_111" d="M81.0642 134.622C80.7597 135.542 80.361 136.486 79.8592 137.456C79.8592 137.456 74.8885 124.728 63.7356 119.854L63.7263 119.875C52.5754 115.002 39.8569 119.996 39.8569 119.996C40.2311 118.963 40.658 118.023 41.1296 117.167C42.3857 116.754 54.549 112.947 64.616 117.839C75.0513 121.907 80.5219 133.434 81.0642 134.622Z" fill="#939598"/>
        </g>
        <g id="Group_27" opacity="0.2">
        <path id="Vector_112" d="M63.8434 117.486C63.6494 117.401 63.4543 117.322 63.2593 117.243C63.4558 117.321 63.6506 117.403 63.8434 117.486Z" fill="#939598"/>
        <path id="Vector_113" d="M81.0643 134.622C80.5217 133.434 75.0513 121.907 64.6159 117.839C64.5485 117.806 64.48 117.778 64.4124 117.746C73.9636 122.233 78.9862 132.805 79.5048 133.94C79.3418 134.432 79.15 134.932 78.9315 135.438C79.555 136.678 79.8588 137.456 79.8588 137.456C80.361 136.486 80.7597 135.542 81.0643 134.622Z" fill="#939598"/>
        <path id="Vector_114" d="M62.1765 119.172L62.1673 119.193C53.7688 115.523 44.4837 117.45 40.4101 118.625C40.2152 119.064 40.0301 119.519 39.8572 119.997C39.8572 119.997 52.247 115.138 63.2912 119.697C62.926 119.514 62.5555 119.338 62.1765 119.172Z" fill="#939598"/>
        </g>
        <g id="Group_28">
        <path id="Vector_115" d="M79.8592 137.456C79.8592 137.456 79.0651 138.317 78.2305 139.696C78.2305 139.696 72.9864 138.498 72.5251 145.872C72.4821 146.563 72.4811 147.331 72.5302 148.182L55.1297 161.9L65.964 136.426L73.4581 136.742L70.6261 132.148L61.2456 131.404C61.2456 131.404 57.8917 141.649 57.3358 143.283C56.7836 144.917 52.2367 146.165 52.2367 146.165L52.2281 146.185C52.2281 146.185 50.0544 142.002 50.8791 140.485C51.7016 138.966 56.9404 129.549 56.9404 129.549L50.024 123.167L44.7275 124.212L50.0514 129.494L38.715 154.752L36.9642 132.662C37.6217 132.12 38.1836 131.599 38.6619 131.099C43.763 125.751 39.3192 122.714 39.3192 122.714C39.7647 121.165 39.8576 119.997 39.8576 119.997C39.8576 119.997 52.576 115.002 63.727 119.875L63.7362 119.854C74.8889 124.728 79.8592 137.456 79.8592 137.456Z" fill="#808285"/>
        </g>
        <g id="Group_29" opacity="0.25">
        <path id="Vector_116" d="M49.2313 123.324L48.1963 122.369L42.9 123.413L48.2235 128.695L38.387 150.611L38.7152 154.752L50.0516 129.494L44.7277 124.211L49.2313 123.324Z" fill="#808285"/>
        <path id="Vector_117" d="M69.2222 132.037L68.7984 131.349L59.4179 130.606C59.4179 130.606 56.0636 140.85 55.508 142.484C55.1442 143.561 53.0507 144.467 51.6613 144.963C51.9675 145.68 52.2285 146.185 52.2285 146.185L52.237 146.166C52.237 146.166 56.784 144.918 57.3361 143.283C57.8917 141.649 61.2459 131.405 61.2459 131.405L69.2222 132.037Z" fill="#808285"/>
        <path id="Vector_118" d="M78.2305 139.696C79.0651 138.317 79.8593 137.456 79.8593 137.456C79.8593 137.456 74.8886 124.728 63.7357 119.853L63.7264 119.875C63.5147 119.782 63.301 119.7 63.0881 119.614C73.4106 124.833 78.0312 136.657 78.0312 136.657C78.0312 136.657 77.237 137.518 76.4025 138.897C76.4025 138.897 71.1584 137.699 70.6971 145.073C70.6541 145.764 70.6531 146.532 70.7022 147.383L56.5631 158.53L55.1298 161.899L72.5303 148.181C72.4812 147.331 72.4824 146.563 72.5252 145.871C72.9865 138.498 78.2305 139.696 78.2305 139.696Z" fill="#808285"/>
        </g>
        <g id="Group_30">
        <path id="Vector_119" d="M43.2687 114.148C47.1747 109.814 52.5519 108.851 56.4291 108.511C61.6537 108.052 67.9323 110.251 67.9323 110.251L67.9408 110.231C67.9408 110.231 73.8218 113.346 77.0319 117.49C79.418 120.567 82.3632 125.165 81.8349 130.977C81.7294 132.143 81.4818 133.359 81.0642 134.622C80.5217 133.434 75.0512 121.907 64.6158 117.839C54.549 112.947 42.3859 116.754 41.1294 117.167C41.7686 116.012 42.4896 115.012 43.2687 114.148Z" fill="#808285"/>
        </g>
        <g id="Group_31" opacity="0.14">
        <path id="Vector_120" d="M62.1171 116.747C55.1402 113.357 47.1587 114.144 42.497 115.085C42.0111 115.718 41.5512 116.406 41.1301 117.167C42.335 116.771 53.5708 113.259 63.3691 117.286C62.9589 117.097 62.5439 116.914 62.1171 116.747Z" fill="#808285"/>
        <path id="Vector_121" d="M81.8356 130.977C82.3633 125.166 79.4187 120.567 77.0326 117.49C73.8225 113.346 67.9415 110.231 67.9415 110.231L67.9329 110.251C67.9329 110.251 67.4733 110.09 66.704 109.866C68.6111 111.02 72.248 113.448 74.5335 116.398C76.9197 119.475 79.8648 124.073 79.3365 129.885C79.2999 130.288 79.2396 130.7 79.1679 131.116C80.2648 132.916 80.8983 134.257 81.0649 134.622C81.4824 133.359 81.7295 132.143 81.8356 130.977Z" fill="#808285"/>
        </g>
        <g id="Group_32">
        <path id="Vector_122" d="M65.7018 104.432C65.2231 104.349 49.8578 101.768 40.9992 113.156L39.1084 112.329C39.1084 112.329 47.0615 99.1184 65.7018 104.432Z" fill="#58595B"/>
        </g>
        <g id="Group_33">
        <path id="Vector_123" d="M39.319 122.714C39.319 122.714 43.7622 125.751 38.6616 131.098L38.6491 131.088L36.2293 128.183C37.9161 126.6 38.8325 124.426 39.319 122.714Z" fill="#6D6E71"/>
        </g>
        </g>
        <path id="Vector_124" d="M99.3229 138.552C102.186 126.921 100.547 116.638 94.4517 107.991C88.5798 99.6596 80.0238 95.0599 75.446 93.0593C75.3973 93.038 75.3471 93.0242 75.2971 93.0176C70.6736 91.0152 61.5698 87.9376 51.5693 89.2738C41.0815 90.6754 32.422 96.4579 25.8302 106.46C25.7617 106.564 25.7516 106.695 25.8028 106.821C25.8544 106.946 25.962 107.051 26.0973 107.11L42.497 114.278C41.8209 115.085 41.2073 115.973 40.6762 116.933C40.1852 117.825 39.7492 118.794 39.3803 119.814C39.3722 119.836 39.3725 119.859 39.3691 119.881C39.3674 119.892 39.3603 119.899 39.3598 119.91C39.3588 119.921 39.2641 121.063 38.8348 122.555C38.3935 124.109 37.5167 126.29 35.8469 127.858C35.6942 128.002 35.6918 128.235 35.8421 128.415L38.0223 131.032C37.6001 131.456 37.1256 131.887 36.6004 132.319C36.5052 132.398 36.4572 132.512 36.4667 132.635L38.2176 154.726C38.232 154.902 38.3621 155.065 38.5438 155.144C38.5754 155.158 38.6089 155.169 38.6434 155.177C38.8752 155.234 39.0991 155.143 39.1816 154.96L50.5178 129.702C50.5872 129.549 50.5416 129.362 50.4034 129.225L45.6403 124.497L49.9081 123.656L56.3364 129.586C55.4693 131.146 51.1601 138.897 50.4252 140.253C49.5305 141.899 51.5475 145.877 51.7805 146.325C51.8678 146.493 52.0588 146.602 52.2581 146.616C52.346 146.622 52.4293 146.605 52.5017 146.572C53.2146 146.371 57.2365 145.171 57.8153 143.46C58.312 141.998 61.0736 133.57 61.6294 131.873L70.3473 132.565L72.6299 136.267L65.9241 135.984C65.7291 135.975 65.5615 136.07 65.4958 136.224L54.6614 161.699C54.5828 161.884 54.6679 162.11 54.8671 162.242C55.0648 162.373 55.3238 162.376 55.4876 162.247L72.8876 148.528C72.9848 148.452 73.0355 148.339 73.0286 148.216C72.9893 147.539 72.9841 146.897 73.0078 146.296L76.409 146.12C76.6432 146.108 76.8134 145.948 76.8149 145.738C76.8311 143.455 77.8363 141.327 78.6778 139.943C79.481 138.615 80.2543 137.77 80.2617 137.761C80.2685 137.754 80.2696 137.744 80.2752 137.737C80.2898 137.718 80.3068 137.703 80.3177 137.682C80.8177 136.715 81.2306 135.745 81.5449 134.795C81.894 133.741 82.1307 132.68 82.2645 131.631L98.6638 138.798C98.7999 138.858 98.9505 138.865 99.0768 138.818C99.2034 138.771 99.2931 138.674 99.3229 138.552ZM84.6445 131.738C85.948 122.978 81.826 116.007 78.3355 111.849C82.1915 115.316 84.6239 119.423 85.5751 124.119C86.3484 127.938 85.8621 131.029 85.6223 132.165L84.6445 131.738ZM86.5629 124.11C85.6349 119.489 82.6975 112.867 73.9737 107.56C73.9663 107.555 73.9587 107.555 73.9516 107.551C73.9001 107.522 73.8469 107.5 73.7924 107.488C73.7839 107.486 73.7762 107.486 73.768 107.484C73.55 107.443 73.3321 107.524 73.2536 107.704C73.191 107.847 73.2296 108.011 73.3358 108.139L73.3367 108.14C73.3668 108.176 73.4002 108.21 73.4404 108.239C74.0296 108.691 85.5772 117.75 83.683 131.318L82.3504 130.736C82.7526 124.896 79.7515 120.265 77.4311 117.274C74.1839 113.082 68.398 109.989 68.1536 109.859C68.0839 109.823 68.008 109.803 67.9315 109.798C66.9763 109.476 61.2489 107.639 56.3172 108.072C52.5442 108.403 47.1059 109.347 43.0961 113.606L41.7631 113.023C50.364 102.505 64.692 104.701 65.6532 104.864C65.8775 104.912 66.0989 104.824 66.18 104.639C66.2373 104.508 66.2038 104.361 66.1168 104.238C66.1146 104.235 66.1121 104.232 66.1099 104.229C66.078 104.186 66.0406 104.148 65.9949 104.115C65.9814 104.104 65.9667 104.095 65.9515 104.086C65.9286 104.072 65.9098 104.053 65.8837 104.042C65.8638 104.033 65.8399 104.029 65.8171 104.022C65.8094 104.02 65.8042 104.015 65.7963 104.012C55.977 101.213 49.1203 103.556 45.0982 106.014C41.4842 108.222 39.4922 110.852 38.8731 111.76L37.3117 111.078C41.9467 104.165 49.0149 100.596 58.3418 100.484C65.4665 100.399 71.3076 102.474 71.3654 102.494C71.389 102.503 71.412 102.51 71.4351 102.515C72.3089 102.992 77.2624 105.811 81.6227 110.635C87.8761 117.555 90.0585 125.167 88.1341 133.263L86.5727 132.581C86.8188 131.51 87.3965 128.262 86.5629 124.11ZM40.717 119.198C40.961 118.618 41.2296 118.062 41.5161 117.532C43.4483 116.919 54.926 113.61 64.4224 118.222C64.4304 118.226 64.4393 118.226 64.4476 118.229C64.4549 118.232 64.4598 118.238 64.4676 118.241C74.3423 122.081 79.7027 132.81 80.5347 134.586C80.3439 135.146 80.1217 135.713 79.8625 136.283C78.3824 133.062 73.3627 123.593 63.9076 119.461C63.8531 119.437 63.7969 119.422 63.7424 119.415C54.3323 115.382 44.0685 118.103 40.717 119.198ZM64.7876 117.448C56.1125 113.243 45.9306 115.354 42.2136 116.363C42.6487 115.696 43.1224 115.069 43.635 114.495C43.6485 114.485 43.6563 114.469 43.6682 114.457C43.6701 114.454 43.6717 114.452 43.6738 114.45C47.5063 110.197 52.8531 109.275 56.5414 108.952C61.5805 108.509 67.7424 110.638 67.8043 110.66C67.8241 110.666 67.8434 110.672 67.8633 110.676C68.7494 111.166 73.7987 114.047 76.6337 117.708C78.9016 120.632 81.8569 125.18 81.3389 130.886C81.3375 130.9 81.3352 130.914 81.3338 130.927C81.3338 130.932 81.3321 130.936 81.3321 130.94C81.2591 131.712 81.1183 132.496 80.9197 133.281C79.1493 129.886 73.7904 120.969 64.7876 117.448ZM39.8243 112.176C40.4952 111.228 42.4337 108.771 45.7629 106.745C49.8567 104.253 54.5247 103.248 59.69 103.724C54.2665 103.987 46.3476 105.696 40.8017 112.603L39.8243 112.176ZM39.5926 123.553C39.9527 123.953 40.3859 124.588 40.5485 125.445C40.8357 126.958 40.184 128.615 38.6336 130.373L36.8695 128.256C38.271 126.828 39.1052 125.023 39.5926 123.553ZM56.3667 160.296L66.326 136.881L73.4995 137.184C73.6698 137.191 73.8218 137.12 73.9008 136.995C73.9794 136.871 73.9752 136.71 73.889 136.57L71.0564 131.976C70.9635 131.825 70.7901 131.721 70.6062 131.707L61.2255 130.964C61.0098 130.946 60.8234 131.055 60.7653 131.232C60.7317 131.334 57.4056 141.493 56.8568 143.107C56.4978 144.169 53.8699 145.179 52.4635 145.615C51.8261 144.279 50.8015 141.696 51.3339 140.716C52.1457 139.218 57.3406 129.878 57.3926 129.784C57.4834 129.621 57.4369 129.411 57.277 129.265L50.3606 122.883C50.2244 122.758 50.0308 122.7 49.8571 122.735L44.5606 123.779C44.3991 123.811 44.2784 123.917 44.2408 124.059C44.2031 124.202 44.254 124.361 44.375 124.482L49.4705 129.539L39.0509 152.754L37.4765 132.879C38.0668 132.385 38.5985 131.891 39.0588 131.408C41.0666 129.304 41.897 127.277 41.5263 125.385C41.2461 123.954 40.3467 123.012 39.8778 122.605C40.1611 121.556 40.283 120.715 40.3291 120.323C42.0404 119.708 53.5383 115.889 63.5551 120.267C63.6081 120.29 63.6626 120.304 63.7159 120.312C73.633 124.735 78.5907 135.664 79.2988 137.331C79.042 137.631 78.5077 138.292 77.9312 139.211C77.3142 139.144 76.0131 139.124 74.7736 139.889C73.1331 140.901 72.2091 142.887 72.0272 145.79C71.9856 146.46 71.984 147.187 72.0219 147.953L56.3667 160.296ZM73.0759 145.4C73.3142 143.067 74.0877 141.464 75.3932 140.648C76.1326 140.185 76.8927 140.073 77.4302 140.065C76.6819 141.425 75.9239 143.265 75.8275 145.257L73.0759 145.4ZM89.0863 133.679C91.6289 123.183 86.8437 115.08 82.344 110.111C77.4259 104.68 71.9465 101.813 71.7161 101.693C71.6418 101.654 71.5603 101.632 71.4802 101.627C70.4826 101.285 64.9982 99.5254 58.2368 99.5994C51.5336 99.6732 42.3361 101.665 36.3604 110.662L26.983 106.564C43.2524 82.3888 67.8961 90.7175 75.0946 93.8634C75.1429 93.8846 75.1923 93.898 75.2415 93.9043C82.5892 97.1478 105.111 109.598 98.4641 137.777L89.0863 133.679Z" fill="#231F20"/>
        </g>
        <g id="Group_34">
        <path id="Vector_125" d="M71.1535 96.67L71.4457 95.552C71.5332 95.2061 71.6212 94.8593 71.7022 94.5114C71.8443 93.9057 71.9592 93.3963 72.0585 92.8769L71.6538 92.7511C71.4729 93.2904 71.3131 93.8335 71.1648 94.3439C71.0651 94.6867 70.9718 95.032 70.8783 95.3776L70.5832 96.5033C70.4936 96.8572 70.4038 97.2114 70.3204 97.568C70.1792 98.1714 70.0645 98.6805 69.9648 99.2028L70.3695 99.3287C70.5511 98.7877 70.7108 98.245 70.859 97.7349C70.961 97.3814 71.0573 97.0261 71.1535 96.67Z" fill="#610F17"/>
        <path id="Vector_126" d="M66.9665 95.4836L67.0294 94.2813C67.0452 93.9201 67.0615 93.5587 67.071 93.197C67.0856 92.6578 67.0984 92.0792 67.0915 91.499L66.6771 91.4347C66.6094 92.006 66.5626 92.5763 66.5211 93.1112C66.4926 93.4708 66.4709 93.8318 66.4494 94.1921L66.3874 95.371C66.3712 95.7406 66.3545 96.1104 66.3444 96.4808C66.3307 96.9905 66.317 97.5838 66.3247 98.1791L66.7389 98.243C66.8063 97.6774 66.853 97.1043 66.8952 96.5666C66.9227 96.2062 66.9444 95.8452 66.9665 95.4836Z" fill="#610F17"/>
        <path id="Vector_127" d="M61.7448 94.5836L61.8144 93.399C61.8332 93.034 61.8522 92.6687 61.8646 92.3025C61.882 91.7867 61.9 91.1866 61.8972 90.5884L61.4833 90.522C61.4167 91.0537 61.3678 91.583 61.3148 92.2144C61.2839 92.5729 61.2601 92.9323 61.236 93.2914L61.1653 94.4677C61.1458 94.8503 61.1262 95.2329 61.1131 95.6167C61.095 96.1629 61.0769 96.745 61.0807 97.3312L61.4948 97.3974C61.5669 96.8234 61.6179 96.2467 61.6637 95.7052C61.6949 95.332 61.72 94.958 61.7448 94.5836Z" fill="#610F17"/>
        <path id="Vector_128" d="M56.355 94.3016L56.1465 93.1286C56.08 92.7687 56.0135 92.4089 55.9409 92.0491C55.8322 91.5093 55.7124 90.9304 55.5729 90.3518L55.1634 90.3624C55.2248 90.9029 55.3011 91.4336 55.3972 92.0629C55.4528 92.4316 55.5154 92.8006 55.578 93.1693L55.7826 94.3289C55.8519 94.7048 55.9213 95.0803 55.9974 95.4557C56.1248 96.0873 56.236 96.6181 56.3655 97.1537L56.7748 97.1435C56.7142 96.6045 56.6378 96.0737 56.5414 95.4432C56.4837 95.0622 56.4194 94.6823 56.355 94.3016Z" fill="#610F17"/>
        <path id="Vector_129" d="M51.411 94.3969L51.1244 93.3964C51.0322 93.0837 50.9398 92.7713 50.8412 92.4593C50.6707 91.9197 50.5234 91.4673 50.3595 91.0116L49.9583 91.0573C50.0559 91.5203 50.1689 91.9767 50.3087 92.5196C50.3885 92.8331 50.4751 93.145 50.5616 93.4571L50.8519 94.4736C50.9457 94.7913 51.0395 95.109 51.1395 95.4251C51.2774 95.8629 51.44 96.3717 51.6221 96.874L52.0229 96.8281C51.9172 96.3274 51.7921 95.8306 51.6731 95.3645C51.5899 95.0417 51.5003 94.7196 51.411 94.3969Z" fill="#610F17"/>
        <path id="Vector_130" d="M47.1114 95.8055L46.5459 94.8396C46.3654 94.5365 46.1845 94.2333 45.9982 93.932C45.7105 93.4681 45.4267 93.0137 45.1208 92.5577L44.7583 92.6923C45.01 93.1915 45.2825 93.69 45.5163 94.1113C45.6811 94.4099 45.8517 94.7059 46.0224 95.0027L46.6014 95.992C46.7823 96.2952 46.9628 96.5983 47.1493 96.9004C47.4086 97.3185 47.7113 97.8041 48.0272 98.2745L48.3898 98.1396C48.1616 97.6865 47.9219 97.2447 47.6321 96.7199C47.4613 96.4137 47.2864 96.1096 47.1114 95.8055Z" fill="#610F17"/>
        <path id="Vector_131" d="M43.1026 98.0032L42.3041 97.0436C42.0681 96.7634 41.8321 96.4832 41.5912 96.2056C41.2232 95.7824 40.8296 95.3325 40.4197 94.8915L40.0974 95.0838C40.449 95.5585 40.8174 96.0266 41.1631 96.4617C41.3977 96.7569 41.6372 97.0491 41.8766 97.3417L42.6802 98.3078C42.9177 98.5891 43.1549 98.8706 43.3969 99.1499C43.7894 99.6001 44.1741 100.039 44.5694 100.464L44.8918 100.271C44.5637 99.8279 44.2285 99.3997 43.8259 98.893C43.5878 98.5951 43.3454 98.2989 43.1026 98.0032Z" fill="#610F17"/>
        <path id="Vector_132" d="M39.5835 100.635L38.5315 99.8377C38.2131 99.5993 37.8947 99.3609 37.5725 99.1271C37.0871 98.7737 36.5661 98.3977 36.0418 98.0409L35.7971 98.3076C36.2876 98.7204 36.7825 99.1138 37.2475 99.4809C37.5614 99.7294 37.8791 99.9736 38.197 100.217L39.2373 101.006C39.5651 101.252 39.8927 101.497 40.2239 101.737C40.7044 102.087 41.2224 102.461 41.7546 102.824L41.9993 102.557C41.5115 102.146 41.0142 101.75 40.5492 101.383C40.2297 101.131 39.9065 100.883 39.5835 100.635Z" fill="#610F17"/>
        <path id="Vector_133" d="M36.97 103.398L35.835 102.677C35.458 102.441 35.081 102.205 34.7009 101.974C34.1683 101.649 33.5942 101.302 33.0023 100.965L32.7916 101.255C33.3326 101.636 33.8929 102.009 34.4209 102.359C34.765 102.586 35.1122 102.809 35.4594 103.033L36.6592 103.795C37.0198 104.02 37.3803 104.246 37.7443 104.468C38.2852 104.797 38.8615 105.145 39.4427 105.476L39.6534 105.186C39.103 104.798 38.5468 104.428 38.0245 104.082C37.6752 103.851 37.3228 103.625 36.97 103.398Z" fill="#610F17"/>
        <path id="Vector_134" d="M34.673 106.528L32.7427 105.672C32.5072 105.569 32.2707 105.466 32.0338 105.366C31.3952 105.094 30.7137 104.806 30.0234 104.533L29.8777 104.858C30.556 105.196 31.2461 105.52 31.8396 105.797C32.27 105.998 32.7027 106.194 33.1359 106.389L35.0605 107.244C35.3092 107.352 35.5584 107.46 35.8081 107.566C36.4468 107.839 37.1328 108.129 37.8187 108.399L37.9645 108.074C37.2936 107.739 36.625 107.425 36.0027 107.135C35.5614 106.929 35.117 106.729 34.673 106.528Z" fill="#610F17"/>
        <path id="Vector_135" d="M76.933 96.7741C76.7353 97.066 76.5439 97.3606 76.3524 97.6552L75.7141 98.6535C75.5204 98.9619 75.327 99.2705 75.1394 99.5819C74.8787 100.015 74.5775 100.519 74.3022 101.023L74.6695 101.234C75.0133 100.768 75.3444 100.283 75.6276 99.863C75.8341 99.5575 76.0348 99.249 76.2354 98.9397L76.8518 97.9735C77.0432 97.6684 77.2348 97.3637 77.4201 97.0555C77.6801 96.6243 77.9804 96.122 78.2578 95.6147L77.8905 95.4032C77.5463 95.8712 77.216 96.3561 76.933 96.7741Z" fill="#610F17"/>
        <path id="Vector_136" d="M81.0424 99.2792C80.785 99.5302 80.5323 99.7856 80.2801 100.041L79.468 100.875C79.2066 101.148 78.9446 101.421 78.6886 101.699C78.2622 102.159 77.9079 102.549 77.5641 102.952L77.8927 103.213C78.3328 102.816 78.7594 102.402 79.1252 102.045C79.3928 101.783 79.655 101.518 79.9175 101.252L80.7423 100.404C80.9898 100.145 81.2368 99.8872 81.4786 99.6251C81.903 99.1661 82.2569 98.7771 82.6034 98.3709L82.2752 98.1103C81.8345 98.5069 81.408 98.9218 81.0424 99.2792Z" fill="#610F17"/>
        <path id="Vector_137" d="M85.235 102.494C84.9759 102.75 84.7219 103.01 84.4683 103.271L83.6221 104.152C83.3709 104.417 83.1202 104.683 82.8744 104.952C82.5079 105.354 82.1188 105.783 81.7468 106.225L82.0766 106.484C82.5186 106.08 82.9467 105.659 83.3126 105.297C83.5813 105.03 83.8447 104.76 84.1077 104.49L84.9299 103.633C85.1794 103.369 85.4287 103.105 85.6727 102.837C86.0994 102.37 86.4546 101.974 86.8001 101.564L86.4703 101.305C86.0394 101.7 85.6238 102.109 85.235 102.494Z" fill="#610F17"/>
        <path id="Vector_138" d="M89.4451 106.668C89.1259 106.863 88.8103 107.062 88.4954 107.262L87.4699 107.923C87.1605 108.125 86.8522 108.327 86.5469 108.533C86.0896 108.844 85.6044 109.177 85.141 109.518L85.4115 109.825C85.9261 109.537 86.4344 109.231 86.9068 108.942C87.2387 108.74 87.5667 108.532 87.8943 108.324L88.8738 107.692C89.1854 107.488 89.4968 107.285 89.8043 107.076C90.2562 106.769 90.7371 106.44 91.2107 106.091L90.9396 105.784C90.4234 106.074 89.9163 106.38 89.4451 106.668Z" fill="#610F17"/>
        <path id="Vector_139" d="M94.2359 110.386L93.9973 110.061C93.5195 110.263 93.0468 110.483 92.6074 110.69C92.3119 110.829 92.0197 110.974 91.7282 111.118L90.8133 111.579C90.511 111.735 90.2089 111.891 89.9105 112.052C89.4178 112.318 89.0062 112.545 88.5989 112.788L88.8375 113.114C89.284 112.926 89.7162 112.726 90.2276 112.485C90.5392 112.338 90.8475 112.185 91.1551 112.033L92.0723 111.568C92.3575 111.421 92.6428 111.274 92.9244 111.122C93.4187 110.856 93.8308 110.629 94.2359 110.386Z" fill="#610F17"/>
        <path id="Vector_140" d="M94.012 115.955C94.3465 115.879 94.6814 115.802 95.0139 115.72C95.5963 115.577 96.0841 115.453 96.5705 115.314L96.4232 114.956C95.8699 115.043 95.3269 115.146 94.8184 115.245C94.469 115.313 94.1224 115.386 93.7755 115.46L92.7164 115.692C92.3638 115.772 92.0114 115.853 91.6613 115.939C91.1891 116.055 90.6403 116.192 90.1051 116.346L90.252 116.703C90.7928 116.62 91.3202 116.519 91.8578 116.415C92.1994 116.348 92.5393 116.276 92.879 116.204L94.012 115.955Z" fill="#610F17"/>
        <path id="Vector_141" d="M93.9234 120.649L95.1036 120.585C95.4842 120.562 95.8652 120.539 96.2442 120.51C96.7978 120.468 97.3911 120.421 97.98 120.356L97.9023 119.989C97.3126 119.987 96.7328 120.004 96.1411 120.023C95.7526 120.035 95.3659 120.053 94.9786 120.071L93.8181 120.133C93.4285 120.156 93.0386 120.179 92.6497 120.209C92.0014 120.258 91.4584 120.303 90.9147 120.363L90.9925 120.73C91.5882 120.732 92.1892 120.715 92.7537 120.697C93.1444 120.685 93.5342 120.667 93.9234 120.649Z" fill="#610F17"/>
        <path id="Vector_142" d="M94.1887 125.006L95.523 125.242C95.912 125.308 96.3007 125.375 96.69 125.436C97.2493 125.524 97.8993 125.624 98.537 125.703L98.5668 125.343C97.9873 125.209 97.4131 125.092 96.7294 124.957C96.3262 124.877 95.9226 124.803 95.5186 124.729L94.2984 124.512C93.8829 124.44 93.4669 124.369 93.051 124.304C92.4636 124.212 91.8335 124.115 91.2039 124.036L91.174 124.397C91.7852 124.538 92.3919 124.66 93.0113 124.784C93.4036 124.861 93.7964 124.934 94.1887 125.006Z" fill="#610F17"/>
        <path id="Vector_143" d="M94.0058 128.819L95.2566 129.149C95.6696 129.256 96.0831 129.362 96.4973 129.463C97.1067 129.612 97.7605 129.77 98.4138 129.909L98.4833 129.558C97.8272 129.349 97.1615 129.159 96.5892 128.997C96.1676 128.877 95.7449 128.762 95.3223 128.648L94.0584 128.314C93.6338 128.204 93.2093 128.095 92.7839 127.991C92.2063 127.85 91.5347 127.688 90.8668 127.545L90.7973 127.897C91.4408 128.101 92.0857 128.286 92.6911 128.458C93.1285 128.583 93.5671 128.701 94.0058 128.819Z" fill="#610F17"/>
        <path id="Vector_144" d="M97.8878 134.167C97.2268 133.85 96.5472 133.543 95.9114 133.258C95.6871 133.157 95.462 133.058 95.2367 132.96L93.2536 132.106C92.8087 131.918 92.3638 131.731 91.9167 131.548C91.2407 131.273 90.5776 131.004 89.8941 130.747L89.7549 131.075C90.3747 131.372 90.9933 131.654 91.7317 131.984C91.9678 132.09 92.2049 132.194 92.4424 132.298L94.4328 133.153C94.8633 133.335 95.2941 133.517 95.7259 133.693C96.3674 133.955 97.0558 134.234 97.7487 134.495L97.8878 134.167Z" fill="#610F17"/>
        </g>
        </g>
    </TMPL_IF>
    <TMPL_IF NAME="HAT_FIVE">
        <g id="VikingHat">
        <path id="Vector_30" d="M66.3376 99.3138C55.2172 96.4513 44.0146 102.631 41.0196 114.266L81.2899 124.632C84.2848 112.998 77.458 102.176 66.3376 99.3138Z" fill="#6D6D6C"/>
        <g id="Group_11">
        <path id="Vector_31" d="M70.9604 99.39L62.8684 97.307L57.5252 118.064L65.6172 120.147L70.9604 99.39Z" fill="#B2B2B2"/>
        </g>
        <path id="Vector_32" d="M78.2187 105.913C95.6079 103.528 94.0902 85.9662 94.0902 85.9662L95.9409 85.4114C95.9409 85.4114 103.577 98.4388 97.2218 107.898C90.8663 117.356 82.603 117.389 82.603 117.389L78.2187 105.913Z" fill="#939190"/>
        <path id="Vector_33" d="M53.2607 99.4881C39.1838 89.0042 49.0651 74.2982 49.0651 74.2982L47.6843 72.9172C47.6843 72.9172 34.6627 80.6999 35.6608 92.0516C36.6594 103.403 43.88 107.422 43.88 107.422L53.2607 99.4881Z" fill="#939190"/>
        <path id="Vector_34" d="M83.6283 124.784L39.6718 113.469L39.3779 114.61L83.3344 125.925L83.6283 124.784Z" fill="#898786"/>
        <path id="Vector_35" d="M81.0903 134.644L37.1337 123.329L36.8398 124.47L80.7964 135.785L81.0903 134.644Z" fill="#898786"/>
        <g id="Group_12">
        <path id="Vector_36" d="M40.6932 115.198C41.4525 115.393 42.2265 114.936 42.4219 114.177C42.6174 113.417 42.1603 112.643 41.401 112.448C40.6417 112.252 39.8677 112.71 39.6723 113.469C39.4768 114.228 39.9339 115.002 40.6932 115.198Z" fill="#898786"/>
        <path id="Vector_37" d="M43.1171 115.821C43.8764 116.017 44.6504 115.56 44.8458 114.801C45.0413 114.041 44.5842 113.267 43.8249 113.072C43.0656 112.876 42.2916 113.333 42.0961 114.093C41.9007 114.852 42.3578 115.626 43.1171 115.821Z" fill="#898786"/>
        <path id="Vector_38" d="M45.541 116.445C46.3003 116.641 47.0743 116.184 47.2697 115.425C47.4652 114.665 47.0081 113.891 46.2488 113.696C45.4895 113.5 44.7155 113.957 44.5201 114.717C44.3246 115.476 44.7817 116.25 45.541 116.445Z" fill="#898786"/>
        <path id="Vector_39" d="M47.9649 117.069C48.7242 117.265 49.4982 116.808 49.6936 116.048C49.8891 115.289 49.432 114.515 48.6727 114.32C47.9134 114.124 47.1394 114.581 46.944 115.341C46.7485 116.1 47.2056 116.874 47.9649 117.069Z" fill="#898786"/>
        <path id="Vector_40" d="M50.3888 117.693C51.1481 117.889 51.9221 117.432 52.1175 116.672C52.313 115.913 51.8559 115.139 51.0966 114.944C50.3373 114.748 49.5633 115.205 49.3679 115.965C49.1724 116.724 49.6295 117.498 50.3888 117.693Z" fill="#898786"/>
        <path id="Vector_41" d="M52.8127 118.317C53.572 118.513 54.346 118.056 54.5414 117.296C54.7369 116.537 54.2798 115.763 53.5205 115.568C52.7612 115.372 51.9872 115.829 51.7918 116.589C51.5963 117.348 52.0534 118.122 52.8127 118.317Z" fill="#898786"/>
        <path id="Vector_42" d="M55.2366 118.941C55.9959 119.137 56.7699 118.68 56.9654 117.92C57.1608 117.161 56.7037 116.387 55.9444 116.192C55.1851 115.996 54.4111 116.453 54.2157 117.212C54.0202 117.972 54.4773 118.746 55.2366 118.941Z" fill="#898786"/>
        <path id="Vector_43" d="M57.6605 119.565C58.4198 119.761 59.1938 119.303 59.3892 118.544C59.5847 117.785 59.1276 117.011 58.3683 116.815C57.609 116.62 56.835 117.077 56.6396 117.836C56.4441 118.596 56.9012 119.37 57.6605 119.565Z" fill="#898786"/>
        <path id="Vector_44" d="M60.0844 120.189C60.8437 120.385 61.6177 119.928 61.8132 119.168C62.0086 118.409 61.5515 117.635 60.7922 117.439C60.0329 117.244 59.2589 117.701 59.0635 118.46C58.868 119.22 59.3251 119.994 60.0844 120.189Z" fill="#898786"/>
        <path id="Vector_45" d="M62.5083 120.813C63.2676 121.009 64.0416 120.551 64.2371 119.792C64.4325 119.033 63.9754 118.259 63.2161 118.063C62.4568 117.868 61.6828 118.325 61.4874 119.084C61.2919 119.844 61.749 120.618 62.5083 120.813Z" fill="#898786"/>
        <path id="Vector_46" d="M64.9322 121.437C65.6915 121.633 66.4655 121.175 66.661 120.416C66.8564 119.657 66.3993 118.883 65.64 118.687C64.8807 118.492 64.1068 118.949 63.9113 119.708C63.7158 120.468 64.1729 121.242 64.9322 121.437Z" fill="#898786"/>
        <path id="Vector_47" d="M67.3562 122.061C68.1155 122.256 68.8895 121.799 69.0849 121.04C69.2804 120.281 68.8233 119.507 68.064 119.311C67.3047 119.116 66.5307 119.573 66.3352 120.332C66.1398 121.092 66.5969 121.866 67.3562 122.061Z" fill="#898786"/>
        <path id="Vector_48" d="M74.6279 123.933C75.3872 124.128 76.1611 123.671 76.3566 122.912C76.552 122.153 76.095 121.379 75.3357 121.183C74.5764 120.988 73.8024 121.445 73.6069 122.204C73.4115 122.963 73.8686 123.737 74.6279 123.933Z" fill="#898786"/>
        <path id="Vector_49" d="M77.0518 124.557C77.8111 124.752 78.5851 124.295 78.7805 123.536C78.976 122.776 78.5189 122.002 77.7596 121.807C77.0003 121.612 76.2263 122.069 76.0309 122.828C75.8354 123.587 76.2925 124.361 77.0518 124.557Z" fill="#898786"/>
        <path id="Vector_50" d="M69.78 122.685C70.5393 122.88 71.3133 122.423 71.5088 121.664C71.7042 120.905 71.2471 120.131 70.4878 119.935C69.7285 119.74 68.9546 120.197 68.7591 120.956C68.5637 121.715 69.0207 122.489 69.78 122.685Z" fill="#898786"/>
        <path id="Vector_51" d="M72.204 123.309C72.9633 123.504 73.7373 123.047 73.9327 122.288C74.1282 121.529 73.6711 120.755 72.9118 120.559C72.1525 120.364 71.3785 120.821 71.1831 121.58C70.9876 122.339 71.4447 123.113 72.204 123.309Z" fill="#898786"/>
        <path id="Vector_52" d="M79.4757 125.181C80.235 125.376 81.0089 124.919 81.2044 124.16C81.3999 123.4 80.9428 122.627 80.1835 122.431C79.4242 122.236 78.6502 122.693 78.4547 123.452C78.2593 124.211 78.7164 124.985 79.4757 125.181Z" fill="#898786"/>
        <path id="Vector_53" d="M81.8996 125.805C82.6589 126 83.4329 125.543 83.6284 124.784C83.8238 124.024 83.3667 123.25 82.6074 123.055C81.8481 122.859 81.0741 123.317 80.8787 124.076C80.6832 124.835 81.1403 125.609 81.8996 125.805Z" fill="#898786"/>
        </g>
        <g id="Group_13">
        <path id="Vector_54" d="M37.823 126.347C38.5823 126.543 39.3563 126.086 39.5518 125.327C39.7472 124.567 39.2901 123.793 38.5308 123.598C37.7715 123.402 36.9975 123.859 36.8021 124.619C36.6066 125.378 37.0637 126.152 37.823 126.347Z" fill="#898786"/>
        <path id="Vector_55" d="M40.2469 126.971C41.0062 127.167 41.7802 126.71 41.9756 125.95C42.1711 125.191 41.714 124.417 40.9547 124.222C40.1954 124.026 39.4214 124.483 39.226 125.243C39.0305 126.002 39.4876 126.776 40.2469 126.971Z" fill="#898786"/>
        <path id="Vector_56" d="M42.6708 127.595C43.4301 127.791 44.2041 127.334 44.3996 126.574C44.595 125.815 44.1379 125.041 43.3786 124.846C42.6193 124.65 41.8453 125.107 41.6499 125.867C41.4544 126.626 41.9115 127.4 42.6708 127.595Z" fill="#898786"/>
        <path id="Vector_57" d="M45.0947 128.219C45.854 128.415 46.628 127.958 46.8235 127.198C47.0189 126.439 46.5618 125.665 45.8025 125.47C45.0432 125.274 44.2692 125.731 44.0738 126.491C43.8783 127.25 44.3354 128.024 45.0947 128.219Z" fill="#898786"/>
        <path id="Vector_58" d="M47.5186 128.843C48.2779 129.039 49.0519 128.582 49.2474 127.822C49.4428 127.063 48.9857 126.289 48.2264 126.094C47.4671 125.898 46.6931 126.355 46.4977 127.115C46.3022 127.874 46.7593 128.648 47.5186 128.843Z" fill="#898786"/>
        <path id="Vector_59" d="M49.9425 129.467C50.7018 129.663 51.4758 129.206 51.6713 128.446C51.8667 127.687 51.4096 126.913 50.6503 126.718C49.891 126.522 49.117 126.979 48.9216 127.738C48.7261 128.498 49.1832 129.272 49.9425 129.467Z" fill="#898786"/>
        <path id="Vector_60" d="M52.3664 130.091C53.1257 130.287 53.8997 129.829 54.0952 129.07C54.2906 128.311 53.8335 127.537 53.0742 127.341C52.3149 127.146 51.541 127.603 51.3455 128.362C51.15 129.122 51.6071 129.896 52.3664 130.091Z" fill="#898786"/>
        <path id="Vector_61" d="M54.7903 130.715C55.5496 130.911 56.3236 130.454 56.5191 129.694C56.7145 128.935 56.2574 128.161 55.4981 127.965C54.7388 127.77 53.9648 128.227 53.7694 128.986C53.5739 129.746 54.031 130.52 54.7903 130.715Z" fill="#898786"/>
        <path id="Vector_62" d="M57.2142 131.339C57.9736 131.535 58.7475 131.077 58.943 130.318C59.1384 129.559 58.6814 128.785 57.922 128.589C57.1627 128.394 56.3888 128.851 56.1933 129.61C55.9979 130.37 56.4549 131.144 57.2142 131.339Z" fill="#898786"/>
        <path id="Vector_63" d="M59.6381 131.963C60.3974 132.158 61.1714 131.701 61.3669 130.942C61.5623 130.183 61.1052 129.409 60.3459 129.213C59.5866 129.018 58.8127 129.475 58.6172 130.234C58.4217 130.994 58.8788 131.767 59.6381 131.963Z" fill="#898786"/>
        <path id="Vector_64" d="M62.0621 132.587C62.8214 132.782 63.5953 132.325 63.7908 131.566C63.9862 130.807 63.5292 130.033 62.7699 129.837C62.0106 129.642 61.2366 130.099 61.0411 130.858C60.8457 131.618 61.3028 132.392 62.0621 132.587Z" fill="#898786"/>
        <path id="Vector_65" d="M64.4859 133.211C65.2452 133.406 66.0192 132.949 66.2147 132.19C66.4101 131.431 65.953 130.657 65.1937 130.461C64.4344 130.266 63.6605 130.723 63.465 131.482C63.2696 132.241 63.7266 133.015 64.4859 133.211Z" fill="#898786"/>
        <path id="Vector_66" d="M71.7577 135.083C72.517 135.278 73.291 134.821 73.4864 134.062C73.6819 133.302 73.2248 132.528 72.4655 132.333C71.7062 132.138 70.9322 132.595 70.7367 133.354C70.5413 134.113 70.9984 134.887 71.7577 135.083Z" fill="#898786"/>
        <path id="Vector_67" d="M74.1816 135.707C74.9409 135.902 75.7148 135.445 75.9103 134.686C76.1058 133.926 75.6487 133.152 74.8894 132.957C74.1301 132.761 73.3561 133.219 73.1606 133.978C72.9652 134.737 73.4223 135.511 74.1816 135.707Z" fill="#898786"/>
        <path id="Vector_68" d="M66.9099 133.835C67.6692 134.03 68.4432 133.573 68.6386 132.814C68.8341 132.055 68.377 131.281 67.6177 131.085C66.8584 130.89 66.0844 131.347 65.8889 132.106C65.6935 132.865 66.1506 133.639 66.9099 133.835Z" fill="#898786"/>
        <path id="Vector_69" d="M69.3338 134.459C70.0931 134.654 70.867 134.197 71.0625 133.438C71.2579 132.679 70.8009 131.905 70.0416 131.709C69.2823 131.514 68.5083 131.971 68.3128 132.73C68.1174 133.489 68.5745 134.263 69.3338 134.459Z" fill="#898786"/>
        <path id="Vector_70" d="M76.6055 136.331C77.3648 136.526 78.1388 136.069 78.3342 135.31C78.5297 134.55 78.0726 133.776 77.3133 133.581C76.554 133.385 75.78 133.843 75.5845 134.602C75.3891 135.361 75.8462 136.135 76.6055 136.331Z" fill="#898786"/>
        <path id="Vector_71" d="M79.0294 136.955C79.7887 137.15 80.5627 136.693 80.7582 135.934C80.9536 135.174 80.4965 134.4 79.7372 134.205C78.9779 134.009 78.2039 134.466 78.0085 135.226C77.813 135.985 78.2701 136.759 79.0294 136.955Z" fill="#898786"/>
        </g>
        <path id="Vector_72" d="M83.3344 125.925L39.3778 114.61L37.1336 123.329L81.0902 134.644L83.3344 125.925Z" fill="#EAC8A7"/>
        <g id="Group_14">
        <path id="Vector_73" d="M42.1124 120.154C41.9206 120.899 41.1612 121.347 40.4166 121.156C39.6715 120.964 39.2234 120.204 39.4151 119.46C39.6069 118.715 40.3664 118.266 41.111 118.458C41.856 118.65 42.3041 119.409 42.1124 120.154Z" fill="#FCDFC8"/>
        <path id="Vector_74" d="M47.6622 121.583C47.4704 122.328 46.711 122.776 45.9664 122.584C45.2218 122.392 44.7727 121.633 44.9644 120.888C45.1562 120.143 45.9158 119.694 46.6609 119.886C47.406 120.078 47.8539 120.838 47.6622 121.583Z" fill="#FCDFC8"/>
        <path id="Vector_75" d="M53.212 123.011C53.0202 123.756 52.2608 124.204 51.5161 124.013C50.771 123.821 50.3225 123.061 50.5142 122.317C50.706 121.572 51.4655 121.123 52.2106 121.315C52.9551 121.507 53.4036 122.266 53.212 123.011Z" fill="#FCDFC8"/>
        <path id="Vector_76" d="M58.8544 124.08C58.6626 124.825 57.9032 125.273 57.1581 125.081C56.4129 124.89 55.9649 124.13 56.1566 123.386C56.3482 122.641 57.1078 122.192 57.8524 122.384C58.597 122.576 59.046 123.335 58.8544 124.08Z" fill="#FCDFC8"/>
        <path id="Vector_77" d="M64.4037 125.509C64.2119 126.254 63.4524 126.702 62.7078 126.51C61.9627 126.318 61.5142 125.559 61.7058 124.814C61.8975 124.069 62.657 123.621 63.4021 123.813C64.1473 124.005 64.5953 124.764 64.4037 125.509Z" fill="#FCDFC8"/>
        <path id="Vector_78" d="M69.9534 126.937C69.7616 127.682 69.0022 128.13 68.2576 127.939C67.5125 127.747 67.0639 126.987 67.2556 126.243C67.4473 125.498 68.2068 125.049 68.9519 125.241C69.697 125.433 70.1451 126.192 69.9534 126.937Z" fill="#FCDFC8"/>
        <path id="Vector_79" d="M75.5032 128.366C75.3114 129.111 74.552 129.559 73.8069 129.367C73.0618 129.175 72.6137 128.416 72.8054 127.671C72.9971 126.927 73.7566 126.478 74.5012 126.67C75.2463 126.861 75.6949 127.621 75.5032 128.366Z" fill="#FCDFC8"/>
        <path id="Vector_80" d="M81.0529 129.794C80.8611 130.539 80.1017 130.987 79.3571 130.796C78.612 130.604 78.1635 129.844 78.3551 129.1C78.5468 128.355 79.3063 127.907 80.0514 128.098C80.7961 128.29 81.2446 129.05 81.0529 129.794Z" fill="#FCDFC8"/>
        </g>
        <path id="Vector_81" d="M95.5035 103.916C98.6584 97.674 97.3936 90.7801 95.4305 85.5648L94.7886 85.7572C96.1604 90.5144 96.9041 97.027 93.3895 102.427C88.844 109.411 83.3375 111.435 80.5533 112.022L82.2593 116.487C85.4843 115.35 91.2988 112.234 95.5035 103.916Z" fill="#B2B2B2"/>
        <path id="Vector_82" d="M39.2287 89.4303C39.4798 82.4407 43.916 77.0144 48.1532 73.3951L48.6224 73.8735C45.1242 77.3771 41.3284 82.7212 41.7986 89.1474C42.4073 97.4578 46.2522 101.889 48.407 103.747L44.7572 106.833C42.4813 104.281 38.894 98.7445 39.2287 89.4303Z" fill="#B2B2B2"/>
        <g id="Group_15">
        <path id="Vector_83" d="M82.1922 103.974L76.9337 105.781L81.5708 119.27L86.8294 117.462L82.1922 103.974Z" fill="#C6C6C6"/>
        </g>
        <g id="Group_16">
        <path id="Vector_84" d="M77.7841 105.995C77.7062 106.293 77.8851 106.598 78.1836 106.675C78.482 106.753 78.787 106.574 78.8644 106.276C78.9422 105.977 78.7633 105.672 78.4648 105.595C78.1664 105.517 77.8619 105.696 77.7841 105.995Z" fill="#898786"/>
        <path id="Vector_85" d="M78.3746 107.7C78.2968 107.999 78.4757 108.304 78.7742 108.381C79.0725 108.459 79.3776 108.28 79.4549 107.982C79.5327 107.683 79.3538 107.378 79.0553 107.301C78.757 107.223 78.452 107.402 78.3746 107.7Z" fill="#898786"/>
        <path id="Vector_86" d="M78.9648 109.406C78.887 109.704 79.0659 110.009 79.3644 110.086C79.6628 110.164 79.9678 109.985 80.0451 109.687C80.123 109.388 79.9441 109.083 79.6456 109.006C79.3477 108.928 79.0427 109.107 78.9648 109.406Z" fill="#898786"/>
        <path id="Vector_87" d="M79.5554 111.111C79.4776 111.41 79.6565 111.715 79.955 111.792C80.2534 111.87 80.5584 111.691 80.6357 111.393C80.7131 111.094 80.5347 110.789 80.2362 110.712C79.9383 110.634 79.6333 110.813 79.5554 111.111Z" fill="#898786"/>
        <path id="Vector_88" d="M80.146 112.817C80.0682 113.115 80.2471 113.42 80.5456 113.497C80.8441 113.575 81.149 113.396 81.2263 113.098C81.3042 112.799 81.1253 112.494 80.8268 112.417C80.5284 112.339 80.2239 112.518 80.146 112.817Z" fill="#898786"/>
        <path id="Vector_89" d="M80.7367 114.523C80.6588 114.821 80.8377 115.126 81.1362 115.203C81.4346 115.281 81.7396 115.102 81.817 114.804C81.8948 114.505 81.7159 114.2 81.4174 114.123C81.119 114.045 80.814 114.224 80.7367 114.523Z" fill="#898786"/>
        <path id="Vector_90" d="M81.3273 116.228C81.2495 116.526 81.4284 116.831 81.7269 116.909C82.0253 116.987 82.3303 116.808 82.4077 116.509C82.4855 116.211 82.3066 115.906 82.0081 115.828C81.7097 115.751 81.4047 115.929 81.3273 116.228Z" fill="#898786"/>
        <path id="Vector_91" d="M81.9174 117.934C81.8396 118.232 82.0185 118.537 82.317 118.614C82.6154 118.692 82.9204 118.513 82.9977 118.215C83.0751 117.916 82.8967 117.611 82.5982 117.534C82.3003 117.456 81.9953 117.635 81.9174 117.934Z" fill="#898786"/>
        </g>
        <g id="Group_17">
        <path id="Vector_92" d="M50.8267 95.9084L40.2531 105.482L43.9852 109.604L54.5588 100.031L50.8267 95.9084Z" fill="#C6C6C6"/>
        </g>
        <g id="Group_18">
        <path id="Vector_93" d="M53.5026 99.6206C53.4354 99.9217 53.1375 100.111 52.8362 100.045C52.5351 99.9774 52.3456 99.6794 52.4123 99.3782C52.4795 99.0771 52.7774 98.8876 53.0787 98.9543C53.3799 99.0209 53.5698 99.3195 53.5026 99.6206Z" fill="#898786"/>
        <path id="Vector_94" d="M52.1991 100.869C52.1319 101.17 51.834 101.359 51.5329 101.292C51.2318 101.225 51.0423 100.927 51.1089 100.626C51.1761 100.325 51.474 100.135 51.7753 100.202C52.0768 100.27 52.2663 100.568 52.1991 100.869Z" fill="#898786"/>
        <path id="Vector_95" d="M50.8957 102.117C50.8285 102.418 50.5306 102.608 50.2295 102.541C49.9283 102.473 49.7388 102.175 49.8055 101.874C49.8727 101.573 50.1706 101.384 50.4719 101.45C50.7729 101.518 50.9627 101.816 50.8957 102.117Z" fill="#898786"/>
        <path id="Vector_96" d="M49.5921 103.366C49.5249 103.667 49.227 103.856 48.9259 103.789C48.6247 103.722 48.4352 103.424 48.5019 103.123C48.5691 102.822 48.867 102.632 49.1683 102.699C49.4694 102.766 49.6593 103.065 49.5921 103.366Z" fill="#898786"/>
        <path id="Vector_97" d="M48.2887 104.614C48.2216 104.915 47.9236 105.105 47.6225 105.038C47.3214 104.97 47.1319 104.672 47.1986 104.371C47.2657 104.07 47.5637 103.881 47.8649 103.947C48.1659 104.015 48.3559 104.313 48.2887 104.614Z" fill="#898786"/>
        <path id="Vector_98" d="M46.9853 105.862C46.9181 106.164 46.6202 106.353 46.3189 106.286C46.0178 106.219 45.8283 105.921 45.895 105.62C45.9621 105.319 46.2601 105.129 46.5613 105.196C46.8624 105.263 47.0523 105.562 46.9853 105.862Z" fill="#898786"/>
        <path id="Vector_99" d="M45.6817 107.111C45.6145 107.412 45.3166 107.602 45.0153 107.535C44.7142 107.468 44.5247 107.17 44.5914 106.869C44.6586 106.568 44.9565 106.378 45.2577 106.445C45.5594 106.512 45.7488 106.81 45.6817 107.111Z" fill="#898786"/>
        <path id="Vector_100" d="M44.3782 108.359C44.3111 108.66 44.0131 108.85 43.7119 108.783C43.4108 108.716 43.2213 108.418 43.2879 108.117C43.3551 107.816 43.653 107.626 43.9542 107.694C44.2554 107.76 44.4454 108.058 44.3782 108.359Z" fill="#898786"/>
        </g>
        </g>
    </TMPL_IF>
    <TMPL_IF NAME="HAT_SIX">
        <g id="StrawHat">
        <path id="Vector" d="M46.6222 104.708C46.3979 104.415 45.9666 104.229 45.5489 104.244C45.6075 104.403 45.6659 104.562 45.7244 104.721C44.9854 104.316 43.9644 104.297 43.2476 104.675C43.4981 104.776 43.7 104.957 43.796 105.168C43.4965 104.977 43.0986 104.893 42.7332 104.942C42.7592 105.115 42.8502 105.284 42.9911 105.42C42.6176 105.068 42.0906 104.822 41.5329 104.74C41.1811 105.019 40.9642 105.406 40.9329 105.811C40.7424 105.603 40.643 105.343 40.6575 105.09C40.3225 105.236 40.0832 105.511 40.023 105.817C39.9989 105.64 39.9748 105.463 39.9507 105.286C39.6763 105.464 39.402 105.641 39.1275 105.819C39.2128 105.365 38.3287 105.109 37.8822 105.383C37.4357 105.657 37.351 106.166 37.2991 106.624C36.8815 106.413 36.464 106.202 36.0464 105.991C36.0504 106.224 36.0543 106.458 36.0582 106.692C35.2324 106.17 34.0725 106.028 33.1359 106.332C33.3456 106.541 33.5553 106.749 33.7649 106.958C33.2642 106.763 32.6969 106.69 32.1596 106.752C32.2654 106.918 32.4238 107.064 32.6149 107.171C31.6531 106.923 30.5825 107.013 29.7403 107.412C30.2123 107.541 30.6408 107.784 30.9535 108.101C30.4491 107.986 29.9447 107.872 29.4403 107.758C29.6179 107.976 29.7956 108.195 29.9732 108.414C29.7256 108.208 29.4088 108.056 29.0693 107.981C29.2206 108.142 29.3718 108.304 29.5229 108.466C28.805 108.448 28.087 108.431 27.369 108.413C27.8654 108.727 28.3617 109.041 28.8581 109.355C28.3962 109.217 27.9116 109.136 27.426 109.114C27.6666 109.258 27.9073 109.402 28.1479 109.546C27.2536 109.404 25.8681 109.444 25.0584 109.738C25.657 109.761 26.2557 109.785 26.8544 109.808C25.8938 109.658 24.8721 110.074 24.4805 110.775C25.1829 110.69 25.9113 110.714 26.615 110.845C26.119 110.854 25.6289 110.931 25.1707 111.069C25.4089 111.157 25.6471 111.244 25.8851 111.332C25.565 111.27 25.2191 111.328 24.9666 111.484C25.2439 111.492 25.5217 111.545 25.7772 111.641C24.8467 111.691 24.0006 112.192 23.6739 112.885C24.2507 112.81 24.8507 112.825 25.4306 112.93C24.8317 113.004 24.2601 113.188 23.7711 113.464C24.1133 113.505 24.4556 113.547 24.7977 113.588C24.311 113.741 23.8243 113.894 23.3376 114.047C23.756 114.134 24.1745 114.221 24.593 114.309C24.0258 114.388 23.4586 114.468 22.8914 114.548C23.4075 115.601 24.5598 116.458 25.9019 116.786C25.3968 116.842 24.8917 116.898 24.3867 116.954C24.9132 117.167 25.484 117.303 26.0616 117.353C25.787 117.472 25.5124 117.592 25.2379 117.711C25.5803 117.857 25.9628 117.938 26.3432 117.944C25.8843 118.191 25.5751 118.605 25.5152 119.054C26.0853 118.783 26.7411 118.625 27.4134 118.596C26.6877 118.567 26.1848 119.342 26.6135 119.828C27.0898 119.593 27.615 119.419 28.1644 119.315C27.8527 119.408 27.571 119.559 27.3481 119.755C27.4982 119.82 27.7031 119.774 27.7788 119.656C27.6466 119.971 27.6547 120.327 27.8013 120.648C28.247 120.387 28.7898 120.232 29.3501 120.205C28.9918 120.405 28.705 120.685 28.5278 121.008C29.4196 121.091 30.3318 120.864 30.9851 120.397C30.4697 120.785 30.0877 121.534 30.3347 122.088C30.3365 121.822 30.504 121.567 30.7719 121.421C30.7606 121.684 30.7493 121.947 30.738 122.211C30.8971 122.015 31.0563 121.819 31.2154 121.622C31.0932 121.873 31.0347 122.146 31.0444 122.42C31.5595 122.526 32.1199 122.441 32.5334 122.194C32.1248 122.387 31.9093 122.806 32.0214 123.189C32.4311 122.984 32.8408 122.78 33.2507 122.575C32.8583 123.113 33.3411 123.944 34.122 124.074C34.5499 123.815 35.075 123.659 35.6189 123.628C35.5738 123.889 35.4169 124.133 35.1803 124.309C35.6933 124.318 36.2039 124.255 36.6832 124.125C36.5408 124.253 36.3986 124.38 36.2563 124.508C36.9852 124.617 37.7415 124.563 38.418 124.355C37.9848 124.624 38.2644 125.284 38.8063 125.419C39.3482 125.553 39.9211 125.263 40.1611 124.864C40.0037 125.079 39.8463 125.293 39.6888 125.507C40.5434 125.662 41.4462 125.593 42.2246 125.312C41.9474 125.6 41.6704 125.888 41.3932 126.177C42.0664 126.094 42.7109 125.896 43.2718 125.599C43.117 126.006 43.2544 126.486 43.6197 126.814C43.768 126.439 44.0082 126.091 44.3231 125.794C44.2441 126.238 44.3492 126.71 44.6181 127.117C44.5574 126.708 44.6544 126.291 44.8921 125.938C44.9129 126.456 45.1298 126.975 45.5067 127.408C46.3514 127.269 47.1076 126.857 47.5733 126.283C47.5972 126.684 47.526 127.085 47.3647 127.458C47.9081 127.238 48.384 126.917 48.7468 126.527C48.6836 126.823 48.6204 127.12 48.5572 127.417C49.1562 127.109 49.6687 126.696 50.0516 126.214C49.6445 127.007 49.9645 128.025 50.8036 128.608C50.9301 128.198 51.0566 127.787 51.1831 127.377C51.2587 127.695 51.3343 128.013 51.4099 128.33C51.6698 128.066 51.9297 127.801 52.1897 127.536C52.1886 127.82 52.1876 128.104 52.1865 128.388C52.3305 128.25 52.6189 128.23 52.8043 128.345C52.8743 128.528 52.9443 128.711 53.0143 128.894C53.5037 128.685 53.9263 128.381 54.2382 128.014C54.2557 128.274 54.6719 128.463 54.9386 128.621C54.9873 128.479 55.0359 128.337 55.0846 128.195C55.0361 128.428 55.1539 128.685 55.3824 128.845C55.3719 128.612 55.5409 128.387 55.7981 128.291C55.8307 128.641 55.8631 128.991 55.8956 129.341C56.3403 128.997 56.7036 128.585 56.9625 128.131C56.9051 128.386 56.9954 128.665 57.2025 128.873C57.2205 128.634 57.3653 128.406 57.5938 128.259C57.5817 128.63 57.8593 129.007 58.2745 129.184C58.0417 128.808 58.1039 128.334 58.4268 128.025C58.3603 128.464 58.6031 128.936 59.0426 129.223C58.9717 128.877 59.1141 128.515 59.4151 128.276C59.351 128.805 59.8098 129.364 60.4482 129.534C60.4418 129.25 60.5937 128.973 60.8542 128.791C60.8787 129.041 60.9033 129.291 60.9277 129.541C61.5062 129.488 61.9901 129.092 62.0471 128.625C62.1159 128.881 62.1847 129.137 62.2534 129.393C62.4238 129.157 62.5941 128.921 62.7645 128.684C63.0124 129.135 63.5296 129.492 64.1185 129.619C64.0038 129.275 64.0192 128.909 64.1621 128.583C64.1934 128.896 64.3769 129.203 64.6647 129.425C64.6908 129.187 64.7168 128.949 64.7428 128.711C65.0276 129.236 65.5978 129.664 66.2668 129.856C66.4327 129.416 66.7278 129.013 67.1219 128.687C67.1532 128.922 67.1844 129.156 67.2157 129.39C67.4031 129.205 67.5905 129.02 67.778 128.834C67.9372 129.192 68.2796 129.5 68.7046 129.668C68.8014 129.446 68.8286 129.204 68.7832 128.967C69.1518 129.343 69.3997 129.793 69.4947 130.259C69.7787 129.727 69.9505 129.154 70.0011 128.569C70.1776 128.987 70.3541 129.406 70.5305 129.825C70.6802 129.625 70.8298 129.425 70.9795 129.225C71.0115 129.385 71.0435 129.544 71.0755 129.703C71.3852 129.46 71.6436 129.174 71.8375 128.861C71.9159 129.389 72.3908 129.881 73.0126 130.077C72.9488 129.699 73.0443 129.31 73.2795 128.989C73.4792 129.212 73.5931 129.482 73.6005 129.75C74.0512 129.515 74.4478 129.216 74.7674 128.869C74.7276 129.152 74.6878 129.434 74.648 129.717C75.3005 129.366 75.779 128.817 75.9723 128.197C76.0106 128.563 76.0489 128.928 76.0872 129.294C76.4724 128.987 76.8992 128.714 77.3586 128.48C77.8151 128.726 78.2717 128.972 78.7282 129.218C79.0375 128.784 79.1119 128.24 78.9297 127.745C79.3604 128.181 79.5566 128.693 79.6036 129.237C79.6353 128.895 79.667 128.552 79.6988 128.21C79.9348 128.551 80.1709 128.892 80.407 129.233C80.4434 128.917 80.48 128.602 80.5165 128.287C80.6347 128.501 80.7528 128.715 80.871 128.929C80.9035 128.724 80.9362 128.518 80.9688 128.313C81.1009 128.599 81.3447 128.853 81.6556 129.031C81.8446 128.756 81.8025 128.383 81.5534 128.124C82.1452 128.541 82.8523 128.851 83.6016 129.021C83.3062 128.61 83.0109 128.199 82.7156 127.788C82.9944 128.256 83.5962 128.596 84.2287 128.644C84.1602 128.442 84.0244 128.253 83.8395 128.102C83.9962 128.275 84.2182 128.41 84.4659 128.483C84.4514 128.254 84.4368 128.025 84.4223 127.796C84.2832 127.881 84.4896 128.086 84.6552 128.038C84.8208 127.99 84.8673 127.816 84.8319 127.673C85.1286 128.018 85.3656 128.396 85.5331 128.79C85.999 128.187 86.0637 127.386 85.7012 126.71C85.8793 127.234 86.1725 127.738 86.5629 128.188C86.8673 127.758 86.9635 127.23 86.8279 126.733C86.972 127.075 87.2569 127.382 87.6258 127.593C87.6561 127.328 87.6864 127.062 87.7168 126.797C87.8804 126.911 88.044 127.026 88.2076 127.141C88.236 126.887 88.4147 126.652 88.6799 126.519C88.9522 126.715 89.2245 126.91 89.4968 127.105C89.4387 126.526 89.1975 125.953 88.8022 125.456C89.5348 125.654 90.2674 125.853 91 126.052C90.8216 125.717 90.6431 125.382 90.4646 125.047C90.862 125.011 91.2758 125.06 91.6518 125.189C91.7232 124.998 91.7946 124.807 91.8661 124.616C92.1808 124.559 92.5321 124.621 92.7994 124.781C92.7437 124.611 92.7758 124.427 92.8864 124.282C93.0595 124.394 93.2325 124.507 93.4056 124.62C93.4535 124.056 93.1554 123.467 92.6236 123.076C93.6997 123.222 94.7511 123.526 95.7105 123.968C95.6771 123.216 95.1855 122.47 94.4215 122.011C95.0307 122.14 95.6399 122.268 96.249 122.397C96.0245 122.14 95.8 121.884 95.5754 121.627C95.9528 121.625 96.3246 121.542 96.6421 121.389C96.4962 121.269 96.3503 121.149 96.2043 121.029C96.4563 121.033 96.7082 121.037 96.9602 121.041C96.8699 120.801 96.6263 120.597 96.3315 120.514C96.8887 120.292 97.4016 120.003 97.8488 119.659C97.3264 119.687 96.794 119.642 96.2818 119.529C96.7302 119.096 97.2434 118.708 97.808 118.375C97.2018 118.232 96.5682 118.177 95.9483 118.215C96.3156 118.111 96.6311 117.904 96.8282 117.635C96.8792 117.566 96.9197 117.471 96.8526 117.407C96.7855 117.343 96.6216 117.433 96.7044 117.484C96.8358 117.376 97.0885 117.388 97.217 117.507C96.9663 117.482 96.6367 116.98 96.386 116.954C96.5955 116.884 96.7627 116.741 96.8395 116.569C96.6388 116.622 96.4382 116.675 96.2376 116.727C96.377 116.625 96.4381 116.458 96.3921 116.306C96.1578 116.344 95.9234 116.382 95.689 116.42C96.035 115.973 96.548 115.615 97.148 115.402C96.1571 115.219 95.0892 115.422 94.3394 115.936C94.6139 115.61 94.9646 115.327 95.3692 115.106C94.7523 115.124 94.1442 115.227 93.5785 115.409C93.8189 115.314 93.9938 115.124 94.0382 114.909C93.653 114.966 93.2885 115.095 92.9805 115.283C93.444 114.639 94.2438 114.164 95.1536 113.993C94.2252 113.764 93.19 113.89 92.4237 114.326C92.6798 114.158 92.8694 113.926 92.962 113.668C92.4923 113.768 92.0385 113.909 91.6109 114.089C91.8425 113.723 91.9533 113.306 91.9298 112.887C91.6344 113.076 91.4538 113.375 91.4473 113.685C91.5479 113.265 91.4837 112.814 91.2656 112.412C91.1899 112.666 91.1142 112.92 91.0386 113.175C91.1501 112.863 91.1472 112.521 91.0302 112.202C90.7214 112.376 90.4127 112.551 90.104 112.725C90.3183 112.463 90.4757 112.17 90.5672 111.862C89.8382 112.098 89.1093 112.334 88.3803 112.57C88.7368 112.027 88.3135 110.953 88.1138 110.341C88.0676 110.567 87.9667 110.783 87.8183 110.975C87.7367 110.686 87.6552 110.398 87.5735 110.11C87.3952 110.237 87.3015 110.436 87.3282 110.632C87.3976 110.295 87.3873 109.944 87.2982 109.604C86.8285 109.837 86.3588 110.07 85.8891 110.303C85.9495 110.036 86.0098 109.768 86.0702 109.501C85.843 109.536 85.6158 109.571 85.3887 109.606C85.4436 109.454 85.5468 109.315 85.6862 109.206C85.2448 109.338 84.8033 109.47 84.3619 109.602C84.431 109.309 83.8742 108.946 83.831 108.645C83.6947 108.716 83.5584 108.787 83.4222 108.858C83.4627 108.742 83.5032 108.627 83.5437 108.511C83.281 108.596 83.0183 108.681 82.7556 108.767C82.7935 108.672 82.7416 108.556 82.6354 108.498C82.2367 108.696 81.838 108.893 81.4392 109.091C81.6323 108.594 82.0429 108.161 82.5842 107.882C81.583 108.037 80.6725 108.488 80.0623 109.132C80.3358 108.829 80.5361 108.482 80.65 108.115C80.3595 108.166 80.0861 108.27 79.8549 108.416C80.0191 108.232 80.107 108.004 80.1022 107.773C79.8298 107.877 79.6001 108.048 79.4493 108.258C79.7559 107.883 79.4079 107.268 78.8427 107.187C78.9132 107.475 78.9378 107.768 78.9155 108.058C78.8896 107.675 78.5947 107.301 78.1702 107.113C78.1337 107.263 78.1466 107.422 78.2075 107.57C78.2514 107.365 78.2183 107.147 78.1136 106.952C77.9143 107.197 77.715 107.442 77.5157 107.687C77.5388 107.372 77.5619 107.057 77.585 106.743C77.3736 106.799 77.2006 106.933 77.1246 107.101C77.1354 106.896 77.1462 106.69 77.157 106.485C76.9338 106.578 76.7106 106.672 76.4875 106.765C76.4902 106.617 76.4931 106.469 76.4958 106.32C75.6575 106.294 74.8243 106.511 74.1836 106.922L46.6222 104.708Z" fill="#E28E26"/>
        <path id="Vector_2" d="M59.6611 127.297C77.8209 129.171 93.03 125.964 93.6317 120.134C94.2334 114.304 79.9998 108.058 61.8401 106.184C43.6803 104.31 28.4712 107.517 27.8695 113.347C27.2678 119.177 41.5014 125.423 59.6611 127.297Z" fill="#FDBA36"/>
        <path id="Vector_3" opacity="0.47" d="M87.5859 125.392C87.216 124.923 86.7783 124.494 86.3306 124.111C84.0463 122.158 81.0758 120.775 78.0924 121.139C75.8593 121.411 73.8684 122.612 71.8428 123.591C67.8631 125.513 63.1777 126.634 59.0323 125.101C55.5231 123.803 52.7713 120.742 49.1116 119.964C47.5861 119.639 46.0071 119.74 44.4501 119.652C42.893 119.565 41.2681 119.252 40.0712 118.253C38.8742 117.253 38.2807 115.4 39.1063 114.077C39.6266 113.243 40.5695 112.782 41.2643 112.087C43.3039 110.047 42.7102 107.88 41.1493 106.364C33.3775 107.516 28.215 109.999 27.8695 113.347C27.2678 119.177 41.5014 125.423 59.6611 127.297C71.121 128.48 81.4056 127.639 87.5859 125.392Z" fill="#FDE392"/>
        <g id="Group">
        <g id="Group_2">
        <path id="Vector_4" d="M59.6495 127.41C50.8553 126.502 42.6994 124.549 36.6843 121.909C30.6309 119.253 27.4604 116.208 27.7569 113.335C28.0533 110.463 31.7789 108.129 38.2472 106.765C44.6745 105.41 53.0575 105.164 61.8517 106.071C70.6459 106.979 78.8018 108.932 84.8169 111.572C90.8703 114.228 94.0408 117.273 93.7443 120.146C93.4478 123.018 89.7223 125.351 83.254 126.715C76.8266 128.071 68.4437 128.317 59.6495 127.41ZM61.8284 106.296C43.7598 104.432 28.5764 107.6 27.982 113.359C27.3877 119.118 41.6041 125.32 59.6727 127.185C77.7414 129.049 92.9248 125.881 93.5191 120.122C94.1134 114.364 79.897 108.161 61.8284 106.296Z" fill="#E28E26"/>
        </g>
        <g id="Group_3">
        <path id="Vector_5" d="M59.4472 126.727C51.286 125.885 43.7233 124.084 38.123 121.647C32.4193 119.165 29.4251 116.308 29.6919 113.603C29.7973 112.535 30.4081 111.536 31.5073 110.636C36.0568 106.91 48.1965 105.318 61.7154 106.674C61.8109 106.683 61.9067 106.693 62.0019 106.703C70.1631 107.545 77.7261 109.346 83.3262 111.783C89.0301 114.265 92.0243 117.122 91.7575 119.827C91.652 120.895 91.0412 121.894 89.9419 122.794C85.3923 126.52 73.2526 128.112 59.7339 126.756C59.6386 126.747 59.5424 126.737 59.4472 126.727ZM61.9769 106.928C61.8818 106.918 61.7884 106.909 61.6929 106.899C55.0219 106.23 48.6055 106.265 43.1375 107C37.8652 107.71 33.7857 109.063 31.6508 110.811C30.5998 111.672 30.0165 112.619 29.9172 113.625C29.3862 119.008 42.6208 124.763 59.4723 126.502C59.5674 126.512 59.6611 126.522 59.7565 126.531C66.4276 127.2 72.844 127.165 78.3119 126.43C83.5843 125.721 87.6637 124.367 89.7986 122.619C90.8496 121.758 91.4329 120.811 91.5323 119.805C92.0633 114.422 78.8284 108.667 61.9769 106.928Z" fill="#E28E26"/>
        </g>
        <g id="Group_4">
        <path id="Vector_6" d="M59.2459 126.046C51.7177 125.269 44.7469 123.62 39.562 121.385C34.2078 119.077 31.3899 116.408 31.6269 113.871C31.7208 112.868 32.2887 111.93 33.315 111.082C37.5576 107.578 48.916 106.048 61.5793 107.276C69.3266 108.028 76.52 109.703 81.8359 111.995C87.1901 114.303 90.0081 116.971 89.771 119.508C89.6772 120.511 89.1092 121.45 88.0829 122.297C83.8404 125.801 72.4819 127.331 59.8186 126.103C59.6275 126.085 59.4363 126.065 59.2459 126.046ZM62.1253 107.558C61.936 107.539 61.7477 107.52 61.5575 107.501C55.31 106.896 49.3045 106.948 44.19 107.654C39.2592 108.334 35.4483 109.613 33.4592 111.256C32.4809 112.064 31.9403 112.951 31.8523 113.892C31.3844 118.898 43.6371 124.207 59.2725 125.821C59.4618 125.84 59.6501 125.859 59.8403 125.878C66.0878 126.483 72.0933 126.431 77.2079 125.725C82.1386 125.045 85.9496 123.766 87.9387 122.123C88.917 121.315 89.4576 120.428 89.5455 119.487C90.0134 114.481 77.7607 109.172 62.1253 107.558Z" fill="#E28E26"/>
        </g>
        <g id="Group_5">
        <path id="Vector_7" d="M59.0453 125.365C52.1497 124.654 45.7702 123.156 41.0009 121.122C35.9963 118.988 33.3546 116.508 33.562 114.139C33.644 113.201 34.1691 112.323 35.1226 111.528C39.0581 108.245 49.6355 106.779 61.4431 107.879C68.6646 108.55 75.3789 110.088 80.3452 112.206C85.3498 114.34 87.9917 116.82 87.7842 119.189C87.702 120.127 87.177 121.005 86.2236 121.801C82.288 125.083 71.7106 126.55 59.903 125.45C59.6166 125.423 59.3302 125.395 59.0453 125.365ZM62.273 108.187C61.9903 108.158 61.7071 108.13 61.4221 108.104C49.6707 107.009 39.16 108.455 35.2677 111.701C34.3622 112.457 33.8642 113.283 33.7876 114.159C33.3742 118.879 45.0984 123.844 59.9242 125.224C71.6756 126.319 82.1863 124.873 86.0786 121.627C86.9841 120.871 87.4821 120.045 87.5587 119.169C87.9641 114.54 76.6929 109.676 62.273 108.187Z" fill="#E28E26"/>
        </g>
        <g id="Group_6">
        <path id="Vector_8" d="M58.8458 124.687C52.5823 124.04 46.7935 122.693 42.4399 120.86C37.785 118.9 35.3192 116.609 35.497 114.407C35.5673 113.535 36.0496 112.716 36.9302 111.973C40.5587 108.912 50.355 107.509 61.3068 108.481C68.0056 109.076 74.2378 110.474 78.8546 112.417C83.5096 114.377 85.9752 116.669 85.7975 118.87C85.7271 119.742 85.245 120.561 84.3644 121.304C80.7358 124.365 70.9396 125.768 59.9877 124.796C59.6058 124.762 59.2244 124.726 58.8458 124.687ZM62.4198 108.815C62.0444 108.776 61.6667 108.74 61.2867 108.706C50.3912 107.739 40.6616 109.122 37.0762 112.146C36.2434 112.849 35.788 113.616 35.7227 114.425C35.3696 118.8 46.2633 123.351 60.0078 124.571C70.9034 125.538 80.6328 124.156 84.2183 121.131C85.051 120.428 85.5064 119.662 85.5718 118.852C85.9152 114.599 75.6243 110.178 62.4198 108.815Z" fill="#E28E26"/>
        </g>
        <g id="Group_7">
        <path id="Vector_9" d="M58.6476 124.01C53.0162 123.429 47.8163 122.231 43.8791 120.598C39.5737 118.812 37.2841 116.709 37.4321 114.675C37.4908 113.869 37.93 113.11 38.7378 112.419C42.0595 109.58 51.0745 108.239 61.1704 109.083C67.3463 109.6 73.0967 110.859 77.3639 112.628C81.6692 114.414 83.9588 116.517 83.8109 118.551C83.7522 119.358 83.313 120.117 82.5051 120.807C79.1834 123.647 70.1684 124.987 60.0725 124.143C59.5949 124.103 59.1195 124.059 58.6476 124.01ZM62.566 109.441C62.0984 109.393 61.6268 109.349 61.1515 109.309C51.1119 108.469 42.1635 109.788 38.8849 112.591C38.1248 113.241 37.7119 113.947 37.6578 114.692C37.3648 118.72 47.4281 122.858 60.0913 123.917C70.1309 124.757 79.0792 123.438 82.3579 120.635C83.118 119.985 83.5309 119.279 83.585 118.535C83.867 114.658 74.5552 110.678 62.566 109.441Z" fill="#E28E26"/>
        </g>
        <g id="Group_8">
        <path id="Vector_10" d="M58.4519 123.336C53.4514 122.82 48.839 121.77 45.3182 120.336C41.3626 118.724 39.249 116.809 39.3671 114.944C39.414 114.202 39.8104 113.503 40.5453 112.865C43.5602 110.247 51.7939 108.969 61.0338 109.686C66.6853 110.123 71.9553 111.244 75.873 112.84C79.8286 114.451 81.9422 116.366 81.8241 118.232C81.7772 118.973 81.3808 119.672 80.6459 120.31C77.631 122.928 69.3973 124.206 60.1574 123.49C59.5847 123.445 59.0156 123.394 58.4519 123.336ZM62.7173 110.065C62.1549 110.007 61.5877 109.956 61.0163 109.911C51.8329 109.199 43.6659 110.455 40.6938 113.036C40.0063 113.633 39.636 114.279 39.593 114.958C39.4817 116.719 41.5452 118.554 45.4037 120.126C49.3003 121.713 54.5458 122.828 60.1749 123.264C69.3583 123.976 77.5253 122.72 80.4974 120.14C81.1849 119.543 81.5553 118.896 81.5982 118.217C81.7096 116.456 79.646 114.621 75.7876 113.049C72.2865 111.623 67.696 110.579 62.7173 110.065Z" fill="#E28E26"/>
        </g>
        <g id="Group_9">
        <path id="Vector_11" d="M58.2592 122.665C53.8884 122.214 49.8614 121.31 46.7576 120.074C43.1516 118.637 41.2141 116.91 41.3022 115.212C41.3372 114.536 41.6908 113.897 42.353 113.311C45.061 110.914 52.5135 109.7 60.8973 110.288C66.0252 110.648 70.814 111.629 74.3821 113.051C77.9882 114.488 79.9256 116.214 79.8376 117.912C79.8026 118.588 79.4491 119.228 78.7868 119.814C76.0788 122.21 68.6263 123.425 60.2424 122.836C59.5751 122.79 58.9129 122.732 58.2592 122.665ZM62.8583 110.685C62.2063 110.618 61.547 110.561 60.8814 110.514C52.5542 109.93 45.1685 111.122 42.5029 113.48C41.8879 114.024 41.56 114.611 41.5281 115.224C41.4455 116.817 43.3324 118.465 46.8414 119.863C50.3883 121.277 55.1531 122.253 60.2582 122.611C68.5854 123.195 75.9711 122.003 78.6367 119.644C79.2517 119.1 79.5796 118.514 79.6114 117.901C79.6941 116.307 77.8071 114.66 74.2982 113.261C71.2136 112.032 67.2077 111.134 62.8583 110.685Z" fill="#E28E26"/>
        </g>
        <g id="Group_10">
        <path id="Vector_12" d="M58.0707 121.998C54.3281 121.612 50.8832 120.853 48.1971 119.811C44.9407 118.549 43.1792 117.011 43.2372 115.481C43.2603 114.87 43.5709 114.29 44.1605 113.756C46.562 111.582 53.233 110.43 60.7605 110.89C65.3646 111.172 69.6725 112.014 72.8909 113.262C76.1473 114.525 77.9088 116.062 77.8509 117.593C77.8277 118.203 77.5171 118.783 76.9275 119.317C74.5261 121.492 67.855 122.643 60.3275 122.183C59.566 122.137 58.8124 122.075 58.0707 121.998ZM62.9952 111.301C62.256 111.225 61.5057 111.163 60.7466 111.116C53.276 110.66 46.6716 111.788 44.3124 113.924C43.7697 114.416 43.484 114.942 43.4633 115.49C43.4093 116.916 45.1195 118.376 48.2789 119.6C51.4762 120.84 55.7603 121.677 60.3413 121.957C67.8118 122.414 74.4162 121.286 76.7755 119.149C77.3181 118.658 77.6038 118.131 77.6245 117.584C77.6785 116.158 75.9683 114.698 72.809 113.473C70.1416 112.439 66.717 111.685 62.9952 111.301Z" fill="#E28E26"/>
        </g>
        </g>
        <path id="Vector_13" d="M76.6608 115.044C83.3107 112.176 90.8018 111.29 97.9376 112.528C97.3394 111.343 96.2691 110.404 95.0157 109.965C96.3681 109.37 97.5643 108.425 98.4557 107.247C94.6775 108.121 90.73 106.755 86.8659 107.084C82.2606 107.477 78.2196 110.217 74.5806 113.066L76.6608 115.044Z" fill="#1E2937"/>
        <path id="Vector_14" d="M73.1846 114.196C77.9073 108.706 84.2543 104.63 91.2122 102.62C90.1554 101.816 88.782 101.441 87.4629 101.595C88.4184 100.468 89.08 99.0945 89.3656 97.6453C86.3516 100.085 82.2042 100.584 78.8745 102.572C74.9059 104.941 72.4724 109.173 70.4482 113.327L73.1846 114.196Z" fill="#1E2937"/>
        <path id="Vector_15" d="M45.1353 114.215C45.1353 114.215 45.685 107.786 46.1578 104.307C46.6305 100.829 47.0224 98.576 50.3493 96.7747C53.507 95.0651 58.6581 94.5601 64.5252 95.0517C70.3923 95.5435 75.5222 97.6658 76.6528 99.9445C77.7833 102.223 77.103 114.328 77.103 114.328C77.103 114.328 73.2957 121.445 60.4586 120.12C47.6215 118.795 45.1353 114.215 45.1353 114.215Z" fill="#E28E26"/>
        <path id="Vector_16" d="M61.203 106.258C67.4121 106.535 71.5443 105.008 74.4758 102.912C75.8085 101.96 76.6218 100.863 76.4438 99.6194C76.163 97.6577 70.1045 95.5171 64.4126 95.0401C58.5454 94.5483 53.4637 95.0606 50.2367 96.7631C48.9617 97.4357 48.0106 98.2843 47.7343 99.2811C47.5341 100.003 47.874 100.81 48.4502 101.694C50.2293 104.425 54.5204 105.96 61.203 106.258Z" fill="#FDE392"/>
        <path id="Vector_17" d="M47.3408 108.115C48.9902 109.849 52.6221 112.023 60.5569 112.531C68.2623 113.027 72.431 111.253 74.5713 109.678C76.1489 108.517 76.8832 107.294 77.1923 106.628C77.1901 106.137 77.184 105.647 77.1728 105.168C76.8939 105.867 76.2124 107.149 74.6709 108.365C72.5928 110.004 68.4785 111.859 60.6793 111.389C60.01 111.349 59.3702 111.297 58.7612 111.234C51.8452 110.521 48.7252 108.417 47.3183 106.704C46.5433 105.76 46.2065 104.845 46.064 104.16C46.0577 104.205 46.0514 104.249 46.0451 104.295C45.9862 104.729 45.926 105.209 45.8659 105.716C46.0812 106.38 46.5057 107.237 47.3408 108.115Z" fill="#E28E26"/>
        <path id="Vector_18" d="M74.5732 112.577C72.2632 114.058 67.9102 115.707 60.2901 115.153C59.8007 115.117 59.326 115.075 58.8673 115.028C52.0922 114.329 48.6148 112.402 46.8713 110.856C46.2522 110.307 45.8049 109.768 45.4812 109.283C45.2207 111.887 45.0226 114.203 45.0226 114.203C45.0226 114.203 47.5089 118.783 60.346 120.108C73.1831 121.433 76.9904 114.316 76.9904 114.316C76.9904 114.316 77.0892 112.556 77.1489 110.253C76.6584 110.902 75.8479 111.76 74.5732 112.577Z" fill="#EDC594"/>
        <path id="Vector_19" d="M58.7334 107.449C59.4962 107.527 60.2961 107.587 61.1322 107.627C67.3656 107.928 71.904 106.821 74.6212 104.338C76.1233 102.965 76.6568 101.497 76.8448 100.695C76.8251 100.606 76.8047 100.521 76.7831 100.442C76.6531 101.144 76.1872 102.753 74.5449 104.254C71.8508 106.717 67.34 107.813 61.1377 107.514C54.5627 107.198 50.1121 105.607 48.2685 102.913C47.461 101.734 47.3058 100.564 47.3292 99.7494C47.2896 99.8216 47.2515 99.8944 47.2147 99.9679C47.2247 100.784 47.4219 101.876 48.1736 102.975C49.8281 105.395 53.375 106.896 58.7334 107.449Z" fill="#EDC594"/>
        <path id="Vector_20" d="M58.8053 108.715C59.4961 108.786 60.2285 108.843 61.0024 108.883C68.9166 109.296 72.8698 107.3 74.7926 105.552C76.3886 104.101 76.8897 102.575 77.0386 101.925C77.0257 101.81 77.0123 101.699 76.998 101.59L76.9852 101.589C76.9833 101.609 76.7752 103.596 74.7165 105.468C72.8097 107.201 68.8835 109.181 61.0082 108.77C52.7199 108.341 49.3645 106.017 48.009 104.144C46.911 102.627 46.9092 101.148 46.9835 100.477C46.9348 100.596 46.8892 100.718 46.8455 100.841C46.823 101.623 46.9719 102.903 47.9154 104.208C49.1576 105.926 52.0549 108.019 58.8053 108.715Z" fill="#EDC594"/>
        <path id="Vector_21" d="M58.8118 109.978C59.4632 110.045 60.1496 110.099 60.8726 110.14C68.7269 110.581 72.7598 108.653 74.7598 106.958C76.3853 105.581 76.9704 104.127 77.1635 103.473C77.1564 103.347 77.149 103.222 77.1408 103.1L77.1382 103.1C77.1354 103.119 76.8292 105.056 74.6868 106.872C72.7025 108.553 68.6962 110.466 60.879 110.027C52.6198 109.566 49.1781 107.249 47.7459 105.385C46.4968 103.761 46.5323 102.205 46.5825 101.713C46.5369 101.892 46.4946 102.075 46.4548 102.262C46.4818 103.002 46.6992 104.208 47.6538 105.451C48.9735 107.17 51.9782 109.272 58.8118 109.978Z" fill="#EDC594"/>
        <path id="Vector_22" d="M58.8256 111.241C59.4343 111.304 60.0738 111.356 60.7427 111.396C68.5373 111.865 72.6497 110.006 74.727 108.364C76.2678 107.146 76.9492 105.863 77.2281 105.163C77.2258 105.061 77.2231 104.958 77.2203 104.857C77.0318 105.427 76.4061 106.896 74.6491 108.282C72.5868 109.908 68.5014 111.749 60.7496 111.283C60.0803 111.243 59.4434 111.191 58.8348 111.128C51.9689 110.419 48.8735 108.335 47.4808 106.638C46.5784 105.539 46.2807 104.482 46.1889 103.794C46.1715 103.914 46.1542 104.036 46.1371 104.159C46.2793 104.846 46.6158 105.761 47.3902 106.706C48.7959 108.422 51.9137 110.528 58.8256 111.241Z" fill="#EDC594"/>
        <path id="Vector_23" d="M47.2509 108.185C48.7854 109.803 52.0199 111.799 58.7891 112.498C59.3511 112.556 59.9378 112.605 60.5495 112.644C68.2889 113.142 72.4829 111.355 74.6383 109.769C76.0814 108.707 76.8296 107.589 77.1931 106.882C77.1929 106.797 77.1926 106.713 77.1922 106.628C76.8832 107.294 76.1487 108.517 74.5712 109.678C72.4309 111.253 68.2622 113.027 60.5568 112.531C52.6221 112.023 48.9902 109.849 47.3407 108.115C46.5057 107.237 46.0812 106.38 45.8659 105.716C45.8559 105.8 45.8459 105.885 45.836 105.971C46.0738 106.611 46.497 107.39 47.2509 108.185Z" fill="#EDC594"/>
        <path id="Vector_24" d="M47.0611 109.52C48.6989 111.102 52.0529 113.063 58.8229 113.762C59.3353 113.815 59.8675 113.861 60.4199 113.898C68.0996 114.424 72.3731 112.707 74.6057 111.173C75.9594 110.243 76.7481 109.266 77.1825 108.58C77.1835 108.507 77.1843 108.434 77.1852 108.36C76.7848 109.036 75.993 110.083 74.5416 111.08C72.3238 112.603 68.0748 114.309 60.4276 113.785C52.6213 113.252 48.8979 111.132 47.1483 109.447C46.4109 108.737 45.9541 108.043 45.67 107.459C45.6626 107.528 45.6553 107.597 45.6479 107.666C45.9395 108.224 46.3833 108.866 47.0611 109.52Z" fill="#EDC594"/>
        <path id="Vector_25" d="M73.1976 102.546C73.1976 102.546 75.6902 101.552 74.6258 99.7353C73.5614 97.9187 67.7559 95.7265 61.8539 95.5726C55.6918 95.4118 52.3877 96.8713 50.4002 98.4868C48.4126 100.102 49.5896 101.93 50.3314 102.462C51.0731 102.994 73.1976 102.546 73.1976 102.546Z" fill="#E28E26"/>
        <path id="Vector_26" d="M50.3314 102.462C50.3314 102.462 54.3058 95.9314 62.526 96.7797C70.7462 97.6281 73.1977 102.546 73.1977 102.546C73.1977 102.546 68.6687 105.488 61.4294 105.2C52.4754 104.845 50.3314 102.462 50.3314 102.462Z" fill="#FDBA36"/>
        <path id="Vector_27" d="M45.6236 108.549L44.7941 114.381C44.7941 114.381 46.6775 119.713 60.1903 121.107C73.7031 122.502 77.1841 116.187 77.1841 116.187L77.5166 109.81C77.5166 109.81 72.0716 116.257 60.5758 115.173C47.7271 113.961 45.6236 108.549 45.6236 108.549Z" fill="#253243"/>
        <path id="Vector_28" opacity="0.47" d="M56.683 99.538C56.4529 97.6058 65.6831 96.9744 67.4928 100.277C69.3025 103.579 57.1569 103.517 56.683 99.538Z" fill="#FDE392"/>
        <path id="Vector_29" d="M45.7487 109.618L45.1353 114.215C45.1353 114.215 47.6379 118.868 55.1614 119.732L55.7394 114.98C55.7394 114.98 48.5546 113.801 45.7487 109.618Z" fill="#3A526D"/>
        </g>
    </TMPL_IF>
    </g>
    </g>
    <path id="HANGMAN" d="M31.005 1.7815H38.889H39.984V2.54799C39.546 2.986 39.254 3.4605 39.108 3.9715C39.035 4.4825 38.9985 5.3585 38.9985 6.59949V30.9085H65.7165V1.7815H73.6005H74.6955V2.54799C74.2575 2.986 73.9655 3.4605 73.8195 3.9715C73.7465 4.4825 73.71 5.3585 73.71 6.59949V70H65.607V37.4785H38.9985V70H31.005V1.7815ZM119.372 50.071H94.6245L96.1575 44.158H117.62L119.372 50.071ZM107.546 18.097L89.5875 70H82.032L107.217 0.577H108.093L133.278 70H125.394L107.546 18.097ZM140.505 1.7815H147.951L176.64 52.3705V1.7815H183.867H184.962V2.54799C184.524 2.986 184.232 3.4605 184.086 3.9715C184.013 4.4825 183.977 5.3585 183.977 6.59949V70H177.954L147.841 16.345V70H140.505V1.7815ZM220.111 71.095C214.709 71.095 210.001 69.6715 205.986 66.8245C202.044 63.9775 199.014 59.9625 196.897 54.7795C194.78 49.5965 193.722 43.574 193.722 36.712C193.649 30.799 194.16 25.7985 195.255 21.7105C196.423 17.5495 197.956 14.1185 199.854 11.4175C201.752 8.7165 203.869 6.5995 206.205 5.06649C208.541 3.5335 210.877 2.475 213.213 1.891C215.622 1.30699 217.812 1.01499 219.783 1.01499C222.484 1.01499 225.112 1.52599 227.667 2.54799C230.295 3.49699 232.668 4.811 234.785 6.49C236.975 8.169 238.69 10.1765 239.931 12.5125L234.565 16.783L233.69 17.5495L233.252 16.8925C233.325 16.3085 233.215 15.7975 232.923 15.3595C232.704 14.8485 232.193 14.1185 231.39 13.1695C230.295 11.9285 229.163 10.9065 227.995 10.1035C226.827 9.3005 225.55 8.7165 224.163 8.3515C222.849 7.9865 221.352 7.804 219.673 7.804C217.702 7.804 215.804 8.096 213.98 8.68C212.155 9.191 210.475 10.1035 208.943 11.4175C207.41 12.6585 206.059 14.3375 204.891 16.4545C203.723 18.5715 202.81 21.163 202.153 24.229C201.569 27.295 201.277 30.9085 201.277 35.0695C201.277 39.8145 201.715 44.012 202.591 47.662C203.467 51.239 204.708 54.2685 206.314 56.7505C207.993 59.2325 209.964 61.1305 212.228 62.4445C214.564 63.6855 217.192 64.306 220.111 64.306C221.133 64.306 222.192 64.233 223.287 64.087C224.455 63.941 225.587 63.722 226.682 63.43C227.85 63.065 228.981 62.627 230.076 62.116C231.171 61.532 232.157 60.875 233.032 60.145V43.939H220.659V37.2595H240.15V63.9775C236.938 66.3135 233.653 68.102 230.295 69.343C226.937 70.511 223.542 71.095 220.111 71.095ZM249.019 70V1.7815H255.042L271.905 35.179L289.096 1.672H294.9V70H287.673V18.535L272.89 46.0195H269.934L256.137 18.8635V70H249.019ZM338.372 50.071H313.625L315.157 44.158H336.62L338.372 50.071ZM326.546 18.097L308.587 70H301.032L326.217 0.577H327.093L352.278 70H344.394L326.546 18.097ZM359.505 1.7815H366.951L395.64 52.3705V1.7815H402.867H403.962V2.54799C403.524 2.986 403.232 3.4605 403.086 3.9715C403.013 4.4825 402.977 5.3585 402.977 6.59949V70H396.954L366.841 16.345V70H359.505V1.7815Z" fill="#64748B"/>
</svg>
