<svg width="445" height="550" viewBox="-50 -140 516 294" fill="none" xmlns="http://www.w3.org/2000/svg">
        <g id="NativeJungle">
    <g class="invisible" id="Anim1">
        <g id="Pillar2">
        <g id="Rectangle 2">
        <mask id="path-1-inside-1_0_1" fill="white">
        <path d="M22.0009 25.6077H4.001V245H22.0009V25.6077Z"/>
        </mask>
        <path d="M22.0009 25.6077H4.001V245H22.0009V25.6077Z" fill="#A45931"/>
        <path d="M22.0009 25.6077H4.001V245H22.0009V25.6077Z" fill="black" fill-opacity="0.2"/>
        <path d="M4.001 25.6077H3.001V24.6077H4.001V25.6077ZM4.001 245V246H3.001V245H4.001ZM22.0009 26.6077H4.001V24.6077H22.0009V26.6077ZM5.001 25.6077V245H3.001V25.6077H5.001ZM4.001 244H22.0009V246H4.001V244Z" fill="black" mask="url(#path-1-inside-1_0_1)"/>
        </g>
        <g id="Polygon 3">
        <mask id="path-3-inside-2_0_1" fill="white">
        <path d="M4.00111 25.6077L13.001 25H28.0009L22.001 25.6077L4.00111 25.6077Z"/>
        </mask>
        <path d="M4.00111 25.6077L13.001 25H28.0009L22.001 25.6077L4.00111 25.6077Z" fill="#A45931"/>
        <path d="M13.001 25L12.9337 24.0023L12.9673 24H13.001V25ZM4.00111 25.6077L4.00111 26.6077L3.93373 24.61L4.00111 25.6077ZM28.0009 25V24L28.1017 25.9949L28.0009 25ZM22.001 25.6077L22.1017 26.6026L22.0515 26.6077L22.001 26.6077L22.001 25.6077ZM13.0684 25.9977L4.06848 26.6055L3.93373 24.61L12.9337 24.0023L13.0684 25.9977ZM28.0009 26H13.001V24H28.0009V26ZM28.1017 25.9949L22.1017 26.6026L21.9002 24.6128L27.9002 24.0051L28.1017 25.9949ZM22.001 26.6077L4.00111 26.6077L4.0011 24.6077L22.001 24.6077L22.001 26.6077Z" fill="black" mask="url(#path-3-inside-2_0_1)"/>
        </g>
        <path id="Polygon 2" d="M27.5008 30.5627V240.933L22.5009 244.093V26.0596L27.5008 25.5532V30.5627Z" fill="#240C0C" stroke="black"/>
        </g>
        <g id="Pillar1">
        <g id="Rectangle 2_2">
        <mask id="path-6-inside-3_0_1" fill="white">
        <path d="M414.001 25.6077H396.001V245H414.001V25.6077Z"/>
        </mask>
        <path d="M414.001 25.6077H396.001V245H414.001V25.6077Z" fill="#A45931"/>
        <path d="M414.001 25.6077H396.001V245H414.001V25.6077Z" fill="black" fill-opacity="0.2"/>
        <path d="M396.001 25.6077H395.001V24.6077H396.001V25.6077ZM396.001 245V246H395.001V245H396.001ZM414.001 26.6077H396.001V24.6077H414.001V26.6077ZM397.001 25.6077V245H395.001V25.6077H397.001ZM396.001 244H414.001V246H396.001V244Z" fill="black" mask="url(#path-6-inside-3_0_1)"/>
        </g>
        <g id="Polygon 3_2">
        <mask id="path-8-inside-4_0_1" fill="white">
        <path d="M396.001 25.6077L405.001 25H420.001L414.001 25.6077L396.001 25.6077Z"/>
        </mask>
        <path d="M396.001 25.6077L405.001 25H420.001L414.001 25.6077L396.001 25.6077Z" fill="#A45931"/>
        <path d="M405.001 25L404.934 24.0023L404.967 24H405.001V25ZM396.001 25.6077L396.001 26.6077L395.934 24.61L396.001 25.6077ZM420.001 25V24L420.102 25.9949L420.001 25ZM414.001 25.6077L414.102 26.6026L414.052 26.6077L414.001 26.6077L414.001 25.6077ZM405.068 25.9977L396.069 26.6055L395.934 24.61L404.934 24.0023L405.068 25.9977ZM420.001 26H405.001V24H420.001V26ZM420.102 25.9949L414.102 26.6026L413.9 24.6128L419.9 24.0051L420.102 25.9949ZM414.001 26.6077L396.001 26.6077L396.001 24.6077L414.001 24.6077L414.001 26.6077Z" fill="black" mask="url(#path-8-inside-4_0_1)"/>
        </g>
        <path id="Polygon 2_2" d="M419.501 30.5627V240.933L414.501 244.093V26.0596L419.501 25.5532V30.5627Z" fill="#240C0C" stroke="black"/>
        </g>
        <g id="Top_pillar">
        <path id="Polygon 9" d="M430.384 27.9477V38.871L425.501 42.0331L425.501 15.9109L430.384 14.6461V27.9477Z" fill="#240C0C" stroke="black"/>
        <path id="Rectangle 5" d="M424.616 16.024H0.499969V42.4525H424.616V16.024Z" fill="#A45931" stroke="black"/>
        <rect id="Rectangle 6" width="17" height="3.04762" transform="matrix(-1 0 0 1 414 42.9524)" fill="#240C0C"/>
        <rect id="Rectangle 7" width="17" height="3.04762" transform="matrix(-1 0 0 1 22.0008 42.9524)" fill="#240C0C"/>
        <path id="Polygon 10" d="M427.075 14.5H8.86798L5.83432 15.0238H425.053L427.075 14.5Z" fill="#A45931" stroke="black"/>
        </g>
        </g>
    <path class="invisible" id="Anim6" d="M92.5 17.5C125.5 25 162.291 18.4422 160.918 11.0015" stroke="<TMPL_VAR NAME="SKIN_COLOR">" stroke-width="4"/>
    <path class="invisible" id="Anim5" d="M92 11.975C124.5 5 160.596 8.84562 161.42 11.975" stroke="<TMPL_VAR NAME="SKIN_COLOR">" stroke-width="4"/>
    <path class="invisible" id="Anim3" d="M229.281 13.9112C234 36.5 279.5 13.9112 297.001 16" stroke="<TMPL_VAR NAME="SKIN_COLOR">" stroke-width="4"/>
    <path class="invisible" id="Anim2" d="M235.074 19.6291C230.879 5.82129 181.074 12.4489 160 11.5" stroke="<TMPL_VAR NAME="SKIN_COLOR">" stroke-width="4"/>
    <path class="invisible" id="Anim4" d="M229.288 14.0484C222.996 -11.6695 278.5 14.0484 295.5 14.0484" stroke="<TMPL_VAR NAME="SKIN_COLOR">" stroke-width="4"/>
    <g class="invisible" id="Anim7">
        <g id="Group 9">
        <g id="Group 7">
        <g id="Group 3">
        <path id="Vector 1" d="M178 45C194.222 45 189.587 8 178 8" stroke="#E6BB93" stroke-width="3"/>
        <path id="Vector 2" d="M178 7.99996C175.75 7.99996 175 7.99996 175 9.76186" stroke="#E6BB93" stroke-width="3"/>
        <path id="Vector 3" d="M178 45C175.75 45 175 45 175 43.2381" stroke="#E6BB93" stroke-width="3"/>
        </g>
        <g id="Group 2">
        <path id="Vector 1_2" d="M176.5 45C187 45 184 8 176.5 8" stroke="#E6BB93" stroke-width="3"/>
        <path id="Vector 2_2" d="M176.5 7.99996C174.25 7.99996 173.5 7.99996 173.5 9.76186" stroke="#E6BB93" stroke-width="3"/>
        <path id="Vector 3_2" d="M176.5 45C174.25 45 173.5 45 173.5 43.2381" stroke="#E6BB93" stroke-width="3"/>
        </g>
        <g id="Group 1">
        <path id="Vector 1_3" d="M184.553 45C202.238 45 197.185 8 184.553 8" stroke="#E6BB93" stroke-width="3"/>
        <path id="Vector 2_3" d="M184.553 7.99996C180.763 7.99996 179.5 7.99996 179.5 9.76186" stroke="#E6BB93" stroke-width="3"/>
        <path id="Vector 3_3" d="M184.553 45C180.763 45 179.5 45 179.5 43.2381" stroke="#E6BB93" stroke-width="3"/>
        </g>
        <g id="Group 1_2">
        <path id="Vector 1_4" d="M167.378 45C172.201 45 170.823 8 167.378 8" stroke="#E6BB93" stroke-width="3"/>
        <path id="Vector 2_4" d="M167.378 7.99996C166.345 7.99996 166 7.99996 166 9.76186" stroke="#E6BB93" stroke-width="3"/>
        <path id="Vector 3_4" d="M167.378 45C166.345 45 166 45 166 43.2381" stroke="#E6BB93" stroke-width="3"/>
        </g>
        <g id="Group 1_3">
        <path id="Vector 1_5" d="M170.5 45C181 45 178 8 170.5 8" stroke="#E6BB93" stroke-width="3"/>
        <path id="Vector 2_5" d="M170.5 7.99996C168.25 7.99996 167.5 7.99996 167.5 9.76186" stroke="#E6BB93" stroke-width="3"/>
        <path id="Vector 3_5" d="M170.5 45C168.25 45 167.5 45 167.5 43.2381" stroke="#E6BB93" stroke-width="3"/>
        </g>
        </g>
        <g id="Group 7_2">
        <g id="Group 3_2">
        <path id="Vector 1_6" d="M202 44C218.222 44 213.587 7 202 7" stroke="#E6BB93" stroke-width="3"/>
        <path id="Vector 2_6" d="M202 6.99996C199.75 6.99996 199 6.99996 199 8.76186" stroke="#E6BB93" stroke-width="3"/>
        <path id="Vector 3_6" d="M202 44C199.75 44 199 44 199 42.2381" stroke="#E6BB93" stroke-width="3"/>
        </g>
        <g id="Group 2_2">
        <path id="Vector 1_7" d="M200.5 44C211 44 208 7 200.5 7" stroke="#E6BB93" stroke-width="3"/>
        <path id="Vector 2_7" d="M200.5 6.99996C198.25 6.99996 197.5 6.99996 197.5 8.76186" stroke="#E6BB93" stroke-width="3"/>
        <path id="Vector 3_7" d="M200.5 44C198.25 44 197.5 44 197.5 42.2381" stroke="#E6BB93" stroke-width="3"/>
        </g>
        <g id="Group 1_4">
        <path id="Vector 1_8" d="M208.553 44C226.238 44 221.185 7 208.553 7" stroke="#E6BB93" stroke-width="3"/>
        <path id="Vector 2_8" d="M208.553 6.99996C204.763 6.99996 203.5 6.99996 203.5 8.76186" stroke="#E6BB93" stroke-width="3"/>
        <path id="Vector 3_8" d="M208.553 44C204.763 44 203.5 44 203.5 42.2381" stroke="#E6BB93" stroke-width="3"/>
        </g>
        <g id="Group 1_5">
        <path id="Vector 1_9" d="M191.378 44C196.201 44 194.823 7 191.378 7" stroke="#E6BB93" stroke-width="3"/>
        <path id="Vector 2_9" d="M191.378 6.99996C190.345 6.99996 190 6.99996 190 8.76186" stroke="#E6BB93" stroke-width="3"/>
        <path id="Vector 3_9" d="M191.378 44C190.345 44 190 44 190 42.2381" stroke="#E6BB93" stroke-width="3"/>
        </g>
        <g id="Group 1_6">
        <path id="Vector 1_10" d="M194.5 44C205 44 202 7 194.5 7" stroke="#E6BB93" stroke-width="3"/>
        <path id="Vector 2_10" d="M194.5 6.99996C192.25 6.99996 191.5 6.99996 191.5 8.76186" stroke="#E6BB93" stroke-width="3"/>
        <path id="Vector 3_10" d="M194.5 44C192.25 44 191.5 44 191.5 42.2381" stroke="#E6BB93" stroke-width="3"/>
        </g>
        </g>
        </g>
        <g id="Group 10">
        <g id="Group 2_3">
        <path id="Vector 1_11" d="M284.163 44C277.732 44 279.569 9 284.163 9" stroke="#E6BB93" stroke-width="3"/>
        <path id="Vector 2_11" d="M284.163 8.99996C285.541 8.99996 286.5 9 286 10.6666" stroke="#E6BB93" stroke-width="3"/>
        <path id="Vector 3_11" d="M284.163 44C285.541 44 286 44 286 42.3334" stroke="#E6BB93" stroke-width="3"/>
        </g>
        <g id="Group 1_7">
        <path id="Vector 1_12" d="M291.378 44C296.201 44 294.823 10 291.378 10" stroke="#E6BB93" stroke-width="3"/>
        <path id="Vector 2_12" d="M291.378 9.99996C290.345 9.99996 290.5 9.99996 290 11.619" stroke="#E6BB93" stroke-width="3"/>
        <path id="Vector 3_12" d="M291.378 44C290.345 44 290 44 290 42.381" stroke="#E6BB93" stroke-width="3"/>
        </g>
        <g id="Group 3_3">
        <path id="Vector 1_13" d="M287.694 46C286.622 46 286.928 9 287.694 9" stroke="#E6BB93" stroke-width="3"/>
        <path id="Vector 2_13" d="M287.694 8.99996C287.923 8.99996 288 8.99996 288 10.7619" stroke="#E6BB93" stroke-width="3"/>
        <path id="Vector 3_13" d="M287.694 46C287.923 46 288 46 288 44.2381" stroke="#E6BB93" stroke-width="3"/>
        </g>
        <g id="Group 4">
        <path id="Vector 1_14" d="M96.1625 44C89.7315 44 91.5689 9.00004 96.1625 9.00004" stroke="#E6BB93" stroke-width="3"/>
        <path id="Vector 2_14" d="M96.1625 9C97.5406 9 98.4999 9.00004 98 10.6667" stroke="#E6BB93" stroke-width="3"/>
        <path id="Vector 3_14" d="M96.1625 44.0001C97.5406 44.0001 97.9999 44.0001 97.9999 42.3334" stroke="#E6BB93" stroke-width="3"/>
        </g>
        <g id="Group 5">
        <path id="Vector 1_15" d="M103.378 44C108.201 44 106.823 8 103.378 8" stroke="#E6BB93" stroke-width="3"/>
        <path id="Vector 2_15" d="M103.378 7.99996C102.344 7.99996 102.5 7.99996 102 9.71425" stroke="#E6BB93" stroke-width="3"/>
        <path id="Vector 3_15" d="M103.378 44.0001C102.344 44.0001 102 44.0001 102 42.2858" stroke="#E6BB93" stroke-width="3"/>
        </g>
        <g id="Group 6">
        <path id="Vector 1_16" d="M99.6937 46C98.6219 46 98.9281 9.00004 99.6937 9.00004" stroke="#E6BB93" stroke-width="3"/>
        <path id="Vector 2_16" d="M99.6937 9C99.9234 9 99.9999 9 99.9999 10.7619" stroke="#E6BB93" stroke-width="3"/>
        <path id="Vector 3_16" d="M99.6937 46.0001C99.9234 46.0001 99.9999 46.0001 99.9999 44.2382" stroke="#E6BB93" stroke-width="3"/>
        </g>
        </g>
        </g>
        <g class="invisible" id="Anim8">
            <path id="Ellipse 1" d="M257.22 31.7739C252.533 21.5708 240.199 17.1062 229.608 21.9716C219.016 26.837 214.368 39.1027 219.055 49.3058C223.742 59.5089 236.076 63.9736 246.667 59.1081C257.259 54.2427 261.907 41.977 257.22 31.7739Z" fill="white" stroke="<TMPL_VAR NAME="SKIN_COLOR">" stroke-width="5"/>
            <path id="Vector 5" d="M226.359 36.6034C236.866 33.0232 236.673 29.8919 235.906 27.5439" stroke="black" stroke-width="2"/>
            <path id="Vector 6" d="M232.762 49.864C236.621 48.0912 240.3 47.9594 243.185 48.8149" stroke="black" stroke-width="2"/>
            <path id="Vector 7" d="M238.728 53.3551C236.955 49.4958 238.089 45.8593 239.89 45.032" stroke="black" stroke-width="2"/>
            <path id="Vector 8" d="M243.241 39.4417C246.864 37.1543 250.72 36.4432 253.725 36.6091" stroke="black" stroke-width="2"/>
            <path id="Vector 9" d="M249.485 42.1818C247.831 38.5798 248.491 33.9141 249.444 31.9186" stroke="black" stroke-width="2"/>
            <TMPL_IF NAME="HAT_ONE">
                <g id="Crown">
                <g id="Group_41">
                <path id="Vector_166" d="M249.062 16.7604C248.463 24.7264 249.049 32.7084 250.775 40.4478C255.308 31.9183 261.191 24.8679 267.763 19.5511C261.515 18.7602 255.28 17.8298 249.062 16.7604Z" fill="#C28D00"/>
                <path id="Vector_167" d="M256.182 56.5229C252.855 49.2596 250.636 41.5703 249.569 33.7128C256.78 40.1398 264.744 44.711 272.752 47.4174C267.167 50.3267 261.642 53.3626 256.182 56.5229Z" fill="#C28D00"/>
                </g>
                <path id="Vector_168" d="M248.871 25.2654C249.11 33.21 250.519 41.0783 253.051 48.6123C259.487 42.3471 266.563 37.1121 274.041 32.991C265.568 31.6559 257.086 29.082 248.871 25.2654Z" fill="#ECAB00"/>
                <g id="Group_42">
                <path id="Vector_169" d="M249.062 16.7604C248.463 24.7263 249.049 32.7083 250.775 40.4477C254.272 27.2715 261.043 16.3657 269.328 8.61185C262.469 10.3374 255.639 13.059 249.062 16.7604Z" fill="#DB9F00"/>
                <path id="Vector_170" d="M256.182 56.523C252.855 49.2597 250.636 41.5704 249.569 33.7129C257.42 44.8574 267.555 52.7363 278.016 57.134C270.984 57.8954 263.634 57.7122 256.182 56.523Z" fill="#DB9F00"/>
                </g>
                </g>
            </TMPL_IF>
            <TMPL_IF NAME="HAT_TWO">
                <g id="PirateHat">
                <path id="Vector_152" d="M297.365 11.5079C297.365 11.5079 286.982 31.2018 258.045 24.8739C258.045 24.8739 270.002 23.6033 274.756 16.036C274.856 15.8758 277.951 17.0402 278.058 16.8878C278.161 16.7416 275.276 15.2786 275.384 15.1393C276.451 13.7703 277.794 12.7273 279.3 11.9518C279.517 11.8406 280.667 14.4885 280.889 14.3882C281.162 14.2654 280.507 11.3966 280.788 11.2896C281.009 11.2054 281.51 12.5918 281.735 12.5168C282.014 12.4237 282.018 10.8719 282.304 10.7927C287.611 9.31955 293.851 10.1877 297.365 11.5079Z" fill="#C1272D"/>
                <path id="Vector_153" d="M292.563 13.5786C292.563 13.5786 292.14 13.8612 291.377 14.3188C290.613 14.7751 289.516 15.4151 288.165 16.1195C287.495 16.4808 286.755 16.8455 285.973 17.2303C285.191 17.6169 284.351 17.9906 283.488 18.3881C282.61 18.7526 281.72 19.167 280.787 19.5185C279.859 19.8826 278.919 20.2561 277.959 20.5773C277.482 20.7438 277.005 20.9103 276.53 21.0763C276.049 21.2244 275.571 21.3721 275.095 21.5185C274.619 21.6601 274.153 21.8207 273.682 21.9426C273.211 22.0662 272.747 22.1884 272.289 22.3088C271.831 22.4243 271.386 22.5577 270.941 22.6521C270.497 22.7475 270.063 22.8405 269.64 22.9308C269.217 23.0215 268.807 23.1095 268.409 23.1947C268.01 23.2711 267.621 23.3252 267.25 23.3883C266.506 23.5061 265.826 23.6246 265.221 23.7107C264.614 23.7746 264.085 23.8298 263.649 23.8756C262.778 23.9673 262.281 24.0195 262.281 24.0195L262.23 24.0249C261.75 24.0756 261.402 24.5059 261.452 24.9861C261.503 25.4663 261.933 25.8151 262.413 25.7644C262.427 25.7629 262.445 25.7605 262.459 25.7582C262.459 25.7582 262.97 25.677 263.863 25.5344C264.309 25.4631 264.851 25.3763 265.472 25.2768C266.089 25.1551 266.78 24.9964 267.535 24.8347C267.913 24.7502 268.307 24.6729 268.711 24.5727C269.113 24.4639 269.528 24.3514 269.954 24.2357C270.38 24.1201 270.818 24.0012 271.266 23.8801C271.713 23.7598 272.16 23.5994 272.619 23.4571C273.077 23.3101 273.542 23.1603 274.014 23.0088C274.485 22.8594 274.95 22.6707 275.425 22.5017C275.898 22.3274 276.375 22.1517 276.853 21.9756C277.325 21.7821 277.799 21.5877 278.272 21.3933C279.224 21.0166 280.153 20.5887 281.068 20.1714C281.989 19.7667 282.864 19.3008 283.726 18.8872C284.572 18.4405 285.396 18.0198 286.159 17.5897C286.924 17.1609 287.646 16.7558 288.298 16.3571C289.614 15.5784 290.678 14.8788 291.417 14.3817C292.156 13.8833 292.563 13.5786 292.563 13.5786Z" fill="#AD171C"/>
                <g id="Group_37">
                <g id="Group_38">
                <path id="Vector_154" d="M267.247 7.39205C268.735 11.1231 264.953 7.92802 266.59 17.4491C268.228 26.9702 285.158 25.2518 285.312 39.293C285.466 53.3342 268.502 51.9869 267.074 61.5415C265.646 71.0962 269.357 67.8191 267.951 71.5818C267.419 73.0053 264.918 73.9006 262.006 73.5711C263.73 73.3188 265.334 73.4053 265.7 72.4254C267.107 68.6627 263.091 71.1242 264.519 61.5695C265.947 52.0148 282.911 53.3621 282.757 39.321C282.603 25.2798 265.673 26.9982 264.036 17.4771C262.398 7.95599 266.467 10.329 264.978 6.59792C264.59 5.62633 262.989 5.74831 261.259 5.53345C264.164 5.14023 266.683 5.98056 267.247 7.39205Z" fill="#C5A34C"/>
                <path id="Subtract" fill-rule="evenodd" clip-rule="evenodd" d="M267.153 9.84614C267.58 9.28901 267.859 8.92544 267.247 7.39214C265.758 3.66109 250.601 3.91225 250.782 20.4327L250.993 39.6684L251.204 58.9045C251.385 75.4254 266.544 75.3447 267.951 71.5819C268.529 70.0356 268.242 69.6782 267.804 69.1305C267.175 68.3456 266.233 67.1697 267.074 61.5416C267.703 57.3362 271.341 55.2428 275.204 53.0197C280.119 50.1918 285.398 47.1542 285.312 39.2931C285.226 31.432 279.881 28.5106 274.906 25.7911C270.994 23.6531 267.311 21.6398 266.59 17.4492C265.626 11.8409 266.542 10.6447 267.153 9.84614ZM251.199 58.4239C254.346 58.3895 256.806 49.9645 256.692 39.6065C256.578 29.2484 253.935 20.8794 250.787 20.9138L250.993 39.6689L251.199 58.4239Z" fill="#333333"/>
                </g>
                <g id="Group_39">
                <path id="Vector_155" d="M261.863 44.3171L273.286 33.0452C272.888 32.6414 272.892 31.9915 273.296 31.5934C273.7 31.1952 274.35 31.1994 274.748 31.6032C274.984 31.8428 275.078 32.1686 275.031 32.4777C275.341 32.4354 275.665 32.5332 275.902 32.7727C276.3 33.1765 276.296 33.8264 275.892 34.2246C275.488 34.6227 274.838 34.6185 274.44 34.2147L263.016 45.4866C263.415 45.8904 263.41 46.5402 263.007 46.9384C262.603 47.3366 261.953 47.3323 261.555 46.9285C261.318 46.689 261.225 46.3631 261.272 46.0541C260.962 46.0964 260.637 45.9986 260.401 45.759C260.003 45.3552 260.007 44.7054 260.411 44.3072C260.815 43.909 261.464 43.9133 261.863 44.3171Z" fill="#F2F2F2"/>
                <path id="Vector_156" d="M274.372 44.4008L263.1 32.9767C263.504 32.5785 263.508 31.9282 263.11 31.5249C262.712 31.121 262.062 31.1168 261.658 31.515C261.419 31.7514 261.321 32.0758 261.363 32.3857C261.054 32.3392 260.728 32.4328 260.489 32.6688C260.085 33.067 260.081 33.7173 260.479 34.1207C260.877 34.5245 261.528 34.5287 261.931 34.1305L273.203 45.5546C272.799 45.9528 272.795 46.6031 273.193 47.0065C273.591 47.4103 274.241 47.4145 274.645 47.0164C274.884 46.78 274.982 46.4555 274.94 46.1457C275.249 46.1921 275.575 46.0985 275.814 45.8626C276.218 45.4644 276.222 44.8141 275.824 44.4107C275.426 44.0069 274.776 44.0027 274.372 44.4008Z" fill="#F2F2F2"/>
                <g id="Group_40">
                <path id="Vector_157" d="M263.22 40.7316L263.216 41.2001C263.215 41.3784 263.36 41.5254 263.539 41.5265L265.144 41.5373C265.323 41.5385 265.47 41.3935 265.471 41.2152L265.474 40.7471C265.475 40.5688 265.33 40.4218 265.152 40.4203L263.546 40.4095C263.368 40.4083 263.221 40.5533 263.22 40.7316Z" fill="#F2F2F2"/>
                <path id="Vector_158" d="M263.228 39.5572L263.224 40.0257C263.223 40.204 263.368 40.351 263.547 40.3521L265.152 40.3629C265.331 40.364 265.478 40.2191 265.479 40.0408L265.482 39.5727C265.483 39.3944 265.338 39.2474 265.16 39.2463L263.554 39.2354C263.376 39.2339 263.229 39.3788 263.228 39.5572Z" fill="#F2F2F2"/>
                <path id="Vector_159" d="M263.235 38.3824L263.232 38.8509C263.231 39.0292 263.376 39.1762 263.554 39.1773L265.16 39.1881C265.338 39.1892 265.485 39.0443 265.486 38.866L265.49 38.3979C265.491 38.2196 265.346 38.0726 265.167 38.0715L263.562 38.0606C263.384 38.0591 263.237 38.204 263.235 38.3824Z" fill="#F2F2F2"/>
                <path id="Vector_160" d="M263.243 37.208L263.24 37.6766C263.239 37.8549 263.384 38.0019 263.562 38.003L265.168 38.0138C265.346 38.0149 265.493 37.8699 265.494 37.6916L265.498 37.2231C265.499 37.0448 265.354 36.8978 265.175 36.8967L263.57 36.8859C263.392 36.8848 263.245 37.0297 263.243 37.208Z" fill="#F2F2F2"/>
                </g>
                <path id="Vector_161" d="M264.331 37.5082L264.308 40.9145C264.304 41.4499 264.307 41.8878 264.842 41.8915L266.392 41.9021C266.928 41.9058 267.369 41.4706 267.372 40.9352L267.395 37.5289C267.399 36.9935 266.963 36.5525 266.428 36.5492L264.878 36.5387C264.343 36.5349 264.335 36.9729 264.331 37.5082Z" fill="white"/>
                <path id="Vector_162" d="M269.334 34.6217C266.781 34.6046 264.697 36.6604 264.68 39.2136C264.663 41.7668 266.719 43.8502 269.272 43.8677C271.825 43.8848 273.512 41.8264 273.529 39.2732C273.546 36.72 271.887 34.6387 269.334 34.6217Z" fill="white"/>
                <path id="Vector_163" d="M267.979 39.8696C267.92 39.8934 267.704 39.8918 267.565 39.9344C267.498 39.9618 267.435 39.9952 267.377 40.0339C267.082 40.2285 266.888 40.5606 266.885 40.9382C266.881 41.5426 267.371 42.0359 267.98 42.0402C268.436 42.043 268.83 41.7704 269 41.3787C269.028 41.3133 269.05 41.2449 269.065 41.1739C269.104 40.6583 268.566 40.2219 268.167 39.9274C268.109 39.8992 268.046 39.8797 267.979 39.8696Z" fill="#333333"/>
                <path id="Vector_164" d="M267.987 38.6022C267.929 38.5779 267.712 38.5764 267.574 38.532C267.508 38.5039 267.446 38.4696 267.388 38.43C267.096 38.2313 266.906 37.8969 266.908 37.5193C266.912 36.9149 267.409 36.4283 268.017 36.4321C268.474 36.435 268.864 36.7135 269.029 37.1076C269.056 37.1733 269.077 37.2421 269.091 37.3132C269.124 37.8294 268.58 38.2584 268.177 38.5473C268.118 38.5746 268.055 38.5932 267.987 38.6022Z" fill="#333333"/>
                <path id="Vector_165" d="M265.874 39.7096C266.099 39.937 266.724 39.4586 266.726 39.2257C266.728 38.9927 266.097 38.5167 265.881 38.7302C265.786 39.0572 265.855 39.6906 265.874 39.7096Z" fill="#333333"/>
                </g>
                </g>
                </g>
            </TMPL_IF>
            <TMPL_IF NAME="HAT_THREE">
                <g id="BaseballCap">
                <path id="Vector_145" d="M240.245 55.4853C240.763 47.2668 248.233 43.1523 253.571 37.9676C254.904 40.6029 254.494 46.5094 254.819 49.7777C255.13 52.9018 256.646 58.2679 255.491 61.1719C254.385 63.9453 251.239 66.5004 249.196 68.5642C247.246 70.5337 244.892 73.4383 242.133 74.086C241.543 71.2999 242.094 67.7585 241.605 64.7087C241.128 61.738 240.054 58.5176 240.245 55.4853Z" fill="#243347"/>
                <path id="Vector_146" d="M276.925 36.0257C275.856 34.1359 275.307 37.2502 275.547 38.1273C275.787 39.0102 276.572 40.8766 277.088 38.991C277.329 38.1112 277.395 36.8554 276.925 36.0257Z" fill="#243347"/>
                <path id="Vector_147" d="M258.644 20.9963C255.957 20.3838 253.033 20.1416 252.167 21.6952C251.395 23.0773 252.182 27.0712 252.228 28.6343C252.381 33.7132 253.038 38.5128 252.935 43.6146C252.87 46.8307 252.838 50.0722 252.763 53.2979C252.7 55.9352 252.002 61.2542 255.094 62.3051C257.795 63.2227 262.378 61.0696 264.817 60.0044C268.764 58.2811 271.603 54.4303 273.567 50.6207C274.442 48.9193 275.14 47.1272 275.617 45.3001C277.181 39.3313 276.422 32.9867 272.06 28.1829C269.565 25.4328 266.556 23.5405 263.083 22.3155C262.191 22.002 260.473 21.4131 258.644 20.9963Z" fill="#32425B"/>
                <g id="Group_35">
                <path id="Vector_148" d="M259.783 58.4818C256.487 56.8327 259.37 53.7825 261.637 52.928C262.942 52.4364 264.662 52.2355 265.879 53.078C267.808 54.4144 265.921 56.9713 264.493 57.7923C263.19 58.5412 261.231 59.2284 259.783 58.4818Z" fill="white"/>
                </g>
                <path id="Vector_149" d="M241.944 74.0011C241.585 72.231 241.458 70.4333 241.283 68.6388C241.103 66.7885 240.879 64.9368 240.648 63.0921C240.434 61.3869 240.013 59.727 239.789 58.025C239.565 56.3162 239.65 54.5734 240.087 52.905C240.95 49.6169 243.124 46.7781 245.506 44.4377C246.723 43.2413 248.032 42.157 249.341 41.0642C250.689 39.9383 251.983 38.7528 253.485 37.8288C254.294 37.3316 255.043 38.5957 254.236 39.0919C252.841 39.9499 251.634 41.0431 250.387 42.0959C249.151 43.1395 247.912 44.165 246.742 45.2854C244.365 47.5616 242.295 50.2804 241.447 53.5132C240.611 56.7005 241.709 59.9026 242.117 63.0629C242.344 64.8245 242.511 66.5935 242.727 68.3565C242.94 70.1064 243.005 71.8625 243.356 73.5951C243.544 74.5195 242.132 74.9297 241.944 74.0011Z" fill="#32425B"/>
                <path id="Vector_150" d="M258.644 20.9964C258.259 21.4093 257.904 21.8572 257.579 22.3369C253.695 28.0765 255.651 37.0334 259.131 42.4726C261.914 46.8226 266.944 49.7934 272.066 47.6579C273.204 47.1848 274.524 46.3456 275.617 45.2999C277.181 39.331 276.423 32.9864 272.061 28.1827C269.565 25.4325 266.557 23.5403 263.084 22.3152C262.191 22.0021 260.473 21.4132 258.644 20.9964Z" fill="#3D526C"/>
                <g id="Group_36">
                <path id="Vector_151" d="M260.734 57.476C258.601 56.4085 260.467 54.4336 261.935 53.8805C262.78 53.5623 263.893 53.4322 264.681 53.9775C265.93 54.8428 264.708 56.4981 263.784 57.0296C262.941 57.5143 261.672 57.9593 260.734 57.476Z" fill="#32425B"/>
                </g>
                </g>
            </TMPL_IF>
            <TMPL_IF NAME="HAT_FOUR">
                <g id="GladiatorHelmet">
                <g id="XMLID_99_">
                <g id="Group_19">
                <g id="Group_20">
                <path id="Vector_101" d="M276.943 22.1729L269.193 30.3482C281.926 47.0305 265.93 66.2852 265.93 66.2852L265.914 66.2702C265.914 66.2702 247.543 83.2725 230.203 71.4481L222.453 79.6234C244.718 94.4669 263.56 82.4238 272.74 72.7394L272.755 72.7541C281.934 63.0698 292.955 43.6131 276.943 22.1729Z" fill="#BE1E2D"/>
                </g>
                <g id="Group_21" opacity="0.57">
                <path id="Vector_102" d="M284.907 48.0062C285.064 40.8366 282.893 32.9471 276.784 24.7677L270.179 31.7354C269.871 31.2719 269.545 30.809 269.193 30.3485L276.942 22.1731C283.798 31.3511 285.695 40.1655 284.907 48.0062Z" fill="#BE1E2D"/>
                <path id="Vector_103" d="M265.772 68.8797L265.756 68.8645C265.756 68.8645 247.384 85.8668 230.044 74.0424L223.885 80.5398C223.409 80.2452 222.932 79.9425 222.453 79.6232L230.203 71.4475C247.543 83.2722 265.914 66.2696 265.914 66.2696L265.93 66.2846C265.93 66.2846 272.8 58.0143 273.951 47.6187C273.811 59.1984 265.772 68.8797 265.772 68.8797Z" fill="#BE1E2D"/>
                </g>
                <g id="Group_22">
                <path id="Vector_104" d="M259.661 66.3692C244.563 78.5239 232.093 69.4539 232.093 69.4539L230.203 71.4477C247.543 83.2724 265.915 66.2698 265.915 66.2698L265.93 66.2847C265.93 66.2847 281.926 47.0298 269.193 30.3478L267.303 32.3423C267.303 32.3423 277.027 44.3069 265.698 60.0347C265.939 59.6127 273.585 46.0371 265.884 33.8396L264.18 35.637C266.929 40.7836 266.009 46.1661 265.01 49.9295C263.667 54.9968 259.464 60.1561 259.464 60.1561L259.449 60.1414C259.449 60.1414 254.523 64.6117 249.532 66.2241C245.829 67.4211 240.501 68.6299 235.216 66.1591L233.512 67.9566C246.107 74.9944 259.253 66.6319 259.661 66.3692Z" fill="#6D6E71"/>
                </g>
                <g id="Group_23" opacity="0.1">
                <path id="Vector_105" d="M256.593 68.5785C257.815 67.9702 258.55 67.5037 258.642 67.4445C243.544 79.5991 231.073 70.5291 231.073 70.5291L232.093 69.4533C232.093 69.4533 242.911 77.3182 256.593 68.5785Z" fill="#6D6E71"/>
                <path id="Vector_106" d="M258.445 61.2317L258.43 61.217C258.43 61.217 253.503 65.6873 248.513 67.2997C244.809 68.4967 239.483 69.7052 234.197 67.2348L235.216 66.1589C240.502 68.6292 245.829 67.4209 249.533 66.2239C253.585 64.9144 257.595 61.7207 258.96 60.5662C258.64 60.9916 258.445 61.2317 258.445 61.2317Z" fill="#6D6E71"/>
                <path id="Vector_107" d="M266.723 57.924C266.133 58.9671 265.457 60.0292 264.678 61.1106C264.919 60.6886 272.566 47.113 264.864 34.9154L265.884 33.8396C271.858 43.3001 268.599 53.5854 266.723 57.924Z" fill="#6D6E71"/>
                <path id="Vector_108" d="M265.931 66.2848L265.915 66.2699C265.915 66.2699 265.746 66.4254 265.429 66.6955C268.072 63.1704 279.511 46.2775 268.174 31.4237L269.194 30.3479C281.926 47.0299 265.931 66.2848 265.931 66.2848Z" fill="#6D6E71"/>
                </g>
                <g id="Group_24">
                <path id="Vector_109" d="M267.303 32.3424L265.884 33.8397C273.585 46.0373 265.939 59.6129 265.698 60.0349C277.027 44.307 267.303 32.3424 267.303 32.3424Z" fill="#58595B"/>
                </g>
                <g id="Group_25">
                <path id="Vector_110" d="M253.37 24.246L249.817 25.5368L249.804 25.5449C253.101 32.157 257.464 29.0102 257.464 29.0102C256.023 27.9708 254.286 26.3708 253.37 24.246Z" fill="#6D6E71"/>
                </g>
                <g id="Group_26">
                <path id="Vector_111" d="M262.05 32.58C261.411 31.8513 260.676 31.137 259.836 30.4394C259.836 30.4394 260.216 44.0984 251.843 52.9317L251.826 52.9158C243.455 61.7476 229.795 62.1014 229.795 62.1014C230.543 62.9076 231.302 63.6068 232.07 64.2114C233.387 64.103 246.072 62.8709 253.439 54.4442C261.465 46.6326 262.013 33.8852 262.05 32.58Z" fill="#939598"/>
                </g>
                <g id="Group_27" opacity="0.2">
                <path id="Vector_112" d="M252.864 55.0699C252.719 55.2239 252.57 55.3732 252.421 55.5216C252.572 55.3728 252.72 55.2222 252.864 55.0699Z" fill="#939598"/>
                <path id="Vector_113" d="M262.05 32.5801C262.013 33.885 261.465 46.6326 253.439 54.444C253.389 54.5006 253.337 54.5531 253.287 54.6091C260.336 46.7564 260.844 35.0625 260.879 33.8152C260.538 33.4256 260.166 33.0403 259.768 32.6591C259.859 31.274 259.836 30.4397 259.836 30.4397C260.676 31.137 261.411 31.8514 262.05 32.5801Z" fill="#939598"/>
                <path id="Vector_114" d="M250.673 54.1666L250.656 54.1506C244.351 60.8025 235.048 62.6442 230.839 63.1486C230.489 62.8206 230.141 62.4733 229.796 62.1009C229.796 62.1009 243.099 61.7501 251.495 53.2486C251.23 53.5597 250.957 53.8665 250.673 54.1666Z" fill="#939598"/>
                </g>
                <g id="Group_28">
                <path id="Vector_115" d="M259.836 30.4393C259.836 30.4393 258.77 29.9557 257.464 29.0102C257.464 29.0102 253.101 32.1568 249.804 25.5449C249.495 24.9249 249.194 24.2178 248.908 23.4155L227.539 17.5587L247.44 36.8005L254.219 33.5904L253.4 38.9246L245.051 43.2631C245.051 43.2631 237.971 35.1343 236.823 33.8455C235.677 32.5555 231.004 33.1772 231.004 33.1772L230.988 33.1625C230.988 33.1625 230.615 37.8613 231.966 38.9375C233.315 40.0159 241.808 46.6488 241.808 46.6488L237.924 55.2204L232.639 56.3218L235.485 49.3825L215.205 30.5356L222.198 51.5628C223.014 51.8059 223.735 52.0666 224.37 52.3412C231.151 55.2793 228.241 59.8075 228.241 59.8075C229.255 61.0611 229.796 62.1005 229.796 62.1005C229.796 62.1005 243.455 61.7467 251.827 52.9148L251.843 52.9308C260.217 44.098 259.836 30.4393 259.836 30.4393Z" fill="#808285"/>
                </g>
                <g id="Group_29" opacity="0.25">
                <path id="Vector_116" d="M237.133 55.3852L236.552 56.6681L231.267 57.7697L234.113 50.8307L216.516 34.4773L215.206 30.5359L235.485 49.3828L232.64 56.3221L237.133 55.3852Z" fill="#808285"/>
                <path id="Vector_117" d="M252.151 39.5738L252.028 40.3722L243.678 44.7107C243.678 44.7107 236.599 36.5822 235.45 35.2931C234.696 34.4429 232.415 34.424 230.942 34.5089C230.945 33.7295 230.988 33.1622 230.988 33.1622L231.004 33.1769C231.004 33.1769 235.678 32.5552 236.823 33.8452C237.971 35.1343 245.051 43.2628 245.051 43.2628L252.151 39.5738Z" fill="#808285"/>
                <path id="Vector_118" d="M257.464 29.0105C258.77 29.9559 259.836 30.4395 259.836 30.4395C259.836 30.4395 260.216 44.0985 251.843 52.9319L251.826 52.916C251.668 53.0836 251.503 53.2429 251.34 53.4047C258.814 44.5773 258.464 31.8874 258.464 31.8874C258.464 31.8874 257.397 31.4038 256.091 30.4584C256.091 30.4584 251.728 33.6049 248.431 26.9931C248.122 26.3731 247.822 25.6659 247.536 24.8636L230.172 20.1044L227.539 17.5589L248.909 23.4157C249.195 24.218 249.495 24.9246 249.804 25.5452C253.101 32.1571 257.464 29.0105 257.464 29.0105Z" fill="#808285"/>
                </g>
                <g id="Group_30">
                <path id="Vector_119" d="M235.216 66.1591C240.501 68.6294 245.829 67.4211 249.532 66.2241C254.523 64.6116 259.449 60.1413 259.449 60.1413L259.464 60.156C259.464 60.156 263.667 54.9967 265.01 49.9295C266.009 46.1661 266.93 40.7835 264.18 35.637C263.628 34.6044 262.926 33.5801 262.05 32.5799C262.013 33.8849 261.465 46.6325 253.438 54.4439C246.072 62.8708 233.387 64.1023 232.069 64.2111C233.108 65.0264 234.161 65.6661 235.216 66.1591Z" fill="#808285"/>
                </g>
                <g id="Group_31" opacity="0.14">
                <path id="Vector_120" d="M251.563 56.4232C246.457 62.2635 238.8 64.647 234.14 65.5961C233.446 65.2027 232.754 64.7483 232.07 64.2108C233.334 64.1064 245.05 62.9649 252.506 55.4388C252.202 55.7733 251.891 56.1035 251.563 56.4232Z" fill="#808285"/>
                <path id="Vector_121" d="M264.18 35.6367C266.93 40.7834 266.009 46.1659 265.01 49.9293C263.668 54.9965 259.465 60.1558 259.465 60.1558L259.449 60.1411C259.449 60.1411 259.089 60.4679 258.467 60.9743C259.774 59.1681 262.178 55.5159 263.134 51.9086C264.133 48.1452 265.054 42.7626 262.304 37.6161C262.113 37.2586 261.897 36.9025 261.669 36.5474C261.978 34.4629 262.039 32.9805 262.051 32.5797C262.927 33.5798 263.628 34.6042 264.18 35.6367Z" fill="#808285"/>
                </g>
                <g id="Group_32">
                <path id="Vector_122" d="M259.661 66.3692C259.252 66.632 246.107 74.9944 233.512 67.9566L232.092 69.4542C232.092 69.4542 244.563 78.5239 259.661 66.3692Z" fill="#58595B"/>
                </g>
                <g id="Group_33">
                <path id="Vector_123" d="M228.241 59.808C228.241 59.808 231.15 55.2799 224.37 52.3417L224.362 52.3564L223.265 55.974C225.436 56.7757 227.126 58.4205 228.241 59.808Z" fill="#6D6E71"/>
                </g>
                </g>
                <path id="Vector_124" d="M277.335 21.8479C284.503 31.4455 286.998 41.5543 284.754 51.8933C282.591 61.8534 276.502 69.4225 273.065 73.0482C273.029 73.0868 272.988 73.119 272.945 73.1447C269.466 76.7897 262.281 83.1704 252.55 85.835C242.344 88.6294 232.117 86.6766 222.149 80.0317C222.046 79.963 221.986 79.8459 221.984 79.7107C221.983 79.5752 222.041 79.4362 222.142 79.3291L234.455 66.3401C233.517 65.8598 232.606 65.2812 231.743 64.6036C230.944 63.9735 230.165 63.2507 229.427 62.4547C229.411 62.4378 229.403 62.4168 229.391 62.3972C229.385 62.3885 229.376 62.3841 229.371 62.3745C229.366 62.3649 228.834 61.3499 227.857 60.1426C226.846 58.8835 225.188 57.2158 223.04 56.4226C222.843 56.3492 222.75 56.1357 222.818 55.9114L223.807 52.6515C223.253 52.4261 222.648 52.2137 221.996 52.02C221.878 51.9846 221.789 51.8983 221.75 51.7815L214.758 30.7534C214.702 30.5854 214.759 30.3852 214.895 30.2413C214.919 30.2163 214.945 30.1926 214.974 30.1717C215.165 30.0297 215.407 30.0259 215.554 30.1627L235.833 49.0094C235.957 49.1236 235.988 49.3135 235.914 49.4939L233.369 55.7037L237.627 54.8157L241.237 46.8497C239.831 45.7507 232.843 40.2912 231.638 39.328C230.173 38.161 230.481 33.7115 230.521 33.2076C230.536 33.019 230.67 32.8441 230.848 32.754C230.926 32.7142 231.01 32.6969 231.089 32.6998C231.824 32.6065 235.996 32.1454 237.195 33.496C238.222 34.6486 244.048 41.3353 245.221 42.6815L252.981 38.6491L253.641 34.3506L247.576 37.223C247.399 37.3068 247.208 37.2851 247.087 37.1683L227.186 17.9263C227.042 17.7864 227.032 17.5451 227.164 17.3461C227.295 17.1476 227.532 17.0446 227.734 17.0999L249.103 22.9569C249.222 22.9897 249.313 23.0739 249.354 23.1894C249.582 23.8284 249.827 24.4222 250.083 24.9658L253.284 23.8035C253.504 23.7234 253.723 23.8044 253.806 23.9968C254.711 26.0933 256.465 27.6617 257.78 28.6092C259.037 29.5193 260.078 29.9965 260.088 30.0014C260.097 30.0053 260.102 30.0141 260.11 30.0186C260.131 30.03 260.152 30.0377 260.171 30.0527C261.008 30.7481 261.766 31.4809 262.425 32.2332C263.157 33.0678 263.789 33.953 264.32 34.8668L276.632 21.8781C276.735 21.7704 276.871 21.7052 277.005 21.6991C277.14 21.6934 277.261 21.7478 277.335 21.8479ZM266.471 33.8417C271.084 41.4023 270.003 49.4277 268.408 54.617C270.608 49.9217 271.249 45.1916 270.296 40.4965C269.52 36.6779 267.868 34.0203 267.205 33.0672L266.471 33.8417ZM271.209 40.1199C272.154 44.7374 272.029 51.9808 266.061 60.2667C266.056 60.2736 266.049 60.2771 266.044 60.2835C266.008 60.33 265.968 60.3707 265.922 60.4035C265.915 60.4084 265.908 60.4117 265.901 60.4163C265.716 60.5389 265.484 60.5491 265.342 60.4141C265.228 60.3067 265.2 60.141 265.248 59.982L265.249 59.9806C265.262 59.9355 265.28 59.8911 265.305 59.8486C265.672 59.2031 272.779 46.3616 265.749 34.6029L264.748 35.6583C267.394 40.88 266.433 46.314 265.461 49.973C264.104 55.099 259.98 60.2014 259.805 60.4157C259.755 60.476 259.693 60.5246 259.625 60.5586C258.87 61.227 254.311 65.15 249.6 66.6725C245.996 67.8371 240.62 69.0863 235.268 66.7255L234.267 67.7812C246.286 74.1188 258.626 66.5148 259.448 65.9908C259.636 65.8583 259.874 65.8532 260.021 65.9926C260.125 66.0909 260.151 66.2389 260.119 66.386C260.118 66.3899 260.117 66.3936 260.116 66.3976C260.103 66.4494 260.084 66.4987 260.055 66.5474C260.046 66.5624 260.036 66.5762 260.026 66.5904C260.01 66.6125 260 66.637 259.981 66.6577C259.966 66.6735 259.945 66.6863 259.927 66.7019C259.921 66.7072 259.918 66.7139 259.912 66.719C251.959 73.122 244.731 73.635 240.069 72.9381C235.881 72.3122 233.021 70.6651 232.097 70.0702L230.925 71.3069C237.887 75.8682 245.787 76.4024 254.42 72.872C261.015 70.1753 265.587 65.9895 265.632 65.948C265.65 65.9308 265.669 65.9155 265.688 65.9014C266.307 65.1215 269.771 60.5961 271.908 54.4547C274.972 45.6452 274.017 37.785 269.091 31.0775L267.918 32.3142C268.562 33.2049 270.36 35.9714 271.209 40.1199ZM230.898 62.5014C231.349 62.9411 231.813 63.3477 232.283 63.7244C234.302 63.5367 246.162 62.114 253.111 54.1672C253.117 54.1604 253.125 54.157 253.132 54.1508C253.137 54.1447 253.139 54.1375 253.145 54.1313C260.744 46.7491 261.502 34.7793 261.576 32.8189C261.182 32.3775 260.757 31.942 260.296 31.5183C260.188 35.0612 259.253 45.7375 252.154 53.2261C252.114 53.2693 252.068 53.3049 252.02 53.3326C244.924 60.7125 234.412 62.2047 230.898 62.5014ZM253.749 54.7378C247.397 61.9897 237.198 64.0112 233.381 64.5293C234.042 64.9744 234.722 65.3673 235.418 65.6961C235.434 65.7008 235.448 65.7122 235.463 65.7189C235.466 65.7203 235.468 65.7219 235.471 65.7227C240.657 68.1469 245.941 66.9136 249.464 65.7748C254.277 64.2196 259.123 59.859 259.172 59.8146C259.187 59.8007 259.203 59.7879 259.22 59.7761C259.845 58.98 263.373 54.36 264.558 49.8841C265.508 46.3072 266.458 40.9675 263.758 35.9139C263.752 35.9017 263.744 35.8899 263.738 35.8778C263.736 35.8738 263.733 35.8709 263.731 35.867C263.363 35.1839 262.928 34.5173 262.439 33.8717C262.131 37.6879 260.669 47.988 253.749 54.7378ZM232.812 69.3168C233.799 69.9281 236.541 71.4362 240.397 72.0055C245.138 72.7062 249.828 71.813 254.4 69.3629C249.303 71.2333 241.344 72.7439 233.545 68.5426L232.812 69.3168ZM228.167 58.9287C228.342 58.4199 228.494 57.666 228.31 56.8132C227.985 55.3083 226.74 54.0362 224.627 53.0205L223.827 55.6578C225.674 56.4274 227.145 57.7646 228.167 58.9287ZM229.303 18.5534L247.596 36.2401L254.085 33.1672C254.239 33.0939 254.407 33.1005 254.528 33.1845C254.649 33.2685 254.708 33.418 254.683 33.5809L253.864 38.9152C253.837 39.0902 253.718 39.2533 253.554 39.3384L245.204 43.6767C245.012 43.7769 244.798 43.7493 244.675 43.6093C244.605 43.528 237.584 35.4675 236.45 34.1939C235.706 33.356 232.892 33.4495 231.427 33.5961C231.36 35.0747 231.423 37.853 232.295 38.5474C233.626 39.6113 242.049 46.1902 242.133 46.2562C242.28 46.371 242.319 46.5827 242.229 46.7797L238.345 55.3513C238.268 55.5196 238.112 55.6479 237.939 55.6841L232.654 56.7854C232.493 56.8191 232.341 56.7684 232.25 56.652C232.16 56.5353 232.145 56.3684 232.209 56.2102L234.932 49.5675L216.293 32.2447L222.585 51.163C223.321 51.3883 224.003 51.6364 224.615 51.9016C227.284 53.058 228.838 54.6011 229.234 56.4879C229.533 57.9148 229.072 59.133 228.799 59.6907C229.468 60.5463 229.908 61.2734 230.103 61.6168C231.919 61.5163 243.996 60.555 251.516 52.6214C251.556 52.5794 251.6 52.5449 251.646 52.517C259.057 44.5803 259.366 32.5832 259.369 30.773C259.015 30.596 258.266 30.1959 257.377 29.5733C256.835 29.8756 255.644 30.4007 254.205 30.1795C252.3 29.886 250.675 28.417 249.377 25.8137C249.077 25.213 248.793 24.5447 248.529 23.824L229.303 18.5534ZM250.495 25.7649C251.623 27.8202 252.959 28.9955 254.48 29.239C255.341 29.377 256.085 29.1847 256.583 28.9826C255.364 28.0211 253.949 26.6221 253.084 24.8243L250.495 25.7649ZM269.806 30.3237C276.236 39.0004 274.985 48.327 272.776 54.6566C270.362 61.5737 266.433 66.3494 266.267 66.5495C266.214 66.6137 266.148 66.6664 266.076 66.702C265.29 67.4053 260.924 71.1624 254.668 73.7279C248.466 76.271 239.219 78.0186 230.211 72.0603L223.171 79.4875C247.572 95.4159 267.024 78.1458 272.429 72.4445C272.465 72.4062 272.505 72.3746 272.548 72.3496C278.052 66.5003 293.945 46.261 276.846 22.8962L269.806 30.3237Z" fill="#231F20"/>
                </g>
                <g id="Group_34">
                <path id="Vector_125" d="M267.706 71.3948L268.41 72.3107C268.626 72.5951 268.842 72.8803 269.052 73.1692C269.419 73.6717 269.723 74.0961 270.017 74.5357L269.693 74.8093C269.316 74.383 268.958 73.9451 268.622 73.5328C268.397 73.2558 268.176 72.9742 267.956 72.6923L267.245 71.7704C267.025 71.4794 266.804 71.1881 266.589 70.8922C266.224 70.3914 265.92 69.9672 265.624 69.525L265.948 69.2514C266.326 69.6789 266.684 70.1166 267.02 70.5287C267.251 70.8146 267.478 71.1043 267.706 71.3948Z" fill="#610F17"/>
                <path id="Vector_126" d="M264.311 74.1182L264.838 75.201C264.993 75.5275 265.149 75.854 265.298 76.1834C265.522 76.6744 265.759 77.2023 265.979 77.7393L265.622 77.96C265.337 77.4601 265.072 76.9531 264.825 76.4767C264.659 76.1566 264.498 75.8326 264.338 75.509L263.822 74.4474C263.663 74.1133 263.504 73.7792 263.35 73.442C263.139 72.978 262.895 72.4368 262.67 71.8855L263.027 71.6654C263.309 72.16 263.576 72.6697 263.824 73.1484C263.99 73.4696 264.15 73.7937 264.311 74.1182Z" fill="#610F17"/>
                <path id="Vector_127" d="M259.853 76.9812L260.379 78.0451C260.538 78.3739 260.698 78.703 260.852 79.0355C261.069 79.5038 261.319 80.0494 261.55 80.6014L261.194 80.8239C260.926 80.3601 260.675 79.8916 260.38 79.3308C260.212 79.0126 260.05 78.6909 259.888 78.3695L259.364 77.3136C259.197 76.9689 259.03 76.6241 258.869 76.2757C258.639 75.7797 258.396 75.2506 258.171 74.7092L258.527 74.487C258.817 74.9876 259.088 75.4989 259.341 75.9798C259.516 76.3114 259.684 76.646 259.853 76.9812Z" fill="#610F17"/>
                <path id="Vector_128" d="M254.999 79.3401L255.264 80.5017C255.343 80.8591 255.422 81.2164 255.495 81.5761C255.605 82.1155 255.72 82.6954 255.817 83.2826L255.436 83.4324C255.282 82.9106 255.145 82.3921 254.989 81.7752C254.896 81.4139 254.81 81.0496 254.724 80.6856L254.461 79.5379C254.378 79.1648 254.296 78.7918 254.22 78.4166C254.091 77.7851 253.987 77.253 253.897 76.7092L254.278 76.5592C254.433 77.0793 254.569 77.5978 254.726 78.2161C254.821 78.5895 254.91 78.9644 254.999 79.3401Z" fill="#610F17"/>
                <path id="Vector_129" d="M250.408 81.1782L250.534 82.2113C250.571 82.5353 250.608 82.859 250.638 83.1847C250.691 83.7481 250.732 84.2221 250.758 84.7057L250.371 84.8199C250.281 84.3555 250.207 83.891 250.124 83.3366C250.076 83.0167 250.034 82.6958 249.992 82.3746L249.863 81.3253C249.826 80.9962 249.789 80.6671 249.758 80.3369C249.714 79.88 249.666 79.3481 249.638 78.8145L250.025 78.7007C250.123 79.2031 250.201 79.7093 250.273 80.185C250.322 80.5147 250.365 80.8462 250.408 81.1782Z" fill="#610F17"/>
                <path id="Vector_130" d="M245.9 81.5556L245.755 82.6655C245.707 83.0149 245.658 83.3646 245.604 83.7148C245.52 84.254 245.436 84.7831 245.331 85.3222L244.945 85.3394C244.982 84.7816 245.039 84.2164 245.09 83.7373C245.126 83.3981 245.168 83.0591 245.209 82.7192L245.357 81.5825C245.406 81.2328 245.454 80.8833 245.508 80.5324C245.584 80.0464 245.674 79.4812 245.781 78.9249L246.168 78.9079C246.134 79.4141 246.085 79.9144 246.023 80.5106C245.985 80.8591 245.942 81.2073 245.9 81.5556Z" fill="#610F17"/>
                <path id="Vector_131" d="M241.352 81.0929L240.99 82.2878C240.882 82.6378 240.773 82.9878 240.66 83.3373C240.486 83.8704 240.298 84.438 240.093 85.0039L239.721 84.9524C239.86 84.3782 240.017 83.8036 240.166 83.2682C240.267 82.9049 240.374 82.5424 240.48 82.1797L240.844 80.9769C240.953 80.6254 241.062 80.2737 241.176 79.9222C241.362 79.3547 241.545 78.8002 241.744 78.2552L242.116 78.307C241.986 78.8432 241.844 79.3682 241.671 79.9918C241.568 80.3588 241.46 80.7261 241.352 81.0929Z" fill="#610F17"/>
                <path id="Vector_132" d="M237.085 80.04L236.427 81.184C236.227 81.5275 236.026 81.8711 235.821 82.2119C235.511 82.7265 235.178 83.2757 234.834 83.8086L234.505 83.6583C234.796 83.087 235.098 82.5319 235.383 82.0127C235.576 81.6616 235.773 81.3129 235.971 80.9646L236.622 79.8328C236.828 79.4789 237.034 79.1259 237.246 78.775C237.552 78.2658 237.884 77.7201 238.232 77.1784L238.562 77.3287C238.272 77.8968 237.969 78.4555 237.683 78.9748C237.487 79.331 237.286 79.6859 237.085 80.04Z" fill="#610F17"/>
                <path id="Vector_133" d="M233.602 78.5132L232.838 79.6193C232.582 79.9835 232.327 80.3477 232.067 80.7085C231.703 81.2153 231.309 81.7586 230.896 82.2995L230.589 82.1147C230.938 81.5528 231.309 80.9908 231.659 80.4633C231.887 80.1198 232.12 79.7789 232.353 79.4379L233.161 78.269C233.406 77.9207 233.649 77.5721 233.898 77.2257C234.269 76.7127 234.664 76.1674 235.07 75.6364L235.377 75.8212C235.021 76.3933 234.653 76.9507 234.307 77.4723C234.075 77.8213 233.839 78.1671 233.602 78.5132Z" fill="#610F17"/>
                <path id="Vector_134" d="M230.267 76.5251L228.823 78.0654C228.646 78.2519 228.468 78.4386 228.289 78.6237C227.807 79.1226 227.292 79.6535 226.762 80.1733L226.501 79.9307C226.994 79.3551 227.504 78.7881 227.943 78.3018C228.261 77.9491 228.583 77.6003 228.906 77.2515L230.345 75.715C230.532 75.518 230.72 75.3217 230.908 75.1264C231.39 74.6267 231.909 74.0927 232.436 73.5763L232.697 73.8189C232.209 74.3886 231.716 74.9386 231.255 75.448C230.929 75.8093 230.598 76.1674 230.267 76.5251Z" fill="#610F17"/>
                <path id="Vector_135" d="M272.988 69.0476C272.692 68.8557 272.401 68.659 272.11 68.4622L271.133 67.7913C270.835 67.5828 270.536 67.3739 270.242 67.1602C269.834 66.863 269.36 66.5159 268.91 66.1594L269.166 65.8215C269.664 66.1166 270.158 66.435 270.582 66.7111C270.892 66.9121 271.197 67.118 271.502 67.3247L272.446 67.9746C272.741 68.181 273.036 68.387 273.327 68.5986C273.734 68.8945 274.207 69.2402 274.66 69.5993L274.404 69.9372C273.905 69.6403 273.411 69.3224 272.988 69.0476Z" fill="#610F17"/>
                <path id="Vector_136" d="M275.797 65.1395C275.462 65.0086 275.13 64.8719 274.798 64.7351L273.725 64.2833C273.378 64.1336 273.031 63.9841 272.687 63.8281C272.115 63.5701 271.636 63.3489 271.163 63.1115L271.364 62.7434C271.924 62.9379 272.478 63.153 272.954 63.3393C273.302 63.4761 273.647 63.6182 273.992 63.7609L275.083 64.2209C275.411 64.3622 275.739 64.5038 276.064 64.651C276.634 64.9085 277.111 65.1289 277.588 65.3681L277.388 65.7359C276.827 65.5423 276.273 65.3263 275.797 65.1395Z" fill="#610F17"/>
                <path id="Vector_137" d="M278.406 60.5459C278.068 60.4109 277.732 60.2701 277.397 60.129L276.275 59.6469C275.94 59.5003 275.606 59.3533 275.274 59.2011C274.78 58.9738 274.255 58.73 273.74 58.4676L273.943 58.1007C274.507 58.3012 275.066 58.5219 275.544 58.7131C275.895 58.8538 276.243 59 276.59 59.1465L277.681 59.6157C278.014 59.7615 278.346 59.9071 278.675 60.059C279.25 60.3232 279.732 60.549 280.21 60.7923L280.007 61.1592C279.456 60.9639 278.914 60.749 278.406 60.5459Z" fill="#610F17"/>
                <path id="Vector_138" d="M280.658 55.0615C280.288 55.0063 279.919 54.9456 279.552 54.8842L278.35 54.6753C277.986 54.6096 277.623 54.5437 277.262 54.4723C276.719 54.3638 276.143 54.2467 275.583 54.113L275.713 53.7245C276.299 53.7894 276.887 53.8739 277.434 53.9556C277.819 54.0129 278.202 54.0764 278.584 54.1402L279.732 54.3404C280.099 54.4069 280.465 54.4732 280.829 54.5454C281.365 54.6524 281.936 54.7682 282.508 54.9046L282.378 55.2932C281.79 55.2274 281.204 55.143 280.658 55.0615Z" fill="#610F17"/>
                <path id="Vector_139" d="M283.622 49.771L283.529 50.1635C283.01 50.1638 282.489 50.1453 282.003 50.1253C281.677 50.1127 281.352 50.0932 281.027 50.0739L280.005 50.0053C279.665 49.9792 279.326 49.9532 278.989 49.9211C278.432 49.8683 277.964 49.8198 277.494 49.7542L277.587 49.3616C278.072 49.3606 278.547 49.376 279.113 49.3993C279.457 49.4131 279.8 49.4338 280.143 49.4544L281.169 49.5251C281.489 49.5493 281.808 49.5736 282.127 49.6043C282.686 49.6569 283.154 49.7054 283.622 49.771Z" fill="#610F17"/>
                <path id="Vector_140" d="M281.246 44.7295C281.584 44.6692 281.922 44.6093 282.261 44.5553C282.853 44.4599 283.35 44.384 283.852 44.3232L283.856 44.7101C283.313 44.8458 282.772 44.9619 282.266 45.0689C281.917 45.1428 281.569 45.2098 281.221 45.2773L280.155 45.4757C279.799 45.5392 279.443 45.6022 279.087 45.6593C278.607 45.7366 278.049 45.8243 277.496 45.8912L277.492 45.5045C278.022 45.3709 278.547 45.2582 279.083 45.1446C279.424 45.0729 279.765 45.007 280.106 44.9408L281.246 44.7295Z" fill="#610F17"/>
                <path id="Vector_141" d="M279.336 40.4408L280.448 40.0396C280.807 39.9125 281.167 39.7852 281.528 39.6643C282.054 39.4871 282.619 39.2997 283.187 39.1303L283.258 39.4987C282.715 39.7295 282.175 39.94 281.623 40.1535C281.26 40.2934 280.897 40.4276 280.533 40.5616L279.44 40.9567C279.072 41.0868 278.704 41.2175 278.335 41.342C277.718 41.5493 277.201 41.7192 276.676 41.8753L276.605 41.5069C277.153 41.273 277.713 41.0548 278.24 40.8514C278.605 40.7104 278.971 40.5755 279.336 40.4408Z" fill="#610F17"/>
                <path id="Vector_142" d="M277.883 36.3241L279.02 35.5867C279.353 35.3743 279.685 35.1614 280.019 34.9534C280.5 34.6549 281.06 34.3096 281.616 33.9881L281.784 34.3085C281.303 34.6575 280.819 34.989 280.242 35.3792C279.902 35.6104 279.559 35.8358 279.216 36.0615L278.177 36.7366C277.822 36.9642 277.467 37.1919 277.109 37.4138C276.604 37.7277 276.061 38.0622 275.512 38.3799L275.344 38.0595C275.852 37.6915 276.363 37.3422 276.886 36.9875C277.217 36.7631 277.55 36.5435 277.883 36.3241Z" fill="#610F17"/>
                <path id="Vector_143" d="M276.229 32.8833L277.253 32.0926C277.592 31.8333 277.931 31.5739 278.273 31.3196C278.776 30.9448 279.317 30.5453 279.865 30.1626L280.066 30.4592C279.542 30.9065 279.004 31.3412 278.54 31.7135C278.198 31.9883 277.853 32.2582 277.509 32.5284L276.475 33.328C276.126 33.5947 275.778 33.8607 275.427 34.122C274.95 34.4773 274.394 34.8881 273.835 35.2791L273.634 34.9825C274.147 34.5438 274.669 34.1223 275.159 33.7278C275.514 33.4429 275.871 33.163 276.229 32.8833Z" fill="#610F17"/>
                <path id="Vector_144" d="M277.722 26.4458C277.236 26.9952 276.73 27.5431 276.255 28.0528C276.088 28.233 275.919 28.412 275.75 28.5904L274.256 30.1489C273.92 30.4952 273.583 30.8415 273.243 31.1841C272.727 31.7009 272.221 32.2067 271.692 32.7097L271.436 32.4618C271.891 31.9462 272.351 31.4462 272.902 30.8546C273.079 30.6651 273.256 30.4766 273.435 30.2885L274.935 28.7253C275.26 28.3904 275.586 28.055 275.915 27.7244C276.404 27.2332 276.929 26.7084 277.466 26.198L277.722 26.4458Z" fill="#610F17"/>
                </g>
                </g>
            </TMPL_IF>
            <TMPL_IF NAME="HAT_FIVE">
                <g id="VikingHat">
                <path id="Vector_30" d="M273.031 57.3141C267.963 67.6179 255.978 72.0961 245.198 66.7934L263.551 29.4803C274.331 34.783 278.099 47.0103 273.031 57.3141Z" fill="#6D6D6C"/>
                <g id="Group_11">
                <path id="Vector_31" d="M275.757 54.0193L272.069 61.5171L252.836 52.0566L256.524 44.5588L275.757 54.0193Z" fill="#B2B2B2"/>
                </g>
                <path id="Vector_32" d="M275.533 44.2635C288.664 32.6181 301.005 45.2053 301.005 45.2053L302.631 44.162C302.631 44.162 297.716 29.8837 286.399 28.5483C275.082 27.2129 269.677 33.4633 269.677 33.4633L275.533 44.2635Z" fill="#939190"/>
                <path id="Vector_33" d="M264.158 67.3888C262.95 84.899 280.545 86.975 280.545 86.975L280.694 88.9222C280.694 88.9222 266.308 93.7375 258.343 85.5885C250.377 77.439 252.029 69.3425 252.029 69.3425L264.158 67.3888Z" fill="#939190"/>
                <path id="Vector_34" d="M264.733 27.8703L244.7 68.599L243.642 68.0787L263.675 27.3499L264.733 27.8703Z" fill="#898786"/>
                <path id="Vector_35" d="M255.597 23.3765L235.564 64.1052L234.506 63.5849L254.539 22.8561L255.597 23.3765Z" fill="#898786"/>
                <g id="Group_12">
                <path id="Vector_36" d="M244.053 66.6981C244.399 65.9946 245.249 65.7048 245.953 66.0508C246.657 66.3969 246.946 67.2478 246.6 67.9513C246.254 68.6549 245.403 68.9447 244.7 68.5986C243.996 68.2525 243.707 67.4017 244.053 66.6981Z" fill="#898786"/>
                <path id="Vector_37" d="M245.157 64.4523C245.503 63.7487 246.354 63.4589 247.058 63.805C247.761 64.1511 248.051 65.0019 247.705 65.7055C247.359 66.409 246.508 66.6988 245.805 66.3528C245.101 66.0067 244.811 65.1558 245.157 64.4523Z" fill="#898786"/>
                <path id="Vector_38" d="M246.262 62.2062C246.608 61.5026 247.459 61.2128 248.162 61.5589C248.866 61.905 249.156 62.7558 248.81 63.4594C248.464 64.1629 247.613 64.4527 246.909 64.1067C246.206 63.7606 245.916 62.9097 246.262 62.2062Z" fill="#898786"/>
                <path id="Vector_39" d="M247.367 59.9603C247.713 59.2568 248.564 58.967 249.267 59.3131C249.971 59.6591 250.26 60.51 249.914 61.2135C249.568 61.9171 248.717 62.2069 248.014 61.8608C247.31 61.5148 247.021 60.6639 247.367 59.9603Z" fill="#898786"/>
                <path id="Vector_40" d="M248.471 57.7145C248.817 57.0109 249.668 56.7211 250.372 57.0672C251.075 57.4133 251.365 58.2642 251.019 58.9677C250.673 59.6712 249.822 59.961 249.119 59.615C248.415 59.2689 248.125 58.418 248.471 57.7145Z" fill="#898786"/>
                <path id="Vector_41" d="M249.576 55.4685C249.922 54.765 250.773 54.4752 251.477 54.8212C252.18 55.1673 252.47 56.0182 252.124 56.7217C251.778 57.4253 250.927 57.7151 250.223 57.369C249.52 57.0229 249.23 56.1721 249.576 55.4685Z" fill="#898786"/>
                <path id="Vector_42" d="M250.681 53.2227C251.027 52.5191 251.878 52.2293 252.581 52.5754C253.285 52.9215 253.575 53.7723 253.228 54.4759C252.882 55.1794 252.032 55.4692 251.328 55.1231C250.624 54.7771 250.335 53.9262 250.681 53.2227Z" fill="#898786"/>
                <path id="Vector_43" d="M251.785 50.9768C252.131 50.2733 252.982 49.9835 253.686 50.3295C254.389 50.6756 254.679 51.5265 254.333 52.23C253.987 52.9336 253.136 53.2234 252.433 52.8773C251.729 52.5312 251.439 51.6804 251.785 50.9768Z" fill="#898786"/>
                <path id="Vector_44" d="M252.89 48.7307C253.236 48.0272 254.087 47.7374 254.791 48.0834C255.494 48.4295 255.784 49.2804 255.438 49.9839C255.092 50.6875 254.241 50.9773 253.537 50.6312C252.834 50.2851 252.544 49.4343 252.89 48.7307Z" fill="#898786"/>
                <path id="Vector_45" d="M253.995 46.485C254.341 45.7814 255.192 45.4916 255.895 45.8377C256.599 46.1838 256.888 47.0347 256.542 47.7382C256.196 48.4417 255.346 48.7315 254.642 48.3855C253.938 48.0394 253.649 47.1885 253.995 46.485Z" fill="#898786"/>
                <path id="Vector_46" d="M255.099 44.2389C255.445 43.5354 256.296 43.2456 257 43.5916C257.703 43.9377 257.993 44.7886 257.647 45.4921C257.301 46.1957 256.45 46.4854 255.747 46.1394C255.043 45.7933 254.753 44.9424 255.099 44.2389Z" fill="#898786"/>
                <path id="Vector_47" d="M256.204 41.993C256.55 41.2895 257.401 40.9997 258.105 41.3458C258.808 41.6918 259.098 42.5427 258.752 43.2463C258.406 43.9498 257.555 44.2396 256.851 43.8935C256.148 43.5475 255.858 42.6966 256.204 41.993Z" fill="#898786"/>
                <path id="Vector_48" d="M259.518 35.2554C259.864 34.5518 260.715 34.262 261.419 34.6081C262.122 34.9542 262.412 35.805 262.066 36.5086C261.72 37.2121 260.869 37.5019 260.165 37.1559C259.462 36.8098 259.172 35.9589 259.518 35.2554Z" fill="#898786"/>
                <path id="Vector_49" d="M260.623 33.0093C260.969 32.3057 261.82 32.0159 262.523 32.362C263.227 32.7081 263.517 33.559 263.171 34.2625C262.825 34.966 261.974 35.2558 261.27 34.9098C260.567 34.5637 260.277 33.7128 260.623 33.0093Z" fill="#898786"/>
                <path id="Vector_50" d="M257.309 39.7471C257.655 39.0435 258.506 38.7537 259.209 39.0998C259.913 39.4459 260.203 40.2967 259.857 41.0003C259.511 41.7038 258.66 41.9936 257.956 41.6476C257.253 41.3015 256.963 40.4506 257.309 39.7471Z" fill="#898786"/>
                <path id="Vector_51" d="M258.413 37.5012C258.76 36.7977 259.61 36.5079 260.314 36.854C261.017 37.2 261.307 38.0509 260.961 38.7544C260.615 39.458 259.764 39.7478 259.061 39.4017C258.357 39.0556 258.067 38.2048 258.413 37.5012Z" fill="#898786"/>
                <path id="Vector_52" d="M261.728 30.7634C262.074 30.0599 262.924 29.7701 263.628 30.1162C264.332 30.4622 264.621 31.3131 264.275 32.0166C263.929 32.7202 263.078 33.01 262.375 32.6639C261.671 32.3179 261.381 31.467 261.728 30.7634Z" fill="#898786"/>
                <path id="Vector_53" d="M262.832 28.5176C263.178 27.814 264.029 27.5242 264.733 27.8703C265.436 28.2164 265.726 29.0673 265.38 29.7708C265.034 30.4743 264.183 30.7641 263.48 30.4181C262.776 30.072 262.486 29.2211 262.832 28.5176Z" fill="#898786"/>
                </g>
                <g id="Group_13">
                <path id="Vector_54" d="M233.721 61.6163C234.067 60.9128 234.918 60.623 235.622 60.9691C236.325 61.3151 236.615 62.166 236.269 62.8696C235.923 63.5731 235.072 63.8629 234.369 63.5168C233.665 63.1708 233.375 62.3199 233.721 61.6163Z" fill="#898786"/>
                <path id="Vector_55" d="M234.826 59.3705C235.172 58.6669 236.023 58.3771 236.727 58.7232C237.43 59.0693 237.72 59.9202 237.374 60.6237C237.028 61.3272 236.177 61.617 235.473 61.271C234.77 60.9249 234.48 60.074 234.826 59.3705Z" fill="#898786"/>
                <path id="Vector_56" d="M235.931 57.1244C236.277 56.4208 237.128 56.1311 237.831 56.4771C238.535 56.8232 238.825 57.6741 238.479 58.3776C238.133 59.0812 237.282 59.3709 236.578 59.0249C235.875 58.6788 235.585 57.8279 235.931 57.1244Z" fill="#898786"/>
                <path id="Vector_57" d="M237.035 54.8785C237.382 54.175 238.232 53.8852 238.936 54.2313C239.639 54.5773 239.929 55.4282 239.583 56.1318C239.237 56.8353 238.386 57.1251 237.683 56.779C236.979 56.433 236.689 55.5821 237.035 54.8785Z" fill="#898786"/>
                <path id="Vector_58" d="M238.14 52.6327C238.486 51.9291 239.337 51.6394 240.041 51.9854C240.744 52.3315 241.034 53.1824 240.688 53.8859C240.342 54.5895 239.491 54.8792 238.787 54.5332C238.084 54.1871 237.794 53.3362 238.14 52.6327Z" fill="#898786"/>
                <path id="Vector_59" d="M239.245 50.3868C239.591 49.6833 240.442 49.3935 241.145 49.7396C241.849 50.0856 242.139 50.9365 241.793 51.6401C241.447 52.3436 240.596 52.6334 239.892 52.2873C239.189 51.9413 238.899 51.0904 239.245 50.3868Z" fill="#898786"/>
                <path id="Vector_60" d="M240.35 48.1408C240.696 47.4372 241.546 47.1474 242.25 47.4935C242.954 47.8395 243.243 48.6904 242.897 49.394C242.551 50.0975 241.7 50.3873 240.997 50.0412C240.293 49.6952 240.003 48.8443 240.35 48.1408Z" fill="#898786"/>
                <path id="Vector_61" d="M241.454 45.8949C241.8 45.1914 242.651 44.9016 243.355 45.2476C244.058 45.5937 244.348 46.4446 244.002 47.1481C243.656 47.8517 242.805 48.1415 242.101 47.7954C241.398 47.4493 241.108 46.5984 241.454 45.8949Z" fill="#898786"/>
                <path id="Vector_62" d="M242.559 43.6489C242.905 42.9454 243.756 42.6556 244.459 43.0017C245.163 43.3477 245.453 44.1986 245.107 44.9021C244.761 45.6057 243.91 45.8955 243.206 45.5494C242.503 45.2034 242.213 44.3525 242.559 43.6489Z" fill="#898786"/>
                <path id="Vector_63" d="M243.664 41.4031C244.01 40.6995 244.861 40.4097 245.564 40.7558C246.268 41.1019 246.557 41.9527 246.211 42.6563C245.865 43.3598 245.014 43.6496 244.311 43.3036C243.607 42.9575 243.318 42.1066 243.664 41.4031Z" fill="#898786"/>
                <path id="Vector_64" d="M244.768 39.1571C245.114 38.4536 245.965 38.1638 246.669 38.5098C247.372 38.8559 247.662 39.7068 247.316 40.4103C246.97 41.1139 246.119 41.4037 245.416 41.0576C244.712 40.7115 244.422 39.8607 244.768 39.1571Z" fill="#898786"/>
                <path id="Vector_65" d="M245.873 36.9113C246.219 36.2077 247.07 35.9179 247.773 36.264C248.477 36.6101 248.767 37.4609 248.421 38.1645C248.075 38.868 247.224 39.1578 246.52 38.8117C245.817 38.4657 245.527 37.6148 245.873 36.9113Z" fill="#898786"/>
                <path id="Vector_66" d="M249.187 30.1736C249.533 29.47 250.384 29.1802 251.087 29.5263C251.791 29.8724 252.081 30.7233 251.735 31.4268C251.389 32.1303 250.538 32.4201 249.834 32.0741C249.131 31.728 248.841 30.8771 249.187 30.1736Z" fill="#898786"/>
                <path id="Vector_67" d="M250.292 27.9277C250.638 27.2242 251.489 26.9344 252.192 27.2805C252.896 27.6265 253.185 28.4774 252.839 29.181C252.493 29.8845 251.643 30.1743 250.939 29.8282C250.235 29.4822 249.946 28.6313 250.292 27.9277Z" fill="#898786"/>
                <path id="Vector_68" d="M246.978 34.6653C247.324 33.9617 248.175 33.6719 248.878 34.018C249.582 34.3641 249.871 35.215 249.525 35.9185C249.179 36.622 248.329 36.9118 247.625 36.5658C246.921 36.2197 246.632 35.3688 246.978 34.6653Z" fill="#898786"/>
                <path id="Vector_69" d="M248.082 32.4194C248.428 31.7159 249.279 31.4261 249.983 31.7722C250.686 32.1182 250.976 32.9691 250.63 33.6727C250.284 34.3762 249.433 34.666 248.73 34.3199C248.026 33.9739 247.736 33.123 248.082 32.4194Z" fill="#898786"/>
                <path id="Vector_70" d="M251.396 25.6816C251.742 24.9781 252.593 24.6883 253.297 25.0344C254 25.3804 254.29 26.2313 253.944 26.9349C253.598 27.6384 252.747 27.9282 252.044 27.5821C251.34 27.2361 251.05 26.3852 251.396 25.6816Z" fill="#898786"/>
                <path id="Vector_71" d="M252.501 23.4358C252.847 22.7322 253.698 22.4425 254.402 22.7885C255.105 23.1346 255.395 23.9855 255.049 24.689C254.703 25.3926 253.852 25.6823 253.148 25.3363C252.445 24.9902 252.155 24.1393 252.501 23.4358Z" fill="#898786"/>
                </g>
                <path id="Vector_72" d="M263.675 27.35L243.642 68.0787L235.564 64.1052L255.597 23.3765L263.675 27.35Z" fill="#EAC8A7"/>
                <g id="Group_14">
                <path id="Vector_73" d="M241.215 62.3935C240.524 62.0539 239.69 62.3385 239.351 63.0285C239.011 63.7189 239.296 64.5534 239.986 64.8928C240.676 65.2324 241.511 64.948 241.85 64.2581C242.189 63.5674 241.905 62.7329 241.215 62.3935Z" fill="#FCDFC8"/>
                <path id="Vector_74" d="M243.744 57.2514C243.054 56.9118 242.219 57.1964 241.88 57.8863C241.541 58.5763 241.825 59.4117 242.515 59.7511C243.205 60.0907 244.04 59.8063 244.38 59.1159C244.719 58.4255 244.434 57.5907 243.744 57.2514Z" fill="#FCDFC8"/>
                <path id="Vector_75" d="M246.273 52.109C245.583 51.7694 244.748 52.054 244.409 52.744C244.07 53.4344 244.354 54.2694 245.044 54.6087C245.734 54.9483 246.569 54.664 246.909 53.9736C247.248 53.2834 246.963 52.4484 246.273 52.109Z" fill="#FCDFC8"/>
                <path id="Vector_76" d="M249.136 47.1307C248.446 46.7911 247.611 47.0758 247.271 47.7661C246.932 48.4565 247.217 49.2911 247.906 49.6304C248.596 49.9698 249.431 49.6854 249.771 48.9955C250.11 48.3056 249.826 47.4701 249.136 47.1307Z" fill="#FCDFC8"/>
                <path id="Vector_77" d="M251.665 41.9889C250.975 41.6493 250.14 41.9339 249.801 42.6238C249.461 43.3142 249.746 44.1492 250.436 44.4886C251.126 44.828 251.96 44.5436 252.3 43.8532C252.64 43.1628 252.355 42.3283 251.665 41.9889Z" fill="#FCDFC8"/>
                <path id="Vector_78" d="M254.194 36.8467C253.504 36.5071 252.669 36.7917 252.33 37.4816C251.991 38.172 252.275 39.007 252.965 39.3464C253.655 39.6858 254.49 39.4014 254.829 38.711C255.169 38.0206 254.884 37.1861 254.194 36.8467Z" fill="#FCDFC8"/>
                <path id="Vector_79" d="M256.724 31.7045C256.033 31.3649 255.199 31.6495 254.859 32.3399C254.52 33.0303 254.804 33.8648 255.494 34.2042C256.184 34.5435 257.019 34.2592 257.358 33.5692C257.698 32.8788 257.414 32.0438 256.724 31.7045Z" fill="#FCDFC8"/>
                <path id="Vector_80" d="M259.253 26.5623C258.563 26.2227 257.728 26.5073 257.389 27.1972C257.049 27.8876 257.333 28.7226 258.023 29.062C258.713 29.4013 259.548 29.117 259.888 28.4266C260.227 27.7366 259.943 26.9016 259.253 26.5623Z" fill="#FCDFC8"/>
                </g>
                <path id="Vector_81" d="M288.302 32.4451C295.094 34.1151 299.503 39.5639 302.183 44.4497L301.619 44.8115C298.901 40.6728 294.443 35.8678 288.056 35.0188C279.796 33.9214 274.674 36.7827 272.416 38.5136L270.138 34.3116C273.101 32.6041 279.252 30.2201 288.302 32.4451Z" fill="#B2B2B2"/>
                <path id="Vector_82" d="M262.655 84.5874C268.124 88.948 275.13 89.1144 280.636 88.2551L280.579 87.5875C275.642 87.9613 269.114 87.3624 264.543 82.8211C258.632 76.948 257.773 71.1446 257.765 68.2992L253.047 69.0598C253.502 72.4491 255.368 78.7766 262.655 84.5874Z" fill="#B2B2B2"/>
                <g id="Group_15">
                <path id="Vector_83" d="M279.591 42.5103L274.796 45.3242L267.577 33.0219L272.373 30.208L279.591 42.5103Z" fill="#C6C6C6"/>
                </g>
                <g id="Group_16">
                <path id="Vector_84" d="M275.188 44.5399C274.91 44.4047 274.795 44.0704 274.931 43.7934C275.066 43.5163 275.401 43.4013 275.678 43.5369C275.955 43.6721 276.07 44.0065 275.934 44.2835C275.799 44.5606 275.465 44.6752 275.188 44.5399Z" fill="#898786"/>
                <path id="Vector_85" d="M274.277 42.9811C274 42.8459 273.885 42.5115 274.021 42.2346C274.156 41.9575 274.49 41.8425 274.767 41.9781C275.044 42.1133 275.16 42.4477 275.024 42.7246C274.889 43.0018 274.554 43.1168 274.277 42.9811Z" fill="#898786"/>
                <path id="Vector_86" d="M273.367 41.4228C273.09 41.2876 272.975 40.9532 273.111 40.6762C273.246 40.3991 273.581 40.2841 273.857 40.4198C274.135 40.555 274.25 40.8894 274.114 41.1663C273.979 41.443 273.645 41.558 273.367 41.4228Z" fill="#898786"/>
                <path id="Vector_87" d="M272.457 39.8638C272.18 39.7286 272.065 39.3942 272.201 39.1173C272.336 38.8402 272.67 38.7252 272.947 38.8608C273.224 38.9965 273.339 39.3304 273.204 39.6073C273.069 39.884 272.734 39.999 272.457 39.8638Z" fill="#898786"/>
                <path id="Vector_88" d="M271.548 38.3051C271.27 38.1699 271.155 37.8355 271.291 37.5586C271.427 37.2817 271.761 37.1664 272.038 37.3021C272.315 37.4373 272.43 37.7717 272.294 38.0486C272.159 38.3257 271.825 38.4403 271.548 38.3051Z" fill="#898786"/>
                <path id="Vector_89" d="M270.638 36.7462C270.36 36.611 270.245 36.2767 270.381 35.9997C270.516 35.7226 270.851 35.6076 271.128 35.7432C271.405 35.8784 271.52 36.2128 271.384 36.4897C271.249 36.7669 270.914 36.8819 270.638 36.7462Z" fill="#898786"/>
                <path id="Vector_90" d="M269.728 35.1874C269.451 35.0522 269.336 34.7178 269.471 34.4409C269.607 34.1638 269.941 34.0487 270.218 34.1844C270.495 34.3196 270.61 34.654 270.474 34.9309C270.339 35.208 270.005 35.3231 269.728 35.1874Z" fill="#898786"/>
                <path id="Vector_91" d="M268.818 33.6289C268.54 33.4937 268.425 33.1593 268.561 32.8824C268.696 32.6053 269.031 32.4903 269.308 32.6259C269.584 32.7616 269.7 33.0955 269.564 33.3724C269.429 33.6491 269.095 33.7641 268.818 33.6289Z" fill="#898786"/>
                </g>
                <g id="Group_17">
                <path id="Vector_92" d="M265.29 71.567L251.14 73.3584L250.441 67.8418L264.592 66.0504L265.29 71.567Z" fill="#C6C6C6"/>
                </g>
                <g id="Group_18">
                <path id="Vector_93" d="M264.215 67.119C263.943 66.9739 263.605 67.0766 263.46 67.3487C263.315 67.6209 263.417 67.9588 263.689 68.1043C263.962 68.2494 264.299 68.1467 264.445 67.8746C264.591 67.6026 264.488 67.2641 264.215 67.119Z" fill="#898786"/>
                <path id="Vector_94" d="M262.419 67.2954C262.147 67.1503 261.809 67.2531 261.664 67.5253C261.519 67.7976 261.622 68.1354 261.894 68.281C262.166 68.4261 262.504 68.3233 262.649 68.0513C262.794 67.7783 262.691 67.4405 262.419 67.2954Z" fill="#898786"/>
                <path id="Vector_95" d="M260.623 67.4719C260.351 67.3268 260.013 67.4296 259.868 67.7018C259.723 67.9741 259.825 68.3119 260.098 68.4575C260.37 68.6026 260.708 68.4998 260.853 68.2278C260.998 67.9553 260.895 67.6168 260.623 67.4719Z" fill="#898786"/>
                <path id="Vector_96" d="M258.826 67.6482C258.554 67.5031 258.216 67.6058 258.071 67.8781C257.926 68.1504 258.029 68.4882 258.301 68.6337C258.573 68.7788 258.911 68.6761 259.057 68.404C259.202 68.1318 259.099 67.7933 258.826 67.6482Z" fill="#898786"/>
                <path id="Vector_97" d="M257.03 67.8246C256.758 67.6795 256.42 67.7822 256.275 68.0545C256.13 68.3268 256.233 68.6646 256.505 68.8101C256.777 68.9552 257.115 68.8525 257.261 68.5805C257.405 68.308 257.303 67.9697 257.03 67.8246Z" fill="#898786"/>
                <path id="Vector_98" d="M255.234 68.0011C254.962 67.856 254.624 67.9587 254.479 68.2308C254.334 68.503 254.436 68.8409 254.709 68.9864C254.981 69.1315 255.319 69.0288 255.464 68.7567C255.609 68.4844 255.506 68.1459 255.234 68.0011Z" fill="#898786"/>
                <path id="Vector_99" d="M253.438 68.1775C253.166 68.0324 252.828 68.1351 252.682 68.4071C252.537 68.6794 252.64 69.0172 252.912 69.1628C253.184 69.3079 253.522 69.2052 253.668 68.9331C253.813 68.6606 253.71 68.3225 253.438 68.1775Z" fill="#898786"/>
                <path id="Vector_100" d="M251.642 68.3539C251.37 68.2088 251.032 68.3116 250.886 68.5836C250.741 68.8559 250.844 69.1937 251.116 69.3393C251.388 69.4844 251.726 69.3816 251.871 69.1094C252.017 68.8373 251.914 68.499 251.642 68.3539Z" fill="#898786"/>
                </g>
                </g>
            </TMPL_IF>
            <TMPL_IF NAME="HAT_SIX">
                <g id="StrawHat">
                <path id="Vector" d="M269.571 52.1852C269.855 52.4221 270.022 52.8611 269.988 53.2777C269.832 53.2123 269.676 53.147 269.52 53.0816C269.892 53.8375 269.866 54.8584 269.458 55.5581C269.368 55.3034 269.195 55.0938 268.989 54.9887C269.167 55.2963 269.234 55.6974 269.168 56.0604C268.997 56.0268 268.832 55.9285 268.702 55.7818C269.038 56.1703 269.26 56.7076 269.318 57.2683C269.024 57.6076 268.628 57.8074 268.222 57.821C268.422 58.0205 268.677 58.1311 268.93 58.1276C268.77 58.4559 268.485 58.683 268.176 58.7298C268.352 58.7616 268.528 58.7934 268.704 58.8252C268.514 59.0916 268.325 59.3579 268.135 59.6244C268.592 59.559 268.81 60.4534 268.517 60.8875C268.223 61.3216 267.711 61.3841 267.251 61.416C267.444 61.8423 267.637 62.2687 267.83 62.6951C267.597 62.6809 267.363 62.6669 267.13 62.6527C267.615 63.5005 267.707 64.6655 267.362 65.5879C267.163 65.3693 266.963 65.1508 266.764 64.9323C266.937 65.441 266.985 66.0109 266.9 66.5451C266.739 66.4321 266.6 66.2675 266.501 66.0719C266.707 67.0436 266.571 68.1093 266.135 68.9333C266.027 68.4561 265.803 68.0174 265.5 67.6912C265.592 68.2001 265.685 68.709 265.777 69.2179C265.566 69.0309 265.355 68.8439 265.144 68.6569C265.339 68.9132 265.478 69.2364 265.538 69.5788C265.383 69.4207 265.228 69.2626 265.073 69.1045C265.059 69.8225 265.046 70.5406 265.032 71.2587C264.74 70.7491 264.448 70.2396 264.156 69.73C264.273 70.1974 264.334 70.6852 264.335 71.1712C264.201 70.9245 264.068 70.6779 263.934 70.4312C264.037 71.3308 263.937 72.7133 263.607 73.5094C263.61 72.9103 263.613 72.3111 263.616 71.7121C263.724 72.6782 263.264 73.6809 262.547 74.0416C262.662 73.3435 262.67 72.6148 262.57 71.9061C262.538 72.4011 262.441 72.8874 262.283 73.3392C262.206 73.0974 262.128 72.8557 262.051 72.614C262.099 72.9365 262.027 73.2796 261.859 73.525C261.864 73.2477 261.822 72.9677 261.737 72.7083C261.647 73.6358 261.11 74.4593 260.403 74.7554C260.504 74.1825 260.515 73.5824 260.435 72.9985C260.335 73.5936 260.127 74.1566 259.829 74.6331C259.803 74.2894 259.776 73.9457 259.749 73.6021C259.576 74.0817 259.402 74.5613 259.228 75.0409C259.159 74.619 259.09 74.1971 259.021 73.7752C258.917 74.3384 258.812 74.9016 258.708 75.4648C257.678 74.9033 256.872 73.7147 256.603 72.3597C256.525 72.8618 256.447 73.364 256.369 73.8661C256.18 73.3308 256.069 72.7547 256.044 72.1754C255.912 72.4445 255.781 72.7137 255.65 72.9827C255.519 72.6343 255.455 72.2487 255.465 71.8683C255.199 72.316 254.771 72.6069 254.321 72.6471C254.616 72.0894 254.803 71.4411 254.861 70.7708C254.858 71.497 254.062 71.9657 253.595 71.5161C253.85 71.0506 254.047 70.5334 254.175 69.9891C254.069 70.2965 253.905 70.5713 253.7 70.7855C253.641 70.6326 253.697 70.43 253.818 70.3596C253.498 70.4779 253.142 70.4543 252.827 70.2939C253.108 69.8599 253.286 69.3244 253.338 68.7658C253.122 69.1151 252.83 69.3893 252.5 69.5524C252.456 68.6577 252.722 67.7563 253.217 67.1239C252.807 67.622 252.042 67.9711 251.499 67.7001C251.765 67.7099 252.027 67.5536 252.185 67.2924C251.921 67.2922 251.658 67.292 251.394 67.2918C251.597 67.1414 251.8 66.991 252.003 66.8406C251.747 66.9517 251.472 66.9983 251.199 66.9767C251.115 66.4574 251.225 65.9013 251.489 65.4989C251.278 65.8987 250.85 66.0957 250.473 65.967C250.695 65.5666 250.917 65.1662 251.14 64.7657C250.585 65.1343 249.776 64.6157 249.68 63.8299C249.957 63.4136 250.136 62.8959 250.191 62.3538C249.928 62.3875 249.677 62.5337 249.491 62.7623C249.505 62.2495 249.59 61.7421 249.741 61.269C249.607 61.4056 249.473 61.5422 249.34 61.6788C249.263 60.9458 249.349 60.1925 249.587 59.5258C249.298 59.9468 248.651 59.6387 248.541 59.0915C248.43 58.5443 248.745 57.9846 249.153 57.7621C248.932 57.9101 248.712 58.058 248.491 58.2059C248.373 57.3454 248.482 56.4465 248.797 55.6811C248.496 55.9454 248.196 56.2097 247.896 56.474C248.008 55.8051 248.234 55.1698 248.555 54.6224C248.142 54.7593 247.668 54.6012 247.356 54.2219C247.737 54.09 248.096 53.8652 248.406 53.5637C247.959 53.6231 247.492 53.4976 247.097 53.2113C247.503 53.2897 247.924 53.211 248.287 52.9888C247.77 52.9455 247.261 52.7062 246.845 52.3109C247.021 51.4729 247.465 50.7354 248.059 50.2952C247.66 50.2538 247.256 50.3075 246.876 50.4524C247.119 49.9191 247.461 49.4577 247.867 49.1122C247.567 49.1624 247.268 49.2126 246.969 49.2628C247.303 48.6778 247.737 48.1838 248.236 47.8223C247.426 48.1944 246.422 47.8303 245.877 46.9667C246.292 46.8582 246.708 46.7497 247.124 46.6412C246.809 46.5518 246.495 46.4624 246.181 46.3731C246.456 46.125 246.732 45.8768 247.008 45.6286C246.724 45.6173 246.44 45.606 246.157 45.5947C246.301 45.4568 246.333 45.1696 246.227 44.9794C246.047 44.9015 245.867 44.8236 245.688 44.7457C245.918 44.2658 246.24 43.8568 246.62 43.5613C246.361 43.5324 246.19 43.1084 246.044 42.8351C246.188 42.7926 246.332 42.7502 246.476 42.7078C246.241 42.746 245.989 42.6172 245.84 42.3819C246.072 42.4026 246.304 42.2435 246.411 41.9907C246.063 41.943 245.714 41.8953 245.366 41.8476C245.729 41.4183 246.157 41.0733 246.621 40.8344C246.364 40.8807 246.089 40.7783 245.89 40.5623C246.131 40.5548 246.364 40.42 246.521 40.1982C246.15 40.1941 245.785 39.9004 245.626 39.4778C245.993 39.7268 246.469 39.6853 246.792 39.3761C246.35 39.4235 245.889 39.1603 245.622 38.7088C245.964 38.7947 246.332 38.6681 246.584 38.3779C246.052 38.4189 245.514 37.9361 245.372 37.2909C245.655 37.3097 245.939 37.1701 246.131 36.9177C245.883 36.8823 245.634 36.8469 245.386 36.8116C245.464 36.2359 245.881 35.7698 246.349 35.7331C246.097 35.6533 245.844 35.5734 245.591 35.4936C245.835 35.3337 246.078 35.1738 246.321 35.0138C245.882 34.7466 245.547 34.2142 245.447 33.6205C245.785 33.75 246.151 33.7505 246.484 33.622C246.172 33.5771 245.873 33.3804 245.665 33.0832C245.903 33.0676 246.142 33.0519 246.381 33.0363C245.868 32.7289 245.466 32.1405 245.304 31.4638C245.75 31.3172 246.166 31.0401 246.508 30.6605C246.275 30.619 246.043 30.5776 245.81 30.5362C246.003 30.357 246.197 30.1778 246.39 29.9986C246.04 29.824 245.747 29.4685 245.598 29.0366C245.823 28.9495 246.067 28.9329 246.301 28.9886C245.941 28.604 245.502 28.3366 245.041 28.2214C245.585 27.9609 246.166 27.8143 246.752 27.7892C246.341 27.5947 245.931 27.4001 245.52 27.2055C245.726 27.0647 245.932 26.924 246.139 26.7831C245.981 26.7442 245.823 26.7053 245.666 26.6665C245.922 26.3676 246.219 26.1219 246.54 25.9418C246.016 25.8405 245.545 25.3446 245.376 24.7149C245.751 24.7951 246.144 24.7166 246.475 24.4956C246.261 24.2864 245.997 24.1609 245.729 24.1418C245.983 23.7017 246.299 23.3186 246.66 23.0144C246.376 23.0418 246.091 23.0692 245.807 23.0967C246.187 22.4601 246.756 22.006 247.383 21.8398C247.02 21.7857 246.656 21.7315 246.293 21.6773C246.616 21.3058 246.908 20.8913 247.161 20.4426C246.935 19.9758 246.709 19.5089 246.484 19.0421C246.93 18.752 247.477 18.7014 247.963 18.9049C247.547 18.4557 247.044 18.2374 246.503 18.1667C246.846 18.15 247.189 18.1332 247.532 18.1164C247.202 17.8657 246.872 17.615 246.542 17.3643C246.858 17.3416 247.175 17.3188 247.492 17.2961C247.283 17.1687 247.074 17.0413 246.865 16.914C247.072 16.8904 247.278 16.8668 247.485 16.8431C247.206 16.6987 246.962 16.444 246.798 16.1257C247.081 15.9488 247.452 16.0071 247.7 16.2673C247.308 15.6578 247.029 14.9379 246.892 14.182C247.29 14.4949 247.688 14.8079 248.086 15.1209C247.631 14.822 247.317 14.2059 247.296 13.5718C247.495 13.6491 247.678 13.793 247.821 13.9843C247.655 13.8202 247.53 13.5926 247.468 13.342C247.696 13.3664 247.924 13.391 248.152 13.4154C248.061 13.5507 247.865 13.3356 247.921 13.1722C247.976 13.0089 248.152 12.97 248.292 13.0115C247.961 12.7001 247.594 12.4469 247.207 12.2623C247.83 11.8232 248.633 11.7934 249.293 12.1851C248.777 11.9843 248.287 11.6694 247.853 11.2598C248.296 10.9743 248.828 10.9013 249.319 11.0584C248.983 10.8996 248.689 10.6015 248.494 10.2238C248.761 10.2051 249.027 10.1863 249.294 10.1676C249.186 9.99911 249.079 9.8307 248.971 9.66221C249.226 9.64492 249.469 9.47665 249.613 9.21746C249.429 8.93692 249.246 8.65637 249.063 8.37583C249.639 8.45905 250.201 8.72503 250.681 9.14166C250.514 8.40111 250.348 7.66047 250.181 6.91991C250.508 7.11279 250.835 7.30574 251.162 7.49862C251.215 7.10321 251.184 6.68762 251.071 6.30632C251.265 6.24333 251.459 6.18034 251.653 6.11727C251.724 5.80532 251.677 5.45162 251.529 5.17766C251.696 5.24071 251.882 5.21662 252.032 5.11251C251.926 4.93464 251.821 4.75685 251.716 4.57898C252.281 4.55568 252.857 4.87919 253.225 5.42751C253.125 4.34608 252.867 3.28245 252.468 2.30468C253.217 2.37086 253.941 2.89448 254.367 3.67775C254.265 3.06357 254.163 2.4493 254.061 1.83512C254.307 2.07066 254.554 2.30612 254.801 2.54166C254.819 2.16469 254.918 1.79692 255.085 1.48635C255.199 1.63732 255.312 1.78837 255.425 1.93943C255.432 1.68751 255.439 1.43567 255.446 1.18375C255.682 1.28438 255.876 1.53664 255.946 1.83482C256.191 1.28782 256.503 0.787921 256.866 0.356144C256.815 0.876831 256.836 1.41068 256.928 1.92735C257.379 1.49825 257.79 1.0024 258.147 0.452917C258.263 1.06475 258.29 1.70005 258.226 2.31779C258.345 1.9553 258.566 1.64918 258.843 1.4639C258.914 1.41601 259.011 1.37971 259.072 1.44955C259.134 1.51938 259.036 1.67913 258.989 1.59422C259.102 1.46761 259.102 1.2147 258.988 1.08107C259.002 1.33264 259.49 1.6838 259.504 1.93537C259.584 1.72919 259.733 1.56829 259.909 1.49914C259.847 1.69731 259.786 1.8954 259.724 2.09358C259.833 1.95876 260.002 1.90498 260.153 1.95754C260.104 2.19001 260.056 2.42248 260.007 2.65495C260.469 2.32874 260.849 1.83191 261.089 1.24177C261.228 2.23964 260.978 3.29772 260.433 4.02439C260.77 3.76442 261.068 3.42635 261.307 3.03172C261.261 3.64723 261.132 4.25031 260.926 4.80755C261.031 4.57153 261.229 4.4051 261.446 4.37009C261.371 4.75239 261.226 5.11096 261.025 5.41048C261.69 4.97543 262.199 4.19711 262.408 3.29559C262.598 4.23308 262.426 5.26186 261.957 6.00842C262.136 5.75986 262.376 5.58051 262.638 5.49932C262.518 5.96415 262.357 6.41141 262.159 6.83071C262.534 6.61533 262.956 6.5228 263.373 6.56454C263.171 6.85135 262.865 7.01882 262.555 7.01182C262.979 6.92957 263.427 7.0134 263.819 7.24878C263.562 7.31336 263.305 7.37786 263.047 7.44236C263.364 7.34452 263.705 7.36234 264.019 7.49318C263.831 7.79399 263.643 8.09488 263.456 8.39569C263.727 8.19292 264.026 8.04851 264.338 7.97052C264.071 8.68852 263.803 9.40644 263.536 10.1244C264.094 9.79191 265.148 10.2616 265.75 10.4878C265.523 10.5241 265.303 10.6155 265.105 10.7554C265.389 10.8495 265.674 10.9435 265.959 11.0377C265.824 11.2103 265.62 11.2952 265.426 11.2599C265.766 11.2053 266.116 11.2309 266.452 11.3348C266.198 11.7938 265.945 12.2529 265.692 12.712C265.962 12.6634 266.231 12.6147 266.501 12.566C266.456 12.7915 266.411 13.0169 266.366 13.2423C266.521 13.1941 266.664 13.097 266.779 12.9625C266.628 13.3978 266.477 13.833 266.326 14.2683C266.622 14.2121 266.96 14.7842 267.259 14.8404C267.182 14.9734 267.105 15.1065 267.028 15.2396C267.146 15.2041 267.263 15.1687 267.38 15.1332C267.283 15.392 267.187 15.6508 267.09 15.9095C267.187 15.8757 267.301 15.9327 267.354 16.0413C267.139 16.431 266.924 16.8207 266.709 17.2105C267.214 17.0392 267.665 16.6479 267.966 16.1192C267.768 17.1128 267.278 18.0027 266.608 18.5843C266.923 18.3243 267.278 18.1392 267.65 18.0415C267.586 18.3295 267.471 18.5981 267.315 18.8227C267.505 18.6666 267.737 18.5888 267.968 18.6036C267.852 18.8712 267.671 19.0933 267.455 19.2348C267.843 18.9448 268.441 19.3192 268.498 19.8874C268.213 19.8045 267.921 19.7671 267.631 19.7768C268.013 19.8194 268.373 20.1302 268.543 20.5625C268.391 20.5925 268.233 20.5727 268.088 20.5054C268.294 20.4705 268.511 20.513 268.702 20.6261C268.448 20.8146 268.195 21.003 267.941 21.1914C268.256 21.182 268.572 21.1726 268.887 21.1633C268.822 21.372 268.68 21.5391 268.509 21.6076C268.715 21.6059 268.92 21.604 269.126 21.6022C269.023 21.8211 268.92 22.0399 268.817 22.2588C268.965 22.2625 269.114 22.2662 269.262 22.2699C269.251 23.1086 268.998 23.9315 268.56 24.5536L269.571 52.1852Z" fill="#E28E26"/>
                <path id="Vector_2" d="M247.572 38.1746C246.491 19.9505 250.357 4.89554 256.208 4.54839C262.059 4.20124 267.678 18.6933 268.76 36.9174C269.842 55.1415 265.975 70.1965 260.124 70.5436C254.274 70.8908 248.654 56.3986 247.572 38.1746Z" fill="#FDBA36"/>
                <path id="Vector_3" opacity="0.47" d="M250.691 10.3594C251.144 10.7494 251.553 11.2053 251.916 11.6693C253.768 14.0365 255.021 17.0645 254.527 20.0292C254.158 22.2483 252.871 24.185 251.806 26.1661C249.712 30.0582 248.388 34.6902 249.739 38.8986C250.883 42.461 253.821 45.3434 254.439 49.0336C254.697 50.5717 254.527 52.1448 254.547 53.7042C254.567 55.2636 254.808 56.9005 255.755 58.1399C256.701 59.3793 258.527 60.053 259.885 59.2858C260.74 58.8023 261.242 57.8803 261.966 57.2164C264.094 55.2677 266.233 55.9552 267.679 57.5807C266.189 65.2948 263.484 70.3443 260.124 70.5437C254.274 70.8908 248.654 56.3987 247.572 38.1746C246.89 26.6741 248.178 16.436 250.691 10.3594Z" fill="#FDE392"/>
                <g id="Group">
                <g id="Group_2">
                <path id="Vector_4" d="M247.459 38.1813C247.983 47.0066 249.579 55.2399 251.954 61.3642C254.345 67.5276 257.248 70.8277 260.131 70.6566C263.014 70.4856 265.507 66.8653 267.152 60.4625C268.785 54.1004 269.397 45.7361 268.873 36.9108C268.349 28.0854 266.753 19.8522 264.378 13.7278C261.988 7.5645 259.084 4.26439 256.201 4.43544C253.318 4.60649 250.825 8.22682 249.181 14.6295C247.547 20.9917 246.936 29.356 247.459 38.1813ZM268.647 36.9242C269.723 55.0568 265.897 70.0878 260.118 70.4307C254.339 70.7736 248.761 56.3006 247.685 38.1679C246.609 20.0353 250.435 5.00432 256.214 4.66142C261.994 4.31853 267.571 18.7916 268.647 36.9242Z" fill="#E28E26"/>
                </g>
                <g id="Group_3">
                <path id="Vector_5" d="M248.132 38.413C248.618 46.6032 250.088 54.2371 252.279 59.9382C254.51 65.7446 257.234 68.8604 259.948 68.7117C261.02 68.6529 262.044 68.0862 262.991 67.0273C266.911 62.6444 269.031 50.5856 268.265 37.0205C268.26 36.9248 268.254 36.8287 268.248 36.7331C267.762 28.5429 266.293 20.9087 264.102 15.2078C261.87 9.40124 259.147 6.28546 256.433 6.43416C255.361 6.49294 254.337 7.05971 253.39 8.1187C249.469 12.5017 247.35 24.5604 248.116 38.1253C248.121 38.221 248.127 38.3175 248.132 38.413ZM268.023 36.7483C268.028 36.8437 268.034 36.9375 268.039 37.0332C268.417 43.7271 268.102 50.1358 267.13 55.5665C266.192 60.803 264.662 64.8196 262.822 66.8762C261.917 67.8888 260.945 68.4303 259.935 68.4856C254.535 68.7816 249.362 55.309 248.358 38.3978C248.352 38.3023 248.347 38.2083 248.342 38.1125C247.964 31.4187 248.278 25.01 249.251 19.5793C250.189 14.3428 251.719 10.3262 253.558 8.26957C254.464 7.25703 255.435 6.71553 256.445 6.6601C261.845 6.3641 267.019 19.837 268.023 36.7483Z" fill="#E28E26"/>
                </g>
                <g id="Group_4">
                <path id="Vector_6" d="M248.804 38.6439C249.253 46.1988 250.597 53.2348 252.604 58.5121C254.676 63.9617 257.22 66.8933 259.765 66.7669C260.771 66.7169 261.733 66.1903 262.625 65.202C266.31 61.1161 268.333 49.8351 267.657 37.1304C267.243 29.3577 265.883 22.0982 263.826 16.6875C261.753 11.2379 259.21 8.30636 256.665 8.43271C255.659 8.48274 254.696 9.00929 253.805 9.99767C250.119 14.0835 248.097 25.3646 248.772 38.0692C248.782 38.261 248.793 38.4529 248.804 38.6439ZM267.399 36.5726C267.411 36.7626 267.421 36.9515 267.431 37.1424C267.764 43.4103 267.45 49.4078 266.523 54.4867C265.629 59.3831 264.184 63.1346 262.456 65.0503C261.607 65.9925 260.697 66.494 259.753 66.5408C254.732 66.7903 249.961 54.318 249.03 38.6272C249.019 38.4371 249.008 38.2482 248.998 38.0574C248.665 31.7895 248.979 25.792 249.907 20.7131C250.801 15.8166 252.245 12.065 253.973 10.1494C254.823 9.20723 255.732 8.70574 256.676 8.6589C261.698 8.40952 266.468 20.8818 267.399 36.5726Z" fill="#E28E26"/>
                </g>
                <g id="Group_5">
                <path id="Vector_7" d="M249.475 38.874C249.886 45.794 251.104 52.2327 252.928 57.086C254.842 62.1788 257.205 64.9261 259.581 64.8221C260.521 64.781 261.422 64.2946 262.258 63.3767C265.709 59.5879 267.634 49.0845 267.049 37.2402C266.693 29.9963 265.449 23.2215 263.549 18.1676C261.636 13.0749 259.273 10.3275 256.897 10.4316C255.957 10.4728 255.056 10.959 254.22 11.8769C250.769 15.6657 248.844 26.1692 249.428 38.0134C249.443 38.3007 249.458 38.5881 249.475 38.874ZM266.777 36.3977C266.794 36.6814 266.809 36.9655 266.824 37.2514C267.406 49.0393 265.504 59.477 262.091 63.2242C261.297 64.0959 260.449 64.5574 259.571 64.5958C254.837 64.8032 250.388 52.8739 249.654 38.0021C249.073 26.2141 250.974 15.7765 254.387 12.0293C255.181 11.1576 256.029 10.6961 256.907 10.6576C261.55 10.4543 265.918 21.9267 266.777 36.3977Z" fill="#E28E26"/>
                </g>
                <g id="Group_6">
                <path id="Vector_8" d="M250.145 39.1028C250.518 45.3885 251.612 51.2305 253.253 55.6598C255.008 60.3957 257.19 62.9589 259.398 62.8772C260.272 62.8449 261.111 62.3988 261.891 61.5514C265.107 58.0596 266.936 48.3339 266.442 37.3502C266.139 30.6318 265.014 24.3446 263.274 19.6476C261.518 14.9117 259.336 12.3485 257.129 12.4302C256.255 12.4626 255.416 12.9086 254.635 13.756C251.419 17.2477 249.591 26.9734 250.085 37.9572C250.102 38.3402 250.122 38.7229 250.145 39.1028ZM266.156 36.2237C266.179 36.6004 266.199 36.9793 266.216 37.3604C266.707 48.2877 264.903 57.9477 261.725 61.398C260.987 62.1994 260.201 62.6209 259.389 62.6509C255.004 62.8132 250.931 51.7316 250.311 37.947C249.819 27.0197 251.624 17.3597 254.802 13.9095C255.54 13.1081 256.326 12.6865 257.137 12.6565C261.402 12.4987 265.37 22.9723 266.156 36.2237Z" fill="#E28E26"/>
                </g>
                <g id="Group_7">
                <path id="Vector_9" d="M250.812 39.3304C251.147 44.9817 252.118 50.2288 253.578 54.2334C255.174 58.6125 257.176 60.9915 259.214 60.9323C260.022 60.9088 260.8 60.5031 261.525 59.7261C264.506 56.5312 266.238 47.5832 265.834 37.4602C265.587 31.2677 264.58 25.468 262.998 21.1277C261.401 16.7488 259.4 14.3697 257.361 14.4289C256.553 14.4523 255.776 14.8581 255.051 15.6351C252.069 18.8299 250.337 27.7779 250.741 37.901C250.76 38.3799 250.784 38.8568 250.812 39.3304ZM265.538 36.0504C265.565 36.5196 265.589 36.9927 265.608 37.4693C266.009 47.5359 264.302 56.4182 261.359 59.5717C260.677 60.3027 259.953 60.6844 259.207 60.7061C255.17 60.8233 251.474 50.5894 250.967 37.8921C250.566 27.8254 252.273 18.9431 255.216 15.7896C255.898 15.0586 256.622 14.6769 257.368 14.6552C261.253 14.5424 264.823 24.0187 265.538 36.0504Z" fill="#E28E26"/>
                </g>
                <g id="Group_8">
                <path id="Vector_10" d="M251.477 39.5553C251.775 44.5735 252.623 49.2273 253.902 52.8071C255.34 56.8292 257.161 59.0241 259.03 58.9875C259.773 58.9729 260.489 58.6073 261.158 57.9009C263.905 55.003 265.54 46.8328 265.226 37.5704C265.035 31.9052 264.145 26.5915 262.722 22.608C261.284 18.5859 259.463 16.391 257.594 16.4277C256.851 16.4422 256.135 16.8078 255.466 17.5142C252.719 20.4122 251.084 28.5824 251.398 37.8447C251.417 38.4188 251.444 38.9896 251.477 39.5553ZM264.921 35.872C264.954 36.4365 264.981 37.0053 265 37.5781C265.311 46.7837 263.702 54.8883 260.994 57.7451C260.368 58.406 259.705 58.7478 259.026 58.7611C257.261 58.7957 255.518 56.6541 254.116 52.7309C252.7 48.7688 251.815 43.4797 251.624 37.8371C251.312 28.6314 252.922 20.5268 255.63 17.67C256.256 17.0091 256.919 16.6673 257.598 16.654C259.363 16.6194 261.106 18.761 262.508 22.6842C263.781 26.2441 264.624 30.8757 264.921 35.872Z" fill="#E28E26"/>
                </g>
                <g id="Group_9">
                <path id="Vector_11" d="M252.139 39.7771C252.399 44.1634 253.126 48.2259 254.227 51.3805C255.505 55.0457 257.146 57.0566 258.846 57.0426C259.523 57.037 260.177 56.7117 260.791 56.0756C263.303 53.4746 264.841 46.0821 264.619 37.6806C264.482 32.542 263.711 27.7149 262.446 24.0883C261.167 20.4231 259.527 18.4123 257.827 18.4263C257.15 18.4318 256.495 18.7571 255.881 19.3932C253.369 21.9943 251.831 29.3867 252.054 37.7882C252.072 38.457 252.1 39.121 252.139 39.7771ZM264.307 35.7042C264.346 36.3585 264.375 37.0197 264.392 37.6867C264.614 46.0314 263.101 53.3581 260.629 55.9184C260.058 56.5092 259.458 56.8112 258.844 56.8163C257.249 56.8294 255.685 54.8726 254.441 51.306C253.183 47.7009 252.416 42.8982 252.28 37.7823C252.059 29.4376 253.571 22.1109 256.044 19.5506C256.614 18.9598 257.215 18.6578 257.828 18.6527C259.424 18.6396 260.988 20.5965 262.232 24.163C263.325 27.2982 264.048 31.3394 264.307 35.7042Z" fill="#E28E26"/>
                </g>
                <g id="Group_10">
                <path id="Vector_12" d="M252.797 39.9943C253.02 43.7502 253.628 47.2249 254.551 49.9538C255.671 53.2621 257.131 55.0889 258.662 55.0977C259.273 55.1012 259.866 54.8161 260.425 54.2504C262.702 51.9459 264.143 45.3314 264.011 37.791C263.93 33.179 263.276 28.8386 262.17 25.5688C261.05 22.2605 259.591 20.4338 258.06 20.425C257.449 20.4215 256.855 20.7065 256.296 21.2723C254.019 23.5768 252.578 30.1913 252.71 37.7316C252.724 38.4945 252.753 39.25 252.797 39.9943ZM263.698 35.5406C263.742 36.2824 263.771 37.0346 263.785 37.795C263.916 45.2784 262.501 51.8273 260.264 54.0913C259.749 54.612 259.211 54.8745 258.663 54.8713C257.236 54.8632 255.852 53.091 254.766 49.8812C253.667 46.633 253.017 42.3166 252.937 37.7277C252.806 30.2444 254.22 23.6955 256.457 21.4315C256.972 20.9108 257.511 20.6483 258.058 20.6515C259.485 20.6596 260.869 22.4318 261.955 25.6415C262.872 28.3514 263.477 31.8056 263.698 35.5406Z" fill="#E28E26"/>
                </g>
                </g>
                <path id="Vector_13" d="M260.553 21.7249C263.709 15.2064 264.92 7.76102 263.994 0.578025C265.152 1.22734 266.043 2.33752 266.427 3.60878C267.08 2.28366 268.077 1.1297 269.292 0.290544C268.254 4.02706 269.447 8.03031 268.95 11.8763C268.357 16.4601 265.444 20.3779 262.439 23.8894L260.553 21.7249Z" fill="#1E2937"/>
                <path id="Vector_14" d="M261.25 25.2347C266.94 20.7557 271.288 14.5922 273.599 7.72852C274.356 8.81943 274.672 10.2079 274.46 11.5189C275.628 10.6135 277.029 10.0123 278.489 9.79011C275.92 12.695 275.241 16.8167 273.11 20.0567C270.571 23.9182 266.237 26.1651 261.998 28.0063L261.25 25.2347Z" fill="#1E2937"/>
                <path id="Vector_15" d="M260.009 53.2566C260.009 53.2566 266.456 52.9875 269.952 52.6667C273.448 52.3459 275.715 52.0525 277.66 48.8072C279.505 45.727 280.234 40.6029 279.998 34.7199C279.763 28.8369 277.866 23.6195 275.638 22.3908C273.411 21.1621 261.288 21.3144 261.288 21.3144C261.288 21.3144 254.013 24.808 254.777 37.6906C255.542 50.5732 260.009 53.2566 260.009 53.2566Z" fill="#E28E26"/>
                <path id="Vector_16" d="M268.658 37.5506C268.652 31.3354 270.357 27.2736 272.578 24.4362C273.588 23.1463 274.72 22.3816 275.954 22.6135C277.901 22.9795 279.776 29.1255 280.005 34.8327C280.241 40.7158 279.508 45.7703 277.666 48.9201C276.939 50.1646 276.05 51.0778 275.042 51.3104C274.311 51.479 273.521 51.1042 272.662 50.4901C270.012 48.5937 268.665 44.2399 268.658 37.5506Z" fill="#FDE392"/>
                <path id="Vector_17" d="M266.199 51.3189C264.539 49.5954 262.525 45.8723 262.363 37.923C262.203 30.2033 264.157 26.1158 265.824 24.0462C267.052 22.5207 268.306 21.8403 268.984 21.5605C269.475 21.5841 269.964 21.6115 270.442 21.6436C269.732 21.8918 268.422 22.5168 267.14 24.0039C265.412 26.0086 263.379 30.0381 263.509 37.8504C263.52 38.5208 263.544 39.1623 263.58 39.7734C263.992 46.7139 265.958 49.9225 267.608 51.4027C268.518 52.2182 269.416 52.5945 270.095 52.7667C270.05 52.771 270.005 52.7754 269.959 52.7796C269.523 52.8197 269.041 52.8588 268.532 52.8968C267.878 52.6528 267.04 52.1914 266.199 51.3189Z" fill="#E28E26"/>
                <path id="Vector_18" d="M262.927 23.9181C261.347 26.1613 259.511 30.4383 259.732 38.0753C259.746 38.5658 259.767 39.0419 259.795 39.5022C260.198 46.3013 261.972 49.8593 263.441 51.6685C263.962 52.311 264.481 52.7813 264.951 53.1258C262.339 53.2726 260.016 53.3696 260.016 53.3696C260.016 53.3696 255.549 50.6862 254.784 37.8036C254.019 24.921 261.295 21.4274 261.295 21.4274C261.295 21.4274 263.058 21.4054 265.362 21.446C264.691 21.9078 263.799 22.6801 262.927 23.9181Z" fill="#EDC594"/>
                <path id="Vector_19" d="M267.361 39.9661C267.316 39.2005 267.291 38.3988 267.287 37.5618C267.258 31.3212 268.561 26.8353 271.16 24.229C272.597 22.788 274.087 22.319 274.897 22.1661C274.985 22.1897 275.069 22.2138 275.147 22.2388C274.44 22.3381 272.812 22.7335 271.241 24.3088C268.663 26.8931 267.371 31.3518 267.4 37.5612C267.43 44.1438 268.826 48.6594 271.436 50.6186C272.58 51.4767 273.742 51.6827 274.556 51.6948C274.482 51.7312 274.408 51.7661 274.333 51.7997C273.518 51.7541 272.436 51.5095 271.371 50.7107C269.025 48.9524 267.68 45.3434 267.361 39.9661Z" fill="#EDC594"/>
                <path id="Vector_20" d="M266.099 39.8391C266.058 39.1458 266.033 38.4117 266.026 37.6368C265.958 29.7121 268.126 25.8496 269.955 24.0048C271.474 22.4735 273.021 22.0394 273.677 21.919C273.791 21.9368 273.901 21.9551 274.009 21.9741L274.01 21.987C273.99 21.988 271.995 22.1093 270.036 24.0845C268.221 25.914 266.072 29.7502 266.14 37.6359C266.208 45.935 268.383 49.3884 270.195 50.8242C271.663 51.9873 273.141 52.0535 273.814 52.0085C273.693 52.052 273.57 52.0923 273.445 52.1305C272.663 52.1189 271.39 51.9144 270.127 50.915C268.465 49.5991 266.501 46.6134 266.099 39.8391Z" fill="#EDC594"/>
                <path id="Vector_21" d="M264.838 39.7777C264.799 39.1239 264.775 38.4358 264.766 37.7118C264.667 29.8457 266.769 25.9006 268.549 23.9764C269.996 22.4125 271.473 21.8913 272.136 21.7268C272.261 21.7394 272.385 21.7523 272.507 21.7657L272.507 21.7684C272.488 21.7703 270.539 21.9918 268.632 24.0531C266.866 25.9623 264.781 29.8815 264.879 37.7103C264.979 45.9816 267.145 49.5211 268.944 51.0331C270.513 52.3518 272.068 52.384 272.562 52.3553C272.382 52.3931 272.197 52.4274 272.008 52.459C271.27 52.3998 270.075 52.13 268.874 51.1222C267.214 49.7288 265.245 46.6355 264.838 39.7777Z" fill="#EDC594"/>
                <path id="Vector_22" d="M263.576 39.7088C263.54 39.0979 263.516 38.4568 263.505 37.7868C263.376 29.9792 265.412 25.9517 267.143 23.9479C268.426 22.4616 269.739 21.8368 270.449 21.5886C270.552 21.5954 270.654 21.6025 270.756 21.6097C270.177 21.7732 268.683 22.3344 267.222 24.0293C265.507 26.0188 263.49 30.0201 263.619 37.7848C263.629 38.4552 263.654 39.0938 263.69 39.7045C264.099 46.5947 266.046 49.778 267.681 51.2433C268.74 52.1927 269.782 52.5361 270.466 52.6578C270.345 52.6701 270.223 52.682 270.099 52.6937C269.419 52.5217 268.519 52.1457 267.609 51.3308C265.956 49.8517 263.988 46.6451 263.576 39.7088Z" fill="#EDC594"/>
                <path id="Vector_23" d="M266.126 51.4056C264.576 49.8021 262.723 46.4837 262.319 39.6906C262.286 39.1266 262.263 38.5383 262.25 37.9255C262.09 30.1717 264.057 26.0595 265.736 23.9753C266.86 22.5799 268.009 21.8811 268.731 21.5488C268.816 21.5526 268.9 21.5566 268.984 21.5606C268.306 21.8404 267.052 22.5209 265.824 24.0463C264.157 26.116 262.203 30.2034 262.363 37.9231C262.525 45.8723 264.539 49.5955 266.199 51.319C267.04 52.1914 267.878 52.6528 268.532 52.8968C268.447 52.9032 268.362 52.9094 268.276 52.9156C267.647 52.6501 266.887 52.1934 266.126 51.4056Z" fill="#EDC594"/>
                <path id="Vector_24" d="M264.783 51.5371C263.274 49.832 261.461 46.3957 261.058 39.6018C261.027 39.0875 261.005 38.5538 260.991 38.0003C260.8 30.305 262.702 26.1104 264.331 23.9467C265.319 22.6348 266.33 21.8894 267.034 21.4854C267.107 21.4876 267.181 21.4899 267.254 21.4922C266.562 21.8629 265.481 22.6082 264.422 24.0148C262.803 26.1642 260.914 30.3348 261.104 37.9975C261.297 45.8196 263.253 49.6319 264.86 51.4531C265.537 52.2208 266.211 52.7074 266.782 53.0167C266.713 53.021 266.644 53.0254 266.574 53.0297C266.03 52.7141 265.408 52.2427 264.783 51.5371Z" fill="#EDC594"/>
                <path id="Vector_25" d="M272.889 25.7292C272.889 25.7292 273.991 23.2824 275.759 24.4249C277.527 25.5674 279.465 31.4628 279.362 37.366C279.254 43.5292 277.652 46.7665 275.951 48.6818C274.251 50.5972 272.476 49.3416 271.977 48.5774C271.478 47.8131 272.889 25.7292 272.889 25.7292Z" fill="#E28E26"/>
                <path id="Vector_26" d="M271.977 48.5773C271.977 48.5773 278.674 44.8912 278.185 36.6418C277.695 28.3925 272.889 25.7291 272.889 25.7291C272.889 25.7291 269.753 30.1256 269.724 37.3706C269.689 46.3315 271.977 48.5773 271.977 48.5773Z" fill="#FDBA36"/>
                <path id="Vector_27" d="M265.69 53.0154L259.829 53.5901C259.829 53.5901 254.584 51.4762 253.779 37.9155C252.974 24.3549 259.435 21.1523 259.435 21.1523L265.82 21.0978C265.82 21.0978 259.142 26.2568 259.725 37.7889C260.376 50.6782 265.69 53.0154 265.69 53.0154Z" fill="#253243"/>
                <path id="Vector_28" opacity="0.47" d="M275.175 42.3592C277.095 42.6733 278.128 33.4793 274.908 31.5275C271.687 29.5757 271.22 41.7124 275.175 42.3592Z" fill="#FDE392"/>
                <path id="Vector_29" d="M264.628 52.8439L260.009 53.2565C260.009 53.2565 255.469 50.5535 254.934 42.9995L259.707 42.6291C259.707 42.6291 260.572 49.8584 264.628 52.8439Z" fill="#3A526D"/>
                </g>
            </TMPL_IF>
        </g>
        </g>
        </g>
</svg>
