<svg width="445" height="550" viewBox="60 -20 270 690" fill="none" xmlns="http://www.w3.org/2000/svg">
        <g id="NativeIsland">
    <g class="invisible" id="Anim1">
        <g id="Pillar2">
        <g id="Rectangle 2">
        <mask id="path-1-inside-1_0_1" fill="white">
        <path d="M21.9999 31.4199H4.00005V544H21.9999V31.4199Z"/>
        </mask>
        <path d="M21.9999 31.4199H4.00005V544H21.9999V31.4199Z" fill="#A45931"/>
        <path d="M21.9999 31.4199H4.00005V544H21.9999V31.4199Z" fill="black" fill-opacity="0.2"/>
        <path d="M4.00005 31.4199H3.00005V30.4199H4.00005V31.4199ZM4.00005 544V545H3.00005V544H4.00005ZM21.9999 32.4199H4.00005V30.4199H21.9999V32.4199ZM5.00005 31.4199V544H3.00005V31.4199H5.00005ZM4.00005 543H21.9999V545H4.00005V543Z" fill="black" mask="url(#path-1-inside-1_0_1)"/>
        </g>
        <path id="Polygon 3" d="M23.7156 30.5H13.0393L10.3781 30.9198L21.9416 30.9198L23.7156 30.5Z" fill="#A45931" stroke="black"/>
        <path id="Polygon 2" d="M27.4999 42.9964V534.989L22.4999 542.37V31.8154L27.4999 30.6321V42.9964Z" fill="#240C0C" stroke="black"/>
        </g>
        <g id="Pillar1">
        <g id="Rectangle 2_2">
        <mask id="path-5-inside-2_0_1" fill="white">
        <path d="M414 31.4199H396V544H414V31.4199Z"/>
        </mask>
        <path d="M414 31.4199H396V544H414V31.4199Z" fill="#A45931"/>
        <path d="M414 31.4199H396V544H414V31.4199Z" fill="black" fill-opacity="0.2"/>
        <path d="M396 31.4199H395V30.4199H396V31.4199ZM396 544V545H395V544H396ZM414 32.4199H396V30.4199H414V32.4199ZM397 31.4199V544H395V31.4199H397ZM396 543H414V545H396V543Z" fill="black" mask="url(#path-5-inside-2_0_1)"/>
        </g>
        <path id="Polygon 3_2" d="M415.716 30.5H405.039L402.378 30.9198L413.942 30.9198L415.716 30.5Z" fill="#A45931" stroke="black"/>
        <path id="Polygon 2_2" d="M419.5 42.9964V534.989L414.5 542.37V31.8154L419.5 30.6321V42.9964Z" fill="#240C0C" stroke="black"/>
        </g>
        <g id="Top_pillar">
        <path id="Polygon 9" d="M430.384 16.9477V27.871L425.5 31.0331L425.5 4.9109L430.384 3.64609V16.9477Z" fill="#240C0C" stroke="black"/>
        <path id="Rectangle 5" d="M424.615 5.02396H0.498993V31.4525H424.615V5.02396Z" fill="#A45931" stroke="black"/>
        <rect id="Rectangle 6" width="17" height="3.04762" transform="matrix(-1 0 0 1 413.999 31.9524)" fill="#240C0C"/>
        <rect id="Rectangle 7" width="17" height="3.04762" transform="matrix(-1 0 0 1 21.9998 31.9524)" fill="#240C0C"/>
        <path id="Polygon 10" d="M427.074 3.5H8.867L5.83334 4.02381H425.052L427.074 3.5Z" fill="#A45931" stroke="black"/>
        </g>
        </g>
    <g class="invisible" id="Anim2">
        <path id="Vector 4" d="M203.761 33C197.761 55.8 201.761 84.8333 203.761 111" stroke="#E6BB93" stroke-width="3"/>
        <g id="Group 7">
        <g id="Group 3">
        <path id="Vector 1" d="M203 33C219.222 33 214.587 2 203 2" stroke="#E6BB93" stroke-width="3"/>
        <path id="Vector 2" d="M203 1.99997C200.75 1.99997 200 1.99998 200 3.47617" stroke="#E6BB93" stroke-width="3"/>
        <path id="Vector 3" d="M203 33C200.75 33 200 33 200 31.5238" stroke="#E6BB93" stroke-width="3"/>
        </g>
        <g id="Group 2">
        <path id="Vector 1_2" d="M201.5 33C212 33 209 2 201.5 2" stroke="#E6BB93" stroke-width="3"/>
        <path id="Vector 2_2" d="M201.5 1.99997C199.25 1.99997 198.5 1.99998 198.5 3.47617" stroke="#E6BB93" stroke-width="3"/>
        <path id="Vector 3_2" d="M201.5 33C199.25 33 198.5 33 198.5 31.5238" stroke="#E6BB93" stroke-width="3"/>
        </g>
        <g id="Group 1">
        <path id="Vector 1_3" d="M209.553 33C227.238 33 222.185 2 209.553 2" stroke="#E6BB93" stroke-width="3"/>
        <path id="Vector 2_3" d="M209.553 1.99997C205.763 1.99997 204.5 1.99998 204.5 3.47617" stroke="#E6BB93" stroke-width="3"/>
        <path id="Vector 3_3" d="M209.553 33C205.763 33 204.5 33 204.5 31.5238" stroke="#E6BB93" stroke-width="3"/>
        </g>
        <g id="Group 1_2">
        <path id="Vector 1_4" d="M192.378 33C197.201 33 195.823 2 192.378 2" stroke="#E6BB93" stroke-width="3"/>
        <path id="Vector 2_4" d="M192.378 1.99997C191.345 1.99997 191 1.99998 191 3.47617" stroke="#E6BB93" stroke-width="3"/>
        <path id="Vector 3_4" d="M192.378 33C191.345 33 191 33 191 31.5238" stroke="#E6BB93" stroke-width="3"/>
        </g>
        <g id="Group 1_3">
        <path id="Vector 1_5" d="M195.5 33C206 33 203 2 195.5 2" stroke="#E6BB93" stroke-width="3"/>
        <path id="Vector 2_5" d="M195.5 1.99997C193.25 1.99997 192.5 1.99998 192.5 3.47617" stroke="#E6BB93" stroke-width="3"/>
        <path id="Vector 3_5" d="M195.5 33C193.25 33 192.5 33 192.5 31.5238" stroke="#E6BB93" stroke-width="3"/>
        </g>
        </g>
        </g>
    <path class="invisible" id="Anim3" d="M202.021 105.651C198.021 119.651 210.521 168.651 214.021 172.151" stroke="<TMPL_VAR NAME="SKIN_COLOR">" stroke-width="4"/>
    <g class="invisible" id="Anim4">
        <path id="Anim4_2" d="M207.521 105.151C214.021 137.151 215.228 168.514 214.021 172.151" stroke="<TMPL_VAR NAME="SKIN_COLOR">" stroke-width="4"/>
        <g id="Group 6">
        <g id="RopeAroundNeck">
        <g id="Group 4">
        <path id="Vector 10" d="M210.045 109.031C210.724 114.783 199.495 118.275 198.884 112.717" stroke="#E5BB93" stroke-width="2"/>
        <path id="Vector 11" d="M198.981 113.101C198.718 111.526 199.951 110.766 200.601 110.583" stroke="#E5BB93" stroke-width="2"/>
        <path id="Vector 12" d="M207.955 108.304C209.527 107.962 210.059 109.21 210.129 109.876" stroke="#E5BB93" stroke-width="2"/>
        </g>
        <g id="Group 5">
        <path id="Vector 10_2" d="M209.674 106.058C209.258 111.87 198.058 112.491 198.502 106.887" stroke="#E5BB93" stroke-width="2"/>
        <path id="Vector 13" d="M209.5 105C206.16 109.088 201.16 108.588 198.328 105.829M209.84 110C206.5 114.088 201.5 113.588 198.668 110.829" stroke="#E5BB93" stroke-width="2"/>
        <path id="Vector 11_2" d="M198.523 107.288C198.564 105.677 199.864 105.239 200.508 105.222" stroke="#E5BB93" stroke-width="2"/>
        <path id="Vector 12_2" d="M207.841 104.824C209.383 104.881 209.655 106.238 209.598 106.909" stroke="#E5BB93" stroke-width="2"/>
        </g>
        <path id="Vector 13_2" d="M199.551 105.349C202.475 106.166 205.877 104.712 208.034 104.971" stroke="#E5BB93" stroke-width="2"/>
        </g>
        <g id="RopeAroundNeck_2">
        <g id="Group 4_2">
        <path id="Vector 10_3" d="M213.069 119.028C213.898 126.123 200.053 130.443 199.306 123.588" stroke="#E5BB93" stroke-width="2"/>
        <path id="Vector 11_3" d="M199.425 124.062C199.103 122.12 200.624 121.181 201.425 120.955" stroke="#E5BB93" stroke-width="2"/>
        <path id="Vector 12_3" d="M210.493 118.135C212.431 117.711 213.086 119.249 213.171 120.071" stroke="#E5BB93" stroke-width="2"/>
        </g>
        <g id="Group 5_2">
        <path id="Vector 10_4" d="M212.615 115.363C212.094 122.531 198.288 123.311 198.842 116.398" stroke="#E5BB93" stroke-width="2"/>
        <path id="Vector 13_3" d="M212.402 114.057C208.279 119.104 202.117 118.493 198.629 115.093M212.815 120.224C208.693 125.271 202.53 124.66 199.042 121.26" stroke="#E5BB93" stroke-width="2"/>
        <path id="Vector 11_4" d="M198.868 116.893C198.921 114.905 200.523 114.364 201.317 114.342" stroke="#E5BB93" stroke-width="2"/>
        <path id="Vector 12_4" d="M210.357 113.842C212.257 113.911 212.591 115.584 212.52 116.412" stroke="#E5BB93" stroke-width="2"/>
        </g>
        <path id="Vector 13_4" d="M200.138 114.5C203.741 115.504 207.936 113.707 210.594 114.024" stroke="#E5BB93" stroke-width="2"/>
        </g>
        </g>
        </g>
    <g class="invisible" id="Anim8">
        <path id="Ellipse 1" d="M181.045 244.32C187.401 235.064 200.315 232.766 209.923 239.365C219.531 245.964 222.022 258.842 215.665 268.098C209.309 277.353 196.395 279.651 186.787 273.052C177.179 266.454 174.688 253.575 181.045 244.32Z" fill="white" stroke="<TMPL_VAR NAME="SKIN_COLOR">" stroke-width="5"/>
        <path id="Vector 5" d="M210.632 254.337C200.889 249.019 201.612 245.966 202.768 243.783" stroke="black" stroke-width="2"/>
        <path id="Vector 6" d="M202.064 266.312C198.563 263.908 194.961 263.151 191.971 263.503" stroke="black" stroke-width="2"/>
        <path id="Vector 7" d="M195.59 268.736C197.995 265.235 197.497 261.459 195.863 260.337" stroke="black" stroke-width="2"/>
        <path id="Vector 8" d="M193.513 254.257C190.333 251.386 186.654 250.028 183.664 249.68" stroke="black" stroke-width="2"/>
        <path id="Vector 9" d="M186.893 255.893C189.137 252.626 189.281 247.916 188.682 245.787" stroke="black" stroke-width="2"/>
        <TMPL_IF NAME="HAT_ONE">
            <g id="Crown">
            <g id="Group_41">
            <path id="Vector_166" d="M191.642 230.915C190.876 238.867 188.938 246.633 185.919 253.965C182.905 244.788 178.309 236.838 172.739 230.479C179.03 230.764 185.333 230.91 191.642 230.915Z" fill="#C28D00"/>
            <path id="Vector_167" d="M177.852 268.884C182.368 262.294 185.865 255.095 188.254 247.534C180.054 252.638 171.428 255.786 163.075 257.088C168.083 260.907 173.01 264.84 177.852 268.884Z" fill="#C28D00"/>
            </g>
            <path id="Vector_168" d="M190.382 239.329C188.793 247.117 186.064 254.63 182.285 261.622C177.011 254.352 170.929 247.988 164.262 242.653C172.839 242.781 181.636 241.69 190.382 239.329Z" fill="#ECAB00"/>
            <g id="Group_42">
            <path id="Vector_169" d="M191.642 230.915C190.876 238.867 188.938 246.633 185.919 253.965C184.718 240.385 179.903 228.485 173.06 219.433C179.525 222.302 185.791 226.148 191.642 230.915Z" fill="#DB9F00"/>
            <path id="Vector_170" d="M177.852 268.884C182.368 262.294 185.865 255.095 188.254 247.534C178.619 257.178 167.29 263.215 156.233 265.766C163.032 267.714 170.306 268.786 177.852 268.884Z" fill="#DB9F00"/>
            </g>
            </g>
        </TMPL_IF>
        <TMPL_IF NAME="HAT_TWO">
            <g id="PirateHat">
            <path id="Vector_152" d="M144.939 217.51C144.939 217.51 151.815 238.685 181.408 237.38C181.408 237.38 169.842 234.091 166.447 225.824C166.375 225.649 163.127 226.269 163.047 226.101C162.971 225.939 166.063 224.989 165.98 224.834C165.162 223.303 164.016 222.046 162.664 221.025C162.47 220.879 160.886 223.292 160.683 223.155C160.436 222.988 161.569 220.273 161.311 220.119C161.108 219.999 160.378 221.28 160.169 221.167C159.91 221.028 160.17 219.498 159.902 219.372C154.924 217.016 148.627 216.808 144.939 217.51Z" fill="#C1272D"/>
            <path id="Vector_153" d="M149.318 220.369C149.318 220.369 149.687 220.719 150.361 221.3C151.035 221.88 152.008 222.698 153.219 223.622C153.818 224.092 154.485 224.578 155.19 225.09C155.894 225.604 156.659 226.115 157.441 226.654C158.244 227.163 159.05 227.723 159.91 228.228C160.763 228.745 161.625 229.273 162.516 229.753C162.958 229.999 163.4 230.244 163.84 230.489C164.288 230.716 164.735 230.944 165.178 231.169C165.623 231.389 166.055 231.627 166.499 231.827C166.942 232.029 167.378 232.229 167.809 232.426C168.24 232.618 168.656 232.825 169.078 232.994C169.5 233.163 169.912 233.329 170.313 233.49C170.714 233.651 171.104 233.808 171.481 233.96C171.861 234.103 172.236 234.223 172.591 234.348C173.304 234.591 173.954 234.823 174.534 235.011C175.122 235.178 175.634 235.322 176.056 235.442C176.898 235.68 177.379 235.817 177.379 235.817L177.428 235.83C177.893 235.962 178.163 236.446 178.032 236.91C177.9 237.375 177.416 237.645 176.952 237.513C176.938 237.509 176.921 237.504 176.907 237.499C176.907 237.499 176.418 237.332 175.562 237.04C175.135 236.893 174.616 236.716 174.021 236.512C173.434 236.287 172.78 236.013 172.063 235.725C171.705 235.577 171.33 235.434 170.949 235.266C170.571 235.09 170.182 234.909 169.781 234.722C169.381 234.536 168.97 234.344 168.549 234.148C168.129 233.954 167.716 233.719 167.288 233.501C166.862 233.278 166.429 233.051 165.99 232.822C165.551 232.594 165.125 232.329 164.686 232.081C164.249 231.829 163.81 231.575 163.368 231.32C162.936 231.049 162.502 230.776 162.069 230.504C161.196 229.971 160.353 229.391 159.522 228.824C158.684 228.268 157.901 227.66 157.122 227.105C156.364 226.521 155.624 225.966 154.945 225.412C154.265 224.86 153.622 224.337 153.047 223.833C151.884 222.842 150.954 221.971 150.311 221.356C149.667 220.739 149.318 220.369 149.318 220.369Z" fill="#AD171C"/>
            <g id="Group_37">
            <g id="Group_38">
            <path id="Vector_154" d="M175.319 218.586C173.216 222.009 177.487 219.505 174.252 228.608C171.017 237.711 154.627 233.133 152.083 246.943C149.539 260.753 166.485 262.315 166.264 271.973C166.044 281.632 162.945 277.77 163.69 281.718C163.972 283.211 166.283 284.519 169.209 284.691C167.553 284.148 165.958 283.96 165.764 282.932C165.019 278.985 168.557 282.095 168.777 272.436C168.997 262.778 152.052 261.215 154.596 247.406C157.139 233.596 173.529 238.174 176.765 229.071C180 219.968 175.587 221.613 177.689 218.19C178.237 217.298 179.794 217.692 181.535 217.774C178.74 216.892 176.114 217.291 175.319 218.586Z" fill="#C5A34C"/>
            <path id="Subtract" fill-rule="evenodd" clip-rule="evenodd" d="M174.992 221.02C174.667 220.398 174.454 219.993 175.319 218.586C177.422 215.163 192.314 217.993 189.321 234.241L189.234 234.714C186.139 234.144 182.108 241.94 180.231 252.128C178.355 262.315 179.344 271.036 182.439 271.606L182.352 272.079C179.359 288.327 164.435 285.665 163.69 281.718C163.384 280.096 163.727 279.792 164.252 279.327C165.006 278.661 166.134 277.663 166.264 271.974C166.361 267.722 163.133 265.04 159.704 262.191C155.343 258.567 150.659 254.674 152.083 246.943C153.507 239.211 159.271 237.243 164.637 235.411C168.856 233.971 172.828 232.614 174.252 228.608C176.158 223.246 175.459 221.911 174.992 221.02Z" fill="#333333"/>
            </g>
            <g id="Group_39">
            <path id="Vector_155" d="M174.334 255.889L164.997 242.835C165.458 242.505 165.565 241.864 165.235 241.403C164.905 240.942 164.263 240.835 163.802 241.165C163.529 241.361 163.381 241.666 163.374 241.979C163.077 241.884 162.74 241.925 162.466 242.121C162.005 242.451 161.898 243.092 162.228 243.553C162.559 244.015 163.2 244.121 163.661 243.791L172.998 256.844C172.536 257.175 172.43 257.816 172.76 258.277C173.09 258.738 173.731 258.844 174.192 258.514C174.466 258.319 174.613 258.013 174.62 257.701C174.918 257.795 175.255 257.754 175.528 257.559C175.99 257.229 176.096 256.587 175.766 256.126C175.436 255.665 174.795 255.559 174.334 255.889Z" fill="#F2F2F2"/>
            <path id="Vector_156" d="M161.992 253.84L175.046 244.503C174.716 244.042 174.822 243.4 175.284 243.071C175.745 242.741 176.386 242.847 176.716 243.308C176.912 243.582 176.953 243.919 176.858 244.217C177.171 244.224 177.476 244.371 177.672 244.645C178.002 245.106 177.895 245.747 177.434 246.077C176.973 246.407 176.331 246.3 176.002 245.839L162.948 255.176C163.278 255.637 163.172 256.279 162.711 256.608C162.25 256.938 161.608 256.832 161.278 256.371C161.083 256.097 161.041 255.761 161.136 255.463C160.824 255.456 160.518 255.308 160.323 255.035C159.992 254.573 160.099 253.932 160.56 253.602C161.021 253.272 161.662 253.379 161.992 253.84Z" fill="#F2F2F2"/>
            <g id="Group_40">
            <path id="Vector_157" d="M173.607 252.124L173.531 252.586C173.501 252.762 173.334 252.883 173.158 252.853L171.574 252.59C171.398 252.561 171.278 252.393 171.307 252.217L171.383 251.756C171.413 251.58 171.581 251.459 171.757 251.488L173.341 251.751C173.516 251.78 173.636 251.948 173.607 252.124Z" fill="#F2F2F2"/>
            <path id="Vector_158" d="M173.8 250.966L173.723 251.428C173.694 251.604 173.526 251.724 173.35 251.695L171.766 251.432C171.59 251.402 171.47 251.235 171.499 251.059L171.576 250.597C171.605 250.421 171.773 250.301 171.949 250.33L173.533 250.593C173.709 250.622 173.829 250.79 173.8 250.966Z" fill="#F2F2F2"/>
            <path id="Vector_159" d="M173.992 249.807L173.915 250.269C173.886 250.445 173.718 250.565 173.542 250.536L171.958 250.273C171.782 250.244 171.662 250.076 171.692 249.9L171.768 249.438C171.797 249.262 171.965 249.142 172.141 249.171L173.725 249.434C173.901 249.463 174.021 249.631 173.992 249.807Z" fill="#F2F2F2"/>
            <path id="Vector_160" d="M174.184 248.648L174.107 249.11C174.078 249.286 173.91 249.407 173.734 249.377L172.15 249.114C171.974 249.085 171.854 248.917 171.884 248.741L171.96 248.279C171.99 248.103 172.157 247.983 172.333 248.012L173.917 248.275C174.093 248.304 174.213 248.472 174.184 248.648Z" fill="#F2F2F2"/>
            </g>
            <path id="Vector_161" d="M173.061 248.759L172.504 252.119C172.416 252.647 172.339 253.078 171.811 252.991L170.282 252.737C169.753 252.65 169.393 252.146 169.481 251.617L170.039 248.257C170.126 247.729 170.63 247.368 171.158 247.456L172.688 247.71C173.215 247.798 173.149 248.23 173.061 248.759Z" fill="white"/>
            <path id="Vector_162" d="M168.623 245.062C171.142 245.48 172.845 247.861 172.427 250.38C172.009 252.898 169.628 254.601 167.109 254.183C164.59 253.765 163.279 251.449 163.697 248.931C164.115 246.412 166.104 244.644 168.623 245.062Z" fill="white"/>
            <path id="Vector_163" d="M169.064 250.464C169.119 250.498 169.332 250.533 169.462 250.599C169.522 250.637 169.578 250.681 169.63 250.729C169.887 250.971 170.022 251.331 169.961 251.704C169.861 252.3 169.294 252.702 168.694 252.603C168.243 252.528 167.902 252.192 167.801 251.777C167.785 251.708 167.774 251.637 167.772 251.564C167.821 251.05 168.426 250.711 168.869 250.489C168.931 250.471 168.997 250.463 169.064 250.464Z" fill="#333333"/>
            <path id="Vector_164" d="M169.272 249.214C169.334 249.2 169.547 249.235 169.691 249.215C169.761 249.198 169.828 249.175 169.892 249.146C170.214 249 170.458 248.703 170.52 248.331C170.619 247.734 170.213 247.17 169.612 247.07C169.162 246.995 168.73 247.203 168.501 247.564C168.462 247.624 168.43 247.688 168.404 247.755C168.284 248.259 168.746 248.774 169.095 249.127C169.148 249.164 169.207 249.193 169.272 249.214Z" fill="#333333"/>
            <path id="Vector_165" d="M171.166 250.665C170.906 250.851 170.371 250.273 170.409 250.043C170.447 249.813 171.149 249.452 171.326 249.699C171.363 250.037 171.187 250.649 171.166 250.665Z" fill="#333333"/>
            </g>
            </g>
            </g>
        </TMPL_IF>
        <TMPL_IF NAME="HAT_THREE">
            <g id="BaseballCap">
            <path id="Vector_145" d="M193.733 270.577C194.623 262.39 187.963 257.063 183.586 251.045C181.824 253.414 181.221 259.304 180.344 262.469C179.505 265.495 177.097 270.524 177.741 273.583C178.358 276.504 181.024 279.558 182.685 281.94C184.271 284.212 186.096 287.476 188.705 288.584C189.76 285.939 189.821 282.356 190.822 279.434C191.798 276.587 193.405 273.597 193.733 270.577Z" fill="#243347"/>
            <path id="Vector_146" d="M160.904 245.152C162.279 243.472 162.289 246.634 161.904 247.458C161.516 248.287 160.425 249.992 160.238 248.046C160.151 247.138 160.3 245.89 160.904 245.152Z" fill="#243347"/>
            <path id="Vector_147" d="M181.478 233.457C184.23 233.311 187.152 233.571 187.742 235.249C188.267 236.743 186.811 240.544 186.499 242.076C185.484 247.055 184.018 251.673 183.251 256.717C182.767 259.898 182.246 263.097 181.77 266.288C181.383 268.898 181.165 274.258 177.939 274.767C175.121 275.211 170.972 272.309 168.75 270.843C165.154 268.473 163.013 264.195 161.727 260.106C161.154 258.28 160.772 256.396 160.613 254.514C160.088 248.366 161.917 242.243 167.034 238.253C169.961 235.968 173.248 234.616 176.879 234.001C177.811 233.844 179.605 233.556 181.478 233.457Z" fill="#32425B"/>
            <g id="Group_35">
            <path id="Vector_148" d="M173.97 270.201C177.498 269.137 175.177 265.64 173.089 264.412C171.887 263.705 170.226 263.214 168.884 263.837C166.755 264.825 168.179 267.666 169.447 268.719C170.602 269.679 172.416 270.69 173.97 270.201Z" fill="white"/>
            </g>
            <path id="Vector_149" d="M188.905 288.532C189.56 286.849 189.991 285.099 190.469 283.361C190.962 281.569 191.498 279.782 192.04 278.004C192.542 276.36 193.239 274.796 193.75 273.157C194.262 271.511 194.475 269.779 194.328 268.061C194.038 264.674 192.38 261.506 190.431 258.794C189.435 257.408 188.33 256.116 187.227 254.817C186.09 253.477 185.017 252.089 183.694 250.922C182.982 250.295 182.028 251.413 182.739 252.039C183.968 253.122 184.97 254.405 186.02 255.655C187.06 256.894 188.107 258.116 189.069 259.419C191.023 262.067 192.6 265.099 192.885 268.429C193.166 271.712 191.538 274.68 190.598 277.725C190.074 279.422 189.607 281.136 189.095 282.837C188.587 284.525 188.223 286.244 187.582 287.892C187.24 288.771 188.561 289.415 188.905 288.532Z" fill="#32425B"/>
            <path id="Vector_150" d="M181.478 233.457C181.787 233.929 182.061 234.431 182.3 234.959C185.148 241.277 181.695 249.77 177.339 254.536C173.857 258.349 168.394 260.419 163.71 257.442C162.669 256.782 161.511 255.73 160.613 254.514C160.088 248.365 161.917 242.243 167.033 238.252C169.96 235.968 173.248 234.616 176.879 234C177.811 233.844 179.605 233.556 181.478 233.457Z" fill="#3D526C"/>
            <g id="Group_36">
            <path id="Vector_151" d="M173.204 269.047C175.488 268.359 173.985 266.095 172.633 265.3C171.855 264.842 170.78 264.525 169.911 264.928C168.532 265.568 169.454 267.407 170.275 268.088C171.023 268.709 172.197 269.364 173.204 269.047Z" fill="#32425B"/>
            </g>
            </g>
        </TMPL_IF>
        <TMPL_IF NAME="HAT_FOUR">
            <g id="GladiatorHelmet">
            <g id="XMLID_99_">
            <g id="Group_19">
            <g id="Group_20">
            <path id="Vector_101" d="M163.246 231.499L169.49 240.875C154.101 255.144 166.583 276.843 166.583 276.843L166.601 276.831C166.601 276.831 181.809 296.714 200.91 288.017L207.153 297.393C182.685 308.226 166.17 293.149 158.774 282.042L158.756 282.054C151.361 270.948 143.815 249.898 163.246 231.499Z" fill="#BE1E2D"/>
            </g>
            <g id="Group_21" opacity="0.57">
            <path id="Vector_102" d="M150.997 255.598C152.065 248.506 155.548 241.102 162.961 234.083L168.282 242.074C168.665 241.67 169.065 241.269 169.49 240.875L163.247 231.499C154.928 239.375 151.556 247.737 150.997 255.598Z" fill="#BE1E2D"/>
            <path id="Vector_103" d="M166.297 279.426L166.316 279.414C166.316 279.414 181.523 299.298 200.624 290.601L205.586 298.052C206.105 297.843 206.627 297.626 207.153 297.393L200.91 288.017C181.808 296.714 166.602 276.83 166.602 276.83L166.583 276.842C166.583 276.842 161.223 267.522 161.859 257.082C160.025 268.517 166.297 279.426 166.297 279.426Z" fill="#BE1E2D"/>
            </g>
            <g id="Group_22">
            <path id="Vector_104" d="M172.746 277.993C185.553 292.543 199.387 285.73 199.387 285.73L200.91 288.017C181.808 296.714 166.601 276.83 166.601 276.83L166.583 276.842C166.583 276.842 154.102 255.143 169.49 240.874L171.013 243.162C171.013 243.162 159.393 253.295 167.877 270.723C167.711 270.266 162.489 255.586 172.157 244.879L173.529 246.94C169.943 251.543 169.933 257.004 170.277 260.883C170.736 266.105 173.999 271.905 173.999 271.905L174.017 271.893C174.017 271.893 178.11 277.137 182.752 279.576C186.198 281.387 191.241 283.485 196.871 281.951L198.243 284.013C184.634 288.802 173.104 278.322 172.746 277.993Z" fill="#6D6E71"/>
            </g>
            <g id="Group_23" opacity="0.1">
            <path id="Vector_105" d="M175.394 280.693C174.293 279.886 173.648 279.301 173.568 279.227C186.375 293.776 200.208 286.963 200.208 286.963L199.387 285.729C199.387 285.729 187.387 291.636 175.394 280.693Z" fill="#6D6E71"/>
            <path id="Vector_106" d="M174.82 273.138L174.838 273.126C174.838 273.126 178.931 278.371 183.574 280.81C187.019 282.62 192.062 284.719 197.692 283.185L196.87 281.951C191.241 283.485 186.197 281.386 182.752 279.576C178.981 277.595 175.574 273.765 174.427 272.395C174.669 272.868 174.82 273.138 174.82 273.138Z" fill="#6D6E71"/>
            <path id="Vector_107" d="M167.227 268.469C167.63 269.597 168.115 270.759 168.699 271.957C168.533 271.5 163.311 256.82 172.978 246.113L172.156 244.879C164.658 253.184 166.117 263.874 167.227 268.469Z" fill="#6D6E71"/>
            <path id="Vector_108" d="M166.583 276.842L166.601 276.83C166.601 276.83 166.741 277.012 167.008 277.332C165.003 273.408 156.609 254.814 170.311 242.108L169.49 240.875C154.101 255.143 166.583 276.842 166.583 276.842Z" fill="#6D6E71"/>
            </g>
            <g id="Group_24">
            <path id="Vector_109" d="M171.013 243.162L172.156 244.879C162.489 255.586 167.711 270.266 167.877 270.723C159.393 253.295 171.013 243.162 171.013 243.162Z" fill="#58595B"/>
            </g>
            <g id="Group_25">
            <path id="Vector_110" d="M186.122 237.558L189.403 239.435L189.415 239.445C185.039 245.399 181.276 241.555 181.276 241.555C182.873 240.776 184.857 239.495 186.122 237.558Z" fill="#6D6E71"/>
            </g>
            <g id="Group_26">
            <path id="Vector_111" d="M176.149 244.291C176.902 243.682 177.748 243.103 178.695 242.559C178.695 242.559 175.993 255.953 182.74 266.084L182.759 266.071C189.504 276.201 202.903 278.876 202.903 278.876C202.03 279.543 201.162 280.103 200.303 280.568C199.023 280.237 186.733 276.861 180.91 267.303C174.331 258.238 175.963 245.583 176.149 244.291Z" fill="#939598"/>
            </g>
            <g id="Group_27" opacity="0.2">
            <path id="Vector_112" d="M181.369 268.017C181.486 268.194 181.607 268.366 181.729 268.538C181.606 268.366 181.486 268.192 181.369 268.017Z" fill="#939598"/>
            <path id="Vector_113" d="M176.149 244.291C175.963 245.583 174.331 258.238 180.91 267.303C180.949 267.367 180.991 267.427 181.031 267.491C175.422 258.552 176.914 246.943 177.092 245.708C177.495 245.382 177.926 245.065 178.384 244.758C178.53 243.377 178.695 242.559 178.695 242.559C177.748 243.103 176.902 243.682 176.149 244.291Z" fill="#939598"/>
            <path id="Vector_114" d="M183.683 267.501L183.702 267.488C188.782 275.117 197.635 278.516 201.697 279.731C202.098 279.467 202.5 279.184 202.903 278.876C202.903 278.876 189.854 276.264 183.029 266.456C183.237 266.808 183.453 267.156 183.683 267.501Z" fill="#939598"/>
            </g>
            <g id="Group_28">
            <path id="Vector_115" d="M178.695 242.559C178.695 242.559 179.828 242.264 181.276 241.555C181.276 241.555 185.039 245.399 189.415 239.445C189.825 238.887 190.241 238.241 190.66 237.499L212.715 235.369L189.826 250.939L183.693 246.621L183.591 252.017L191.08 257.714C191.08 257.714 199.441 250.91 200.792 249.836C202.14 248.76 206.64 250.169 206.64 250.169L206.658 250.157C206.658 250.157 206.225 254.851 204.711 255.681C203.198 256.514 193.698 261.603 193.698 261.603L196.066 270.711L201.086 272.697L199.464 265.374L222.658 250.258L212.185 269.786C211.339 269.887 210.585 270.021 209.912 270.183C202.73 271.923 204.825 276.881 204.825 276.881C203.613 277.943 202.903 278.875 202.903 278.875C202.903 278.875 189.504 276.2 182.759 266.071L182.739 266.083C175.993 255.953 178.695 242.559 178.695 242.559Z" fill="#808285"/>
            </g>
            <g id="Group_29" opacity="0.25">
            <path id="Vector_116" d="M196.817 271.008L197.171 272.371L202.191 274.357L200.569 267.035L220.694 253.918L222.657 250.258L199.463 265.374L201.085 272.697L196.817 271.008Z" fill="#808285"/>
            <path id="Vector_117" d="M184.712 252.869L184.697 253.677L192.186 259.374C192.186 259.374 200.547 252.571 201.898 251.496C202.786 250.787 205.037 251.157 206.474 251.492C206.604 250.723 206.658 250.157 206.658 250.157L206.64 250.169C206.64 250.169 202.14 248.76 200.792 249.836C199.441 250.91 191.08 257.714 191.08 257.714L184.712 252.869Z" fill="#808285"/>
            <path id="Vector_118" d="M181.276 241.555C179.828 242.264 178.695 242.559 178.695 242.559C178.695 242.559 175.993 255.954 182.739 266.084L182.759 266.072C182.887 266.264 183.022 266.449 183.155 266.636C177.293 256.664 179.8 244.219 179.8 244.219C179.8 244.219 180.934 243.925 182.382 243.216C182.382 243.216 186.145 247.059 190.52 241.106C190.93 240.548 191.347 239.902 191.765 239.16L209.687 237.429L212.714 235.369L190.659 237.5C190.241 238.241 189.825 238.887 189.415 239.445C185.039 245.399 181.276 241.555 181.276 241.555Z" fill="#808285"/>
            </g>
            <g id="Group_30">
            <path id="Vector_119" d="M196.871 281.951C191.241 283.485 186.198 281.387 182.752 279.576C178.11 277.137 174.017 271.893 174.017 271.893L173.999 271.905C173.999 271.905 170.736 266.105 170.277 260.883C169.933 257.004 169.943 251.543 173.529 246.94C174.248 246.017 175.115 245.127 176.149 244.291C175.963 245.583 174.331 258.238 180.91 267.303C186.733 276.861 199.023 280.236 200.303 280.568C199.141 281.194 197.994 281.645 196.871 281.951Z" fill="#808285"/>
            </g>
            <g id="Group_31" opacity="0.14">
            <path id="Vector_120" d="M182.421 269.573C186.457 276.197 193.597 279.851 198.027 281.58C198.778 281.31 199.537 280.981 200.303 280.568C199.075 280.249 187.724 277.128 181.66 268.442C181.902 268.823 182.152 269.202 182.421 269.573Z" fill="#808285"/>
            <path id="Vector_121" d="M173.529 246.94C169.943 251.543 169.933 257.004 170.276 260.882C170.736 266.104 173.998 271.904 173.998 271.904L174.016 271.892C174.016 271.892 174.316 272.276 174.842 272.881C173.862 270.878 172.115 266.87 171.788 263.152C171.444 259.274 171.454 253.813 175.04 249.21C175.289 248.891 175.563 248.576 175.848 248.265C175.899 246.159 176.091 244.687 176.148 244.291C175.114 245.127 174.248 246.017 173.529 246.94Z" fill="#808285"/>
            </g>
            <g id="Group_32">
            <path id="Vector_122" d="M172.747 277.994C173.105 278.322 184.634 288.802 198.244 284.013L199.387 285.73C199.387 285.73 185.553 292.543 172.747 277.994Z" fill="#58595B"/>
            </g>
            <g id="Group_33">
            <path id="Vector_123" d="M204.825 276.881C204.825 276.881 202.73 271.924 209.912 270.184L209.917 270.199L210.382 273.951C208.107 274.371 206.16 275.704 204.825 276.881Z" fill="#6D6E71"/>
            </g>
            </g>
            <path id="Vector_124" d="M162.915 231.112C154.217 239.348 150.036 248.884 150.487 259.454C150.921 269.637 155.631 278.133 158.4 282.291C158.43 282.335 158.464 282.374 158.503 282.407C161.309 286.591 167.303 294.103 176.438 298.386C186.018 302.879 196.429 302.697 207.383 297.847C207.497 297.797 207.576 297.692 207.601 297.559C207.625 297.426 207.592 297.279 207.51 297.156L197.59 282.259C198.595 281.946 199.592 281.531 200.558 281.01C201.453 280.525 202.344 279.946 203.206 279.287C203.224 279.273 203.236 279.254 203.251 279.237C203.258 279.229 203.269 279.226 203.275 279.218C203.281 279.209 203.979 278.3 205.147 277.276C206.358 276.208 208.275 274.847 210.528 274.432C210.734 274.393 210.862 274.198 210.833 273.965L210.414 270.585C210.998 270.457 211.631 270.351 212.306 270.271C212.429 270.256 212.531 270.186 212.589 270.078L223.062 250.549C223.145 250.392 223.123 250.185 223.014 250.02C222.994 249.992 222.972 249.964 222.948 249.938C222.783 249.766 222.546 249.721 222.377 249.831L199.184 264.947C199.043 265.038 198.98 265.22 199.022 265.411L200.472 271.963L196.427 270.363L194.227 261.898C195.799 261.055 203.615 256.866 204.967 256.122C206.609 255.221 207.064 250.784 207.11 250.281C207.128 250.093 207.026 249.898 206.866 249.779C206.795 249.726 206.716 249.695 206.637 249.684C205.929 249.467 201.897 248.302 200.484 249.428C199.276 250.389 192.396 255.985 191.011 257.112L184.051 251.817L184.133 247.468L189.621 251.332C189.78 251.445 189.972 251.456 190.111 251.362L213 235.791C213.166 235.678 213.217 235.442 213.12 235.223C213.025 235.006 212.809 234.864 212.601 234.884L190.546 237.015C190.423 237.026 190.32 237.094 190.259 237.201C189.926 237.792 189.583 238.335 189.238 238.827L186.282 237.136C186.078 237.02 185.849 237.062 185.734 237.238C184.486 239.15 182.49 240.396 181.033 241.106C179.639 241.789 178.532 242.081 178.521 242.084C178.512 242.087 178.505 242.094 178.497 242.098C178.474 242.105 178.452 242.109 178.431 242.121C177.488 242.664 176.616 243.256 175.838 243.885C174.975 244.583 174.201 245.348 173.522 246.158L163.602 231.261C163.52 231.138 163.397 231.05 163.266 231.021C163.134 230.993 163.006 231.026 162.915 231.112ZM171.577 244.781C165.744 251.445 165.442 259.538 166.13 264.923C164.761 259.921 164.936 255.151 166.675 250.687C168.089 247.056 170.17 244.719 170.986 243.893L171.577 244.781ZM165.839 250.16C164.121 254.549 163.011 261.708 167.48 270.89C167.483 270.897 167.489 270.902 167.493 270.909C167.521 270.961 167.554 271.008 167.593 271.048C167.599 271.054 167.606 271.059 167.612 271.064C167.773 271.217 168 271.266 168.163 271.158C168.293 271.071 168.349 270.913 168.329 270.748L168.329 270.746C168.323 270.7 168.314 270.653 168.296 270.607C168.044 269.908 163.229 256.043 172.159 245.654L172.965 246.865C169.469 251.559 169.49 257.078 169.824 260.849C170.289 266.131 173.483 271.862 173.619 272.102C173.658 272.17 173.711 272.229 173.773 272.274C174.402 273.061 178.227 277.704 182.609 280.006C185.962 281.768 191.047 283.915 196.723 282.5L197.529 283.711C184.606 287.909 173.742 278.313 173.021 277.657C172.859 277.494 172.625 277.449 172.456 277.561C172.337 277.64 172.286 277.782 172.293 277.932C172.293 277.936 172.293 277.94 172.293 277.944C172.297 277.997 172.308 278.049 172.328 278.102C172.334 278.118 172.342 278.134 172.35 278.149C172.361 278.174 172.367 278.2 172.383 278.223C172.395 278.241 172.413 278.258 172.428 278.276C172.433 278.282 172.435 278.289 172.44 278.296C179.186 285.96 186.221 287.697 190.933 287.804C195.167 287.901 198.266 286.765 199.277 286.337L200.222 287.755C192.585 291.063 184.709 290.244 176.803 285.294C170.764 281.513 166.972 276.61 166.935 276.561C166.919 276.541 166.904 276.523 166.887 276.506C166.41 275.632 163.768 270.582 162.708 264.167C161.19 254.964 163.47 247.381 169.467 241.611L170.411 243.029C169.625 243.797 167.383 246.217 165.839 250.16ZM201.748 279.083C201.229 279.439 200.703 279.761 200.175 280.052C198.218 279.523 186.774 276.1 181.279 267.086C181.275 267.078 181.267 267.073 181.262 267.066C181.258 267.059 181.257 267.052 181.252 267.045C175.022 258.476 176.314 246.552 176.575 244.607C177.038 244.239 177.532 243.883 178.058 243.544C177.561 247.053 176.664 257.733 182.383 266.321C182.416 266.371 182.455 266.414 182.497 266.449C188.232 274.93 198.337 278.192 201.748 279.083ZM180.554 267.539C185.577 275.767 195.284 279.497 198.956 280.658C198.23 280.984 197.492 281.255 196.751 281.461C196.733 281.462 196.718 281.471 196.702 281.475C196.699 281.476 196.696 281.477 196.694 281.478C191.17 282.983 186.174 280.867 182.896 279.145C178.418 276.793 174.386 271.67 174.346 271.618C174.332 271.602 174.319 271.586 174.305 271.572C173.824 270.681 171.135 265.527 170.729 260.915C170.403 257.229 170.376 251.805 173.897 247.285C173.906 247.274 173.915 247.264 173.924 247.253C173.926 247.25 173.93 247.247 173.932 247.244C174.411 246.633 174.953 246.05 175.545 245.498C175.198 249.311 174.885 259.709 180.554 267.539ZM198.702 285.472C197.625 285.907 194.666 286.925 190.77 286.83C185.978 286.712 181.509 285.033 177.421 281.84C182.125 284.551 189.711 287.396 198.111 284.585L198.702 285.472ZM205.049 276.028C204.962 275.496 204.941 274.728 205.268 273.919C205.844 272.491 207.288 271.45 209.544 270.809L209.882 273.544C207.931 273.987 206.254 275.054 205.049 276.028ZM210.807 236.049L189.768 250.36L183.897 246.227C183.758 246.128 183.592 246.106 183.458 246.168C183.324 246.23 183.241 246.368 183.238 246.533L183.136 251.928C183.133 252.105 183.223 252.286 183.37 252.398L190.859 258.096C191.031 258.227 191.246 258.236 191.391 258.119C191.474 258.051 199.765 251.305 201.1 250.243C201.976 249.544 204.733 250.116 206.152 250.51C205.965 251.978 205.43 254.705 204.453 255.241C202.96 256.062 193.539 261.11 193.445 261.161C193.28 261.249 193.206 261.451 193.261 261.66L195.629 270.768C195.675 270.947 195.807 271.1 195.972 271.165L200.992 273.151C201.145 273.212 201.304 273.188 201.412 273.088C201.521 272.989 201.565 272.827 201.528 272.66L199.977 265.65L221.295 251.756L211.872 269.326C211.108 269.423 210.394 269.551 209.746 269.708C206.919 270.393 205.124 271.649 204.413 273.441C203.875 274.796 204.122 276.075 204.296 276.671C203.491 277.4 202.933 278.041 202.683 278.346C200.911 277.938 189.174 274.933 183.115 265.834C183.083 265.786 183.045 265.745 183.004 265.709C177.054 256.626 178.793 244.752 179.098 242.967C179.477 242.853 180.284 242.586 181.266 242.124C181.749 242.515 182.832 243.235 184.288 243.262C186.216 243.298 188.067 242.127 189.79 239.783C190.187 239.242 190.581 238.632 190.964 237.967L210.807 236.049ZM188.696 239.544C187.235 241.377 185.717 242.308 184.178 242.289C183.305 242.278 182.605 241.962 182.149 241.678C183.514 240.938 185.146 239.8 186.305 238.176L188.696 239.544ZM168.891 240.746C161.076 248.201 160.72 257.604 161.818 264.218C163.019 271.445 166.077 276.82 166.206 277.046C166.248 277.118 166.304 277.181 166.369 277.229C167.023 278.055 170.685 282.501 176.413 286.095C182.091 289.658 190.906 292.955 200.797 288.619L206.469 297.137C179.711 308.675 163.485 288.344 159.131 281.805C159.101 281.761 159.067 281.723 159.029 281.691C154.602 274.989 142.389 252.338 163.218 232.228L168.891 240.746Z" fill="#231F20"/>
            </g>
            <g id="Group_34">
            <path id="Vector_125" d="M163.963 281.575L163.113 282.357C162.852 282.601 162.591 282.845 162.335 283.094C161.888 283.527 161.515 283.893 161.151 284.276L161.423 284.601C161.867 284.245 162.295 283.875 162.696 283.526C162.965 283.291 163.231 283.051 163.496 282.811L164.353 282.024C164.62 281.774 164.887 281.525 165.15 281.27C165.595 280.839 165.967 280.473 166.333 280.087L166.061 279.762C165.615 280.119 165.187 280.49 164.787 280.838C164.51 281.081 164.237 281.327 163.963 281.575Z" fill="#610F17"/>
            <path id="Vector_126" d="M166.844 284.837L166.141 285.814C165.932 286.11 165.723 286.405 165.52 286.704C165.216 287.15 164.892 287.629 164.584 288.121L164.898 288.399C165.264 287.955 165.612 287.501 165.936 287.073C166.154 286.786 166.368 286.495 166.581 286.203L167.27 285.245C167.484 284.943 167.698 284.641 167.907 284.335C168.194 283.913 168.526 283.422 168.841 282.917L168.528 282.639C168.165 283.078 167.816 283.535 167.49 283.964C167.272 284.253 167.058 284.545 166.844 284.837Z" fill="#610F17"/>
            <path id="Vector_127" d="M170.75 288.418L170.051 289.377C169.837 289.673 169.624 289.97 169.416 290.272C169.122 290.696 168.782 291.191 168.461 291.696L168.773 291.976C169.117 291.564 169.444 291.146 169.83 290.643C170.05 290.358 170.265 290.069 170.479 289.78L171.175 288.828C171.398 288.517 171.621 288.206 171.84 287.89C172.15 287.441 172.48 286.961 172.794 286.465L172.482 286.186C172.111 286.63 171.756 287.087 171.424 287.518C171.196 287.815 170.973 288.116 170.75 288.418Z" fill="#610F17"/>
            <path id="Vector_128" d="M175.131 291.569L174.672 292.669C174.534 293.007 174.395 293.346 174.262 293.688C174.061 294.201 173.849 294.753 173.653 295.315L174.003 295.527C174.244 295.039 174.467 294.552 174.726 293.97C174.879 293.63 175.026 293.286 175.172 292.942L175.627 291.856C175.772 291.502 175.917 291.149 176.056 290.792C176.29 290.192 176.484 289.685 176.665 289.164L176.315 288.952C176.074 289.438 175.852 289.926 175.592 290.508C175.434 290.86 175.283 291.214 175.131 291.569Z" fill="#610F17"/>
            <path id="Vector_129" d="M179.342 294.163L179.042 295.159C178.95 295.472 178.859 295.785 178.773 296.101C178.625 296.647 178.504 297.107 178.396 297.579L178.758 297.757C178.926 297.315 179.078 296.87 179.254 296.338C179.356 296.031 179.452 295.722 179.548 295.412L179.853 294.4C179.946 294.082 180.039 293.764 180.126 293.444C180.247 293.002 180.385 292.486 180.503 291.965L180.141 291.787C179.96 292.265 179.796 292.751 179.644 293.207C179.54 293.523 179.441 293.843 179.342 294.163Z" fill="#610F17"/>
            <path id="Vector_130" d="M183.72 295.303L183.673 296.421C183.661 296.773 183.65 297.126 183.643 297.481C183.634 298.026 183.628 298.562 183.638 299.111L184.016 299.194C184.074 298.638 184.115 298.071 184.146 297.59C184.168 297.25 184.185 296.909 184.202 296.567L184.25 295.422C184.262 295.069 184.274 294.716 184.28 294.361C184.288 293.869 184.296 293.297 184.285 292.731L183.907 292.648C183.854 293.153 183.816 293.654 183.776 294.252C183.755 294.602 183.737 294.952 183.72 295.303Z" fill="#610F17"/>
            <path id="Vector_131" d="M188.281 295.622L188.433 296.861C188.48 297.224 188.527 297.587 188.58 297.951C188.661 298.506 188.749 299.097 188.855 299.69L189.23 299.702C189.191 299.113 189.134 298.52 189.079 297.967C189.041 297.592 188.997 297.217 188.954 296.841L188.801 295.594C188.753 295.229 188.706 294.864 188.653 294.498C188.566 293.907 188.48 293.329 188.377 292.758L188.002 292.746C188.038 293.297 188.089 293.838 188.153 294.482C188.193 294.861 188.236 295.242 188.281 295.622Z" fill="#610F17"/>
            <path id="Vector_132" d="M192.664 295.311L193.118 296.55C193.257 296.923 193.396 297.296 193.54 297.667C193.757 298.226 193.992 298.824 194.24 299.408L194.591 299.316C194.401 298.703 194.198 298.105 194.005 297.545C193.875 297.166 193.74 296.789 193.604 296.412L193.156 295.186C193.013 294.802 192.87 294.419 192.721 294.037C192.506 293.483 192.272 292.889 192.021 292.296L191.671 292.388C191.859 292.997 192.063 293.599 192.256 294.159C192.389 294.544 192.526 294.928 192.664 295.311Z" fill="#610F17"/>
            <path id="Vector_133" d="M196.356 294.4L196.921 295.62C197.111 296.022 197.3 296.425 197.495 296.825C197.767 297.386 198.063 297.988 198.378 298.592L198.712 298.462C198.463 297.849 198.194 297.232 197.939 296.652C197.772 296.275 197.601 295.899 197.43 295.524L196.832 294.234C196.651 293.849 196.47 293.464 196.284 293.081C196.006 292.512 195.71 291.907 195.4 291.315L195.066 291.445C195.319 292.069 195.587 292.681 195.839 293.254C196.008 293.637 196.182 294.018 196.356 294.4Z" fill="#610F17"/>
            <path id="Vector_134" d="M199.981 293.009L201.142 294.773C201.284 294.987 201.428 295.201 201.573 295.414C201.963 295.988 202.38 296.599 202.814 297.201L203.112 297.006C202.724 296.355 202.319 295.71 201.969 295.156C201.716 294.754 201.458 294.355 201.199 293.957L200.042 292.197C199.892 291.971 199.74 291.746 199.588 291.522C199.198 290.947 198.778 290.332 198.347 289.734L198.048 289.928C198.432 290.573 198.824 291.199 199.191 291.779C199.451 292.191 199.716 292.6 199.981 293.009Z" fill="#610F17"/>
            <path id="Vector_135" d="M159.158 278.362C159.482 278.224 159.803 278.079 160.123 277.935L161.2 277.44C161.529 277.286 161.859 277.131 162.185 276.97C162.639 276.747 163.165 276.486 163.668 276.211L163.474 275.834C162.933 276.04 162.392 276.27 161.926 276.47C161.588 276.615 161.252 276.766 160.916 276.918L159.875 277.397C159.549 277.55 159.223 277.703 158.901 277.862C158.449 278.084 157.924 278.344 157.417 278.621L157.611 278.998C158.154 278.79 158.694 278.561 159.158 278.362Z" fill="#610F17"/>
            <path id="Vector_136" d="M157.056 274.033C157.408 273.961 157.759 273.883 158.109 273.804L159.243 273.542C159.611 273.454 159.979 273.366 160.344 273.27C160.952 273.114 161.461 272.977 161.968 272.824L161.833 272.427C161.248 272.523 160.665 272.641 160.164 272.743C159.797 272.819 159.433 272.9 159.069 272.982L157.916 273.249C157.569 273.333 157.221 273.416 156.876 273.506C156.271 273.663 155.763 273.798 155.252 273.953L155.387 274.349C155.972 274.254 156.555 274.136 157.056 274.033Z" fill="#610F17"/>
            <path id="Vector_137" d="M155.267 269.062C155.624 268.986 155.978 268.905 156.332 268.823L157.521 268.539C157.876 268.452 158.23 268.364 158.582 268.27C159.108 268.13 159.667 267.98 160.219 267.809L160.082 267.413C159.491 267.514 158.904 267.636 158.4 267.743C158.03 267.822 157.662 267.907 157.295 267.992L156.14 268.269C155.787 268.356 155.435 268.442 155.085 268.536C154.473 268.698 153.961 268.839 153.448 268.997L153.586 269.393C154.161 269.295 154.732 269.175 155.267 269.062Z" fill="#610F17"/>
            <path id="Vector_138" d="M153.983 263.274C154.357 263.283 154.73 263.285 155.103 263.288L156.323 263.287C156.693 263.284 157.061 263.281 157.43 263.272C157.983 263.257 158.57 263.24 159.145 263.204L159.083 262.799C158.495 262.763 157.901 262.746 157.348 262.733C156.959 262.724 156.571 262.722 156.183 262.719L155.018 262.721C154.645 262.724 154.273 262.727 153.902 262.736C153.355 262.75 152.773 262.767 152.186 262.804L152.248 263.209C152.839 263.244 153.431 263.261 153.983 263.274Z" fill="#610F17"/>
            <path id="Vector_139" d="M151.964 257.556L151.988 257.958C152.499 258.047 153.016 258.117 153.498 258.18C153.821 258.224 154.145 258.26 154.469 258.296L155.488 258.403C155.826 258.435 156.165 258.467 156.503 258.493C157.061 258.536 157.53 258.568 158.004 258.583L157.98 258.18C157.502 258.097 157.031 258.031 156.47 257.958C156.129 257.913 155.787 257.874 155.446 257.836L154.423 257.731C154.103 257.701 153.784 257.67 153.465 257.646C152.905 257.603 152.435 257.571 151.964 257.556Z" fill="#610F17"/>
            <path id="Vector_140" d="M155.163 252.993C154.84 252.876 154.517 252.759 154.193 252.648C153.626 252.453 153.149 252.294 152.664 252.148L152.595 252.529C153.107 252.755 153.62 252.962 154.101 253.153C154.431 253.286 154.763 253.411 155.094 253.537L156.111 253.914C156.451 254.037 156.791 254.16 157.132 254.277C157.592 254.435 158.127 254.616 158.661 254.776L158.731 254.396C158.231 254.174 157.732 253.973 157.224 253.77C156.901 253.642 156.576 253.518 156.251 253.395L155.163 252.993Z" fill="#610F17"/>
            <path id="Vector_141" d="M157.776 249.092L156.748 248.507C156.416 248.321 156.083 248.134 155.749 247.953C155.26 247.689 154.736 247.408 154.205 247.145L154.072 247.496C154.567 247.815 155.064 248.115 155.572 248.419C155.905 248.619 156.24 248.813 156.576 249.007L157.585 249.583C157.926 249.774 158.266 249.965 158.609 250.151C159.181 250.46 159.662 250.716 160.152 250.959L160.285 250.608C159.785 250.284 159.271 249.974 158.786 249.683C158.451 249.482 158.113 249.287 157.776 249.092Z" fill="#610F17"/>
            <path id="Vector_142" d="M159.909 245.283L158.914 244.363C158.623 244.097 158.332 243.83 158.037 243.568C157.614 243.192 157.122 242.757 156.628 242.345L156.408 242.632C156.823 243.058 157.243 243.467 157.745 243.95C158.041 244.236 158.34 244.516 158.64 244.797L159.549 245.639C159.86 245.924 160.172 246.209 160.486 246.489C160.93 246.884 161.408 247.306 161.895 247.713L162.115 247.426C161.677 246.977 161.233 246.545 160.779 246.107C160.491 245.829 160.2 245.556 159.909 245.283Z" fill="#610F17"/>
            <path id="Vector_143" d="M162.125 242.174L161.251 241.221C160.961 240.907 160.671 240.594 160.377 240.285C159.945 239.83 159.48 239.344 159.006 238.874L158.757 239.132C159.197 239.662 159.654 240.182 160.047 240.628C160.337 240.957 160.631 241.282 160.924 241.607L161.807 242.571C162.105 242.893 162.403 243.214 162.705 243.532C163.114 243.963 163.591 244.462 164.076 244.943L164.325 244.685C163.894 244.165 163.451 243.661 163.035 243.189C162.735 242.848 162.43 242.511 162.125 242.174Z" fill="#610F17"/>
            <path id="Vector_144" d="M161.751 235.577C162.136 236.201 162.541 236.827 162.922 237.41C163.056 237.616 163.192 237.821 163.328 238.026L164.535 239.816C164.807 240.214 165.08 240.613 165.357 241.009C165.777 241.606 166.19 242.19 166.626 242.776L166.92 242.576C166.56 241.99 166.191 241.419 165.749 240.742C165.607 240.525 165.464 240.309 165.321 240.093L164.109 238.298C163.845 237.912 163.581 237.526 163.313 237.144C162.915 236.577 162.487 235.97 162.045 235.376L161.751 235.577Z" fill="#610F17"/>
            </g>
            </g>
        </TMPL_IF>
        <TMPL_IF NAME="HAT_FIVE">
            <g id="VikingHat">
            <path id="Vector_30" d="M161.114 266.793C164.353 277.81 175.4 284.264 186.926 280.876L175.198 240.981C163.671 244.37 157.876 255.776 161.114 266.793Z" fill="#6D6D6C"/>
            <g id="Group_11">
            <path id="Vector_31" d="M158.989 263.082L161.346 271.098L181.91 265.053L179.553 257.036L158.989 263.082Z" fill="#B2B2B2"/>
            </g>
            <path id="Vector_32" d="M160.872 253.507C149.916 239.794 135.611 250.095 135.611 250.095L134.187 248.79C134.187 248.79 141.462 235.558 152.842 236.17C164.221 236.782 168.482 243.862 168.482 243.862L160.872 253.507Z" fill="#939190"/>
            <path id="Vector_33" d="M168.141 278.232C166.35 295.692 148.658 294.74 148.658 294.74L148.179 296.634C148.179 296.634 161.534 303.829 170.772 297.157C180.009 290.483 179.761 282.224 179.761 282.224L168.141 278.232Z" fill="#939190"/>
            <path id="Vector_34" d="M174.307 239.193L187.11 282.74L188.241 282.407L175.438 238.861L174.307 239.193Z" fill="#898786"/>
            <path id="Vector_35" d="M184.075 236.322L196.878 279.868L198.009 279.536L185.206 235.989L184.075 236.322Z" fill="#898786"/>
            <g id="Group_12">
            <path id="Vector_36" d="M188.071 280.977C187.85 280.225 187.061 279.794 186.309 280.015C185.556 280.236 185.126 281.025 185.347 281.778C185.568 282.53 186.357 282.96 187.109 282.739C187.862 282.518 188.292 281.729 188.071 280.977Z" fill="#898786"/>
            <path id="Vector_37" d="M187.365 278.576C187.144 277.823 186.355 277.393 185.603 277.614C184.85 277.835 184.42 278.624 184.641 279.376C184.862 280.129 185.651 280.559 186.404 280.338C187.156 280.117 187.586 279.328 187.365 278.576Z" fill="#898786"/>
            <path id="Vector_38" d="M186.659 276.174C186.438 275.422 185.649 274.992 184.897 275.213C184.145 275.434 183.714 276.223 183.935 276.975C184.156 277.727 184.945 278.158 185.698 277.937C186.45 277.716 186.88 276.926 186.659 276.174Z" fill="#898786"/>
            <path id="Vector_39" d="M185.953 273.773C185.732 273.021 184.943 272.59 184.191 272.811C183.439 273.033 183.008 273.822 183.229 274.574C183.45 275.326 184.239 275.757 184.992 275.535C185.744 275.314 186.174 274.525 185.953 273.773Z" fill="#898786"/>
            <path id="Vector_40" d="M185.247 271.372C185.026 270.619 184.237 270.189 183.485 270.41C182.733 270.631 182.302 271.42 182.523 272.172C182.744 272.925 183.533 273.355 184.286 273.134C185.038 272.913 185.468 272.124 185.247 271.372Z" fill="#898786"/>
            <path id="Vector_41" d="M184.541 268.97C184.32 268.218 183.531 267.788 182.779 268.009C182.027 268.23 181.596 269.019 181.817 269.771C182.038 270.523 182.827 270.954 183.58 270.733C184.332 270.512 184.762 269.723 184.541 268.97Z" fill="#898786"/>
            <path id="Vector_42" d="M183.835 266.569C183.614 265.817 182.825 265.386 182.073 265.607C181.321 265.829 180.89 266.618 181.111 267.37C181.332 268.122 182.121 268.553 182.874 268.331C183.626 268.11 184.056 267.321 183.835 266.569Z" fill="#898786"/>
            <path id="Vector_43" d="M183.129 264.168C182.908 263.416 182.119 262.985 181.367 263.206C180.615 263.427 180.184 264.216 180.405 264.969C180.626 265.721 181.416 266.151 182.168 265.93C182.92 265.709 183.351 264.92 183.129 264.168Z" fill="#898786"/>
            <path id="Vector_44" d="M182.423 261.766C182.202 261.014 181.413 260.584 180.661 260.805C179.909 261.026 179.478 261.815 179.699 262.567C179.921 263.32 180.71 263.75 181.462 263.529C182.214 263.308 182.645 262.519 182.423 261.766Z" fill="#898786"/>
            <path id="Vector_45" d="M181.718 259.365C181.496 258.613 180.707 258.182 179.955 258.404C179.203 258.625 178.772 259.414 178.993 260.166C179.215 260.918 180.004 261.349 180.756 261.128C181.508 260.906 181.939 260.117 181.718 259.365Z" fill="#898786"/>
            <path id="Vector_46" d="M181.012 256.964C180.79 256.212 180.001 255.781 179.249 256.002C178.497 256.223 178.066 257.012 178.288 257.765C178.509 258.517 179.298 258.947 180.05 258.726C180.802 258.505 181.233 257.716 181.012 256.964Z" fill="#898786"/>
            <path id="Vector_47" d="M180.306 254.562C180.084 253.81 179.295 253.38 178.543 253.601C177.791 253.822 177.36 254.611 177.582 255.363C177.803 256.116 178.592 256.546 179.344 256.325C180.096 256.104 180.527 255.315 180.306 254.562Z" fill="#898786"/>
            <path id="Vector_48" d="M178.188 247.359C177.967 246.606 177.178 246.176 176.425 246.397C175.673 246.618 175.243 247.407 175.464 248.159C175.685 248.912 176.474 249.342 177.226 249.121C177.978 248.9 178.409 248.111 178.188 247.359Z" fill="#898786"/>
            <path id="Vector_49" d="M177.482 244.957C177.261 244.205 176.472 243.775 175.719 243.996C174.967 244.217 174.537 245.006 174.758 245.758C174.979 246.51 175.768 246.941 176.52 246.72C177.272 246.499 177.703 245.709 177.482 244.957Z" fill="#898786"/>
            <path id="Vector_50" d="M179.6 252.161C179.379 251.409 178.589 250.978 177.837 251.2C177.085 251.421 176.654 252.21 176.876 252.962C177.097 253.714 177.886 254.145 178.638 253.924C179.39 253.703 179.821 252.913 179.6 252.161Z" fill="#898786"/>
            <path id="Vector_51" d="M178.894 249.76C178.673 249.008 177.883 248.577 177.131 248.798C176.379 249.019 175.948 249.808 176.17 250.561C176.391 251.313 177.18 251.743 177.932 251.522C178.684 251.301 179.115 250.512 178.894 249.76Z" fill="#898786"/>
            <path id="Vector_52" d="M176.776 242.556C176.555 241.804 175.766 241.373 175.013 241.594C174.261 241.816 173.831 242.605 174.052 243.357C174.273 244.109 175.062 244.54 175.814 244.318C176.566 244.097 176.997 243.308 176.776 242.556Z" fill="#898786"/>
            <path id="Vector_53" d="M176.07 240.155C175.849 239.402 175.06 238.972 174.307 239.193C173.555 239.414 173.125 240.203 173.346 240.956C173.567 241.708 174.356 242.138 175.108 241.917C175.86 241.696 176.291 240.907 176.07 240.155Z" fill="#898786"/>
            </g>
            <g id="Group_13">
            <path id="Vector_54" d="M199.117 277.73C198.896 276.977 198.107 276.547 197.355 276.768C196.602 276.989 196.172 277.778 196.393 278.53C196.614 279.283 197.403 279.713 198.155 279.492C198.908 279.271 199.338 278.482 199.117 277.73Z" fill="#898786"/>
            <path id="Vector_55" d="M198.411 275.328C198.19 274.576 197.401 274.145 196.649 274.367C195.896 274.588 195.466 275.377 195.687 276.129C195.908 276.881 196.697 277.312 197.45 277.091C198.202 276.87 198.632 276.08 198.411 275.328Z" fill="#898786"/>
            <path id="Vector_56" d="M197.705 272.927C197.484 272.175 196.695 271.744 195.943 271.965C195.191 272.186 194.76 272.975 194.981 273.728C195.202 274.48 195.991 274.91 196.744 274.689C197.496 274.468 197.926 273.679 197.705 272.927Z" fill="#898786"/>
            <path id="Vector_57" d="M196.999 270.526C196.778 269.773 195.989 269.343 195.237 269.564C194.485 269.785 194.054 270.574 194.275 271.326C194.496 272.079 195.285 272.509 196.038 272.288C196.79 272.067 197.22 271.278 196.999 270.526Z" fill="#898786"/>
            <path id="Vector_58" d="M196.293 268.124C196.072 267.372 195.283 266.942 194.531 267.163C193.779 267.384 193.348 268.173 193.569 268.925C193.79 269.677 194.579 270.108 195.332 269.887C196.084 269.666 196.514 268.877 196.293 268.124Z" fill="#898786"/>
            <path id="Vector_59" d="M195.587 265.723C195.366 264.971 194.577 264.54 193.825 264.761C193.073 264.983 192.642 265.772 192.863 266.524C193.084 267.276 193.873 267.707 194.626 267.485C195.378 267.264 195.808 266.475 195.587 265.723Z" fill="#898786"/>
            <path id="Vector_60" d="M194.881 263.322C194.66 262.569 193.871 262.139 193.119 262.36C192.367 262.581 191.936 263.37 192.157 264.123C192.378 264.875 193.168 265.305 193.92 265.084C194.672 264.863 195.103 264.074 194.881 263.322Z" fill="#898786"/>
            <path id="Vector_61" d="M194.175 260.92C193.954 260.168 193.165 259.738 192.413 259.959C191.661 260.18 191.23 260.969 191.451 261.721C191.673 262.474 192.462 262.904 193.214 262.683C193.966 262.462 194.397 261.673 194.175 260.92Z" fill="#898786"/>
            <path id="Vector_62" d="M193.469 258.519C193.248 257.767 192.459 257.336 191.707 257.557C190.955 257.779 190.524 258.568 190.745 259.32C190.967 260.072 191.756 260.503 192.508 260.282C193.26 260.06 193.691 259.271 193.469 258.519Z" fill="#898786"/>
            <path id="Vector_63" d="M192.763 256.118C192.542 255.366 191.753 254.935 191.001 255.156C190.249 255.377 189.818 256.166 190.039 256.919C190.261 257.671 191.05 258.101 191.802 257.88C192.554 257.659 192.985 256.87 192.763 256.118Z" fill="#898786"/>
            <path id="Vector_64" d="M192.058 253.716C191.836 252.964 191.047 252.534 190.295 252.755C189.543 252.976 189.112 253.765 189.333 254.517C189.555 255.27 190.344 255.7 191.096 255.479C191.848 255.258 192.279 254.469 192.058 253.716Z" fill="#898786"/>
            <path id="Vector_65" d="M191.352 251.315C191.13 250.563 190.341 250.132 189.589 250.354C188.837 250.575 188.406 251.364 188.628 252.116C188.849 252.868 189.638 253.299 190.39 253.078C191.142 252.857 191.573 252.067 191.352 251.315Z" fill="#898786"/>
            <path id="Vector_66" d="M189.234 244.111C189.013 243.359 188.223 242.929 187.471 243.15C186.719 243.371 186.289 244.16 186.51 244.912C186.731 245.664 187.52 246.095 188.272 245.874C189.024 245.653 189.455 244.864 189.234 244.111Z" fill="#898786"/>
            <path id="Vector_67" d="M188.528 241.71C188.307 240.958 187.518 240.527 186.765 240.748C186.013 240.97 185.583 241.759 185.804 242.511C186.025 243.263 186.814 243.694 187.566 243.472C188.318 243.251 188.749 242.462 188.528 241.71Z" fill="#898786"/>
            <path id="Vector_68" d="M190.646 248.914C190.424 248.162 189.635 247.731 188.883 247.952C188.131 248.173 187.7 248.963 187.922 249.715C188.143 250.467 188.932 250.898 189.684 250.676C190.436 250.455 190.867 249.666 190.646 248.914Z" fill="#898786"/>
            <path id="Vector_69" d="M189.94 246.513C189.719 245.76 188.929 245.33 188.177 245.551C187.425 245.772 186.994 246.561 187.216 247.313C187.437 248.066 188.226 248.496 188.978 248.275C189.73 248.054 190.161 247.265 189.94 246.513Z" fill="#898786"/>
            <path id="Vector_70" d="M187.822 239.309C187.601 238.556 186.812 238.126 186.059 238.347C185.307 238.568 184.877 239.357 185.098 240.11C185.319 240.862 186.108 241.292 186.86 241.071C187.612 240.85 188.043 240.061 187.822 239.309Z" fill="#898786"/>
            <path id="Vector_71" d="M187.116 236.907C186.895 236.155 186.106 235.725 185.353 235.946C184.601 236.167 184.171 236.956 184.392 237.708C184.613 238.46 185.402 238.891 186.154 238.67C186.906 238.449 187.337 237.66 187.116 236.907Z" fill="#898786"/>
            </g>
            <path id="Vector_72" d="M175.438 238.861L188.241 282.407L196.878 279.868L184.075 236.322L175.438 238.861Z" fill="#EAC8A7"/>
            <g id="Group_14">
            <path id="Vector_73" d="M191.601 277.219C192.339 277.002 193.113 277.424 193.329 278.162C193.546 278.9 193.124 279.674 192.386 279.891C191.648 280.108 190.874 279.686 190.657 278.948C190.44 278.21 190.863 277.436 191.601 277.219Z" fill="#FCDFC8"/>
            <path id="Vector_74" d="M189.984 271.721C190.722 271.504 191.496 271.926 191.713 272.664C191.93 273.402 191.508 274.177 190.77 274.393C190.032 274.61 189.257 274.188 189.04 273.45C188.823 272.712 189.247 271.938 189.984 271.721Z" fill="#FCDFC8"/>
            <path id="Vector_75" d="M188.368 266.223C189.106 266.006 189.88 266.428 190.097 267.166C190.314 267.904 189.891 268.679 189.154 268.895C188.415 269.112 187.641 268.69 187.424 267.952C187.208 267.214 187.63 266.44 188.368 266.223Z" fill="#FCDFC8"/>
            <path id="Vector_76" d="M186.395 260.83C187.133 260.613 187.907 261.035 188.124 261.773C188.341 262.511 187.919 263.285 187.181 263.502C186.443 263.719 185.669 263.297 185.452 262.559C185.235 261.821 185.657 261.046 186.395 260.83Z" fill="#FCDFC8"/>
            <path id="Vector_77" d="M184.779 255.332C185.517 255.115 186.291 255.538 186.508 256.275C186.725 257.013 186.302 257.788 185.565 258.005C184.827 258.221 184.053 257.799 183.836 257.061C183.619 256.323 184.041 255.549 184.779 255.332Z" fill="#FCDFC8"/>
            <path id="Vector_78" d="M183.163 249.834C183.901 249.617 184.675 250.04 184.891 250.777C185.108 251.515 184.686 252.29 183.948 252.507C183.211 252.723 182.436 252.301 182.219 251.563C182.002 250.825 182.425 250.051 183.163 249.834Z" fill="#FCDFC8"/>
            <path id="Vector_79" d="M181.546 244.336C182.284 244.119 183.058 244.542 183.275 245.28C183.492 246.018 183.07 246.792 182.332 247.009C181.594 247.225 180.82 246.803 180.603 246.065C180.386 245.327 180.809 244.553 181.546 244.336Z" fill="#FCDFC8"/>
            <path id="Vector_80" d="M179.93 238.838C180.668 238.621 181.442 239.044 181.659 239.781C181.876 240.519 181.453 241.294 180.716 241.511C179.978 241.727 179.204 241.305 178.987 240.567C178.77 239.829 179.192 239.055 179.93 238.838Z" fill="#FCDFC8"/>
            </g>
            <path id="Vector_81" d="M150.303 239.685C143.326 240.174 138.053 244.792 134.58 249.15L135.074 249.602C138.457 245.987 143.669 242.012 150.107 242.264C158.433 242.589 162.993 246.282 164.923 248.372L167.884 244.619C165.255 242.432 159.6 239.035 150.303 239.685Z" fill="#B2B2B2"/>
            <path id="Vector_82" d="M166.692 295.435C160.561 298.801 153.628 297.771 148.349 295.986L148.52 295.338C153.321 296.547 159.855 297.069 165.133 293.373C171.958 288.593 173.794 283.021 174.286 280.218L178.806 281.772C177.78 285.034 174.863 290.951 166.692 295.435Z" fill="#B2B2B2"/>
            <g id="Group_15">
            <path id="Vector_83" d="M157.172 251.088L161.418 254.678L170.627 243.785L166.38 240.195L157.172 251.088Z" fill="#C6C6C6"/>
            </g>
            <g id="Group_16">
            <path id="Vector_84" d="M161.165 253.838C161.462 253.752 161.632 253.442 161.545 253.146C161.459 252.85 161.149 252.68 160.853 252.766C160.557 252.852 160.387 253.162 160.474 253.458C160.56 253.754 160.869 253.924 161.165 253.838Z" fill="#898786"/>
            <path id="Vector_85" d="M162.328 252.457C162.624 252.371 162.794 252.061 162.708 251.765C162.622 251.469 162.312 251.299 162.016 251.385C161.72 251.471 161.549 251.781 161.636 252.077C161.722 252.373 162.032 252.544 162.328 252.457Z" fill="#898786"/>
            <path id="Vector_86" d="M163.49 251.077C163.786 250.991 163.956 250.681 163.87 250.385C163.784 250.089 163.474 249.918 163.178 250.005C162.882 250.091 162.712 250.401 162.798 250.697C162.884 250.992 163.194 251.163 163.49 251.077Z" fill="#898786"/>
            <path id="Vector_87" d="M164.652 249.695C164.948 249.609 165.119 249.299 165.032 249.004C164.946 248.707 164.636 248.537 164.34 248.624C164.044 248.71 163.874 249.02 163.96 249.315C164.046 249.611 164.356 249.781 164.652 249.695Z" fill="#898786"/>
            <path id="Vector_88" d="M165.814 248.315C166.11 248.229 166.281 247.919 166.194 247.623C166.108 247.327 165.798 247.156 165.502 247.243C165.206 247.329 165.036 247.639 165.122 247.935C165.208 248.231 165.518 248.401 165.814 248.315Z" fill="#898786"/>
            <path id="Vector_89" d="M166.977 246.933C167.273 246.847 167.443 246.537 167.357 246.241C167.271 245.945 166.961 245.775 166.665 245.862C166.369 245.948 166.198 246.257 166.285 246.553C166.371 246.85 166.681 247.02 166.977 246.933Z" fill="#898786"/>
            <path id="Vector_90" d="M168.139 245.552C168.435 245.466 168.605 245.157 168.519 244.861C168.433 244.564 168.123 244.394 167.827 244.481C167.531 244.567 167.36 244.877 167.447 245.173C167.533 245.469 167.843 245.639 168.139 245.552Z" fill="#898786"/>
            <path id="Vector_91" d="M169.301 244.172C169.597 244.086 169.768 243.776 169.681 243.48C169.595 243.184 169.285 243.014 168.989 243.1C168.693 243.187 168.523 243.496 168.609 243.792C168.695 244.088 169.005 244.258 169.301 244.172Z" fill="#898786"/>
            </g>
            <g id="Group_17">
            <path id="Vector_92" d="M166.314 282.156L179.953 286.332L181.581 281.015L167.942 276.839L166.314 282.156Z" fill="#C6C6C6"/>
            </g>
            <g id="Group_18">
            <path id="Vector_93" d="M168.131 277.956C168.424 277.86 168.74 278.019 168.837 278.312C168.933 278.605 168.774 278.92 168.482 279.017C168.188 279.114 167.873 278.955 167.776 278.662C167.679 278.369 167.838 278.053 168.131 277.956Z" fill="#898786"/>
            <path id="Vector_94" d="M169.871 278.436C170.164 278.34 170.479 278.499 170.576 278.792C170.673 279.085 170.514 279.4 170.221 279.497C169.928 279.594 169.612 279.435 169.515 279.142C169.419 278.848 169.578 278.533 169.871 278.436Z" fill="#898786"/>
            <path id="Vector_95" d="M171.611 278.916C171.904 278.82 172.219 278.978 172.316 279.271C172.412 279.564 172.253 279.88 171.961 279.977C171.668 280.074 171.352 279.915 171.255 279.622C171.159 279.329 171.318 279.013 171.611 278.916Z" fill="#898786"/>
            <path id="Vector_96" d="M173.351 279.396C173.644 279.299 173.959 279.458 174.056 279.751C174.153 280.044 173.994 280.36 173.701 280.457C173.408 280.553 173.092 280.395 172.995 280.102C172.899 279.809 173.058 279.493 173.351 279.396Z" fill="#898786"/>
            <path id="Vector_97" d="M175.091 279.876C175.384 279.779 175.699 279.938 175.796 280.231C175.892 280.524 175.733 280.839 175.441 280.937C175.148 281.033 174.832 280.874 174.735 280.581C174.639 280.288 174.798 279.972 175.091 279.876Z" fill="#898786"/>
            <path id="Vector_98" d="M176.831 280.356C177.124 280.259 177.439 280.418 177.536 280.711C177.633 281.004 177.474 281.319 177.181 281.416C176.888 281.513 176.572 281.354 176.475 281.061C176.379 280.768 176.538 280.452 176.831 280.356Z" fill="#898786"/>
            <path id="Vector_99" d="M178.571 280.836C178.864 280.739 179.179 280.898 179.276 281.191C179.373 281.484 179.214 281.799 178.921 281.896C178.628 281.993 178.313 281.834 178.216 281.541C178.119 281.248 178.278 280.932 178.571 280.836Z" fill="#898786"/>
            <path id="Vector_100" d="M180.311 281.315C180.604 281.219 180.919 281.378 181.016 281.671C181.113 281.964 180.954 282.279 180.661 282.376C180.368 282.473 180.053 282.314 179.956 282.021C179.859 281.728 180.018 281.412 180.311 281.315Z" fill="#898786"/>
            </g>
            </g>
        </TMPL_IF>
        <TMPL_IF NAME="HAT_SIX">
            <g id="StrawHat">
            <path id="Vector" d="M165.397 262.328C165.078 262.513 164.838 262.917 164.801 263.334C164.966 263.296 165.13 263.258 165.295 263.22C164.8 263.902 164.651 264.912 164.935 265.671C165.066 265.436 165.272 265.258 165.494 265.19C165.266 265.463 165.132 265.847 165.134 266.215C165.309 266.212 165.488 266.143 165.641 266.02C165.244 266.346 164.933 266.838 164.781 267.38C165.013 267.765 165.37 268.029 165.767 268.112C165.536 268.274 165.265 268.34 165.017 268.293C165.119 268.644 165.361 268.916 165.657 269.015C165.479 269.016 165.3 269.018 165.121 269.019C165.263 269.314 165.404 269.609 165.545 269.903C165.106 269.761 164.739 270.605 164.954 271.083C165.169 271.561 165.663 271.71 166.111 271.819C165.849 272.207 165.586 272.594 165.323 272.981C165.555 273.007 165.788 273.033 166.02 273.059C165.398 273.812 165.108 274.944 165.291 275.912C165.525 275.73 165.759 275.549 165.992 275.367C165.735 275.839 165.591 276.393 165.583 276.933C165.762 276.85 165.927 276.711 166.057 276.535C165.689 277.458 165.641 278.531 165.93 279.417C166.118 278.965 166.414 278.571 166.768 278.301C166.59 278.787 166.413 279.273 166.235 279.759C166.474 279.61 166.714 279.462 166.954 279.314C166.718 279.533 166.527 279.828 166.409 280.155C166.588 280.025 166.768 279.896 166.948 279.767C166.839 280.477 166.73 281.187 166.621 281.897C166.996 281.444 167.371 280.992 167.745 280.539C167.55 280.98 167.407 281.45 167.323 281.929C167.497 281.709 167.67 281.488 167.844 281.268C167.59 282.137 167.453 283.516 167.641 284.357C167.741 283.766 167.84 283.175 167.94 282.584C167.669 283.518 167.951 284.585 168.596 285.062C168.601 284.355 168.718 283.635 168.937 282.954C168.884 283.447 168.897 283.943 168.976 284.415C169.093 284.19 169.21 283.965 169.328 283.74C169.226 284.049 169.239 284.4 169.362 284.67C169.404 284.396 169.493 284.127 169.621 283.886C169.552 284.815 169.94 285.718 170.587 286.131C170.585 285.549 170.677 284.956 170.855 284.394C170.852 284.997 170.961 285.588 171.173 286.108C171.258 285.774 171.343 285.44 171.427 285.106C171.517 285.608 171.607 286.11 171.696 286.612C171.836 286.208 171.976 285.804 172.116 285.4C172.123 285.973 172.129 286.546 172.136 287.119C173.247 286.741 174.244 285.707 174.74 284.417C174.731 284.925 174.722 285.434 174.713 285.942C174.991 285.446 175.199 284.898 175.322 284.331C175.406 284.619 175.489 284.906 175.572 285.194C175.761 284.873 175.89 284.504 175.945 284.127C176.131 284.614 176.502 284.973 176.94 285.09C176.744 284.49 176.67 283.819 176.727 283.148C176.606 283.865 177.31 284.462 177.848 284.099C177.675 283.596 177.57 283.053 177.536 282.495C177.588 282.816 177.703 283.115 177.868 283.361C177.952 283.22 177.932 283.011 177.825 282.921C178.12 283.092 178.475 283.13 178.812 283.025C178.61 282.55 178.525 281.992 178.569 281.432C178.723 281.813 178.964 282.133 179.261 282.35C179.457 281.476 179.348 280.543 178.968 279.835C179.287 280.396 179.981 280.87 180.563 280.696C180.299 280.66 180.067 280.461 179.956 280.177C180.216 280.222 180.476 280.266 180.736 280.311C180.561 280.128 180.387 279.945 180.213 279.763C180.446 279.916 180.709 280.009 180.982 280.034C181.153 279.536 181.14 278.97 180.947 278.528C181.087 278.958 181.475 279.225 181.869 279.163C181.718 278.73 181.568 278.298 181.417 277.865C181.9 278.323 182.786 277.95 183.015 277.192C182.812 276.734 182.724 276.194 182.763 275.65C183.016 275.728 183.238 275.915 183.383 276.172C183.456 275.664 183.459 275.15 183.391 274.658C183.499 274.815 183.608 274.973 183.716 275.13C183.917 274.421 183.96 273.664 183.84 272.966C184.052 273.43 184.742 273.237 184.944 272.717C185.146 272.196 184.932 271.591 184.567 271.302C184.76 271.486 184.952 271.669 185.144 271.853C185.407 271.025 185.453 270.12 185.273 269.313C185.524 269.624 185.775 269.936 186.025 270.247C186.029 269.569 185.915 268.905 185.691 268.31C186.075 268.516 186.569 268.441 186.942 268.12C186.588 267.925 186.273 267.643 186.019 267.293C186.45 267.427 186.93 267.383 187.368 267.168C186.955 267.176 186.554 267.027 186.234 266.746C186.751 266.792 187.293 266.643 187.77 266.324C187.74 265.468 187.428 264.666 186.917 264.131C187.318 264.158 187.707 264.28 188.056 264.487C187.907 263.92 187.65 263.408 187.309 262.998C187.595 263.099 187.881 263.199 188.168 263.299C187.938 262.666 187.594 262.105 187.164 261.664C187.899 262.169 188.95 261.981 189.635 261.223C189.244 261.045 188.853 260.867 188.462 260.69C188.787 260.655 189.112 260.621 189.437 260.586C189.207 260.295 188.978 260.003 188.748 259.712C189.03 259.749 189.311 259.786 189.593 259.823C189.474 259.663 189.491 259.374 189.629 259.205C189.819 259.159 190.009 259.113 190.2 259.067C190.055 258.555 189.807 258.097 189.483 257.741C189.743 257.756 189.984 257.368 190.174 257.123C190.039 257.057 189.905 256.991 189.77 256.924C189.995 257.002 190.265 256.918 190.452 256.711C190.22 256.692 190.019 256.496 189.956 256.229C190.308 256.241 190.659 256.253 191.01 256.266C190.725 255.781 190.363 255.368 189.946 255.053C190.191 255.143 190.48 255.089 190.713 254.91C190.477 254.861 190.27 254.689 190.153 254.444C190.519 254.503 190.929 254.275 191.157 253.886C190.754 254.069 190.292 253.947 190.026 253.587C190.454 253.709 190.953 253.529 191.293 253.129C190.941 253.155 190.6 252.968 190.401 252.639C190.918 252.77 191.531 252.386 191.781 251.775C191.499 251.745 191.243 251.559 191.096 251.277C191.347 251.285 191.598 251.292 191.849 251.3C191.87 250.719 191.539 250.189 191.083 250.073C191.346 250.037 191.608 250.002 191.871 249.966C191.658 249.767 191.446 249.568 191.233 249.369C191.712 249.181 192.132 248.713 192.332 248.145C191.977 248.215 191.616 248.153 191.31 247.97C191.625 247.979 191.953 247.836 192.209 247.578C191.977 247.522 191.744 247.466 191.512 247.41C192.069 247.195 192.566 246.683 192.84 246.044C192.426 245.824 192.063 245.48 191.791 245.047C192.027 245.046 192.263 245.045 192.5 245.044C192.34 244.834 192.18 244.625 192.02 244.415C192.395 244.303 192.744 244.003 192.964 243.602C192.757 243.478 192.52 243.42 192.279 243.435C192.699 243.118 193.178 242.929 193.651 242.894C193.16 242.545 192.613 242.301 192.039 242.177C192.477 242.055 192.915 241.933 193.353 241.811C193.174 241.637 192.995 241.464 192.815 241.29C192.977 241.278 193.139 241.267 193.301 241.255C193.099 240.917 192.849 240.624 192.563 240.392C193.097 240.382 193.645 239.973 193.919 239.382C193.536 239.397 193.162 239.252 192.874 238.978C193.12 238.809 193.402 238.73 193.669 238.757C193.494 238.28 193.247 237.848 192.944 237.487C193.219 237.563 193.495 237.638 193.77 237.714C193.504 237.022 193.021 236.477 192.431 236.207C192.798 236.215 193.166 236.224 193.533 236.232C193.278 235.811 193.061 235.353 192.888 234.868C193.19 234.446 193.492 234.025 193.794 233.603C193.403 233.241 192.873 233.098 192.359 233.216C192.846 232.844 193.378 232.715 193.924 232.737C193.589 232.662 193.253 232.587 192.918 232.512C193.286 232.321 193.654 232.131 194.023 231.94C193.714 231.864 193.406 231.787 193.098 231.711C193.325 231.621 193.553 231.531 193.78 231.441C193.581 231.383 193.381 231.324 193.182 231.266C193.482 231.171 193.766 230.961 193.981 230.676C193.732 230.453 193.357 230.447 193.068 230.662C193.558 230.128 193.955 229.466 194.22 228.744C193.774 228.985 193.329 229.226 192.883 229.466C193.383 229.249 193.797 228.695 193.925 228.074C193.716 228.117 193.511 228.227 193.338 228.391C193.529 228.258 193.691 228.055 193.795 227.818C193.566 227.804 193.337 227.789 193.108 227.774C193.175 227.923 193.405 227.744 193.378 227.574C193.351 227.404 193.185 227.335 193.039 227.352C193.419 227.102 193.823 226.915 194.236 226.799C193.697 226.26 192.911 226.094 192.194 226.368C192.737 226.258 193.273 226.031 193.77 225.701C193.382 225.344 192.871 225.182 192.36 225.253C192.718 225.154 193.059 224.91 193.315 224.571C193.056 224.507 192.796 224.443 192.537 224.379C192.671 224.232 192.806 224.084 192.94 223.936C192.692 223.876 192.482 223.669 192.384 223.389C192.613 223.144 192.841 222.898 193.069 222.653C192.488 222.637 191.889 222.803 191.345 223.132C191.635 222.431 191.925 221.729 192.216 221.028C191.861 221.162 191.506 221.297 191.151 221.431C191.165 221.032 191.267 220.628 191.443 220.272C191.263 220.177 191.082 220.082 190.902 219.986C190.885 219.667 190.992 219.326 191.184 219.082C191.009 219.115 190.83 219.06 190.7 218.932C190.834 218.774 190.968 218.617 191.102 218.46C190.549 218.34 189.927 218.561 189.47 219.039C189.753 217.99 190.188 216.986 190.748 216.091C189.999 216.028 189.196 216.421 188.643 217.12C188.848 216.532 189.054 215.944 189.259 215.357C188.976 215.547 188.692 215.737 188.409 215.927C188.455 215.552 188.42 215.173 188.309 214.838C188.171 214.968 188.034 215.097 187.896 215.227C187.932 214.977 187.968 214.728 188.004 214.479C187.755 214.538 187.521 214.753 187.401 215.035C187.252 214.454 187.031 213.909 186.747 213.421C186.708 213.943 186.596 214.465 186.418 214.959C186.046 214.459 185.726 213.901 185.468 213.298C185.249 213.881 185.114 214.503 185.073 215.123C185.016 214.745 184.851 214.406 184.61 214.176C184.547 214.117 184.458 214.064 184.386 214.123C184.314 214.181 184.383 214.355 184.444 214.28C184.354 214.136 184.397 213.886 184.532 213.774C184.475 214.019 183.935 214.283 183.878 214.528C183.834 214.311 183.715 214.127 183.553 214.029C183.58 214.235 183.607 214.441 183.634 214.646C183.55 214.495 183.392 214.413 183.235 214.439C183.243 214.677 183.251 214.914 183.259 215.151C182.86 214.751 182.57 214.197 182.435 213.575C182.128 214.534 182.193 215.619 182.607 216.428C182.319 216.115 182.083 215.731 181.915 215.301C181.855 215.915 181.879 216.532 181.987 217.116C181.924 216.865 181.757 216.668 181.55 216.596C181.558 216.986 181.64 217.364 181.787 217.693C181.206 217.151 180.837 216.298 180.784 215.373C180.438 216.265 180.432 217.308 180.767 218.124C180.633 217.848 180.427 217.631 180.183 217.506C180.222 217.984 180.304 218.453 180.428 218.899C180.095 218.623 179.695 218.46 179.277 218.43C179.427 218.747 179.7 218.964 180.007 219.01C179.603 218.857 179.147 218.863 178.72 219.028C178.963 219.136 179.206 219.243 179.448 219.351C179.153 219.2 178.813 219.16 178.482 219.235C178.616 219.564 178.75 219.892 178.883 220.221C178.651 219.975 178.38 219.781 178.086 219.651C178.228 220.404 178.369 221.157 178.51 221.91C178.017 221.488 176.898 221.771 176.266 221.891C176.484 221.966 176.685 222.093 176.857 222.265C176.56 222.309 176.264 222.353 175.967 222.398C176.07 222.591 176.257 222.709 176.454 222.707C176.128 222.596 175.779 222.561 175.431 222.606C175.602 223.102 175.773 223.597 175.945 224.093C175.687 223.999 175.429 223.905 175.172 223.811C175.178 224.041 175.184 224.271 175.19 224.501C175.046 224.427 174.921 224.307 174.831 224.155C174.905 224.609 174.98 225.064 175.055 225.518C174.773 225.413 174.342 225.919 174.038 225.923C174.091 226.067 174.144 226.212 174.197 226.356C174.088 226.301 173.978 226.246 173.869 226.191C173.92 226.462 173.971 226.734 174.022 227.005C173.933 226.956 173.811 226.992 173.74 227.09C173.885 227.511 174.031 227.932 174.176 228.352C173.708 228.097 173.33 227.635 173.123 227.063C173.149 228.076 173.48 229.036 174.042 229.723C173.776 229.413 173.457 229.171 173.107 229.011C173.121 229.306 173.189 229.59 173.305 229.838C173.143 229.652 172.928 229.535 172.698 229.511C172.767 229.794 172.907 230.044 173.096 230.22C172.763 229.868 172.11 230.135 171.957 230.685C172.252 230.652 172.546 230.665 172.83 230.724C172.447 230.701 172.039 230.946 171.798 231.343C171.942 231.398 172.101 231.406 172.256 231.364C172.058 231.295 171.838 231.3 171.631 231.379C171.848 231.607 172.066 231.836 172.284 232.065C171.975 232.002 171.665 231.939 171.356 231.876C171.385 232.093 171.496 232.282 171.653 232.379C171.451 232.342 171.248 232.305 171.046 232.268C171.11 232.501 171.174 232.734 171.238 232.968C171.092 232.946 170.945 232.924 170.799 232.903C170.666 233.731 170.775 234.585 171.102 235.273L165.397 262.328Z" fill="#E28E26"/>
            <path id="Vector_2" d="M189.462 252.271C193.632 234.497 192.387 219.003 186.681 217.665C180.975 216.326 172.968 229.649 168.798 247.422C164.627 265.195 165.873 280.689 171.579 282.028C177.285 283.367 185.292 270.044 189.462 252.271Z" fill="#FDBA36"/>
            <path id="Vector_3" opacity="0.47" d="M191.127 224.33C190.614 224.638 190.134 225.017 189.697 225.413C187.469 227.43 185.719 230.2 185.7 233.205C185.685 235.455 186.623 237.583 187.336 239.716C188.736 243.908 189.252 248.698 187.203 252.615C185.469 255.93 182.083 258.27 180.846 261.801C180.33 263.273 180.228 264.852 179.943 266.385C179.658 267.918 179.141 269.49 177.998 270.55C176.854 271.61 174.94 271.963 173.733 270.976C172.972 270.353 172.635 269.359 172.034 268.582C170.27 266.299 168.045 266.612 166.343 267.967C166.497 275.823 168.302 281.259 171.579 282.028C177.285 283.367 185.292 270.044 189.462 252.271C192.094 241.054 192.569 230.746 191.127 224.33Z" fill="#FDE392"/>
            <g id="Group">
            <g id="Group_2">
            <path id="Vector_4" d="M189.572 252.296C187.553 260.904 184.577 268.745 181.193 274.375C177.788 280.041 174.365 282.798 171.553 282.138C168.741 281.479 166.901 277.486 166.372 270.897C165.846 264.349 166.668 256.003 168.688 247.396C170.707 238.789 173.683 230.948 177.066 225.318C180.471 219.652 183.895 216.895 186.707 217.554C189.518 218.214 191.358 222.206 191.888 228.796C192.414 235.343 191.592 243.689 189.572 252.296ZM168.908 247.448C164.759 265.132 165.968 280.595 171.605 281.918C177.241 283.24 185.202 269.929 189.352 252.245C193.501 234.56 192.291 219.097 186.655 217.775C181.019 216.452 173.057 229.764 168.908 247.448Z" fill="#E28E26"/>
            </g>
            <g id="Group_3">
            <path id="Vector_5" d="M188.869 252.41C186.995 260.398 184.246 267.67 181.116 272.914C177.928 278.256 174.714 280.862 172.065 280.253C171.018 280.012 170.106 279.28 169.353 278.075C166.237 273.088 166.202 260.844 169.268 247.608C169.289 247.515 169.311 247.421 169.333 247.328C171.207 239.34 173.956 232.068 177.086 226.823C180.274 221.482 183.489 218.876 186.138 219.484C187.184 219.725 188.097 220.458 188.85 221.663C191.966 226.65 192 238.893 188.935 252.13C188.913 252.223 188.891 252.317 188.869 252.41ZM169.553 247.381C169.531 247.474 169.51 247.566 169.488 247.659C167.976 254.191 167.194 260.559 167.227 266.076C167.26 271.396 168.083 275.615 169.545 277.955C170.265 279.107 171.13 279.806 172.116 280.032C177.387 281.244 184.779 268.85 188.649 252.357C188.671 252.264 188.693 252.172 188.714 252.078C190.227 245.547 191.009 239.178 190.975 233.661C190.943 228.341 190.12 224.123 188.658 221.783C187.938 220.631 187.073 219.932 186.087 219.705C180.816 218.493 173.423 230.888 169.553 247.381Z" fill="#E28E26"/>
            </g>
            <g id="Group_4">
            <path id="Vector_6" d="M188.168 252.523C186.439 259.891 183.916 266.595 181.039 271.454C178.069 276.471 175.063 278.926 172.577 278.368C171.594 278.147 170.735 277.464 170.025 276.338C167.09 271.684 167.018 260.224 169.848 247.82C171.58 240.231 174.157 233.309 177.106 228.328C180.077 223.311 183.082 220.856 185.569 221.414C186.552 221.635 187.41 222.318 188.12 223.444C191.056 228.098 191.127 239.558 188.298 251.962C188.255 252.15 188.212 252.337 188.168 252.523ZM170.197 247.314C170.154 247.499 170.111 247.684 170.069 247.87C168.673 253.99 167.961 259.953 168.009 265.116C168.056 270.093 168.84 274.036 170.217 276.218C170.894 277.291 171.704 277.94 172.627 278.147C177.532 279.248 184.358 267.771 187.948 252.468C187.992 252.283 188.034 252.098 188.077 251.912C189.473 245.793 190.185 239.829 190.136 234.666C190.089 229.689 189.305 225.746 187.929 223.564C187.252 222.491 186.441 221.842 185.519 221.635C180.614 220.534 173.788 232.011 170.197 247.314Z" fill="#E28E26"/>
            </g>
            <g id="Group_5">
            <path id="Vector_7" d="M187.468 252.636C185.884 259.384 183.586 265.521 180.962 269.993C178.209 274.685 175.413 276.99 173.089 276.483C172.17 276.282 171.365 275.649 170.697 274.602C167.942 270.281 167.834 259.603 170.428 248.032C172.013 240.954 174.394 234.49 177.126 229.834C179.88 225.142 182.676 222.837 185 223.344C185.919 223.545 186.724 224.178 187.391 225.225C190.146 229.546 190.254 240.224 187.66 251.796C187.597 252.076 187.533 252.357 187.468 252.636ZM170.84 247.248C170.775 247.524 170.712 247.802 170.649 248.081C168.067 259.598 168.164 270.207 170.888 274.481C171.522 275.475 172.279 276.074 173.137 276.261C177.767 277.272 184.183 266.275 187.439 251.746C190.021 240.229 189.925 229.62 187.2 225.346C186.566 224.352 185.81 223.753 184.951 223.565C180.411 222.574 174.152 233.134 170.84 247.248Z" fill="#E28E26"/>
            </g>
            <g id="Group_6">
            <path id="Vector_8" d="M186.769 252.747C185.331 258.877 183.257 264.447 180.885 268.532C178.349 272.9 175.762 275.054 173.601 274.597C172.745 274.417 171.994 273.834 171.37 272.866C168.795 268.878 168.65 258.982 171.008 248.243C172.451 241.675 174.631 235.671 177.146 231.339C179.682 226.972 182.269 224.818 184.43 225.274C185.286 225.455 186.037 226.037 186.662 227.005C189.236 230.994 189.381 240.889 187.023 251.628C186.941 252.003 186.856 252.376 186.769 252.747ZM171.482 247.182C171.395 247.549 171.311 247.919 171.229 248.292C168.883 258.976 169.016 268.802 171.56 272.743C172.151 273.659 172.853 274.208 173.648 274.376C177.942 275.283 183.842 265.057 186.802 251.58C189.148 240.896 189.015 231.07 186.472 227.128C185.881 226.213 185.178 225.664 184.384 225.496C180.209 224.614 174.514 234.258 171.482 247.182Z" fill="#E28E26"/>
            </g>
            <g id="Group_7">
            <path id="Vector_9" d="M186.073 252.857C184.779 258.369 182.929 263.374 180.808 267.072C178.489 271.115 176.112 273.118 174.113 272.712C173.321 272.551 172.624 272.019 172.042 271.13C169.648 267.474 169.466 258.362 171.588 248.455C172.887 242.395 174.867 236.852 177.166 232.845C179.485 228.802 181.863 226.798 183.861 227.204C184.654 227.365 185.351 227.897 185.933 228.786C188.326 232.442 188.508 241.555 186.386 251.461C186.285 251.93 186.181 252.396 186.073 252.857ZM172.121 247.117C172.014 247.574 171.91 248.036 171.81 248.503C169.699 258.354 169.869 267.397 172.231 271.006C172.779 271.843 173.427 272.342 174.158 272.49C178.117 273.294 183.502 263.839 186.165 251.414C188.275 241.563 188.106 232.519 185.743 228.91C185.195 228.074 184.547 227.574 183.816 227.426C180.006 226.653 174.874 235.382 172.121 247.117Z" fill="#E28E26"/>
            </g>
            <g id="Group_8">
            <path id="Vector_10" d="M185.379 252.966C184.231 257.86 182.602 262.301 180.732 265.611C178.63 269.329 176.462 271.182 174.626 270.827C173.897 270.686 173.253 270.204 172.714 269.394C170.501 266.07 170.282 257.741 172.169 248.667C173.322 243.118 175.104 238.033 177.186 234.35C179.287 230.632 181.456 228.779 183.291 229.134C184.02 229.275 184.664 229.757 185.203 230.567C187.416 233.891 187.635 242.22 185.749 251.294C185.632 251.856 185.508 252.414 185.379 252.966ZM172.759 247.046C172.63 247.596 172.507 248.152 172.39 248.714C170.515 257.732 170.721 265.992 172.903 269.268C173.407 270.026 174.001 270.476 174.669 270.605C176.401 270.94 178.485 269.126 180.535 265.499C182.605 261.836 184.378 256.775 185.527 251.248C187.402 242.23 187.196 233.969 185.015 230.693C184.51 229.935 183.916 229.485 183.248 229.356C181.516 229.022 179.433 230.835 177.383 234.462C175.523 237.753 173.902 242.173 172.759 247.046Z" fill="#E28E26"/>
            </g>
            <g id="Group_9">
            <path id="Vector_11" d="M184.689 253.072C183.685 257.349 182.277 261.229 180.655 264.15C178.771 267.544 176.812 269.246 175.139 268.942C174.473 268.821 173.883 268.389 173.386 267.658C171.354 264.667 171.098 257.12 172.749 248.88C173.758 243.839 175.341 239.214 177.205 235.856C179.09 232.462 181.049 230.76 182.722 231.064C183.387 231.184 183.977 231.617 184.474 232.348C186.506 235.339 186.762 242.885 185.112 251.126C184.98 251.782 184.839 252.432 184.689 253.072ZM173.392 246.985C173.242 247.623 173.102 248.27 172.971 248.924C171.331 257.109 171.573 264.586 173.574 267.531C174.035 268.21 174.575 268.61 175.179 268.719C176.749 269.004 178.623 267.342 180.457 264.04C182.31 260.702 183.885 256.1 184.89 251.082C186.529 242.897 186.287 235.419 184.287 232.475C183.825 231.796 183.285 231.396 182.681 231.287C181.111 231.002 179.237 232.664 177.403 235.966C175.792 238.869 174.391 242.728 173.392 246.985Z" fill="#E28E26"/>
            </g>
            <g id="Group_10">
            <path id="Vector_12" d="M184.004 253.174C183.144 256.837 181.953 260.157 180.578 262.689C178.911 265.758 177.162 267.309 175.652 267.057C175.049 266.956 174.513 266.574 174.058 265.922C172.207 263.263 171.914 256.5 173.329 249.092C174.194 244.561 175.578 240.395 177.225 237.362C178.892 234.293 180.641 232.741 182.152 232.994C182.754 233.094 183.29 233.476 183.745 234.129C185.596 236.788 185.889 243.551 184.474 250.959C184.331 251.708 184.174 252.448 184.004 253.174ZM174.02 246.928C173.85 247.651 173.694 248.387 173.551 249.134C172.147 256.486 172.426 263.18 174.244 265.792C174.663 266.393 175.149 266.744 175.689 266.834C177.096 267.069 178.762 265.558 180.379 262.581C182.016 259.567 183.391 255.424 184.252 250.916C185.656 243.565 185.377 236.87 183.559 234.258C183.141 233.658 182.655 233.307 182.114 233.217C180.707 232.982 179.041 234.492 177.424 237.47C176.059 239.984 174.875 243.285 174.02 246.928Z" fill="#E28E26"/>
            </g>
            </g>
            <path id="Vector_13" d="M179.473 233.85C177.474 226.889 177.548 219.346 179.685 212.426C178.433 212.868 177.366 213.81 176.771 214.997C176.353 213.58 175.568 212.274 174.513 211.24C174.899 215.098 173.041 218.84 172.876 222.714C172.68 227.332 174.883 231.689 177.246 235.661L179.473 233.85Z" fill="#1E2937"/>
            <path id="Vector_14" d="M178.188 237.189C173.344 231.806 170.11 224.992 169.002 217.835C168.07 218.781 167.523 220.096 167.507 221.423C166.511 220.332 165.233 219.501 163.832 219.034C165.869 222.334 165.836 226.511 167.383 230.066C169.228 234.304 173.116 237.257 176.979 239.793L178.188 237.189Z" fill="#1E2937"/>
            <path id="Vector_15" d="M174.637 265.013C174.637 265.013 168.33 263.65 164.94 262.738C161.55 261.826 159.366 261.151 158.003 257.622C156.709 254.272 156.864 249.099 158.098 243.342C159.333 237.585 162.091 232.767 164.495 231.936C166.899 231.104 178.818 233.32 178.818 233.32C178.818 233.32 185.393 238.002 182.445 250.566C179.497 263.13 174.637 265.013 174.637 265.013Z" fill="#E28E26"/>
            <path id="Vector_16" d="M168.79 248.063C169.855 241.94 168.867 237.647 167.161 234.473C166.386 233.03 165.401 232.083 164.146 232.102C162.164 232.13 159.27 237.867 158.072 243.452C156.838 249.209 156.699 254.314 157.977 257.732C158.482 259.082 159.202 260.134 160.156 260.534C160.847 260.825 161.69 260.59 162.64 260.132C165.575 258.715 167.644 254.654 168.79 248.063Z" fill="#FDE392"/>
            <path id="Vector_17" d="M168.868 262.049C170.798 260.634 173.416 257.308 174.93 249.503C176.402 241.923 175.174 237.562 173.884 235.239C172.933 233.527 171.813 232.642 171.193 232.251C170.705 232.191 170.219 232.135 169.742 232.085C170.4 232.45 171.584 233.289 172.594 234.973C173.955 237.243 175.272 241.56 173.813 249.236C173.688 249.895 173.555 250.523 173.415 251.119C171.827 257.888 169.344 260.714 167.465 261.892C166.43 262.54 165.48 262.758 164.782 262.812C164.826 262.824 164.87 262.836 164.914 262.848C165.337 262.962 165.805 263.082 166.3 263.207C166.987 263.078 167.89 262.766 168.868 262.049Z" fill="#E28E26"/>
            <path id="Vector_18" d="M176.76 235.606C177.935 238.086 179.016 242.613 177.497 250.101C177.399 250.582 177.297 251.047 177.192 251.496C175.636 258.127 173.282 261.331 171.526 262.864C170.903 263.408 170.312 263.783 169.79 264.042C172.339 264.632 174.611 265.123 174.611 265.123C174.611 265.123 179.471 263.24 182.419 250.676C185.367 238.112 178.792 233.43 178.792 233.43C178.792 233.43 177.059 233.108 174.782 232.756C175.364 233.325 176.112 234.238 176.76 235.606Z" fill="#EDC594"/>
            <path id="Vector_19" d="M169.657 250.664C169.832 249.918 169.993 249.132 170.139 248.308C171.231 242.163 170.711 237.521 168.594 234.51C167.423 232.845 166.035 232.129 165.263 231.841C165.173 231.849 165.086 231.858 165.004 231.87C165.685 232.088 167.221 232.755 168.501 234.575C170.601 237.561 171.114 242.174 170.028 248.288C168.877 254.769 166.733 258.981 163.826 260.467C162.554 261.118 161.374 261.123 160.569 260.996C160.635 261.044 160.703 261.091 160.771 261.137C161.581 261.231 162.69 261.175 163.876 260.569C166.486 259.236 168.426 255.909 169.657 250.664Z" fill="#EDC594"/>
            <path id="Vector_20" d="M170.922 250.754C171.081 250.078 171.23 249.359 171.369 248.597C172.786 240.799 171.308 236.624 169.819 234.494C168.584 232.727 167.134 232.035 166.508 231.805C166.393 231.803 166.28 231.802 166.171 231.803L166.168 231.815C166.188 231.82 168.132 232.279 169.727 234.559C171.203 236.671 172.667 240.817 171.257 248.576C169.776 256.743 167.045 259.775 165.014 260.881C163.37 261.777 161.902 261.59 161.247 261.431C161.359 261.495 161.473 261.556 161.59 261.615C162.362 261.736 163.651 261.752 165.066 260.982C166.928 259.969 169.372 257.361 170.922 250.754Z" fill="#EDC594"/>
            <path id="Vector_21" d="M172.175 250.909C172.325 250.271 172.466 249.597 172.598 248.885C174.035 241.151 172.637 236.905 171.21 234.706C170.051 232.918 168.684 232.153 168.059 231.878C167.933 231.869 167.809 231.861 167.687 231.853L167.686 231.856C167.705 231.861 169.587 232.411 171.115 234.767C172.53 236.95 173.917 241.167 172.487 248.864C170.979 256.998 168.242 260.117 166.212 261.3C164.441 262.332 162.903 262.099 162.421 261.986C162.593 262.054 162.769 262.12 162.95 262.183C163.687 262.25 164.911 262.188 166.266 261.4C168.139 260.309 170.606 257.597 172.175 250.909Z" fill="#EDC594"/>
            <path id="Vector_22" d="M173.43 251.056C173.57 250.46 173.703 249.832 173.828 249.174C175.285 241.502 173.965 237.187 172.601 234.917C171.589 233.234 170.402 232.395 169.744 232.029C169.642 232.019 169.54 232.008 169.439 231.998C169.981 232.258 171.358 233.065 172.509 234.984C173.86 237.237 175.166 241.523 173.716 249.153C173.591 249.811 173.459 250.437 173.319 251.032C171.742 257.752 169.282 260.557 167.421 261.722C166.215 262.477 165.13 262.638 164.435 262.642C164.552 262.674 164.671 262.707 164.791 262.74C165.49 262.686 166.441 262.469 167.477 261.821C169.357 260.645 171.843 257.821 173.43 251.056Z" fill="#EDC594"/>
            <path id="Vector_23" d="M168.925 262.147C170.726 260.831 173.117 257.877 174.672 251.252C174.801 250.702 174.924 250.126 175.041 249.524C176.52 241.911 175.282 237.524 173.983 235.184C173.113 233.618 172.099 232.733 171.444 232.283C171.36 232.272 171.276 232.262 171.193 232.251C171.813 232.643 172.933 233.527 173.884 235.239C175.174 237.563 176.402 241.923 174.93 249.503C173.416 257.308 170.798 260.634 168.868 262.049C167.89 262.766 166.987 263.078 166.3 263.207C166.383 263.227 166.466 263.248 166.55 263.269C167.215 263.114 168.041 262.794 168.925 262.147Z" fill="#EDC594"/>
            <path id="Vector_24" d="M170.226 262.505C172.003 261.082 174.376 258.005 175.93 251.379C176.048 250.878 176.161 250.356 176.269 249.813C177.768 242.262 176.608 237.805 175.371 235.395C174.622 233.934 173.752 233.027 173.127 232.509C173.055 232.499 172.982 232.489 172.91 232.479C173.529 232.962 174.467 233.88 175.271 235.447C176.499 237.841 177.651 242.272 176.158 249.791C174.635 257.465 172.059 260.889 170.165 262.41C169.366 263.051 168.62 263.415 168.005 263.623C168.072 263.639 168.139 263.655 168.207 263.671C168.797 263.453 169.491 263.094 170.226 262.505Z" fill="#EDC594"/>
            <path id="Vector_25" d="M166.635 235.694C166.635 235.694 165.966 233.095 164.029 233.92C162.092 234.744 159.179 240.223 158.275 246.058C157.331 252.149 158.358 255.612 159.707 257.789C161.057 259.966 163.02 259.032 163.642 258.363C164.263 257.695 166.635 235.694 166.635 235.694Z" fill="#E28E26"/>
            <path id="Vector_26" d="M163.641 258.363C163.641 258.363 157.67 253.59 159.557 245.545C161.445 237.499 166.635 235.694 166.635 235.694C166.635 235.694 168.976 240.56 167.77 247.704C166.278 256.54 163.641 258.363 163.641 258.363Z" fill="#FDBA36"/>
            <path id="Vector_27" d="M169.08 263.808L174.758 265.373C174.758 265.373 180.287 264.183 183.39 250.958C186.493 237.733 180.673 233.476 180.673 233.476L174.39 232.335C174.39 232.335 180.092 238.556 177.553 249.82C174.715 262.41 169.08 263.808 169.08 263.808Z" fill="#253243"/>
            <path id="Vector_28" opacity="0.47" d="M161.55 251.691C159.604 251.674 160.152 242.438 163.658 241.063C167.164 239.689 165.556 251.728 161.55 251.691Z" fill="#FDE392"/>
            <path id="Vector_29" d="M170.156 263.82L174.637 265.013C174.637 265.013 179.571 263.123 181.386 255.771L176.746 254.593C176.746 254.593 174.662 261.569 170.156 263.82Z" fill="#3A526D"/>
            </g>
        </TMPL_IF>
        </g>
    <path class="invisible" id="Anim5" d="M214.483 248.189C227.535 242.032 216.141 192.299 214.017 171.311" stroke="<TMPL_VAR NAME="SKIN_COLOR">" stroke-width="4"/>
    <path class="invisible" id="Anim7" d="M220.137 228C194.137 233 199.637 263 202.637 281.5" stroke="<TMPL_VAR NAME="SKIN_COLOR">" stroke-width="4"/>
    <path class="invisible" id="Anim6" d="M221 228.5C233 241 225.637 271.5 225.637 286.5" stroke="<TMPL_VAR NAME="SKIN_COLOR">" stroke-width="4"/>
        </g>
</svg>
